<svg xmlns="http://www.w3.org/2000/svg" xmlns:xlink="http://www.w3.org/1999/xlink" viewBox="0 0 600 220"><defs><style>.cls-1{fill:url(#未命名漸層_8);}.cls-2{fill:url(#未命名漸層_8-2);}.cls-3{fill:url(#未命名漸層_8-3);}.cls-4{fill:url(#未命名漸層_8-4);}.cls-5{fill:url(#未命名漸層_8-5);}.cls-6{fill:url(#未命名漸層_8-6);}.cls-7{fill:url(#未命名漸層_8-7);}.cls-8{fill:url(#未命名漸層_8-8);}.cls-9{fill:none;}</style><linearGradient id="未命名漸層_8" x1="82.04" y1="151" x2="648.69" y2="151" gradientUnits="userSpaceOnUse"><stop offset="0" stop-color="#7e5925"/><stop offset="0.07" stop-color="#886532"/><stop offset="0.2" stop-color="#a18554"/><stop offset="0.37" stop-color="#cab78b"/><stop offset="0.51" stop-color="#f0e7be"/><stop offset="1" stop-color="#f0e7be"/></linearGradient><linearGradient id="未命名漸層_8-2" x1="82.04" y1="186.6" x2="648.69" y2="186.6" xlink:href="#未命名漸層_8"/><linearGradient id="未命名漸層_8-3" x1="82.04" y1="178.17" x2="648.69" y2="178.17" xlink:href="#未命名漸層_8"/><linearGradient id="未命名漸層_8-4" x1="82.04" y1="163.89" x2="648.69" y2="163.89" xlink:href="#未命名漸層_8"/><linearGradient id="未命名漸層_8-5" x1="82.04" y1="178.81" x2="648.69" y2="178.81" xlink:href="#未命名漸層_8"/><linearGradient id="未命名漸層_8-6" x1="82.04" y1="198.48" x2="648.69" y2="198.48" xlink:href="#未命名漸層_8"/><linearGradient id="未命名漸層_8-7" x1="82.04" y1="179.03" x2="648.69" y2="179.03" xlink:href="#未命名漸層_8"/><linearGradient id="未命名漸層_8-8" x1="81.97" y1="70.96" x2="648.62" y2="70.96" xlink:href="#未命名漸層_8"/></defs><title>資產 3</title><g id="圖層_2" data-name="圖層 2"><g id="圖層_1-2" data-name="圖層 1"><path class="cls-1" d="M131.76,154.72h65a.11.11,0,0,0,.11-.1v-7.23a.11.11,0,0,0-.11-.11h-65a.11.11,0,0,0-.11.11v7.23A.11.11,0,0,0,131.76,154.72Z"/><path class="cls-2" d="M198.74,204.88a1.22,1.22,0,0,0-1.22-1.21H176.94a3.54,3.54,0,0,1-2.89-2.36,2.23,2.23,0,0,1-.13-.69V169.7h24.54a.11.11,0,0,0,.11-.11v-7.23a.11.11,0,0,0-.11-.11H130.15a.1.1,0,0,0-.1.11v7.23a.1.1,0,0,0,.1.11H151.7l-21.12,39.45a.93.93,0,0,0-.05.1,1.29,1.29,0,0,0-.1.48,1.21,1.21,0,0,0,1.21,1.22h6.79a.13.13,0,0,0,.1-.06l22.08-41.19h5.56v30.77a10.3,10.3,0,0,0,10,10.5l15.53,0a7.16,7.16,0,0,0,7-5.86v0A1.1,1.1,0,0,0,198.74,204.88Z"/><path class="cls-3" d="M290.64,163.45a1.21,1.21,0,0,0-1.21-1.21h-32.2V145.52a.11.11,0,0,0-.11-.11h-7.65a.11.11,0,0,0-.11.11v16.72H219.78a.11.11,0,0,0-.11.11v7.17a.11.11,0,0,0,.11.11h27.4L218.74,209l-.08.13a1.25,1.25,0,0,0-.15.58,1.21,1.21,0,0,0,1.22,1.22h6.89a.1.1,0,0,0,.08-.05l24.43-33.55a2.74,2.74,0,0,1,4.7.08l24.36,33.47a.14.14,0,0,0,.09.05h6.9a1.22,1.22,0,0,0,1.21-1.22,1.25,1.25,0,0,0-.23-.71l0,0-28.41-39.34h23.74a7.32,7.32,0,0,0,7.17-6h0A.91.91,0,0,0,290.64,163.45Z"/><path class="cls-4" d="M422.05,169a.11.11,0,0,0,.11.11h7.06a.11.11,0,0,0,.11-.11v-9.91a.89.89,0,0,1,.25-.7,1,1,0,0,1,.62-.24h4.9v15.07s0,0,0,0a.81.81,0,0,1-.26.58,1,1,0,0,1-.68.24h-11.6a.11.11,0,0,0-.08,0,.09.09,0,0,0,0,.07v6.61a.11.11,0,0,0,.11.11h11.57a8.86,8.86,0,0,0,5.91-2.3,6.53,6.53,0,0,0,2.37-4.7v-.18a.36.36,0,0,0,0-.12V158.17h6.48v15.46s0,0,0,.06v.23a6.5,6.5,0,0,0,2.38,4.69,8.7,8.7,0,0,0,5.86,2.3h11.61a.1.1,0,0,0,.11-.11v-6.61a.1.1,0,0,0-.11-.1H457.18a1.08,1.08,0,0,1-.69-.24.78.78,0,0,1-.25-.56V158.17h4.85a.91.91,0,0,1,.63.24.87.87,0,0,1,.25.68V169a.09.09,0,0,0,0,.07.12.12,0,0,0,.08,0h7.06a.11.11,0,0,0,.11-.11v-9.81a7.56,7.56,0,0,0-2.46-5.66,8.31,8.31,0,0,0-5.82-2.21H449.18V147a.11.11,0,0,0-.11-.11H442a.11.11,0,0,0-.11.11v4.33l-19.7,0a.1.1,0,0,0-.11.11Z"/><path class="cls-5" d="M419.55,157.26H412.3v-10.5a.11.11,0,0,0-.11-.11h-6.95a.11.11,0,0,0-.11.11v10.5h-7.79a.1.1,0,0,0-.11.11V164a.1.1,0,0,0,.11.11h7.79v16.33L397.42,185a.13.13,0,0,0-.06.1V191h0a1.21,1.21,0,0,0,1.21,1.19,1.16,1.16,0,0,0,.61-.16h0l5.94-3.49v2.85c0,3.41,0,8.64,0,9.91-.06,1.49-.82,2.53-1.9,2.6H397.4a.11.11,0,0,0-.08,0,.11.11,0,0,0,0,.07v6.85a.11.11,0,0,0,.11.11H404l.09,0c4.58-.36,8.18-4.58,8.19-9.6v0c0-.39,0-10,0-14.58v-2.39l7.23-4.25a.11.11,0,0,0,.05-.09v-5.88h0a1.21,1.21,0,0,0-1.21-1.21,1.18,1.18,0,0,0-.62.17h0l-5.45,3.2V164.15h7.25a.12.12,0,0,0,.11-.11v-6.67A.12.12,0,0,0,419.55,157.26Z"/><path class="cls-6" d="M470,205.14a1.21,1.21,0,0,0-1.21-1.21H448.82V192.86H469a.11.11,0,0,0,.11-.11V186.1A.11.11,0,0,0,469,186H421.32a.11.11,0,0,0-.11.11v6.65a.11.11,0,0,0,.11.11h20.17v11.07H421.32a.11.11,0,0,0-.11.11v6.82a.1.1,0,0,0,.11.11h41.79a6.88,6.88,0,0,0,6.83-5.63h0A1.15,1.15,0,0,0,470,205.14Z"/><path class="cls-7" d="M380.61,171.58h0l-11.45-16.34h0c-.07-.13-.31-.46-1-1.48L366.89,152l0,0a.61.61,0,0,1-.11-.14,8.81,8.81,0,0,0-3.42-3.19,12.4,12.4,0,0,0-5.73-1.41H319.74a.11.11,0,0,0-.08,0,.11.11,0,0,0,0,.07v6.12l-12.78,18.11h0a1.21,1.21,0,0,0,1,1.91h6.59a.11.11,0,0,0,.09-.05l2-2.78h23.87v9.14H314.77a.11.11,0,0,0-.11.11v6.65a.11.11,0,0,0,.11.11h25.57V204H331c-.4-.66-4.33-7.76-6.43-11.54a.13.13,0,0,0-.1-.06h-6.85a1.21,1.21,0,0,0-1.21,1.21,1.18,1.18,0,0,0,.17.62l5.44,9.76H309.7a.11.11,0,0,0-.11.11v6.65a.11.11,0,0,0,.11.11h61.53a7,7,0,0,0,7-5.43,0,0,0,0,0,0,0,.78.78,0,0,0,0-.22,1.21,1.21,0,0,0-1.21-1.21H365.76l5.44-9.77h0a1.16,1.16,0,0,0,.16-.59,1.21,1.21,0,0,0-1.21-1.21H363.3a.13.13,0,0,0-.1.06L356.77,204h-8.95V186.68H373a.11.11,0,0,0,.11-.11v-6.65a.11.11,0,0,0-.11-.11H347.82v-9.14H371l2,2.78a.12.12,0,0,0,.09.05h6.55a1.21,1.21,0,0,0,1-1.91Zm-59.29-7.78,6.85-9.7h30.56a2.32,2.32,0,0,1,.61.13l.29.23h0c.17.27,1.14,1.65,6.55,9.34Z"/><path class="cls-8" d="M306.41,29.84h0v-2.1h0a1.25,1.25,0,0,1,1.25-1.25l.17,0h.05a44.87,44.87,0,0,1,34.56,29.67h0a1.21,1.21,0,0,1,.06.38,1.25,1.25,0,0,1-1.24,1.25H313.71a1.2,1.2,0,0,1-.89-.74h0l-2.15-5.26A60.54,60.54,0,0,1,306.41,29.84ZM280.9,72.35h0v0h0a1.39,1.39,0,0,0,.09-.46,1.25,1.25,0,0,0-1.25-1.25H256.46a1.24,1.24,0,0,0-1.24,1.23v.05a44.63,44.63,0,0,0,12,29.21l0,0a1.22,1.22,0,0,0,.88.37,1.25,1.25,0,0,0,1.16-.77h0Zm39.5,36.89h0s0,0,0,0L306.34,75l0,0a6.81,6.81,0,0,0-12.45-.45L279.6,109.21h0a1.29,1.29,0,0,0-.1.48,1.22,1.22,0,0,0,.63,1.07.1.1,0,0,0,.05,0,44.89,44.89,0,0,0,39.63,0h0a1.25,1.25,0,0,0,.66-1.1,1.18,1.18,0,0,0-.09-.46Zm24.38-37.32v0h0a1.25,1.25,0,0,0-1.25-1.25H320.25A1.24,1.24,0,0,0,319,71.87a1.09,1.09,0,0,0,.1.48h0l11.65,28.39h0a1.24,1.24,0,0,0,1.15.76,1.2,1.2,0,0,0,.86-.35.12.12,0,0,0,.05,0A44.6,44.6,0,0,0,344.78,71.92Zm-86-14.1h27.36a1.21,1.21,0,0,0,1.05-.77h0l2.16-5.26a60.51,60.51,0,0,0,4.26-21.94h0v-2.1h0a1.24,1.24,0,0,0-1.24-1.25l-.17,0h-.06a44.86,44.86,0,0,0-34.54,29.66v0a1.21,1.21,0,0,0-.06.38A1.25,1.25,0,0,0,258.77,57.82Z"/><rect class="cls-9" width="600" height="220"/></g></g></svg>