<svg xmlns="http://www.w3.org/2000/svg" viewBox="0 0 1026.53 87.56"><defs><style>.cls-1{fill:#fff;}</style></defs><title>資產 1</title><g id="圖層_2" data-name="圖層 2"><g id="圖層_1-2" data-name="圖層 1"><path class="cls-1" d="M126.17,19.49h64a.1.1,0,0,0,.11-.1V12.27a.11.11,0,0,0-.11-.11h-64a.11.11,0,0,0-.1.11v7.12A.1.1,0,0,0,126.17,19.49Z"/><path class="cls-1" d="M192.12,68.88a1.19,1.19,0,0,0-1.19-1.2H170.66a3.51,3.51,0,0,1-2.85-2.32,2.57,2.57,0,0,1-.13-.68V34.24h24.16a.11.11,0,0,0,.11-.11V27a.11.11,0,0,0-.11-.11H124.59a.1.1,0,0,0-.1.11v7.11a.1.1,0,0,0,.1.11h21.22c-.15.27-16.79,31.35-20.8,38.84a.54.54,0,0,0-.05.11,1.18,1.18,0,0,0,1.1,1.66h6.68a.12.12,0,0,0,.1,0l21.74-40.56h5.47v30.3a10.15,10.15,0,0,0,9.88,10.34l15.3,0a7.06,7.06,0,0,0,6.88-5.78h0A1.09,1.09,0,0,0,192.12,68.88Z"/><path class="cls-1" d="M282.61,28.09a1.19,1.19,0,0,0-1.19-1.2H249.71V10.43a.11.11,0,0,0-.1-.11h-7.53a.11.11,0,0,0-.11.11V26.89H212.84a.11.11,0,0,0-.11.11v7.07a.11.11,0,0,0,.11.1h27L211.82,73a.42.42,0,0,0-.08.12,1.14,1.14,0,0,0-.15.58,1.19,1.19,0,0,0,1.2,1.19h6.78a.1.1,0,0,0,.09,0l24-33a2.71,2.71,0,0,1,4.64.08l24,33a.1.1,0,0,0,.09,0h6.79a1.19,1.19,0,0,0,1.19-1.19,1.22,1.22,0,0,0-.23-.7l0,0c-5.6-7.76-27.77-38.45-28-38.74h23.37a7.21,7.21,0,0,0,7.06-5.9v0A.81.81,0,0,0,282.61,28.09Z"/><path class="cls-1" d="M412,33.57a.11.11,0,0,0,.11.11h6.95a.11.11,0,0,0,.11-.11V23.81a.86.86,0,0,1,.24-.68.92.92,0,0,1,.61-.25h4.83V37.72s0,0,0,0a.8.8,0,0,1-.26.57,1,1,0,0,1-.67.23H412.52a.1.1,0,0,0-.11.11v6.5a.11.11,0,0,0,.11.11h11.39A8.67,8.67,0,0,0,429.72,43a6.43,6.43,0,0,0,2.34-4.64V38.2a.39.39,0,0,0,0-.12V22.89h6.38V38.17a1.35,1.35,0,0,1,0,.23A6.45,6.45,0,0,0,440.8,43a8.62,8.62,0,0,0,5.78,2.26H458a.1.1,0,0,0,.11-.11v-6.5a.1.1,0,0,0-.11-.11H446.6a1,1,0,0,1-.68-.23.79.79,0,0,1-.26-.56V22.89h4.78a.91.91,0,0,1,.62.24.84.84,0,0,1,.24.66v9.76a.09.09,0,0,0,0,.07.11.11,0,0,0,.08,0h6.95a.1.1,0,0,0,.11-.1V23.89a7.48,7.48,0,0,0-2.42-5.57,8.2,8.2,0,0,0-5.74-2.18h-11.6V11.87a.11.11,0,0,0-.11-.11h-7a.11.11,0,0,0-.11.11v4.26l-19.4,0a.11.11,0,0,0-.11.11Z"/><path class="cls-1" d="M409.54,22H402.4V11.65a.11.11,0,0,0-.11-.1h-6.83a.11.11,0,0,0-.11.1V22h-7.68a.11.11,0,0,0-.11.11v6.57a.11.11,0,0,0,.11.11h7.68V44.85l-7.6,4.47a.11.11,0,0,0-.05.09v5.8h0a1.2,1.2,0,0,0,1.19,1.18,1.22,1.22,0,0,0,.6-.16h0l5.86-3.44c0,.42,0,1.47,0,2.8v9.76c-.06,1.47-.82,2.5-1.88,2.56h-5.73a.1.1,0,0,0-.11.11v6.74a.11.11,0,0,0,.11.1h6l.05,0h.53l.09,0c4.51-.35,8.05-4.5,8.07-9.45v0c0-.39,0-9.82,0-14.36V48.65l7.12-4.19a.11.11,0,0,0,.06-.09V38.58h0a1.19,1.19,0,0,0-1.19-1.19,1.26,1.26,0,0,0-.61.16h0l-5.37,3.16V28.78h7.14a.1.1,0,0,0,.1-.11V22.1A.1.1,0,0,0,409.54,22Z"/><path class="cls-1" d="M459.17,69.14a1.19,1.19,0,0,0-1.19-1.2H438.36V57h19.86a.11.11,0,0,0,.11-.11V50.39a.11.11,0,0,0-.11-.11H411.28a.1.1,0,0,0-.1.11v6.54a.1.1,0,0,0,.1.11h19.87v10.9H411.28a.1.1,0,0,0-.1.11v6.72a.11.11,0,0,0,0,.08.09.09,0,0,0,.07,0h41.15a6.78,6.78,0,0,0,6.73-5.54h0A1.09,1.09,0,0,0,459.17,69.14Z"/><path class="cls-1" d="M371.2,36.09h0L359.93,20h0c-.06-.13-.3-.46-1-1.46l-1.21-1.73s0,0-.05,0l-.1-.13a8.61,8.61,0,0,0-3.37-3.15,12.28,12.28,0,0,0-5.64-1.38H311.26a.09.09,0,0,0-.07,0,.12.12,0,0,0,0,.08v6L298.57,36.08h0a1.25,1.25,0,0,0-.21.69,1.19,1.19,0,0,0,1.19,1.2H306a.1.1,0,0,0,.08,0l1.94-2.74h23.49v9H306.37a.1.1,0,0,0-.1.1v6.55a.1.1,0,0,0,.1.11h25.17V68h-9.15c-.39-.66-4.27-7.64-6.33-11.37a.11.11,0,0,0-.09-.05h-6.75A1.19,1.19,0,0,0,308,57.74a1.23,1.23,0,0,0,.16.61L313.55,68H301.38a.1.1,0,0,0-.11.1v6.55a.11.11,0,0,0,.11.11H362a6.88,6.88,0,0,0,6.86-5.35v0a.75.75,0,0,0,0-.21,1.19,1.19,0,0,0-1.19-1.2H356.58l5.36-9.62h0a1.15,1.15,0,0,0,.15-.59,1.19,1.19,0,0,0-1.19-1.19h-6.75a.12.12,0,0,0-.09.05L347.73,68h-8.82V51h24.81a.11.11,0,0,0,.11-.11V44.3a.11.11,0,0,0-.11-.1H338.91v-9h22.83l1.94,2.74a.11.11,0,0,0,.09,0h6.45a1.19,1.19,0,0,0,1.2-1.19A1.23,1.23,0,0,0,371.2,36.09Zm-58.38-7.66,6.74-9.55h30.1a2,2,0,0,1,.6.13l.28.23h0c.17.26,1.13,1.62,6.45,9.19Z"/><path class="cls-1" d="M644.1,44.29c-4.7,0-8.39-1.4-10.37-3.95-1.71-2.25-2-5.24-.85-8.45,1.24-3.4,3.42-6,7-8.3a24.26,24.26,0,0,1,13.44-4.09c4.39,0,7.67,1.44,9.23,4.05l.58,1,1.51-4.15a.1.1,0,0,1,.1-.07h6a.1.1,0,0,1,.09,0,.12.12,0,0,1,0,.1c-.76,2.1-7.77,21.36-8.37,23a.12.12,0,0,1-.1.07h-6a.1.1,0,0,1-.09,0,.09.09,0,0,1,0-.1l0-.14a1.53,1.53,0,0,0-.17-1.3,1.26,1.26,0,0,0-1-.44,2.35,2.35,0,0,0-1,.24h0A23.09,23.09,0,0,1,644.1,44.29Zm8.79-20.22a15.67,15.67,0,0,0-9.4,3.07,11.14,11.14,0,0,0-3.85,5,5.11,5.11,0,0,0,.27,4.46c1.18,2,3.86,3.15,7.17,3.15h.24a15.23,15.23,0,0,0,9.18-3,10.91,10.91,0,0,0,3.77-4.87,5.47,5.47,0,0,0-.23-4.79c-1.13-1.9-3.64-3-6.89-3Z"/><path class="cls-1" d="M737.21,44.29c-4.71,0-8.39-1.4-10.37-3.95-1.72-2.25-2-5.25-.85-8.45,1.24-3.4,3.41-6,7-8.3a24.2,24.2,0,0,1,13.43-4.09c4.39,0,7.67,1.44,9.24,4.05l.57,1,1.51-4.15a.1.1,0,0,1,.1-.07h6a.09.09,0,0,1,.08,0,.12.12,0,0,1,0,.1l-8.38,23a.1.1,0,0,1-.1.07h-6a.1.1,0,0,1-.09,0,.09.09,0,0,1,0-.09l.05-.14a1.47,1.47,0,0,0-.17-1.3,1.25,1.25,0,0,0-1-.44,2.28,2.28,0,0,0-1,.24h0A23,23,0,0,1,737.21,44.29ZM746,24.07a15.7,15.7,0,0,0-9.4,3.07,11.19,11.19,0,0,0-3.84,5,5.08,5.08,0,0,0,.27,4.46c1.18,2,3.85,3.15,7.16,3.15h.25a15.25,15.25,0,0,0,9.18-3,10.88,10.88,0,0,0,3.76-4.87,5.44,5.44,0,0,0-.22-4.79c-1.13-1.9-3.65-3-6.9-3Z"/><path class="cls-1" d="M606.54,44.29c-4.17,0-7-1-9.24-3.27-1.52-1.6-1.72-4.34-.56-7.54l4.78-13.12a.09.09,0,0,1,.1-.07h6.53a.1.1,0,0,1,.09,0,.09.09,0,0,1,0,.1l-4.09,11.24c-.69,1.9-1.25,3.85-.68,5.3.68,1.72,2.87,2.75,5.86,2.75,8.3,0,10.51-6.06,11.24-8l4.12-11.31a.09.09,0,0,1,.1-.07h6.53a.1.1,0,0,1,.09,0,.09.09,0,0,1,0,.1c-.82,2.27-7.77,21.34-8.37,23a.12.12,0,0,1-.1.07h-5.81a.09.09,0,0,1-.08,0,.12.12,0,0,1,0-.1,1.29,1.29,0,0,0-.08-1.15,1,1,0,0,0-.87-.41,1.86,1.86,0,0,0-.83.21A17.46,17.46,0,0,1,606.54,44.29Z"/><path class="cls-1" d="M692.21,43.5a.12.12,0,0,1-.09,0,.13.13,0,0,1,0-.09l4.1-11.25c.69-1.89,1.25-3.85.67-5.29-.68-1.72-2.87-2.75-5.85-2.75-8.31,0-10.51,6.05-11.24,8,0,0-3.62,10-4.12,11.32a.1.1,0,0,1-.1.07H669a.11.11,0,0,1-.09,0,.07.07,0,0,1,0-.09c.76-2.1,7.77-21.36,8.37-23a.1.1,0,0,1,.1-.07h5.8a.1.1,0,0,1,.09,0,.12.12,0,0,1,0,.1,1.26,1.26,0,0,0,.09,1.15,1,1,0,0,0,.87.41,1.94,1.94,0,0,0,.83-.22,17.54,17.54,0,0,1,8.73-2.27c4.17,0,7,1,9.24,3.27,1.52,1.59,1.72,4.34.56,7.54l-4.78,13.12a.12.12,0,0,1-.1.07Z"/><path class="cls-1" d="M707.64,43.5a.12.12,0,0,1-.09,0,.13.13,0,0,1,0-.09l6.93-19h-3.73a.11.11,0,0,1-.1-.14l1.4-3.83a.1.1,0,0,1,.1-.07h3.8s2.49-6.85,2.94-8.07a.1.1,0,0,1,.1-.07h6.61a.11.11,0,0,1,.09,0,.11.11,0,0,1,0,.1l-2.91,8h4.62a.1.1,0,0,1,.09,0,.12.12,0,0,1,0,.1l-1.39,3.83a.12.12,0,0,1-.1.07h-4.7l-6.95,19.1a.12.12,0,0,1-.1.07Z"/><path class="cls-1" d="M570,43.5a.11.11,0,0,1-.09,0,.07.07,0,0,1,0-.09l4.18-11.48L566,13.26a.74.74,0,0,1-.07-.32.79.79,0,0,1,.78-.79h7.37a.12.12,0,0,1,.1.07c.29.71,2.51,5.71,4.57,10.35,0,0,0,0,0,0A2.31,2.31,0,0,0,581,24a5,5,0,0,0,3-1.12c5.38-4.59,11.88-10.14,12.48-10.67a.11.11,0,0,1,.07,0H603a.79.79,0,0,1,.78.79.78.78,0,0,1-.28.6l0,0L582.11,31.88l-4.2,11.55a.12.12,0,0,1-.1.07Z"/><path class="cls-1" d="M530.1,74.84a.11.11,0,0,1-.1-.14c.77-2.1,7.78-21.36,8.38-23a.1.1,0,0,1,.1-.07h6.61a.13.13,0,0,1,.09,0,.09.09,0,0,1,0,.1c-.78,2.15-7.79,21.39-8.37,23a.12.12,0,0,1-.1.07Z"/><path class="cls-1" d="M692.4,74.84a.13.13,0,0,1-.09,0,.12.12,0,0,1,0-.1l8.37-23a.12.12,0,0,1,.1-.07h6.62a.15.15,0,0,1,.09,0,.12.12,0,0,1,0,.1c-.76,2.08-7.72,21.21-8.38,23a.1.1,0,0,1-.1.07Z"/><path class="cls-1" d="M744.33,74.84a.11.11,0,0,1-.1-.14c.76-2.07,11.34-31.14,11.34-31.14a.1.1,0,0,1,.1-.07h6.62a.1.1,0,0,1,.08,0,.12.12,0,0,1,0,.1s-10.93,30-11.34,31.13a.12.12,0,0,1-.1.07Z"/><path class="cls-1" d="M594.15,75.63c-4.7,0-8.38-1.4-10.37-3.95-1.71-2.25-2-5.25-.85-8.45a16.22,16.22,0,0,1,7.06-8.3,24.2,24.2,0,0,1,13.43-4.09c4.39,0,7.67,1.44,9.23,4l.58,1,1.51-4.15a.12.12,0,0,1,.1-.07h6a.13.13,0,0,1,.09,0,.09.09,0,0,1,0,.1c-.76,2.1-7.77,21.36-8.37,23a.12.12,0,0,1-.1.07h-6a.13.13,0,0,1-.09,0,.12.12,0,0,1,0-.1l0-.14a1.45,1.45,0,0,0-.17-1.29,1.23,1.23,0,0,0-1-.45,2.28,2.28,0,0,0-1,.24h-.06A23,23,0,0,1,594.15,75.63Zm3.22-4.57a15.23,15.23,0,0,0,9.18-3,10.86,10.86,0,0,0,3.77-4.87,5.47,5.47,0,0,0-.23-4.79c-1.13-1.9-3.64-3-6.9-3H603a15.65,15.65,0,0,0-9.41,3.08,11,11,0,0,0-3.84,5,5.08,5.08,0,0,0,.27,4.46c1.17,2,3.85,3.15,7.16,3.15h.24Z"/><path class="cls-1" d="M719.37,75.63c-4.7,0-8.39-1.4-10.37-3.95-1.71-2.25-2-5.25-.85-8.45,1.24-3.4,3.42-6,7.06-8.3a24.2,24.2,0,0,1,13.43-4.09c4.39,0,7.67,1.44,9.23,4l.58,1L740,51.7a.12.12,0,0,1,.1-.07h6a.13.13,0,0,1,.09,0,.09.09,0,0,1,0,.1c-.76,2.1-7.77,21.36-8.37,23a.12.12,0,0,1-.1.07h-6a.13.13,0,0,1-.09,0,.12.12,0,0,1,0-.1l0-.14a1.45,1.45,0,0,0-.17-1.29,1.23,1.23,0,0,0-1-.45,2.21,2.21,0,0,0-1,.24h-.06A23,23,0,0,1,719.37,75.63Zm3.22-4.57a15.26,15.26,0,0,0,9.19-3,10.9,10.9,0,0,0,3.76-4.87,5.44,5.44,0,0,0-.23-4.79c-1.13-1.9-3.64-3-6.9-3h-.24a15.65,15.65,0,0,0-9.41,3.08,11,11,0,0,0-3.84,5,5.08,5.08,0,0,0,.27,4.46c1.17,2,3.85,3.15,7.16,3.15h.24Z"/><path class="cls-1" d="M567,74.84a.13.13,0,0,1-.09,0,.12.12,0,0,1,0-.1L571,63.45c.69-1.89,1.25-3.85.68-5.29-.68-1.72-2.88-2.75-5.86-2.75-8.3,0-10.51,6.06-11.23,8,0,0-3.82,10.48-4.13,11.32a.1.1,0,0,1-.1.07h-6.53a.13.13,0,0,1-.09,0,.09.09,0,0,1,0-.1c.76-2.1,7.77-21.36,8.37-23a.12.12,0,0,1,.1-.07H558a.1.1,0,0,1,.09,0,.09.09,0,0,1,0,.1,1.32,1.32,0,0,0,.09,1.15,1,1,0,0,0,.87.41,1.78,1.78,0,0,0,.83-.22,17.6,17.6,0,0,1,8.74-2.27c4.16,0,7,1,9.23,3.27,1.52,1.59,1.72,4.34.56,7.54l-4.78,13.12a.1.1,0,0,1-.1.07Z"/><path class="cls-1" d="M642.52,74.84a.13.13,0,0,1-.09,0,.12.12,0,0,1,0-.1l4.1-11.25c.69-1.89,1.25-3.85.68-5.29-.69-1.72-2.88-2.75-5.86-2.75-8.31,0-10.51,6.05-11.24,8,0,0-3.62,10-4.12,11.32a.1.1,0,0,1-.1.07h-6.53a.13.13,0,0,1-.09,0,.12.12,0,0,1,0-.1c.8-2.19,7.79-21.37,8.38-23a.12.12,0,0,1,.1-.07h5.8a.1.1,0,0,1,.09,0,.12.12,0,0,1,0,.1,1.29,1.29,0,0,0,.09,1.15,1,1,0,0,0,.87.41,1.78,1.78,0,0,0,.83-.22,17.59,17.59,0,0,1,8.73-2.27c4.17,0,7,1,9.24,3.27,1.52,1.59,1.72,4.34.56,7.54l-4.78,13.12a.11.11,0,0,1-.1.07Z"/><path class="cls-1" d="M904.07,74.72a.11.11,0,0,1-.09,0,.12.12,0,0,1,0-.1l8.37-23a.12.12,0,0,1,.1-.07h6.62a.1.1,0,0,1,.08,0,.1.1,0,0,1,0,.09c-.47,1.3-3.31,9.08-5.56,15.26l-2.82,7.75a.1.1,0,0,1-.1.07Z"/><path class="cls-1" d="M878.24,75.51c-4.7,0-8.39-1.41-10.37-4-1.71-2.24-2-5.24-.85-8.44,1.24-3.41,3.42-6,7.05-8.31a24.34,24.34,0,0,1,13.44-4.09c4.39,0,7.67,1.44,9.23,4.06l.57.95,4.47-12.28a.12.12,0,0,1,.1-.07h6.62a.09.09,0,0,1,.08,0,.1.1,0,0,1,0,.1L897.26,74.65a.1.1,0,0,1-.1.07h-6.61a.11.11,0,0,1-.09,0,.09.09,0,0,1,0-.1l.07-.19a1.42,1.42,0,0,0-.2-1.25,1.22,1.22,0,0,0-1-.44,2.3,2.3,0,0,0-1,.25h-.05A23.15,23.15,0,0,1,878.24,75.51Zm3.22-4.58a15.28,15.28,0,0,0,9.18-3,10.88,10.88,0,0,0,3.77-4.88,5.47,5.47,0,0,0-.23-4.79c-1.13-1.9-3.64-3-6.9-3H887a15.66,15.66,0,0,0-9.4,3.08,11.14,11.14,0,0,0-3.85,5,5.09,5.09,0,0,0,.27,4.45c1.18,2,3.86,3.15,7.17,3.15h.24Z"/><path class="cls-1" d="M850.17,74.72a.11.11,0,0,1-.09,0,.12.12,0,0,1,0-.1l2.31-6.35,9-24.78a.12.12,0,0,1,.1-.07h6.62a.11.11,0,0,1,.09,0,.12.12,0,0,1,0,.1c-.35,1-11.34,31.14-11.34,31.14a.1.1,0,0,1-.1.07Z"/><path class="cls-1" d="M798.37,74.72a.11.11,0,0,1-.09,0,.09.09,0,0,1,0-.1l4.81-13.22H787c-1.58,4.35-3.47,9.51-4.36,12l-.49,1.34a.12.12,0,0,1-.11.07h-7.5a.11.11,0,0,1-.09,0,.12.12,0,0,1,0-.1c.53-1.42,5.19-14.25,8.39-23a.1.1,0,0,1,0,0l2.93-8.05a.12.12,0,0,1,.1-.07h7.49a.1.1,0,0,1,.09,0,.12.12,0,0,1,0,.1c-.38,1.06-2.49,6.84-4.78,13.13h16.1s4.66-12.8,4.8-13.2a.12.12,0,0,1,.1-.07h7.49a.11.11,0,0,1,.09,0,.12.12,0,0,1,0,.1S806.14,74.12,806,74.65a.12.12,0,0,1-.11.07Z"/><path class="cls-1" d="M940.9,74.72a.11.11,0,0,1-.09,0,.12.12,0,0,1,0-.1l4.09-11.24c.69-1.9,1.25-3.85.68-5.3-.68-1.72-2.87-2.75-5.86-2.75-8.3,0-10.51,6.06-11.23,8,0,0-3.66,10-4.12,11.32a.12.12,0,0,1-.1.07h-6.54a.11.11,0,0,1-.1-.15c.76-2.1,7.78-21.35,8.38-23a.1.1,0,0,1,.1-.07h5.79a.11.11,0,0,1,.09,0,.1.1,0,0,1,0,.09,1.32,1.32,0,0,0,.08,1.16,1,1,0,0,0,.87.4,1.93,1.93,0,0,0,.84-.21,17.46,17.46,0,0,1,8.73-2.28c4.17,0,7,1,9.24,3.27,1.51,1.6,1.72,4.35.55,7.55,0,0-4.26,11.69-4.77,13.12a.12.12,0,0,1-.11.07Z"/><path class="cls-1" d="M1002.83,75.12c-1.6,0-3.23-.08-4.84-.24s-3.2-.37-4.79-.64a.13.13,0,0,1-.07,0,.11.11,0,0,1,0-.1l1.35-3.69a.79.79,0,0,1,.73-.52.87.87,0,0,1,.28.05h0a20.19,20.19,0,0,0,3.21.91,23.07,23.07,0,0,0,4.33.4,17.81,17.81,0,0,0,5.75-.83c1.62-.56,2.57-1.26,2.88-2.13.38-1-1.09-2.33-4.34-3.89-.45-.21-.77-.37-1-.49-3.21-1.47-5.32-2.71-6.24-3.68a2.94,2.94,0,0,1-.76-3.26c.73-2,2.83-3.65,6.25-4.93a34.86,34.86,0,0,1,12.24-1.94,41,41,0,0,1,4.51.25,33.89,33.89,0,0,1,4.09.7.08.08,0,0,1,.07.05.1.1,0,0,1,0,.09l-1.29,3.53v0a.79.79,0,0,1-.74.52.7.7,0,0,1-.31-.07s0,0,0,0a12.12,12.12,0,0,0-2.49-.81,21.71,21.71,0,0,0-4.5-.4,15.31,15.31,0,0,0-5.09.77,4,4,0,0,0-2.63,2c-.4,1.07,1,2.31,4.16,3.76.7.32,1.12.5,1.4.62,3,1.34,5,2.57,5.93,3.65a3.36,3.36,0,0,1,.73,3.59c-.75,2-2.85,3.68-6.25,4.91A37.67,37.67,0,0,1,1002.83,75.12Z"/><path class="cls-1" d="M827.51,75.55c-5.12,0-9.27-1.73-11.39-4.76a8,8,0,0,1-.81-7.59c1.23-3.37,4.13-6.51,8.19-8.84a27.2,27.2,0,0,1,13.38-3.61c5,0,9.14,1.7,11.21,4.66a8.31,8.31,0,0,1,.8,7.79C846.41,70,836.82,75.55,827.51,75.55Zm7.16-19.65a15.73,15.73,0,0,0-7.62,2.24,10,10,0,0,0-4.59,5.06,4.82,4.82,0,0,0,.46,4.54c1.19,1.7,3.54,2.67,6.46,2.67,5.54,0,10.85-3.1,12.35-7.21a4.87,4.87,0,0,0-.46-4.58C840.06,56.89,837.65,55.9,834.67,55.9Z"/><path class="cls-1" d="M965.6,86.54c-7.17,0-12.41-3.56-12.75-8.67v-.05a.78.78,0,0,1,.78-.77h5.46a.1.1,0,0,1,.1.07c.75,2.6,4,4.28,8.17,4.28,5.94,0,11.53-2.85,13.28-6.78l.07-.19a1.45,1.45,0,0,0-.17-1.29,1.23,1.23,0,0,0-1-.45,2.37,2.37,0,0,0-1,.25h0a23.19,23.19,0,0,1-10.06,2.56c-4.7,0-8.39-1.41-10.37-4-1.71-2.24-2-5.24-.85-8.44,1.24-3.41,3.42-6,7.06-8.31a24.28,24.28,0,0,1,13.43-4.09c4.39,0,7.67,1.44,9.23,4.06l.58,1L989,51.57a.12.12,0,0,1,.1-.07h6a.11.11,0,0,1,.09,0,.07.07,0,0,1,0,.09l-8.4,23.08a.06.06,0,0,1,0,0C984,81.37,974.69,86.54,965.6,86.54Zm6.06-15.61a15.31,15.31,0,0,0,9.19-3,11,11,0,0,0,3.76-4.88,5.47,5.47,0,0,0-.23-4.79c-1.13-1.9-3.64-3-6.9-3h-.25a15.68,15.68,0,0,0-9.4,3.08,11,11,0,0,0-3.84,5,5,5,0,0,0,.27,4.45c1.17,2,3.85,3.15,7.16,3.15h.24Z"/><path class="cls-1" d="M494.89,74.84a.13.13,0,0,1-.09,0,.12.12,0,0,1,0-.1c.6-1.65,5.31-14.6,8.48-23.3a12,12,0,0,1,5.18-5.8,12.9,12.9,0,0,1,7.75-2.11h19.2a.11.11,0,0,1,.09,0,.09.09,0,0,1,0,.1s-.79,2.16-.8,2.21-.06.14-.83,2.28a.12.12,0,0,1-.1.07H514.61a4.38,4.38,0,0,0-3.45,2.45l-2.24,6.16h19.31a.79.79,0,0,1,.79.79.81.81,0,0,1-.1.39s0,0,0,0l0,0a7.59,7.59,0,0,1-5.52,3.45.11.11,0,0,1-.07,0H507.2c-1.5,4.11-4.44,12.2-4.82,13.25a.11.11,0,0,1-.1.07Z"/><path class="cls-1" d="M670.81,75.63c-4.36,0-8.36-1.32-10.69-3.55s-3.11-5.52-1.83-9c2.45-6.74,12.09-12.22,21.49-12.22,6.26,0,11.28,2.7,12.51,6.72,0,0,0,0,0,0v0a1.11,1.11,0,0,1,0,.17.78.78,0,0,1-.7.78h-6.87a.11.11,0,0,1-.09,0c-1.07-2.09-3.24-3.11-6.66-3.11-5.85,0-11.27,3.25-12.91,7.74a5.35,5.35,0,0,0,.42,5.08c1.28,1.82,3.84,2.83,7.21,2.83a14.42,14.42,0,0,0,8.47-3l.06,0h6a.8.8,0,0,1,.65.77.77.77,0,0,1-.2.52s0,0-.07.08A26.79,26.79,0,0,1,670.81,75.63Z"/><path class="cls-1" d="M50.4,3.29h0V1.23h0A1.23,1.23,0,0,1,51.62,0h.21a44.16,44.16,0,0,1,34,29.21h0a1.59,1.59,0,0,1,.06.38,1.23,1.23,0,0,1-1.23,1.23h-27l-.11,0h0a1.23,1.23,0,0,1-.88-.73h0l-2.12-5.18A59.72,59.72,0,0,1,50.4,3.29ZM25.29,45.15h0v0h0a1.13,1.13,0,0,0,.09-.45,1.23,1.23,0,0,0-1.23-1.23H1.23A1.23,1.23,0,0,0,0,44.67v0A44,44,0,0,0,11.78,73.48l0,0a1.2,1.2,0,0,0,.87.37,1.21,1.21,0,0,0,1.13-.76h0ZM64.18,81.48h0s0,0,0,0L50.33,47.73l0,0a6.7,6.7,0,0,0-12.26-.44L24,81.45h0a1.2,1.2,0,0,0-.1.47A1.22,1.22,0,0,0,24.53,83l0,0a44.19,44.19,0,0,0,39,0h0a1.24,1.24,0,0,0,.65-1.08,1.34,1.34,0,0,0-.09-.45Zm24-36.75v0h0A1.23,1.23,0,0,0,87,43.45H64a1.23,1.23,0,0,0-1.23,1.23,1.12,1.12,0,0,0,.1.48h0l11.47,28h0a1.23,1.23,0,0,0,1.13.75,1.26,1.26,0,0,0,.86-.35l0,0A44,44,0,0,0,88.19,44.73ZM3.49,30.85h27a1.22,1.22,0,0,0,1-.76h0l2.13-5.19a59.41,59.41,0,0,0,4.19-21.6h0V1.23h0A1.23,1.23,0,0,0,36.57,0h-.22a44.17,44.17,0,0,0-34,29.2v0a1.1,1.1,0,0,0-.06.37A1.23,1.23,0,0,0,3.49,30.85Z"/></g></g></svg>