<svg xmlns="http://www.w3.org/2000/svg" version="1.1" id="Layer_1" x="0" y="0" viewBox="-80.8 165.9 459.2 87.6" style="enable-background:new -80.8 165.9 459.2 87.6" xml:space="preserve"><style>.st0{fill:#fff}</style><path class="st0" d="M45.4 185.4h64c.1 0 .1 0 .1-.1v-7.1c0-.1 0-.1-.1-.1h-64c-.1 0-.1 0-.1.1v7.1c0 .1 0 .1.1.1zM111.3 234.8c0-.7-.5-1.2-1.2-1.2H89.8c-1.3-.1-2.4-1.2-2.8-2.3-.1-.2-.1-.5-.1-.7v-30.5h24.2c.1 0 .1 0 .1-.1v-7c0-.1 0-.1-.1-.1H43.8c-.1 0-.1 0-.1.1v7.1c0 .1 0 .1.1.1H65c-.1.3-16.8 31.4-20.8 38.8v.1c-.1.1-.1.3-.1.5 0 .7.5 1.2 1.2 1.2H52s.1 0 .1-.1c0 0 21.7-40.4 21.7-40.6h5.5v30.3c0 5.7 4.4 10.3 9.9 10.3h15.3c3.4 0 6.4-2.6 6.9-5.8-.1 0-.1 0-.1-.1zM201.8 194c0-.7-.5-1.2-1.2-1.2h-31.7v-16.5c0-.1 0-.1-.1-.1h-7.5c-.1 0-.1 0-.1.1v16.5h-29.1c-.1 0-.1 0-.1.1v7.1c0 .1 0 .1.1.1h27c-.2.3-22.4 31.1-28 38.8l-.1.1c-.1.2-.1.4-.1.6 0 .7.5 1.2 1.2 1.2H139l24-33c1.3-1.7 3.3-1.7 4.6.1l24 33H198.5c.7 0 1.2-.5 1.2-1.2 0-.3-.1-.5-.2-.7-5.6-7.8-27.8-38.4-28-38.7h23.4c3.5 0 6.5-2.6 7.1-5.9-.2-.3-.2-.3-.2-.4zM331.2 199.5c0 .1 0 .1.1.1h7c.1 0 .1 0 .1-.1v-9.8c0-.1 0-.5.2-.7.2-.2.5-.2.6-.2h4.8v14.8c0 .1 0 .4-.3.6-.2.2-.5.2-.7.2h-11.6v6.6c0 .1 0 .1.1.1h11.4c1 0 3.6-.2 5.8-2.3 2.1-2 2.3-3.9 2.3-4.6v-15.5h6.4V204.2c0 .7.2 2.7 2.3 4.6 2.2 2 4.8 2.3 5.8 2.3H377v-6.6c0-.1 0-.1-.1-.1h-11.4c-.1 0-.5 0-.7-.2-.2-.2-.3-.5-.3-.6v-14.8h4.7c.1 0 .4 0 .6.2.3.2.2.6.2.7v9.9h7.1c.1 0 .1 0 .1-.1v-9.7s.2-3.1-2.4-5.6c-1.5-1.4-3.4-2.2-5.7-2.2h-11.6v-4.3c0-.1 0-.1-.1-.1h-7c-.1 0-.1 0-.1.1v4.3h-19.4c-.1 0-.1 0-.1.1l.4 17.4zM328.8 187.9h-7.1v-10.3c0-.1 0-.1-.1-.1h-6.8c-.1 0-.1 0-.1.1v10.3H307c-.1 0-.1 0-.1.1v6.6c0 .1 0 .1.1.1h7.7v16.1c-.5.3-4.4 2.6-7.6 4.5l-.1.1v5.8c0 .7.5 1.2 1.2 1.2.2 0 .4-.1.6-.2l5.9-3.4V231.4c-.1 1.5-.8 2.5-1.9 2.6H307v6.8c0 .1 0 .1.1.1H313.8c4.5-.4 8.1-4.5 8.1-9.5v-16.8l7.1-4.2.1-.1v-5.8c0-.7-.5-1.2-1.2-1.2-.2 0-.4.1-.6.2l-5.4 3.2v-11.9h7.1c.1 0 .1 0 .1-.1V188c-.2 0-.3-.1-.3-.1zM378.4 235.1c0-.7-.5-1.2-1.2-1.2h-19.6V223h19.9c.1 0 .1 0 .1-.1v-6.5c0-.1 0-.1-.1-.1h-46.9c-.1 0-.1 0-.1.1v6.5c0 .1 0 .1.1.1h19.9v10.9h-19.9c-.1 0-.1 0-.1.1v6.8h41.2c3.4 0 6.2-2.4 6.7-5.5v-.2zM290.4 202l-11.3-16c-.1-.1-.3-.5-1-1.5l-1.2-1.7-.1-.1c-.1-.2-1-1.8-3.4-3.1-2.3-1.3-4.9-1.4-5.6-1.4H230.4v6.1c-.5.7-9.3 13.2-12.6 17.8-.1.2-.2.4-.2.7 0 .7.5 1.2 1.2 1.2h6.6c.3-.4 1-1.4 1.9-2.7h23.5v9h-25.2c-.1 0-.1 0-.1.1v6.5c0 .1 0 .1.1.1h25.2v17h-9.2c-.4-.7-4.3-7.6-6.3-11.4l-.1-.1h-6.7c-.7 0-1.2.5-1.2 1.2 0 .2.1.4.2.6l5.4 9.6h-12.2c-.1 0-.1 0-.1.1v6.5c0 .1 0 .1.1.1h60.6c3.4 0 6.3-2.3 6.9-5.3v-.2c0-.7-.5-1.2-1.2-1.2h-11.1l5.4-9.6c.1-.2.2-.4.2-.6 0-.7-.5-1.2-1.2-1.2h-6.7s-.1 0-.1.1l-6.3 11.4h-8.8v-17h24.8c.1 0 .1 0 .1-.1v-6.5c0-.1 0-.1-.1-.1h-24.8v-9H281c.9 1.3 1.6 2.3 1.9 2.7h6.6c.7 0 1.2-.5 1.2-1.2-.1-.3-.2-.6-.3-.8zm-58.4-7.6s6.6-9.3 6.7-9.6h30.1c.2 0 .5.1.6.1l.3.2c.2.3 1.1 1.6 6.5 9.2H232zM-30.4 169.2v-2.1c0-.7.5-1.2 1.2-1.2H-28.9c15.9 2.8 28.9 14.2 34 29.2 0 .1.1.2.1.4 0 .7-.5 1.2-1.2 1.2h-27.1c-.4-.1-.7-.4-.9-.7l-2.1-5.2c-3-7.6-4.3-14.9-4.3-21.6zm-25.1 41.9c.1-.2.1-.3.1-.5 0-.7-.5-1.2-1.2-1.2h-22.9c-.7 0-1.2.5-1.2 1.2.3 11.1 4.7 21.2 11.8 28.8.2.2.5.4.9.4.5 0 .9-.3 1.1-.8l11.4-27.9zm38.9 36.3-13.8-33.7v-.1c-1-2.5-3.4-4.2-6.2-4.2-2.7 0-4.9 1.5-6 3.8l-14 34.2c-.1.1-.1.3-.1.5 0 .5.2.8.6 1.1h.1c5.9 2.9 12.5 4.5 19.5 4.5s13.6-1.6 19.5-4.5c.4-.2.6-.6.6-1.1-.1-.2-.2-.3-.2-.5zm24-36.7s0-.1 0 0c0-.1 0-.1 0 0 0-.7-.5-1.3-1.2-1.3h-22.9c-.7 0-1.2.5-1.2 1.2 0 .2 0 .3.1.5l11.5 28c.2.4.6.8 1.1.8.3 0 .6-.1.9-.3 7-7.8 11.4-17.8 11.7-28.9zm-84.7-13.9h27c.5 0 .9-.3 1-.8l2.1-5.2c2.9-7.6 4.2-14.9 4.2-21.6v-2.1c0-.7-.5-1.2-1.2-1.2H-44.5c-15.9 2.8-28.9 14.2-34 29.2 0 .1-.1.2-.1.4.1.7.6 1.3 1.3 1.3z"/></svg>