<svg xmlns="http://www.w3.org/2000/svg" xmlns:xlink="http://www.w3.org/1999/xlink" viewBox="0 0 185.41 37.8"><defs><linearGradient id="未命名漸層_5" x1="26.95" y1="10.9" x2="48.74" y2="10.9" gradientUnits="userSpaceOnUse"><stop offset="0" stop-color="#dbdcdc"/><stop offset=".19" stop-color="#d5d6d6"/><stop offset=".44" stop-color="#c3c4c4"/><stop offset=".74" stop-color="#a7a7a7"/><stop offset="1" stop-color="#888"/></linearGradient><linearGradient id="未命名漸層_5-2" x1="46.02" y1="8.13" x2="46.02" y2="29.56" xlink:href="#未命名漸層_5"/><linearGradient id="未命名漸層_5-3" x1="29.65" y1="29.99" x2="29.65" y2="8.47" gradientTransform="rotate(-90 29.65 19.09)" xlink:href="#未命名漸層_5"/><linearGradient id="未命名漸層_5-4" x1="48.63" y1="27.27" x2="25.89" y2="27.27" xlink:href="#未命名漸層_5"/><linearGradient id="未命名漸層_5-5" x1="33.95" y1="18.54" x2="41.23" y2="18.54" xlink:href="#未命名漸層_5"/><linearGradient id="未命名漸層_5-6" x1="37.19" y1="18.54" x2="38" y2="18.54" gradientTransform="rotate(-90 37.595 18.545)" xlink:href="#未命名漸層_5"/><style>.cls-9{fill:#717071}</style></defs><g id="圖層_2" data-name="圖層 2"><g id="圖層_1-2" data-name="圖層 1"><path d="M166.51 37.8H18.9A18.9 18.9 0 0 1 0 18.9 18.9 18.9 0 0 1 18.9 0h147.61a18.9 18.9 0 0 1 18.9 18.9 18.9 18.9 0 0 1-18.9 18.9Z" style="fill:#fff"/><path d="M28.36 8.19h19a1.4 1.4 0 0 1 1.4 1.4v4H27v-4a1.4 1.4 0 0 1 1.36-1.4Z" style="fill:url(#未命名漸層_5);opacity:.75"/><path d="M43.31 30V8.19h3.1a2.32 2.32 0 0 1 2.32 2.32v14.05Z" style="fill:url(#未命名漸層_5-2);opacity:.75"/><path d="M18.75 16.38h21.8v4a1.41 1.41 0 0 1-1.41 1.41h-19a1.41 1.41 0 0 1-1.41-1.41v-4Z" transform="rotate(90 29.65 19.09)" style="fill:url(#未命名漸層_5-3);opacity:.75"/><path d="M43.31 30H29.24A2.29 2.29 0 0 1 27 27.7v-3.14h21.74Z" style="fill:url(#未命名漸層_5-4);opacity:.75"/><path style="fill:#ea6011" d="M43.33 24.58v5.4l5.36-5.36-5.36-.04z"/><path style="fill:url(#未命名漸層_5-5);opacity:.75" d="M33.95 18.14h7.29v.81h-7.29z"/><path transform="rotate(90 37.595 18.545)" style="fill:url(#未命名漸層_5-6);opacity:.75" d="M33.95 18.14h7.28v.81h-7.28z"/><path class="cls-9" d="M70.08 13.59c0 2.86-.08 5.67-.21 8.4a29.2 29.2 0 0 1-.42 4.74 1.88 1.88 0 0 1-.79 1 3.49 3.49 0 0 1-1.81.36c-.42 0-.83 0-1.24-.05l-.49-1.73c.53 0 1 .05 1.31.05.83 0 1.31-.25 1.44-.74s.28-3.94.43-10.34H66q-.28 8.37-3.44 12.91l-1.49-1.05q3.12-4.62 3.16-11.86h-2.7v-1.7h2.74l.07-2.83h1.76l-.1 2.84Zm8 14.52h-1.74v-1.38h-3.23v1.36h-1.72V12.32h6.68ZM76.34 25V14.06h-3.23V25ZM98.4 26.85 97 28.16q-5.65-4.93-7.21-10.77A18.92 18.92 0 0 1 82.15 28l-1.28-1.39a18.19 18.19 0 0 0 4.42-4.11 18.56 18.56 0 0 0 2.84-5.32 15.76 15.76 0 0 0 1-3.79L89 13h-2.35v-1.74h4.06A20.74 20.74 0 0 0 93 20.51a21.81 21.81 0 0 0 5.4 6.34ZM106.84 11.45a17.66 17.66 0 0 1-5.29 4.71l-.85-1.7a14.29 14.29 0 0 0 4.42-3.8Zm.41 3.66a29.87 29.87 0 0 1-2 2.93v10.07h-1.84v-7.95a12.55 12.55 0 0 1-2 1.64l-.71-1.8a16.66 16.66 0 0 0 4.85-5.62Zm10.82 3h-2.66v8c0 1.31-.72 2-2.15 2-.91 0-1.81 0-2.68-.06l-.66-1.79h3.07a.58.58 0 0 0 .37-.16.52.52 0 0 0 .18-.4v-7.6h-6.45v-1.7h11Zm-.49-5h-10v-1.7h10ZM137.92 22.86h-1.38v2.51h-6.38v1.23a1.39 1.39 0 0 1-.37 1 1.48 1.48 0 0 1-.86.47 27 27 0 0 1-3 .08l-.53-1.5 2.65-.05a.31.31 0 0 0 .22-.13.31.31 0 0 0 .11-.23v-.85h-6.51V24h6.51v-1.14h-7.68v-1.34h7.72v-1.08h-6.51v-1.32h6.51v-1.06h-6.17v-3.7h6.17v-1.07h-7.55v-1.37h7.55v-1.11h1.74v1.11h7.53v1.37h-7.53v1.07h6.2v3.7h-6.2v1.06h6.38v2.4h1.38Zm-9.5-6.08v-1.15H124v1.15Zm6.14 0v-1.15h-4.4v1.15Zm.24 4.74v-1.08h-4.64v1.08Zm0 2.52v-1.18h-4.64V24ZM157.62 12.68h-14.45v8.47a15.46 15.46 0 0 1-1.52 7L140.26 27a12.31 12.31 0 0 0 1.19-5.36V11.26h16.17Zm-7.42 5.52-.7 1.26c-.7-.53-1.22-.92-1.56-1.16v2.39h-1.56v-2.12a15.33 15.33 0 0 1-2.12 2.1l-.83-1.3a9.91 9.91 0 0 0 2.43-2.4h-2.1v-1.34h2.62v-.85c-.69.05-1.37.09-2.06.11l-.62-1.38a29.32 29.32 0 0 0 5.78-.53l.64 1.25a12.28 12.28 0 0 1-2.18.33v1.07H150V17h-1.85a15.73 15.73 0 0 1 2.05 1.2Zm6.23 9.91h-1.72v-.67h-8.25v.65h-1.7v-6.84h11.67Zm-1.72-4.48v-.94h-8.25v.94Zm0 2.39V25h-8.25v1Zm3-6.63-.91 1.28a20.79 20.79 0 0 0-2.14-1.84v1.86h-1.58v-2a10.78 10.78 0 0 1-2.08 1.92l-.85-1.22a11.82 11.82 0 0 0 2.5-2.39h-1.9v-1.37h2.38v-.83h-2l-.63-1.36a24.75 24.75 0 0 0 6-.53l.7 1.3a18.66 18.66 0 0 1-2.46.42v1h2.77V17h-2.77v.24a21.73 21.73 0 0 1 3.02 2.15Z"/></g></g></svg>