<svg xmlns="http://www.w3.org/2000/svg" xmlns:xlink="http://www.w3.org/1999/xlink" viewBox="0 0 21.8 21.81"><defs><style>.cls-1,.cls-2,.cls-3,.cls-4,.cls-6,.cls-7{opacity:0.75;}.cls-1{fill:url(#未命名漸層_5);}.cls-2{fill:url(#未命名漸層_5-2);}.cls-3{fill:url(#未命名漸層_5-3);}.cls-4{fill:url(#未命名漸層_5-4);}.cls-5{fill:#eb6112;}.cls-6{fill:url(#未命名漸層_5-5);}.cls-7{fill:url(#未命名漸層_5-6);}</style><linearGradient id="未命名漸層_5" x1="0.02" y1="2.71" x2="21.8" y2="2.71" gradientUnits="userSpaceOnUse"><stop offset="0" stop-color="#dcdddd"/><stop offset="0.19" stop-color="#d6d7d7"/><stop offset="0.44" stop-color="#c4c5c5"/><stop offset="0.74" stop-color="#a8a8a8"/><stop offset="1" stop-color="#898989"/></linearGradient><linearGradient id="未命名漸層_5-2" x1="19.09" y1="-0.05" x2="19.09" y2="21.37" xlink:href="#未命名漸層_5"/><linearGradient id="未命名漸層_5-3" x1="2.71" y1="21.81" x2="2.71" y2="0.28" gradientTransform="translate(-8.19 13.61) rotate(-90)" xlink:href="#未命名漸層_5"/><linearGradient id="未命名漸層_5-4" x1="21.69" y1="19.09" x2="-1.04" y2="19.09" xlink:href="#未命名漸層_5"/><linearGradient id="未命名漸層_5-5" x1="7.01" y1="10.36" x2="14.3" y2="10.36" xlink:href="#未命名漸層_5"/><linearGradient id="未命名漸層_5-6" x1="10.25" y1="10.36" x2="11.06" y2="10.36" gradientTransform="translate(0.29 21.01) rotate(-90)" xlink:href="#未命名漸層_5"/></defs><title>資產 1</title><g id="圖層_2" data-name="圖層 2"><g id="圖層_1-2" data-name="圖層 1"><path class="cls-1" d="M1.42,0h19a1.4,1.4,0,0,1,1.4,1.4v4a0,0,0,0,1,0,0H0a0,0,0,0,1,0,0v-4A1.4,1.4,0,0,1,1.42,0Z"/><path class="cls-2" d="M16.38,21.81V0h3.09A2.32,2.32,0,0,1,21.8,2.32V16.38Z"/><path class="cls-3" d="M-8.19,8.19H13.61a0,0,0,0,1,0,0v4a1.41,1.41,0,0,1-1.41,1.41h-19A1.41,1.41,0,0,1-8.19,12.2v-4a0,0,0,0,1,0,0Z" transform="translate(13.61 8.19) rotate(90)"/><path class="cls-4" d="M16.38,21.8H2.3A2.29,2.29,0,0,1,0,19.51V16.38H21.8Z"/><polygon class="cls-5" points="16.39 16.39 16.39 21.8 21.75 16.44 16.39 16.39"/><rect class="cls-6" x="7.01" y="9.95" width="7.29" height="0.81"/><rect class="cls-7" x="7.01" y="9.95" width="7.28" height="0.81" transform="translate(21.01 -0.29) rotate(90)"/></g></g></svg>