<svg xmlns="http://www.w3.org/2000/svg" viewBox="0 0 207.5 207.5"><defs><style>.cls-2{fill:#fff}</style></defs><g id="圖層_2" data-name="圖層 2"><g id="圖層_1-2" data-name="圖層 1"><circle cx="103.75" cy="103.75" r="103.75" transform="rotate(-45 103.747 103.756)" style="fill:#ea6011"/><path class="cls-2" d="M54.06 136.19c-.12.72-.32 1.66-.61 2.8l-.45 1.62v19.51h-2.27V146.7a23.9 23.9 0 0 1-1.33 2.56l-1.32-2.62a33.57 33.57 0 0 0 3.63-10.9Zm7.35 4.29H54v-2.12h2.62a13.6 13.6 0 0 0-.84-2.17l2.33-.55c.37.91.7 1.82 1 2.72h2.38Zm-.5 4.17h-6.56v-2.24h6.56Zm0 4.08h-6.56v-2.22h6.56Zm0 10.93h-2.38v-1.34h-1.8v1.77h-2.3v-9.45h6.43Zm-2.33-3.59v-3.16h-1.8v3.16ZM72.5 145h-3.6a23.13 23.13 0 0 1-2.14 2.64h4.92v12.44h-2.3v-1.24h-4v1.24h-2.3v-9.23a13.78 13.78 0 0 1-1.22.89l-.86-2.18a25.32 25.32 0 0 0 5.23-4.56h-4.45v-2.1H65v-2.33h-2.73v-2.11H65V136h2.3v2.49H69v1.72a33.68 33.68 0 0 0 1.32-3.72l2.12.67a33.41 33.41 0 0 1-2.31 5.77h2.37Zm-3.12 7.16v-2.33h-4v2.33Zm0 4.48v-2.41h-4v2.41Zm-.53-16.07h-1.53v2.33h.28a13.31 13.31 0 0 0 1.25-2.35ZM84.32 136.33 82.65 142v18.17h-2.41v-13c-.41.7-.85 1.39-1.32 2.09l-1.22-2.61a34.14 34.14 0 0 0 4.21-10.93Zm18 8.38H90.48c-.29.64-.59 1.22-.89 1.75h11.72v11.75a1.9 1.9 0 0 1-.51 1.36 1.94 1.94 0 0 1-1.09.62c-.39.05-1.25.08-2.61.08l-.55-2.12 2-.05a.58.58 0 0 0 .37-.24.75.75 0 0 0 .21-.48v-1.61h-3.72v4.37H93v-4.37h-3.91a9.32 9.32 0 0 1-3 4.58l-1.83-1.61c2-1.62 3-4 3-7.23v-1.93c-.81.84-1.73 1.7-2.77 2.59l-1.41-2a16.31 16.31 0 0 0 4.92-5.46h-4.21v-2.22h4.44v-2.06H84.4v-2.15h3.83V136h2.41v2.25h4.85V136H98v2.25h3.71v2.15H98v2.06h4.32Zm-9.32 9.1v-1.69h-3.41l-.11 1.69Zm0-3.73v-1.55h-3.39v1.55Zm2.46-7.59v-2.06h-4.82v2.06Zm3.59 7.59v-1.55h-3.64v1.55Zm0 3.73v-1.69h-3.64v1.69ZM119.84 155.77h-5.1v4.29h-2.41v-4.29h-4.44v-2.19h4.44v-1.53h-3.66V142h3.66v-1.49H108v-2.22h4.28v-2.41h2.44v2.41h4.82v2.22h-4.82V142h3.57v10h-3.57v1.53h5.1ZM116 146v-1.83h-4.85V146Zm0 4v-2h-4.85v2Zm16.5-7.41-1.16 2.06a9.18 9.18 0 0 1-1.37-.89v2.16h-3.18v3.66h5.19v2.3h-5.19v8.26h-2.46v-8.26h-5v-2.3h5v-3.66h-3.15v-2.08c-.46.39-.84.69-1.16.92l-1.33-2.06a19.59 19.59 0 0 0 5.85-7l2.49.47a5.17 5.17 0 0 1-.38.83 20 20 0 0 0 5.81 5.54Zm-2.72 1a17.4 17.4 0 0 1-4.32-4.66 29.6 29.6 0 0 1-4 4.66ZM151.9 147.92h-14.12v-2.18h3.67a23.45 23.45 0 0 0-1.67-3.92l1.83-1.11h-3.28v-2.22h5.5a13.21 13.21 0 0 0-1.16-2.22l2.44-.63a14.9 14.9 0 0 1 1.32 2.85h5v2.22h-2.8l1.74 1c-.4 1.11-1 2.46-1.69 4.05h3.22ZM150.43 160H148v-1.57h-6.2V160h-2.46v-10.2h11.09Zm-2.39-3.8v-4.15h-6.24v4.15Zm.08-15.53H142a35.86 35.86 0 0 1 2 5h2.14a26.87 26.87 0 0 0 1.98-4.96Zm11.19 5.14a13.28 13.28 0 0 1 2.5 7.06 4.87 4.87 0 0 1-.56 2.53 2.79 2.79 0 0 1-1.36 1.25 9.58 9.58 0 0 1-3.22.22l-.69-2.38c.75.07 1.52.1 2.33.1a1 1 0 0 0 .78-.33 2.49 2.49 0 0 0 .31-1.55 10.78 10.78 0 0 0-2.6-6.47 66.9 66.9 0 0 0 2.33-7.52h-3.76v21.3H153v-23.49h8.45v2.23q-.9 3.66-2.14 7.09ZM142 97.51a8.11 8.11 0 0 0-6.3-8.07l-18.41-5.34-4-1.17v-2h2.27a33.69 33.69 0 0 0 4.93-.12c5.37-.86 7.29-5.65 7.29-11.65 0-3.7-.07-6.71-.07-12 0-8.52-.63-15.77-6.13-21.6a25.1 25.1 0 0 0-21-7.64 23.34 23.34 0 0 0-15.06 7.94c-3.35 3.77-6 11.11-6.12 16.15-.16 6.53-.07 13.07 0 19.6A10.89 10.89 0 0 0 82.81 79a8.84 8.84 0 0 0 6 1.94h5.38v2l-.71.22Q82.72 86.27 72 89.4c-4.28 1.24-6.49 4.15-6.5 8.6v12.3a5.68 5.68 0 0 0 5.66 5.7h48.45v-2.8h-14.43c2.86-3.12 5.7-6.25 8.58-9.35a1.7 1.7 0 0 1 1.17-.53c1.86-.06 3.73 0 5.59 0a1 1 0 0 0 .94-1V88c.31.07.54.12.77.19 3.75 1.14 7.44 2.53 11.28 3.32 4.89 1 6.42 3.35 5.8 8.67 0 2.2.06 4.38.08 6.57 0 4.91-.59 6.42-5.63 6.42h-3.82v-7.34a1.23 1.23 0 1 0-2.46 0v7.34h-5.17V116h14a5.68 5.68 0 0 0 5.68-5.65c.01-4.2.01-9.7.01-12.84Zm-47.88-19a68.43 68.43 0 0 1-7.74-.51A5.8 5.8 0 0 1 82 72.35c0-7.32-.26-14.65.09-21.95a20.2 20.2 0 0 1 9.74-16.57c6.94-4.48 14.33-4.93 21.73-1.22 6.76 3.39 10.65 9 11.79 16.52a22.53 22.53 0 0 1 .2 3.39c0 6.29-.08 12.59 0 18.89a6.62 6.62 0 0 1-7 7c-1.74-.09-3.5 0-5.25 0a2 2 0 0 1 .8-2.37 16.12 16.12 0 0 0 6.23-12.24c.06-1.14 0-2.27 0-3.43a2.2 2.2 0 0 0-2.21-2.17h-2.86a24.51 24.51 0 0 1-4.62-.55 14.33 14.33 0 0 1-10.42-12.68v-.35a2.21 2.21 0 0 0-2.4-2.06 11.42 11.42 0 0 0-6.52 2.69 11.55 11.55 0 0 0-4.31 9.22c0 3.5-.11 7 .16 10.5a15.44 15.44 0 0 0 6 11.07 2.19 2.19 0 0 1 .97 2.48Zm8.63-1.39a14 14 0 0 1-12.94-12.64 88.75 88.75 0 0 1 0-11.76c.2-3.49 3.8-7 7.13-7.47a.74.74 0 0 1 .84.61 17 17 0 0 0 6.64 11.42c3.74 2.89 8.06 3.67 12.63 3.44a.73.73 0 0 1 .77.69A14.58 14.58 0 0 1 114.61 72a13.92 13.92 0 0 1-11.86 5.13ZM88.64 87.24l6-1.78 6.22 22.09-.18.1-3.43-3.74c-.82-.9-1.61-1.83-2.47-2.69a1.94 1.94 0 0 0-1.14-.5h-4.08a1 1 0 0 1-1-1ZM80 113.2v-7.34a1.23 1.23 0 1 0-2.45 0v7.34H71a3 3 0 0 1-3-3V97.81c0-3.87 2.28-5.93 6.9-6.38l9.55-3a4.07 4.07 0 0 1 1.55-.47v14.28a1 1 0 0 0 1 1h5.31a2 2 0 0 1 1.51.65c2.16 2.41 4.35 4.79 6.53 7.17l1.93 2.1Zm24-6c0 .17-.1.32-.15.48h-.19c-.6-2.16-1.21-4.33-1.82-6.49-1.56-5.54-3.23-11.06-4.64-16.65a40.08 40.08 0 0 1-.55-6.45 16.87 16.87 0 0 0 13.92.12c0 2 .38 3.9-.07 5.63-2.05 7.89-4.33 15.64-6.5 23.41Zm14-6.55h-3.84a1.94 1.94 0 0 0-1.68.74c-1.69 1.91-3.43 3.78-5.14 5.67a5.24 5.24 0 0 0-.44.61l-.25-.19q3.1-11 6.21-22c1.93.55 3.78 1.07 5.62 1.63a.78.78 0 0 1 .45.55v12.08a1 1 0 0 1-.99.96Z"/></g></g></svg>