<svg xmlns="http://www.w3.org/2000/svg" viewBox="0 0 207.5 207.5"><defs><style>.cls-2{fill:#fff}</style></defs><g id="圖層_2" data-name="圖層 2"><g id="圖層_1-2" data-name="圖層 1"><circle cx="103.75" cy="103.75" r="103.75" transform="rotate(-45 103.747 103.756)" style="fill:#ea6011"/><path class="cls-2" d="M75.78 148.27h-9.52v8h-2.54v-8h-9.48v-11.72h9.48v-4.45h2.54v4.45h9.52Zm-12.06-2.46V139h-6.91v6.82Zm9.5 0V139h-7v6.82ZM89.11 140.47a11.86 11.86 0 0 1 2.28 6.4 4.24 4.24 0 0 1-.75 2.65 3.46 3.46 0 0 1-2.85 1h-.9l-.66-2.36h1.72c.67 0 1-.36 1-1.08a9.53 9.53 0 0 0-2.38-6.28 54.87 54.87 0 0 0 1.94-6H85.7v21.46h-2.41V132.5h7.77v2.31q-.77 2.59-1.95 5.66Zm9 .94a37.88 37.88 0 0 1-5.74 1.91l-.69-2a2.1 2.1 0 0 0 .21-1v-8.26h2.33v2.81H98v2.22h-3.73v3.39c1.09-.3 2.36-.73 3.84-1.3Zm7.51 14.86h-2.46V155h-8.28v1.3h-2.43v-11.57h3.75a13.17 13.17 0 0 0 .74-2.21l2.28.64a5.2 5.2 0 0 1-.61 1.57h7.06Zm-2.46-7.49v-1.91h-8.28v1.91Zm0 4.12v-2h-8.28v2Zm3.85-14a5.44 5.44 0 0 1-.57 2.88 2 2 0 0 1-1.3 1 33.35 33.35 0 0 1-3.78.12c-1.6 0-2.4-.75-2.4-2.27v-8.5h2.4v2.81h4.43v2.22h-4.43v3.2c0 .3.14.45.43.45a10.83 10.83 0 0 0 2.47-.17c.36-.12.54-.92.54-2.42ZM136.7 155.58h-24v-2.41h10.73v-6h-8.53v-2.37h8.49v-5.86h-9.79v-2.41h10.19a21.39 21.39 0 0 0-1.83-4.08l2.49-.66a34.62 34.62 0 0 1 2 4.74h9.23v2.41h-9.76v5.86h8.52v2.41h-8.52v6h10.78ZM154.21 135.73h-7.33a21.38 21.38 0 0 1-3.07 2.85l-1.61-2a10.65 10.65 0 0 0 4.21-4.71l2.5.66a6.31 6.31 0 0 1-.55 1.11h5.85Zm11.67 8.27h-2.44v-2.67h-18V144H143v-4.71h10a9.06 9.06 0 0 0-.68-1.25l2.83-.44a11.66 11.66 0 0 1 .89 1.69h9.85Zm-2.52 11.17h-14.73v1.11h-2.41v-13.59h16.22V148h-13.81v1.48h14.73Zm-11.71-17-2.71.5a13.77 13.77 0 0 0-1.17-2l2.63-.54a12.45 12.45 0 0 1 1.25 1.98Zm8.32 8.07v-1.61h-11.34v1.61Zm.91 7.07v-1.94h-12.25v1.94Zm5.69-17.52H158a14.14 14.14 0 0 1-1.58 2l-2.24-1.19a16.08 16.08 0 0 0 3.23-4.71l2.51.71c-.24.48-.44.86-.61 1.14h7.23Zm-3.71 2.54-2.67.42a11.69 11.69 0 0 0-1.05-2.16l2.69-.3a16.12 16.12 0 0 1 1.03 1.98ZM112.94 86.18H123a16.27 16.27 0 0 1 6 .7 10.67 10.67 0 0 1 6.85 9.72v16.76c0 1.34-.55 1.87-1.93 1.87h-60c-1.79 0-2.23-.44-2.24-2.2v-.82a1.55 1.55 0 0 1 1.55-1.54 1.54 1.54 0 0 1 1.54 1.45h58v-14.8c0-5.47-4.08-7.92-10.07-7.92-3.18 0-5.38-.12-9.18-.12-1 0-1.58 0-2.14.57-2 2.07-4.08 4.11-6.13 6.16-1.36 1.35-2.14 1.09-3.74-.79a54.49 54.49 0 0 0-5.86-5.81 2.71 2.71 0 0 1-1.08-2.25v-8.78a1.27 1.27 0 0 0-.57-1.24 17.7 17.7 0 0 1-8.34-13 66.26 66.26 0 0 1-.2-7.33v-2.64h-.49a1 1 0 0 1-1-1V52a1 1 0 0 1 1-1h13.56a7.16 7.16 0 0 0 6.89-5.2c1-3.33 1.88-6.65 2.87-10a2.79 2.79 0 0 1 .84-1.4c.89-.68 2-.1 2.34 1.17a951.6 951.6 0 0 1 2 7.14l1.26 4.47a4.69 4.69 0 0 0 5 3.78H122a1.57 1.57 0 0 1 1.57 1.57 1.57 1.57 0 0 1-1.43 1.57v1.26a85.79 85.79 0 0 1-.25 8.94A17.33 17.33 0 0 1 113.8 77a1.71 1.71 0 0 0-.88 1.66c.08 2.45.02 4.92.02 7.52Zm-24.39-32.1c0 2.88-.08 5.63 0 8.37a14.44 14.44 0 0 0 .78 4.22A15.24 15.24 0 0 0 119 62.28v-7.61a5.42 5.42 0 0 0 0-.67 7.93 7.93 0 0 1-4.82-2 9.4 9.4 0 0 1-2.64-5c-.49-1.81-1-3.61-1.52-5.41-.7 1.8-1.2 3.6-1.73 5.39a9 9 0 0 1-7 6.74 16.52 16.52 0 0 1-3.38.25c-3.13.13-6.2.11-9.36.11ZM97.69 79v7.73a1.41 1.41 0 0 0 .45.82c1.44 1.47 2.91 2.91 4.35 4.38.41.41.74.91 1.13 1.39 2.13-2.13 4-4 5.92-5.93a1.15 1.15 0 0 0 .31-.69v-7.71a18.15 18.15 0 0 1-12.16.01Z"/><path class="cls-2" d="M72.39 76.78a6.19 6.19 0 0 1 4.7-9 .85.85 0 0 0 .71-.78v-.3c0-6-.09-12 0-17.92a25.9 25.9 0 0 1 49.08-10.94 25.25 25.25 0 0 1 2.84 11.52V67a.86.86 0 0 0 .73.84 6 6 0 0 1 4.71 3.32 5.87 5.87 0 0 1 0 5.51.83.83 0 0 0 .42 1.13 10.81 10.81 0 0 1 4.2 16.3.83.83 0 0 1-1.21.09l-1-.87a.84.84 0 0 1-.19-1 15.35 15.35 0 0 0 1.15-2.53 7.52 7.52 0 0 0-7-9.7c-2.78-.07-5.55 0-8.33 0a1 1 0 0 1-1-1V78a1 1 0 0 1 1-1h6.45a3.1 3.1 0 0 0 3.17-2.6 3 3 0 0 0-2-3.3 5.42 5.42 0 0 0-1.28-.18 2.91 2.91 0 0 1-2.82-2.92V50.26A23 23 0 0 0 122.14 36 22 22 0 0 0 106 26.71c-9.54-.8-16.8 3.08-21.81 11a21.57 21.57 0 0 0-3.28 11.6v19.34c0 1.75-.47 2.22-2.23 2.23-2.19 0-3.21.6-3.71 2.11a3 3 0 0 0 2.25 3.89 8.42 8.42 0 0 0 1.42.12h5.81a1 1 0 0 1 1 1v1.14a1 1 0 0 1-1 1H76.3a7.62 7.62 0 1 0 .15 15.24h8.18a.85.85 0 0 1 .85.85v1.36a.85.85 0 0 1-.82.85h-7.88A10.7 10.7 0 0 1 72 77.91a.84.84 0 0 0 .39-1.13Z"/><path class="cls-2" d="M82.43 87.61A1.53 1.53 0 0 1 84 86.09a34.66 34.66 0 0 1 5.76.51 10.65 10.65 0 0 1-2.27 20.92c-3 .08-6 .09-9 0a7.52 7.52 0 0 1-6.6-5.61 1.51 1.51 0 0 1 1.55-1.91 1.5 1.5 0 0 1 1.47 1.11c.45 1.69 1.48 3 3.32 3.16A47.76 47.76 0 0 0 89 104.1c3.88-.61 5.79-4.47 5.57-7.7a7.62 7.62 0 0 0-7.63-7.16H84a1.52 1.52 0 0 1-1.54-1.52Z"/></g></g></svg>