<svg xmlns="http://www.w3.org/2000/svg" viewBox="0 0 207.5 207.5"><defs><style>.cls-2{fill:#fff}</style></defs><g id="圖層_2" data-name="圖層 2"><g id="圖層_1-2" data-name="圖層 1"><circle cx="103.75" cy="103.75" r="103.75" transform="rotate(-45 103.747 103.756)" style="fill:#ea6011"/><path class="cls-2" d="m71.6 154-1.39 2a17.5 17.5 0 0 1-4.27-2.47v1.64h-5.58v2.22h10v2.17H48.11v-2.17h9.73v-2.22h-5.37v-1.67a18 18 0 0 1-4.31 2.5l-1.35-2.1a12.24 12.24 0 0 0 5.45-3.41h-5.18v-2.19h4.49v-8.42h-3.91v-2.17h3.91v-1.83H54v1.83h10.1v-1.83h2.5v1.83h4v2.17h-4v8.42h4.55v2.19h-5.1A15.91 15.91 0 0 0 71.6 154Zm-6.4-1a19.13 19.13 0 0 1-2.46-2.47H55.2a11.28 11.28 0 0 1-2.1 2.47h4.74v-1.78h2.52V153Zm-1.09-11.62v-1.46H54v1.46Zm0 3.44v-1.53H54v1.53Zm0 3.52v-1.61H54v1.61ZM99.94 141.91H80.88v6.37q0 1.53-.12 3.06c-.09 1-.22 2-.4 3a32.49 32.49 0 0 1-.82 3.43 7.14 7.14 0 0 1-.85 2.22l-2-1.46a24.56 24.56 0 0 0 1.82-9.85v-12.33h21.43Zm-2.41-2v-1.52H80.88v1.52Zm2.13 10.87H82v-6.38h17.66Zm-.73 9.22h-2.41v-.94h-11.3v1h-2.39v-8.23h16.1Zm-9.26-11v-2.83h-5.46V149Zm-1-.91-2.11.69a9.19 9.19 0 0 0-1.75-1.63l2.2-.64a18.66 18.66 0 0 1 1.67 1.58Zm.38-4.57-2.15.77a15.15 15.15 0 0 0-2-1.46l2.2-.83a13.79 13.79 0 0 1 1.96 1.52Zm7.46 11.06v-1H85.22v1Zm0 2.78v-1.14H85.22v1.14Zm.82-8.36v-2.83H92V149Zm-.42-5.9a11.3 11.3 0 0 1-2.41 1.22l-2.09-1.11a11.9 11.9 0 0 0 2.44-1.11Zm-.14 4.05A8.48 8.48 0 0 1 95 148.7l-2.17-.78a11.78 11.78 0 0 0 1.91-1.49ZM130.83 159.37h-24.05V157h10.74v-6H109v-2.4h8.49v-5.87h-9.79v-2.41h10.18a21 21 0 0 0-1.83-4.07l2.49-.67a34.62 34.62 0 0 1 2 4.74h9.24v2.41h-9.77v5.87h8.52v2.4h-8.52v6h10.77ZM148.33 139.52H141a21.52 21.52 0 0 1-3.08 2.86l-1.61-2a10.56 10.56 0 0 0 4.21-4.72l2.51.67a6.42 6.42 0 0 1-.56 1.11h5.85Zm11.67 8.24h-2.43v-2.67h-18v2.67h-2.45V143h10a8.74 8.74 0 0 0-.67-1.24l2.83-.45a12.22 12.22 0 0 1 .89 1.69H160Zm-2.51 11.17h-14.74V160h-2.41v-13.52h16.22v5.3h-13.81v1.47h14.74Zm-11.72-17-2.71.5a13.4 13.4 0 0 0-1.16-1.95l2.63-.54a11.45 11.45 0 0 1 1.24 1.97Zm8.33 8.07v-1.62h-11.35V150Zm.9 7v-1.93h-12.25V157Zm5.68-17.52h-8.54a14.09 14.09 0 0 1-1.57 2l-2.25-1.2a15.69 15.69 0 0 0 3.24-4.71l2.5.72a10.94 10.94 0 0 1-.61 1.14h7.23Zm-3.68 2.59-2.66.42a11.52 11.52 0 0 0-1.06-2.17l2.7-.3a14.5 14.5 0 0 1 1.02 2.05ZM115.24 47.41c.86-2 1.81-3.87 1.81-6a12 12 0 0 0-1-4.57 2.33 2.33 0 0 1 .16-1.88 1.9 1.9 0 0 1 1.61-.51 2.15 2.15 0 0 1 1.21 1.1 12.4 12.4 0 0 1 .41 10.56c-.49 1.23-1 2.45-1.48 3.52a20.32 20.32 0 0 1 3 1.94 5.61 5.61 0 0 1 1.52 6.14 5.72 5.72 0 0 1-4.83 4.1 1 1 0 0 0-1 .92 18.28 18.28 0 0 1-4.36 8.18 2.78 2.78 0 0 0-.66 1.6 36.79 36.79 0 0 0 0 4.33 1.56 1.56 0 0 0 .63 1.11c2.26 1.43 4.5 2.93 6.89 4.13a21 21 0 0 0 4.53 1.21c1.64.39 3.31.63 4.92 1.08 4.91 1.37 8.5 4.24 10 9.29a8.71 8.71 0 0 1 .33 2.44v18.26c0 1.87-.51 2.38-2.37 2.38h-7.53c-1.21 0-2-.65-2-1.65s.74-1.64 1.94-1.65h6.6v-16a9.46 9.46 0 0 0-7.53-9.73c-2.59-.66-5.22-1.16-7.84-1.68a1.25 1.25 0 0 0-1 .35q-4.38 5.34-8.7 10.74c-1.4 1.73-1.91 1.81-3.73.45l-1.16-.83c-.81 1.48-1.62 2.9-2.36 4.36a1.24 1.24 0 0 0 .1.93c1.7 3.6 3.44 7.18 5.12 10.79a1.08 1.08 0 0 0 1.2.67h12.07c1.23 0 1.92.61 1.91 1.66a1.56 1.56 0 0 1-1.42 1.62 4.8 4.8 0 0 1-.93 0h-60c-1.93 0-2.41-.49-2.41-2.45v-6.39c0-1.26.67-2.07 1.66-2.08s1.64.76 1.64 2.06v5.56H87.93a1.36 1.36 0 0 0 1.48-.9q2.43-5.24 5-10.4a1.44 1.44 0 0 0 0-1.52c-.74-1.27-1.43-2.58-2.17-3.94-.54.4-1 .77-1.53 1.12-1.4 1-2.09.84-3.15-.46q-4.41-5.45-8.8-10.91a1.09 1.09 0 0 0-1.38-.46c-2.53.59-5.1 1.07-7.63 1.68A10.64 10.64 0 0 0 64 91.27a7.71 7.71 0 0 0-1.86 5.22v4.23a1.64 1.64 0 1 1-3.27.21 37.45 37.45 0 0 1 .13-6.18c.72-5 5-9.24 10.3-10.43 2.5-.56 5-1 7.53-1.65a9.81 9.81 0 0 0 2.55-1c2.06-1.17 4-2.45 6.1-3.64a1.28 1.28 0 0 0 .73-1.31v-4.64a2.28 2.28 0 0 0-.5-1.27 19 19 0 0 1-4.36-8.18 1.2 1.2 0 0 0-.71-.78A6.2 6.2 0 0 1 75.39 56c-.15-2.66 1.57-5 4.41-6a2 2 0 0 0 .33-.2c-.15-.22-.28-.44-.43-.65a12.26 12.26 0 0 1 1-16.12c1.17-1.21 2.9-1.88 4.38-2.78.32-.2.76-.24 1-.5 2.5-2.86 5.82-4.21 9.4-5A21.53 21.53 0 0 1 114 29.08a2.7 2.7 0 0 1 .91 1.69 1.66 1.66 0 0 1-.87 1.31 2.22 2.22 0 0 1-1.78-.23 21.7 21.7 0 0 0-6-3.29 19 19 0 0 0-14.57 1l1.47.5a13.78 13.78 0 0 1 6.84 5.19c.82 1.18.76 2.2-.14 2.81s-1.75.26-2.58-.89c-2.16-3-5-4.75-8.76-4.41a8.35 8.35 0 0 0-7.38 5.46 8.85 8.85 0 0 0 1.18 8.9l1.17-1.68c.94-1.36 1.86-2.73 2.8-4.09s2-1.57 3.25-.26a12.47 12.47 0 0 0 7.13 4c4 .63 7.42-.76 10.55-3.11.46-.35.89-.76 1.32-1.15 1.15-1 2.13-.9 3 .44 1 1.69 2 3.4 3.08 5.11.14.32.38.62.62 1.03Zm-5.69-2.94c-6.37 5.2-15.28 5.72-21.38 0l-3.89 5.7a.91.91 0 0 0-.15.48c.1 3.64-.16 7.33.39 10.9 1 6.82 7.52 11.86 14.58 11.82s13.34-5.17 14.36-12a77.91 77.91 0 0 0 .35-9.56 1 1 0 0 0-.13-.49ZM89.49 74c0 1 .05 1.72 0 2.47a2.68 2.68 0 0 0 .94 2.35c2.59 2.51 5.12 5.09 7.64 7.66a3.63 3.63 0 0 1 .53 1l9.25-9.2a1.31 1.31 0 0 0 .38-.8v-3.34A18.63 18.63 0 0 1 89.49 74Zm21 6.79c-3 3-5.94 5.85-8.9 8.76l6.71 5 8.17-10.12Zm-21 13.73 6.79-5-8.84-8.78-6.12 3.7Zm15.66 18.88c-1.63-3.41-3.19-6.68-4.76-10-.46-1-1.34-.43-2-.46a1.38 1.38 0 0 0-1 .67c-1.5 3-2.94 6.11-4.39 9.17a3.24 3.24 0 0 0-.17.57Zm-2.21-18.73c-1.27-.94-2.46-1.84-3.69-2.71a.76.76 0 0 0-.69 0c-1.23.86-2.43 1.76-3.69 2.7A25.2 25.2 0 0 1 96.59 98c.57 1.59 1.68 1.86 3.11 1.64a1 1 0 0 0 .67-.32c.86-1.53 1.63-3.06 2.54-4.65Zm14.3-41.47v5.29a2.76 2.76 0 0 0 2.2-2.72 2.69 2.69 0 0 0-2.23-2.57Zm-36.45 0a2.76 2.76 0 0 0-2.08 2.95 2.35 2.35 0 0 0 2.08 2.16Z"/></g></g></svg>