<svg xmlns="http://www.w3.org/2000/svg" viewBox="0 0 207.5 207.5"><defs><style>.cls-2{fill:#fff}</style></defs><g id="圖層_2" data-name="圖層 2"><g id="圖層_1-2" data-name="圖層 1"><circle cx="103.75" cy="103.75" r="103.75" style="fill:#ea6011"/><path class="cls-2" d="M42.09 114H18.62v-2.09H29.3a9.21 9.21 0 0 0-.84-1.72l2.44-.45a12.88 12.88 0 0 1 .92 2.17h10.27Zm-1 18a1.9 1.9 0 0 1-.76 1.54c-.51.41-1.74.62-3.71.64l-.88-2.38c.62 0 1.14.08 1.57.08a2.69 2.69 0 0 0 1.11-.14.44.44 0 0 0 .23-.4v-6.85H21.92v9.69h-2.41V122.4h21.55Zm-2.67-11H22.17v-5.66h16.22Zm-2.28 10.4H24.58v-5.55h11.53Zm-.3-12.4v-1.72H24.75V119Zm-2.16 10.5v-1.75H27v1.75ZM54.36 118.32a11.91 11.91 0 0 1 2.28 6.41 4.18 4.18 0 0 1-.76 2.65 3.46 3.46 0 0 1-2.85 1h-.89l-.66-2.38h1.72c.66 0 1-.36 1-1.08a9.58 9.58 0 0 0-2.38-6.28 56.11 56.11 0 0 0 1.93-6H51v21.47h-2.46v-23.75h7.77v2.3c-.51 1.74-1.16 3.62-1.95 5.66Zm9 1a37.88 37.88 0 0 1-5.74 1.91l-.7-2a2 2 0 0 0 .22-1V110h2.33v2.82h3.75V115h-3.7v3.39c1.08-.3 2.36-.73 3.83-1.3Zm7.51 14.86h-2.41v-1.3h-8.33v1.3h-2.44v-11.59h3.75a14 14 0 0 0 .75-2.21l2.27.64a5 5 0 0 1-.61 1.57h7.07Zm-2.46-7.49v-1.91h-8.28v1.91Zm0 4.12v-2h-8.28v2Zm3.84-14a5.46 5.46 0 0 1-.57 2.88 2 2 0 0 1-1.29 1 33.35 33.35 0 0 1-3.78.12c-1.6 0-2.4-.76-2.4-2.27V110h2.4v2.82h4.42V115h-4.37v3.2a.38.38 0 0 0 .43.44 10.31 10.31 0 0 0 2.47-.17c.36-.11.54-.91.54-2.41ZM89.64 113.59h-7.32a22.07 22.07 0 0 1-3.08 2.85l-1.61-2a10.59 10.59 0 0 0 4.21-4.71l2.51.66a6.42 6.42 0 0 1-.56 1.11h5.85Zm11.67 8.23h-2.43v-2.67h-18v2.67h-2.45v-4.71h10a8.2 8.2 0 0 0-.67-1.25l2.83-.45a11.88 11.88 0 0 1 .89 1.7h9.84ZM98.8 133H84.06v1.11h-2.41v-13.56h16.23v5.29H84.06v1.48H98.8Zm-11.72-17-2.7.5a16 16 0 0 0-1.17-2l2.63-.54a11.45 11.45 0 0 1 1.24 2.04Zm8.33 8v-1.61H84.06V124Zm.91 7.07v-1.94H84.06v1.94Zm5.68-17.48h-8.54a14 14 0 0 1-1.57 2l-2.25-1.19a15.94 15.94 0 0 0 3.24-4.71l2.5.71a10.94 10.94 0 0 1-.61 1.14H102Zm-3.71 2.54-2.67.42a11.52 11.52 0 0 0-1.06-2.17l2.7-.29a14.87 14.87 0 0 1 1.04 2.04ZM116 128.22a67.9 67.9 0 0 1-7.72 4l-.85-2.36q1-.39 3.3-1.5v-6.91h-2.67v-2.3h2.67v-5.48h-3.09v-2.22h8.3v2.22h-2.84v5.48h2.41v2.3h-2.41v5.64a19.36 19.36 0 0 0 2.81-1.47Zm15.77 5.3h-15.89v-2.25h6.81v-2.74h-5.85v-2.19h5.85V124H117v-13.35h13.69V124h-5.6v2.38h6v2.19h-6v2.74h6.65Zm-9.07-17.36v-3.32h-3.24v3.32Zm0 5.6v-3.6h-3.24v3.6Zm5.61-5.6v-3.32h-3.19v3.32Zm0 5.6v-3.6h-3.19v3.6ZM149.35 129.81h-5.11v4.29h-2.41v-4.29h-4.44v-2.2h4.44v-1.53h-3.66v-10h3.66v-1.49h-4.31v-2.22h4.28V110h2.44v2.41h4.82v2.22h-4.82v1.49h3.58v10h-3.58v1.53h5.11Zm-3.89-9.81v-1.83h-4.85V120Zm0 4v-2h-4.85v2Zm16.51-7.4-1.17 2.06a8.69 8.69 0 0 1-1.37-.9v2.17h-3.18v3.66h5.19v2.3h-5.19v8.26h-2.46v-8.26h-4.95v-2.3h4.95v-3.66h-3.14v-2.09c-.47.39-.85.7-1.17.92l-1.33-2a19.4 19.4 0 0 0 5.85-7l2.49.48a5.54 5.54 0 0 1-.37.82 19.75 19.75 0 0 0 5.88 5.52Zm-2.73 1a17.55 17.55 0 0 1-4.32-4.66 30.06 30.06 0 0 1-4 4.66ZM181.4 122h-14.12v-2.18H171a24.55 24.55 0 0 0-1.66-3.91l1.82-1.11h-3.27v-2.22h5.49a12.51 12.51 0 0 0-1.16-2.22l2.44-.64a15.33 15.33 0 0 1 1.32 2.86h5v2.22h-2.8l1.74 1c-.39 1.12-1 2.46-1.69 4h3.22Zm-1.47 12.12h-2.39v-1.62h-6.24v1.57h-2.46v-10.19h11.09Zm-2.39-3.79v-4.16h-6.24v4.16Zm.09-15.53h-6.15a35.73 35.73 0 0 1 2 5h2.14a27.72 27.72 0 0 0 2.01-5.05Zm11.18 5.13a13.33 13.33 0 0 1 2.51 7.07 4.86 4.86 0 0 1-.57 2.53 2.8 2.8 0 0 1-1.36 1.25 9.37 9.37 0 0 1-3.22.21l-.69-2.38c.75.07 1.53.11 2.33.11a1 1 0 0 0 .78-.33 2.47 2.47 0 0 0 .32-1.55 10.82 10.82 0 0 0-2.6-6.47 69.77 69.77 0 0 0 2.32-7.52h-3.76v21.3h-2.33v-23.58H191v2.23q-1 3.66-2.19 7.08ZM53.75 143.5c-.12.73-.32 1.66-.61 2.81l-.44 1.61v19.51h-2.28V154a23 23 0 0 1-1.33 2.56L47.77 154a33.65 33.65 0 0 0 3.63-10.9Zm7.35 4.3h-7.46v-2.13h2.62a13.6 13.6 0 0 0-.84-2.17l2.33-.55a27.74 27.74 0 0 1 1 2.72h2.35Zm-.5 4.2H54v-2.25h6.6Zm0 4.07H54v-2.22h6.6ZM60.55 167h-2.33v-1.34h-1.8v1.77h-2.3V158h6.43Zm-2.33-3.59v-3.15h-1.8v3.15Zm14-11.09h-3.6a23.13 23.13 0 0 1-2.14 2.64h4.92v12.45h-2.3v-1.25h-4v1.25h-2.36v-9.24a14.32 14.32 0 0 1-1.22.9l-.81-2.17a25.4 25.4 0 0 0 5.22-4.58h-4.46v-2.1h3.24v-2.33H62v-2.11h2.75v-2.49H67v2.49h1.72v1.72a35.53 35.53 0 0 0 1.33-3.72l2.11.68a34.08 34.08 0 0 1-2.3 5.76h2.32Zm-3.12 7.17v-2.33h-4v2.33Zm0 4.48v-2.41h-4v2.41Zm-.53-16.08H67v2.33h.28a13.31 13.31 0 0 0 1.26-2.36ZM84 143.64l-1.67 5.71v18.18h-2.4v-13c-.41.69-.85 1.39-1.32 2.08L77.39 154a34.14 34.14 0 0 0 4.21-10.93Zm18 8.36H90.17c-.29.64-.59 1.23-.89 1.75H101v11.75a1.88 1.88 0 0 1-.51 1.36 1.91 1.91 0 0 1-1.09.62c-.39.05-1.25.08-2.61.08l-.55-2.11 2-.06c.11 0 .23-.08.37-.24a.73.73 0 0 0 .21-.47v-1.62H95.1v4.38h-2.38v-4.38h-3.94a9.32 9.32 0 0 1-3 4.58L84 166.05q3-2.43 3-7.23v-1.92c-.82.84-1.74 1.7-2.78 2.58l-1.41-2a16.12 16.12 0 0 0 4.83-5.48h-4.16v-2.2h4.44v-2.06h-3.83v-2.15h3.83v-2.25h2.41v2.25h4.85v-2.25h2.48v2.25h3.71v2.15h-3.71v2.06H102Zm-9.26 9.1v-1.69h-3.46l-.11 1.69Zm0-3.72v-1.56H89.3v1.56Zm2.46-7.6v-2.06h-4.87v2.06Zm3.59 7.6v-1.56H95.1v1.56Zm0 3.72v-1.69H95.1v1.69ZM131.92 165.58l-1.59 2q-8.1-6.13-10.66-12.88-2 7.56-10.62 12.73l-1.66-2q10.92-6.81 10.93-17.78v-4.43h2.62v5.7a15.35 15.35 0 0 0 3 8.87 31.86 31.86 0 0 0 7.98 7.79ZM161.63 150.1H154v14.57a2.53 2.53 0 0 1-.6 1.75 2.57 2.57 0 0 1-1.32.83 15.35 15.35 0 0 1-2.86.17h-2.63l-.77-2.47c1.4.07 3 .11 4.8.11.52 0 .78-.27.78-.82v-12.88a28.3 28.3 0 0 1-5.38 7.74 26.76 26.76 0 0 1-7.5 5.6l-1.4-2.22a25.38 25.38 0 0 0 7.21-5.17 24.32 24.32 0 0 0 5-7.21h-11.55v-2.41h13.65v-4.46H154v4.46h7.6ZM82.13 92.85v-4.13c0-1.25.36-1.8 1.17-1.79s1.14.55 1.14 1.82v4h14.24c.3-1.83.61-3.66.91-5.5.54-3.31 1.08-6.62 1.58-9.94a3.52 3.52 0 0 0-.2-1.6c-.31-.84-.74-1.62-1.16-2.5l-1.25.63a3.84 3.84 0 0 1-5.44-2.1c-.79-2-1.57-3.94-2.29-5.93-.26-.7-.52-.91-1.31-.75a42.33 42.33 0 0 0-8.45 2.19 9.88 9.88 0 0 0-6.42 9.12c-.06 1 0 2 0 3.07s-.44 1.42-1.15 1.43-1.15-.49-1.15-1.41c0-2.48-.13-5 .86-7.35a13.08 13.08 0 0 1 9.12-7.77A85.19 85.19 0 0 1 94 62.08c1-.14 1.3-.47 1.3-1.45v-5.31a1 1 0 0 0-.32-.71 14.09 14.09 0 0 1-5.16-9.22 2.44 2.44 0 0 0-.13-.44 11.26 11.26 0 0 1-1.45-.19 3.59 3.59 0 0 1-2.67-3.45v-2.84a3.4 3.4 0 0 1 1.53-2.94 1 1 0 0 0 .49-1v-8.54a5.88 5.88 0 0 1 6.67-6.19 1 1 0 0 0 .8-.45 4 4 0 0 1 3.75-3c4.93 0 9.85-.09 14.77 0a8.66 8.66 0 0 1 8.15 8.38 1.23 1.23 0 0 1-1.08 1.43c-.67.05-1.17-.46-1.23-1.28a6.38 6.38 0 0 0-6.71-6.25H99.49c-1.41 0-1.78.27-2.23 1.59a2.86 2.86 0 0 1-3 1.87c-2.65-.28-4.31 1.22-4.31 3.91v8.66c1.86.43 2.43 0 2.43-1.81v-2.08a3.71 3.71 0 0 1 3.62-3.6 13.62 13.62 0 0 1 3.77.53 16 16 0 0 0 10 0 7.72 7.72 0 0 1 4.3-.42 3.73 3.73 0 0 1 2.93 3.6v2.08c0 1.57.33 1.89 1.88 1.86h.51v-4.21a1.15 1.15 0 0 1 1.1-1.24 1.17 1.17 0 0 1 1.2 1.22v3.93a1.09 1.09 0 0 0 .53 1.06 3.38 3.38 0 0 1 1.5 2.88v2.77a3.55 3.55 0 0 1-3.47 3.66c-.55 0-.76.18-.83.72a13.8 13.8 0 0 1-5 8.84 1.24 1.24 0 0 0-.51 1.1v5.08c0 1 .34 1.33 1.35 1.48A66.07 66.07 0 0 1 128.77 65 12.25 12.25 0 0 1 137 76.4c.1 4.77.06 9.54 0 14.31a4.35 4.35 0 0 1-4.57 4.45H76.91a4.38 4.38 0 0 1-4.59-4.43v-5.31c0-.9.39-1.35 1.12-1.36s1.17.45 1.18 1.39v4.92a2.19 2.19 0 0 0 2.51 2.48c1.64.01 3.27 0 5 0Zm9.92-55.65v6.46a12.94 12.94 0 0 0 .42 3 12.6 12.6 0 0 0 15.59 8.52c5-1.45 8.33-4.71 9.07-10a57.17 57.17 0 0 0 .15-7.75c0-.16-.23-.37-.4-.45a3.65 3.65 0 0 1-2.09-2.86 27 27 0 0 1-.11-3c0-1.11-.6-1.74-1.71-1.69a8.69 8.69 0 0 0-2.33.4 18.34 18.34 0 0 1-11.69 0 10.51 10.51 0 0 0-2.79-.4A1.44 1.44 0 0 0 94.67 31v1.85a4.16 4.16 0 0 1-2.62 4.35Zm18.62 55.59h14.24v-4.67a1.11 1.11 0 0 1 1.14-1.19 1.15 1.15 0 0 1 1.15 1.2V92.85h5.16a2.1 2.1 0 0 0 2.33-2.26c0-4.77.12-9.54-.05-14.3a9.62 9.62 0 0 0-6.29-9 40.22 40.22 0 0 0-8.74-2.24c-.57-.11-.8 0-1 .53-.77 2.08-1.57 4.16-2.41 6.22a3.83 3.83 0 0 1-5.39 2.06c-.42-.19-.82-.41-1.29-.64-.41.87-.85 1.68-1.17 2.53a3.35 3.35 0 0 0-.19 1.53c.39 2.69.84 5.36 1.27 8 .43 2.55.83 5.02 1.24 7.51Zm1-36.47a15.54 15.54 0 0 1-14 0v.73c-.08 1.68-.16 3.36-.2 5a.76.76 0 0 0 .32.53q3.23 2.55 6.49 5a.81.81 0 0 0 .77 0c2.22-1.69 4.42-3.41 6.61-5.14a.75.75 0 0 0 .23-.56c0-.71-.15-1.42-.17-2.13-.04-1-.02-2.14-.02-3.43Zm-3.42 36.5a2.88 2.88 0 0 0 0-.33q-1.06-6.61-2.15-13.24c-.3-1.83-.33-1.81-2-1.79-.45 0-.59.16-.66.61-.47 3-1 6.05-1.48 9.08-.3 1.88-.59 3.76-.89 5.67ZM92.81 64.66c.87 2.19 1.71 4.38 2.6 6.54a1.31 1.31 0 0 0 1.74.73c1.78-.81 3.52-1.71 5.39-2.63-2.27-1.75-4.41-3.42-6.56-5.07a.59.59 0 0 0-.41-.14c-.89.17-1.79.37-2.76.57Zm23.74-.06a3.75 3.75 0 0 1-.69-.09c-1.76-.71-3.09 0-4.42 1.16s-3 2.37-4.61 3.63c1.85.92 3.57 1.81 5.32 2.62a1.41 1.41 0 0 0 1.88-.87c.31-.7.56-1.42.84-2.14.56-1.42 1.13-2.84 1.68-4.31Zm-9.09 7.61c-.88-.45-1.69-.87-2.52-1.27a.69.69 0 0 0-.49 0c-.85.41-1.69.84-2.56 1.28.42.9.8 1.74 1.21 2.56.25.51 2.81.59 3.12.1l.06-.14ZM89.67 42.49v-5.3c-1.22-.09-1.76.38-1.77 1.49v2.38c.02 1.11.58 1.58 1.77 1.43Zm30 0c1.25.12 1.78-.34 1.79-1.47v-2.45a1.29 1.29 0 0 0-1.79-1.32Z"/><path class="cls-2" d="M120.79 76.55h3.84a2.4 2.4 0 0 1 2.59 2.51v3a2.4 2.4 0 0 1-2.56 2.47h-7.76a2.39 2.39 0 0 1-2.54-2.53v-2.92a2.39 2.39 0 0 1 2.51-2.5c1.31-.05 2.62-.03 3.92-.03Zm4.12 5.63v-2.59c0-.57-.15-.75-.73-.74h-6.84a5.58 5.58 0 0 0-.61 0v3.27Z"/></g></g></svg>