<?xml version="1.0" encoding="utf-8"?>
<!-- Generator: Adobe Illustrator 23.0.3, SVG Export Plug-In . SVG Version: 6.00 Build 0)  -->
<svg version="1.1" id="圖層_1" xmlns="http://www.w3.org/2000/svg" xmlns:xlink="http://www.w3.org/1999/xlink" x="0px" y="0px"
	 viewBox="0 0 280.5 253.2" style="enable-background:new 0 0 280.5 253.2;" xml:space="preserve">
<style type="text/css">
	.st0{fill:#EA6011;}
	.st1{fill:#FFFFFF;}
</style>
<g>
	<g id="圖層_1-2">
		<path class="st0" d="M101.8,24c-2.7,1.4-5.5,2.5-8.4,3.3l-1.2-2c2.8-0.7,5.4-1.7,8-2.9L101.8,24z M115.3,18H95.4v-6.4
			c-0.8,0.9-1.3,1.3-1.4,1.4l-1.5-1.8c2.2-2.1,3.9-4.5,5.1-7.3l2.2,0.7c-0.2,0.6-0.5,1.2-0.8,1.8h5.4c-0.2-0.6-0.5-1.2-0.8-1.8
			l2.3-0.5c0.4,0.7,0.8,1.5,1.1,2.3h7.8v2h-8.2v1.3h7.5v1.8h-7.5v1.4h7.5v1.8h-7.5V16h8.8L115.3,18z M115.7,21.7h-10.4v5.9h-2.4
			v-5.9H92.6v-2.1h10.3v-1.1h2.4v1.1h10.4V21.7z M104.1,9.7V8.4h-6.4v1.4L104.1,9.7z M104.1,12.8v-1.3h-6.4v1.4L104.1,12.8z
			 M104.1,16v-1.4h-6.4V16H104.1z M115.9,25.3l-1.3,1.9c-2.6-1.3-5.2-2.4-8-3.2l1.5-1.8C110.7,23,113.4,24.1,115.9,25.3L115.9,25.3z
			 M143.3,27.4h-2.2v-1h-16.8v1.1h-2.3V4.7h21.2L143.3,27.4z M141.1,24.5V6.6h-16.8v17.9H141.1z M140.2,9.5h-6.5v0.8h5.7v5.8h-1
			c0.7,0.6,1.2,1.3,1.6,2.1l-1.6,0.6c-0.1-0.3-0.3-0.5-0.5-0.8c-4.3,0.4-8.5,0.7-12.4,0.8l-0.4-1.5c2.2,0,4.4-0.1,6.6-0.2v-1.1H126
			v-5.9h5.7V9.4h-6.6V8h6.6V7.1h2V8h6.5L140.2,9.5z M140.4,21.2h-2.8v1c0.1,0.5-0.2,1.1-0.7,1.3c-0.8,0.3-1.7,0.4-2.6,0.4h-1.2
			l-0.6-1.7h2.4c0.3,0,0.5-0.2,0.5-0.4v-0.5h-10.3v-1.6h10.3v-0.7h2.1v0.7h2.8L140.4,21.2z M131.8,22.5l-1.2,1.4
			c-0.9-0.5-1.9-0.8-2.9-1.1l1.2-1.4C129.9,21.7,130.9,22,131.8,22.5L131.8,22.5z M131.7,12.5v-0.9h-3.6v0.9H131.7z M131.7,14.7
			v-0.9h-3.6v0.9H131.7z M137.3,12.5v-0.9h-3.6v0.9H137.3z M137.3,14.7v-0.9h-3.6v0.9H137.3z M137.4,16.1h-3.8v1l3.1-0.2
			c-0.1-0.1-0.2-0.3-0.4-0.4L137.4,16.1z M168.6,26.1v-13c0-1.1,0.1-2.5,0.2-4h-0.1c-0.2,0.7-0.4,1.5-0.6,2.2L162,26.1h-2l-6.1-14.7
			c-0.3-0.8-0.5-1.5-0.6-2.3h-0.1c0.1,1.2,0.1,2.7,0.1,4.4v12.6h-2.9V6h4.3l5.4,13.3c0.4,0.8,0.6,1.7,0.8,2.6h0.1
			c0.2-0.5,0.5-1.4,0.9-2.6L167.5,6h4.2v20.1H168.6z M188.4,19.8h-9.9c0.1,2.9,1.6,4.3,4.4,4.3c1.6,0,3.1-0.5,4.3-1.4v2.5
			c-1.5,0.9-3.2,1.3-5,1.3c-1.9,0.1-3.7-0.6-5-1.9c-1.3-1.5-1.9-3.5-1.8-5.5c-0.1-2,0.6-4,1.9-5.5c1.2-1.4,3-2.2,4.9-2.1
			c1.7-0.1,3.4,0.6,4.5,1.8c1.1,1.4,1.7,3.2,1.6,5L188.4,19.8z M185.4,17.6c0.1-1-0.2-2-0.9-2.8c-0.6-0.7-1.5-1.1-2.4-1
			c-0.9,0-1.8,0.3-2.4,1c-0.7,0.8-1.2,1.7-1.3,2.8L185.4,17.6z M204.1,26.1h-3V18c0-2.8-1-4.1-3-4.1c-1,0-1.9,0.4-2.6,1.1
			c-0.7,0.8-1,1.8-1,2.9v8.2h-3.1V11.8h3.1v2.3h0.1c0.9-1.7,2.7-2.7,4.7-2.7c3.2,0,4.8,2,4.8,5.9L204.1,26.1z M215.5,26
			c-0.8,0.4-1.6,0.5-2.4,0.5c-2.7,0-4.1-1.5-4.1-4.5v-7.8h-2.4v-2.4h2.4V8.4l3-0.9v4.3h3.5v2.4H212v7.3c-0.1,0.7,0.1,1.4,0.5,1.9
			c0.4,0.4,0.9,0.7,1.5,0.6c0.5,0,1-0.2,1.5-0.5L215.5,26z M217.3,19.1c-0.1-2.1,0.6-4.1,2-5.6c1.5-1.4,3.5-2.2,5.5-2.1
			c1.9-0.1,3.8,0.6,5.2,2c1.3,1.5,2,3.4,1.9,5.4c0.1,2-0.6,4-2,5.5c-1.4,1.4-3.4,2.2-5.4,2.1c-2,0.1-3.9-0.6-5.3-2
			C217.9,23,217.2,21.1,217.3,19.1z M220.4,19c-0.1,1.3,0.3,2.6,1.1,3.7c0.8,0.9,1.9,1.4,3.1,1.3c2.8,0,4.1-1.7,4.1-5.1
			c0.1-1.3-0.3-2.7-1.1-3.8c-0.8-0.9-1.9-1.4-3.1-1.3c-1.2-0.1-2.4,0.4-3.1,1.4C220.7,16.3,220.3,17.6,220.4,19L220.4,19z
			 M243.4,14.7c-0.5-0.3-1.2-0.5-1.8-0.4c-1,0-1.9,0.5-2.4,1.3c-0.7,1-1,2.2-0.9,3.5v7.1h-3V11.8h3v2.8h0.1c0.7-2.1,2-3.1,3.8-3.1
			c0.4,0,0.9,0,1.3,0.2L243.4,14.7z"/>
		<path class="st1" d="M90.3,47.5H70.9v-1.1H80c-0.1-0.6-0.4-1.3-0.7-1.8l1.2-0.4c0.3,0.7,0.6,1.5,0.7,2.2h9L90.3,47.5z M89.3,62.7
			c0,0.5-0.1,0.9-0.4,1.3c-0.3,0.3-0.9,0.5-2,0.5h-1.3l-0.4-1.2h1.9c0.7,0,1-0.3,1-0.8V56h-15v8.4H72v-9.5h17.3L89.3,62.7z M87,53.4
			H74.2V49h12.9L87,53.4z M85.8,52.2v-2.1H75.4v2.1H85.8z M85.3,62.1h-9.4v-4.5h9.4L85.3,62.1z M84.1,61v-2.3h-7V61H84.1z
			 M100.1,51.5c1.2,1.4,1.9,3.1,2,4.9c0,1.8-0.9,2.7-2.7,2.7c-0.3,0-0.7,0-1.2-0.1l-0.3-1.2c0.5,0,0.9,0,1.3,0
			c1.1,0,1.7-0.4,1.7-1.3c0-1.9-0.8-3.6-2-5c0.8-2.2,1.3-4.1,1.7-5.7h-3.2v18.5h-1.2V44.9h5.6V46C101.4,47.3,100.8,49.1,100.1,51.5
			L100.1,51.5z M108.5,51.8c-1.6,0.7-3.3,1.3-5,1.9l-0.6-1c0.2-0.2,0.4-0.4,0.4-0.7v-7.6h1.1v2.6h3.9V48h-3.9v4.1
			c1.3-0.4,2.6-0.9,3.9-1.5L108.5,51.8z M113.8,64.5h-1.2v-1.3h-7.8v1.3h-1.2v-9.4h3.1c0.3-0.6,0.6-1.3,0.9-2l1.1,0.3
			c-0.2,0.6-0.4,1.2-0.7,1.8h5.8V64.5z M112.6,58.5v-2.3h-7.8v2.3H112.6z M112.6,62v-2.4h-7.8V62H112.6z M115.4,50.2
			c0,0.7-0.1,1.4-0.4,2c-0.2,0.4-0.5,0.6-0.8,0.8c-0.7,0.2-1.4,0.2-2.1,0.2c-0.5,0-1.1,0-1.6-0.1c-0.3-0.1-0.6-0.2-0.8-0.4
			c-0.3-0.3-0.4-0.7-0.4-1.1v-7.3h1.2v2.6h4.1v1.2h-4.1v3.4c0,0.2,0.1,0.4,0.2,0.5c0.4,0.1,0.8,0.1,1.1,0.1c0.6,0,1.2,0,1.8-0.1
			c0.3-0.2,0.4-0.4,0.4-0.7c0.1-0.4,0.1-0.8,0.1-1.2L115.4,50.2z M140,63.9h-20v-1.2h9.5v-6.2h-7.5v-1.2h7.5v-5.6h-8.6v-1.2h9
			c-0.5-1.4-1.3-2.6-2.2-3.8l1.2-0.5c0.9,1.3,1.7,2.7,2.3,4.2h8.1v1.2h-8.5v5.6h7.3v1.2h-7.3v6.2h9.2V63.9z M154.7,47h-6.4
			c-0.8,0.9-1.6,1.8-2.5,2.6l-0.9-0.7c1.6-1.3,2.9-2.9,3.8-4.7l1.1,0.5c-0.2,0.5-0.5,0.9-0.7,1.4h5.7L154.7,47z M164.3,54.7h-1.2
			v-3.2h-16.5v3.2h-1.2v-4.3h8.7c-0.1-0.4-0.3-0.9-0.6-1.3l1-0.4c0.3,0.5,0.6,1.1,0.7,1.7h9L164.3,54.7z M162.2,63.5h-12.9v1h-1.2
			V53.3h13.5v4h-12.3V59h12.9V63.5z M160.4,56.1v-1.8h-11.1v1.8L160.4,56.1z M161,62.4v-2.2h-11.8v2.2L161,62.4z M152.3,49.3l-1,0.5
			c-0.4-0.7-0.8-1.3-1.3-1.9l1-0.4C151.5,48,151.9,48.6,152.3,49.3z M164.9,47h-7.4c-0.5,0.6-1.1,1.2-1.8,1.8l-0.9-0.7
			c1.3-1.1,2.4-2.4,3.2-3.9l1.1,0.4c-0.2,0.4-0.5,0.9-0.8,1.3h6.5L164.9,47z M161.5,49.4l-1,0.4c-0.3-0.7-0.7-1.4-1.2-2l1.1-0.4
			C160.8,48,161.2,48.7,161.5,49.4L161.5,49.4z M176.3,46.3h-0.9v18.2h-1.1v-3.8c-1.8,0.8-3.3,1.4-4.5,1.8l-0.4-1
			c0.6-0.2,1.1-0.4,1.3-0.5V46.3h-1v-1.1h6.5L176.3,46.3z M174.3,49.9v-3.6h-2.4v3.6H174.3z M174.3,55v-4h-2.4v4L174.3,55z
			 M174.3,59.6v-3.5h-2.4v4.5C172.3,60.5,173.1,60.1,174.3,59.6z M189.7,60.4c-0.2,2.7-0.9,4.1-1.9,4.1s-1.6-1-2.2-3.1
			c-0.9,1.1-2.1,2-3.3,2.8l-0.6-0.9c1.3-0.9,2.5-2,3.6-3.3c-0.4-2.6-0.6-5.2-0.6-7.8h-8.3v-1.1h2.2c-0.2-1.2-0.4-2.3-0.7-3.5H177
			v-1.1h2.9c-0.2-0.6-0.5-1.2-0.9-1.7l1-0.5c0.4,0.7,0.8,1.5,1.1,2.3h2.7v1.1h-0.9c-0.1,1.2-0.3,2.3-0.6,3.5h2.3v-6.6h1.1
			c0,2.9,0,5.1-0.1,6.7h3.8v1.1h-3.8c0,2.1,0.1,4.2,0.4,6.3c0.8-1.5,1.4-3.1,1.9-4.8l1,0.4c-0.5,2.2-1.4,4.3-2.6,6.2
			c0.1,0.7,0.3,1.4,0.7,2.1c0.3,0.6,0.5,0.9,0.7,0.9s0.3-0.3,0.5-1c0.2-0.8,0.3-1.6,0.4-2.5L189.7,60.4z M183,61.4h-5.6v-7.6h5.5
			L183,61.4z M181.9,56.9v-2.1h-3.4v2.1L181.9,56.9z M181.9,60.3V58h-3.4v2.3L181.9,60.3z M181.8,47.6H179c0.3,1.3,0.6,2.5,0.7,3.5
			h1.5C181.4,50.2,181.6,49,181.8,47.6L181.8,47.6z M189.1,49.3l-1,0.4c-0.3-1.2-0.7-2.3-1.3-3.4l1-0.4
			C188.4,47,188.8,48.2,189.1,49.3L189.1,49.3z M198.9,52.9l-0.8,1c-1.1-1.1-2.4-2-3.7-2.9l0.8-1C196.5,50.8,197.7,51.8,198.9,52.9z
			 M198.6,56.5c-0.8,2.7-1.9,5.3-3.3,7.8l-0.9-0.8c1.3-2.4,2.4-5,3.2-7.6L198.6,56.5z M199.2,47.1l-0.8,0.9c-1.1-1.1-2.3-2-3.6-2.8
			l0.8-0.9C196.9,45.1,198.1,46,199.2,47.1z M214.3,46h-12.8v6.3c0.1,2.5-0.2,5-0.7,7.5c-0.4,1.7-1.1,3.3-2,4.8l-1-0.8
			c1.7-3.1,2.6-6.6,2.5-10.1v-8.9h14L214.3,46z M214.4,63.9H202v-1.2h5.6v-3.5h-4.7V58h4.7v-2.4h1.2V58h4.8v1.2h-4.8v3.5h5.6
			L214.4,63.9z M214.1,54.5h-11.7v-1.2h5.1v-3h-4.4v-1.1h4.4v-2.2h1.2v2.2h4.5v1.1h-4.5v3h5.3V54.5z M226.6,54.8
			c-0.9,0.3-1.9,0.6-3.1,1v7.1c0,0.4-0.1,0.8-0.4,1.1c-0.3,0.3-0.7,0.5-1.2,0.4c-0.6,0-1,0.1-1.4,0.1h-0.6l-0.3-1.2
			c1,0,1.6,0.1,2,0.1c0.2,0,0.3-0.1,0.4-0.2c0.1-0.1,0.2-0.3,0.2-0.5v-6.4c-1.4,0.4-2.4,0.7-3,0.8l-0.2-1.2c0.8-0.2,1.9-0.5,3.3-0.9
			v-5.5h-2.9v-1.2h2.9v-3.9h1.2v3.9h2.7v1.2h-2.7v5.1c0.9-0.2,1.9-0.5,2.8-0.9L226.6,54.8z M239.1,52.1h-9.9
			c-0.8,0.1-1.6-0.6-1.6-1.4c0,0,0-0.1,0-0.1v-6.1h1.2v2.2h9.5v1.2h-9.5v2.5c0,0.2,0.1,0.3,0.2,0.4c0.1,0.1,0.3,0.2,0.4,0.2h9.7
			L239.1,52.1z M237.8,64.5h-1.2v-1.3h-7.8v1.3h-1.2V54h10.2V64.5z M236.7,57.9v-2.7h-7.8v2.7H236.7z M236.7,62v-2.9h-7.8V62H236.7z
			 M255.5,54.9c0,1.7-0.2,3.5-0.5,5.2c-0.3,1.7-0.7,2.8-1.2,3.2c-0.4,0.4-0.9,0.7-1.4,0.9c-1.3,0.3-2.6,0.4-3.9,0.3h-1.8l-0.5-1.2
			c0.8,0,1.6,0.1,2.4,0.1c0.9,0,1.7,0,2.6-0.1c0.4-0.1,0.9-0.2,1.3-0.5c0.3-0.2,0.6-0.6,0.9-0.9c0.3-0.7,0.5-1.4,0.6-2.2
			c0.2-1.2,0.3-2.3,0.4-3.5H245c0.4-2,0.7-4,0.9-6.1h8.3v-4h-9.4v-1.2h10.6v6.3H247c-0.2,1.3-0.4,2.5-0.6,3.7L255.5,54.9z
			 M262.3,64.5H261V44.4h1.3L262.3,64.5z"/>
		<path class="st0" d="M121.9,116.1h-5.2v2.3c0,0.6-0.2,1.3-0.6,1.7c-0.7,0.6-1.6,0.8-2.5,0.7c-0.5,0-1.4,0-2.5-0.1l-0.6-2.1h3.2
			c0.3,0,0.6-0.2,0.6-0.5c0,0,0,0,0-0.1v-1.9H98.7v-1.9h15.6v-0.8h2.4v0.8h5.2L121.9,116.1z M121.6,112.7l-2,1.1
			c-0.3-0.5-0.7-0.9-1.1-1.3c-7.5,0.4-13.7,0.6-18.6,0.5l-0.6-1.9h4.4c2.2,0,4,0,5.4-0.1v-1.4H101V102h8.1v-1.2H99V99h10.1v-1.4h2.3
			V99h9.9v1.8h-9.9v1.2h8.2v7.7h-0.7C119.9,110.7,120.8,111.7,121.6,112.7z M109.1,118.9l-1.8,1.6c-1.3-0.9-2.7-1.7-4.1-2.4l1.8-1.6
			C106.5,117.1,107.8,117.9,109.1,118.9z M109.1,105.1v-1.3h-5.8v1.3H109.1z M109.1,107.9v-1.2h-5.8v1.2H109.1z M117.3,105.1v-1.3
			h-5.9v1.3H117.3z M117.3,107.9v-1.2h-5.9v1.2H117.3z M117.4,109.7h-6v1.3c2.4-0.1,4.2-0.2,5.4-0.3c-0.2-0.2-0.3-0.4-0.5-0.5
			L117.4,109.7z M149.5,102.2h-18.6v8.6c0.1,3.5-0.6,6.9-2.2,10L127,119c1.2-2.7,1.8-5.7,1.7-8.7V97.9h20.8L149.5,102.2z
			 M147.2,100.7v-1.2h-16.3v1.2H147.2z M149.8,111.8c0,1.5,0,3-0.1,4.3s-0.2,2.3-0.2,2.8c-0.1,1-1,1.8-2,1.8h-1l-0.7-2.1
			c0.4,0,0.7,0.1,1,0.1c0.2,0,0.3-0.1,0.4-0.2c0.2-0.6,0.3-1.3,0.3-1.9c0.1-1.2,0.1-2.3,0.1-3.3h-6.9v0.8h5.1v3.3h-1.6
			c0.5,0.6,1,1.3,1.4,2l-1.6,0.9c-0.1-0.3-0.3-0.6-0.5-0.8c-4.2,0.4-8,0.8-11.4,1l-0.6-1.6c3.3-0.1,5.6-0.2,7-0.4v-1.1h-5.2v-2.5
			c-0.3,0.2-0.6,0.4-0.9,0.6l-1.4-1.7c1.6-0.7,3.1-1.6,4.4-2.9h-3v-3.5h17v3.5H138c-0.2,0.3-0.5,0.6-0.8,0.9L149.8,111.8z
			 M138.9,106.2c-2.2,0.4-4.4,0.6-6.7,0.7l-0.6-1.3c2.2,0,4.5-0.2,6.7-0.6L138.9,106.2z M138.8,103.5l-0.6,1.2
			c-2.1-0.3-4.2-0.6-6.3-0.8l0.5-1.2C134.5,102.8,136.7,103.1,138.8,103.5z M138.6,114.1v-0.8h-2.8c-0.2,0.2-0.5,0.4-1,0.8H138.6z
			 M137.5,109.7v-1h-2.7v1H137.5z M138.6,116.2v-0.8h-3.1v0.8H138.6z M142.3,109.7v-1h-2.6v1H142.3z M142,106.8h-2.3v-3.8h2.2
			L142,106.8z M143.7,116.2v-0.8h-2.9v0.8H143.7z M142.8,117.3h-2v0.9c0.6,0,1.2-0.1,1.7-0.2c-0.1-0.1-0.2-0.3-0.4-0.4L142.8,117.3z
			 M150.1,103.9c-2.1,0.4-4.3,0.7-6.5,0.7l-0.6-1.2c2.1-0.1,4.2-0.3,6.3-0.7L150.1,103.9z M150.3,105.9l-0.5,1.2
			c-2.2-0.6-4.5-0.9-6.8-1l0.6-1.2C145.9,105.1,148.1,105.4,150.3,105.9L150.3,105.9z M147.2,109.6v-1h-2.7v1H147.2z M170.5,118.7
			c-1.8,0.8-3.7,1.2-5.6,1.1c-2.6,0.1-5.2-0.9-7-2.7c-1.8-2-2.8-4.6-2.6-7.2c-0.1-2.9,0.9-5.7,2.9-7.7c2-2,4.7-3.1,7.5-3
			c1.6-0.1,3.3,0.2,4.8,0.8v3.1c-1.4-0.8-3.1-1.2-4.7-1.2c-2-0.1-3.9,0.7-5.3,2.2c-1.4,1.6-2.1,3.6-2,5.7c-0.1,2,0.6,3.9,1.9,5.4
			c1.3,1.4,3.1,2.2,5,2.1c1.8,0,3.6-0.4,5.1-1.3L170.5,118.7z M173.1,112.5c-0.1-2.1,0.6-4.1,2-5.6c1.5-1.4,3.5-2.2,5.5-2.1
			c1.9-0.1,3.8,0.6,5.2,2c1.3,1.5,2,3.4,1.9,5.4c0.1,2-0.6,4-2,5.5c-1.4,1.4-3.4,2.2-5.4,2.1c-2,0.1-3.9-0.6-5.3-2
			C173.7,116.4,172.9,114.4,173.1,112.5L173.1,112.5z M176.2,112.4c-0.1,1.3,0.3,2.6,1.1,3.7c0.8,0.9,1.9,1.4,3.1,1.3
			c2.8,0,4.1-1.7,4.1-5.1c0.1-1.3-0.3-2.7-1.1-3.8c-0.8-0.9-1.9-1.4-3.1-1.3c-1.2-0.1-2.4,0.5-3.1,1.4
			C176.5,109.7,176.1,111.1,176.2,112.4L176.2,112.4z M191,106.1c1.5-0.9,3.3-1.3,5.1-1.3c3.6,0,5.4,1.9,5.4,5.6v9.1h-3v-2.2h-0.1
			c-0.9,1.6-2.5,2.6-4.4,2.5c-1.2,0.1-2.4-0.3-3.3-1.1c-0.8-0.8-1.3-1.9-1.2-3.1c0-2.7,1.6-4.2,4.8-4.7l4.2-0.6
			c0-2.1-0.9-3.2-2.8-3.2c-1.7,0-3.4,0.6-4.7,1.7L191,106.1z M195.4,112.8c-0.8,0-1.6,0.3-2.2,0.8c-0.5,0.4-0.7,1.1-0.6,1.7
			c0,0.6,0.2,1.2,0.7,1.6c0.5,0.4,1.1,0.6,1.8,0.6c1,0,1.9-0.4,2.5-1.1c0.7-0.7,1-1.7,1-2.7v-1.3L195.4,112.8z M215.7,118.9
			c-1.2,0.7-2.6,1-4.1,0.9c-1.9,0.1-3.7-0.7-5.1-2c-1.3-1.4-2-3.3-1.9-5.2c-0.1-2.1,0.6-4.2,2.1-5.7c2.5-2.2,6-2.7,9-1.4v2.8
			c-1-0.7-2.1-1.1-3.3-1.1c-1.3,0-2.5,0.5-3.4,1.4c-0.9,1-1.4,2.4-1.3,3.8c-0.1,1.3,0.4,2.6,1.2,3.6c0.9,0.9,2.1,1.4,3.3,1.3
			c1.2,0,2.4-0.4,3.4-1.2L215.7,118.9z M231.6,119.5h-3v-8.2c0-2.7-1-4-3-4c-1,0-1.9,0.4-2.5,1.2c-0.7,0.8-1,1.9-1,2.9v8.2h-3V98.3
			h3v9.2h0.1c0.9-1.7,2.7-2.7,4.6-2.6c3.2,0,4.9,2,4.9,5.9L231.6,119.5z"/>
		<path class="st0" d="M96.2,211.2H91v2.3c0,0.6-0.2,1.3-0.6,1.7c-0.7,0.6-1.6,0.8-2.5,0.7c-0.5,0-1.3,0-2.4-0.1l-0.6-2.1h3.2
			c0.3,0,0.6-0.2,0.6-0.5c0,0,0,0,0,0v-1.9H73v-1.9h15.6v-0.8H91v0.8h5.2L96.2,211.2z M96,207.8l-2,1.2c-0.3-0.5-0.7-0.9-1.1-1.3
			c-7.5,0.4-13.7,0.6-18.6,0.5l-0.6-1.9h4.4c2.2,0,4,0,5.4-0.1v-1.4h-8.1v-7.7h8.1v-1.3H73.4v-1.8h10.1v-1.3h2.3v1.3h9.9v1.8h-9.9
			v1.3H94v7.7h-0.7C94.3,205.9,95.2,206.9,96,207.8z M83.5,214l-1.8,1.6c-1.3-0.9-2.7-1.7-4.1-2.4l1.8-1.6
			C80.8,212.3,82.2,213.1,83.5,214z M83.5,200.2v-1.3h-5.8v1.3H83.5z M83.5,203v-1.2h-5.8v1.2L83.5,203z M91.7,200.2v-1.3h-6v1.3
			H91.7z M91.7,203v-1.2h-6v1.2L91.7,203z M91.7,204.9h-6v1.3c2.4-0.1,4.2-0.2,5.4-0.3c-0.2-0.2-0.3-0.4-0.5-0.5L91.7,204.9z
			 M123.9,197.4h-18.6v8.6c0.1,3.5-0.6,6.9-2.2,10l-1.8-1.9c1.2-2.7,1.8-5.7,1.7-8.7v-12.4h20.8V197.4z M121.6,195.8v-1.2h-16.3v1.2
			H121.6z M124.2,207c0,1.5,0,2.9-0.1,4.3s-0.2,2.3-0.2,2.8c0,0.5-0.3,1-0.7,1.3c-0.4,0.3-0.8,0.5-1.3,0.5h-1l-0.7-2.1
			c0.3,0,0.7,0.1,1,0.1c0.2,0,0.3-0.1,0.4-0.2c0.2-0.6,0.3-1.3,0.3-1.9c0.1-1.1,0.1-2.3,0.1-3.4h-6.9v0.8h5.1v3.3h-1.7
			c0.5,0.6,1,1.3,1.4,2l-1.6,0.9c-0.1-0.3-0.3-0.6-0.5-0.8c-4.3,0.4-8,0.8-11.3,1L106,214c3.3-0.1,5.6-0.3,7-0.4v-1.1h-5.2V210
			c-0.3,0.2-0.6,0.4-0.9,0.6l-1.4-1.6c1.6-0.7,3.1-1.6,4.4-2.9h-3v-3.5h17v3.5h-11.5c-0.2,0.3-0.5,0.6-0.8,0.9L124.2,207z
			 M113.2,201.4c-2.2,0.4-4.4,0.6-6.7,0.7l-0.6-1.3c2.2,0,4.5-0.2,6.7-0.6L113.2,201.4z M113.2,198.7l-0.6,1.2
			c-2.2-0.4-4.3-0.6-6.3-0.8l0.5-1.2C108.9,198,111,198.2,113.2,198.7L113.2,198.7z M112.9,209.2v-0.8h-2.8c-0.3,0.3-0.6,0.6-1,0.8
			H112.9z M111.8,204.9v-1h-2.7v1H111.8z M112.9,211.3v-0.8h-3.1v0.8H112.9z M116.6,204.9v-1H114v1H116.6z M116.4,201.9h-2.3v-3.8
			h2.3V201.9z M118,211.3v-0.8h-2.9v0.8H118z M117.1,212.5h-2v0.9c0.6,0,1.2-0.1,1.7-0.2c-0.1-0.1-0.2-0.3-0.3-0.4L117.1,212.5z
			 M124.4,199.1c-2.1,0.4-4.3,0.6-6.5,0.7l-0.6-1.2c2.1-0.1,4.2-0.3,6.3-0.7L124.4,199.1z M124.7,201.1l-0.5,1.2
			c-2.2-0.6-4.5-0.9-6.8-1l0.6-1.2C120.2,200.2,122.5,200.6,124.7,201.1L124.7,201.1z M121.5,204.9v-1h-2.7v1H121.5z M144.8,213.9
			c-1.8,0.8-3.7,1.2-5.6,1.1c-2.6,0.1-5.2-0.9-7-2.8c-1.8-2-2.7-4.6-2.6-7.2c-0.1-2.9,0.9-5.7,2.9-7.7c2-2,4.7-3.1,7.5-3
			c1.6,0,3.3,0.2,4.8,0.8v3.2c-1.4-0.8-3.1-1.2-4.7-1.2c-2-0.1-3.9,0.7-5.3,2.2c-1.4,1.6-2.1,3.6-2,5.6c-0.1,2,0.6,3.9,1.9,5.4
			c1.3,1.4,3.1,2.1,5,2.1c1.8,0,3.6-0.4,5.1-1.3L144.8,213.9z M147.4,207.6c-0.1-2.1,0.6-4.1,2-5.6c1.5-1.4,3.5-2.2,5.5-2.1
			c1.9-0.1,3.8,0.6,5.2,2c1.3,1.5,2,3.4,1.9,5.4c0.1,2-0.6,4-2,5.5c-1.4,1.4-3.4,2.2-5.4,2.1c-2,0.1-3.9-0.6-5.3-2
			C148,211.6,147.3,209.6,147.4,207.6L147.4,207.6z M150.5,207.5c-0.1,1.3,0.3,2.6,1.1,3.7c0.8,0.9,1.9,1.4,3.1,1.3
			c2.8,0,4.1-1.7,4.1-5.1c0.1-1.3-0.3-2.7-1.1-3.8c-0.8-0.9-1.9-1.4-3.1-1.3c-1.2-0.1-2.4,0.4-3.1,1.4
			C150.8,204.9,150.4,206.2,150.5,207.5L150.5,207.5z M177.7,214.7h-3v-2.2h-0.1c-0.9,1.6-2.6,2.7-4.4,2.6c-3.4,0-5.1-2-5.1-6.1
			v-8.6h3v8.2c0,2.7,1,4,3.1,4c0.9,0,1.9-0.4,2.5-1.1c0.7-0.8,1-1.8,1-2.9v-8.3h3L177.7,214.7z M194.6,214.7h-3v-8.1
			c0-2.8-1-4.1-3-4.1c-1,0-1.9,0.4-2.5,1.1c-0.7,0.8-1,1.9-1,2.9v8.2h-3v-14.4h3v2.4h0.1c0.9-1.7,2.7-2.7,4.6-2.7
			c3.2,0,4.8,2,4.8,5.9L194.6,214.7z M198,211.3c1.2,0.9,2.7,1.3,4.2,1.4c1.9,0,2.9-0.6,2.9-1.8c0-0.5-0.2-0.9-0.6-1.2
			c-0.8-0.5-1.7-0.9-2.7-1.3c-1.1-0.3-2.1-1-2.9-1.8c-1.3-1.7-0.9-4.2,0.8-5.5c0,0,0.1,0,0.1-0.1c1.2-0.8,2.7-1.2,4.1-1.1
			c1.2,0,2.4,0.2,3.5,0.6v2.7c-1.1-0.7-2.4-1-3.7-1c-0.7,0-1.3,0.1-1.9,0.5c-0.4,0.3-0.7,0.7-0.7,1.3c0,0.5,0.2,0.9,0.5,1.2
			c0.7,0.5,1.6,0.9,2.4,1.2c1.2,0.4,2.3,1,3.2,1.8c0.6,0.7,0.9,1.5,0.9,2.4c0,1.3-0.6,2.5-1.7,3.2c-1.3,0.8-2.8,1.2-4.4,1.2
			c-1.4,0-2.7-0.2-4-0.8V211.3z M223.2,208.3h-9.9c0.1,2.9,1.6,4.4,4.4,4.4c1.6,0,3.1-0.5,4.4-1.4v2.5c-1.5,0.9-3.3,1.3-5.1,1.3
			c-1.9,0.1-3.7-0.6-5-1.9c-1.3-1.5-1.9-3.5-1.8-5.4c-0.1-2,0.6-4,1.9-5.5c1.2-1.4,3-2.2,4.9-2.1c1.7-0.1,3.4,0.6,4.5,1.8
			c1.1,1.4,1.7,3.2,1.6,5.1L223.2,208.3z M220.2,206.1c0.1-1-0.2-2-0.9-2.8c-0.6-0.7-1.5-1.1-2.4-1c-0.9,0-1.8,0.3-2.4,1
			c-0.7,0.8-1.2,1.7-1.3,2.8L220.2,206.1z M226.4,214.7v-21.2h3v21.2H226.4z M232.8,207.6c-0.1-2.1,0.6-4.1,2-5.6
			c1.5-1.4,3.5-2.2,5.5-2.1c1.9-0.1,3.8,0.6,5.2,2c1.3,1.5,2,3.4,1.9,5.4c0.1,2-0.6,4-2,5.5c-1.4,1.4-3.4,2.2-5.4,2.1
			c-2,0.1-3.9-0.6-5.3-2C233.4,211.5,232.7,209.6,232.8,207.6z M235.9,207.5c-0.1,1.3,0.3,2.6,1.1,3.7c0.8,0.9,1.9,1.4,3.1,1.3
			c2.8,0,4.1-1.7,4.1-5.1c0.1-1.3-0.3-2.7-1.1-3.8c-0.8-0.9-1.9-1.4-3.1-1.3c-1.2-0.1-2.4,0.4-3.1,1.4
			C236.2,204.9,235.8,206.2,235.9,207.5L235.9,207.5z M258.9,203.2c-0.5-0.3-1.2-0.5-1.8-0.4c-1,0-1.9,0.5-2.4,1.3
			c-0.7,1-1,2.2-0.9,3.4v7.1h-3v-14.4h3v2.9h0.1c0.7-2.1,2-3.1,3.8-3.1c0.4,0,0.9,0,1.3,0.2V203.2z"/>
		<path class="st1" d="M76.3,252.1l-0.9,0.9c-4.7-3.3-8-8.3-9.2-13.9c-1,5.4-4,10-9.2,13.9l-0.8-1c1.8-1.2,3.4-2.8,4.8-4.5
			c1.4-1.8,2.6-3.8,3.3-5.9c0.9-2.8,1.3-5.8,1.2-8.7h1.3c-0.1,3.9,0.7,7.8,2.5,11.3C71,247.3,73.4,250.1,76.3,252.1L76.3,252.1z
			 M97.7,249.8h-9.1l0.6,0.8c-2.4,1.2-4.9,2.1-7.6,2.6l-0.5-1.1c2.4-0.4,4.8-1.2,7-2.3h-3.6v-8.4h13.3L97.7,249.8z M87.6,239.2h-6.4
			V238h6.4V239.2z M87.4,235h-5.8v-1.1h5.8V235z M96.5,243.7v-1.3H85.6v1.3H96.5z M96.5,246.2v-1.4H85.6v1.4H96.5z M96.5,248.7v-1.4
			H85.6v1.4H96.5z M101.1,239.9l-0.5,1.1c-2.5-0.3-4.9-1.2-6.9-2.7c-1.5,1.4-3.3,2.3-5.3,2.7l-0.6-1.1c2.8-0.4,4.8-1.6,5.8-3.4
			l1.3,0.2c-0.1,0.3-0.3,0.6-0.5,0.9C96.4,239,98.7,239.8,101.1,239.9L101.1,239.9z M100.6,235.7c-0.6,0.9-1.4,1.8-2.2,2.6l-0.9-0.8
			c0.6-0.6,1.2-1.3,1.7-2h-8.4c-0.6,0.8-1.3,1.5-2.1,2.1l-0.8-0.8c1.4-1.1,2.5-2.5,3.3-4.1l1.1,0.4l-0.7,1.3h8.9L100.6,235.7z
			 M101,252.1l-0.6,1.1c-2.2-0.8-4.4-1.5-6.7-1.9l0.6-1C96.6,250.7,98.8,251.3,101,252.1L101,252.1z M125.7,249.2h-9.4v2.3
			c0,0.4-0.1,0.7-0.4,1c-0.3,0.2-0.6,0.4-1,0.4h-2.7l-0.4-1.1h1.3c0.6,0,1.2,0,1.8-0.1c0.2-0.1,0.3-0.3,0.3-0.6v-1.8h-9.4v-1.1h9.4
			v-0.9c1.3-0.4,2.5-0.9,3.7-1.5h-9.3v-1.1h11.7v1.1c-1.6,0.8-3.3,1.6-5,2.2v0.2h9.4L125.7,249.2z M125.2,246.1H124v-2.9h-16.6v2.9
			h-1.2v-4h1.2l-0.1-8.3c1.5-0.2,2.9-0.5,4.3-1.1l0.5,0.9c-1.2,0.5-2.4,0.9-3.7,1.1v1.6h3.7v1.1h-3.7v1.8h3.6v1.1h-3.6v1.9h14.1
			v-1.9h-3.6v-1.1h3.7v-1.8h-3.7v-1.1h3.7v-1.7h-4v-1.1h5.2l-0.2,8.5h1.4L125.2,246.1z M118.7,240.8l-0.8,0.8
			c-0.2-0.2-0.9-0.8-2-1.7c-0.9,0.6-1.8,1.2-2.8,1.6l-0.6-0.9c0.9-0.4,1.7-0.9,2.5-1.4c-0.3-0.3-0.6-0.5-1-0.7
			c-0.4-0.3-0.7-0.4-0.8-0.6l0.7-0.7c1.1,0.8,1.8,1.2,2,1.4c0.5-0.4,1-0.8,1.5-1.3l0.9,0.6c-0.5,0.5-1,1-1.5,1.4
			C117.1,239.5,117.8,240,118.7,240.8L118.7,240.8z M118.6,236.4l-0.8,0.7c-0.6-0.6-1.3-1.1-1.9-1.6c-0.8,0.6-1.7,1.1-2.6,1.5
			l-0.5-0.9c0.8-0.4,1.6-0.8,2.3-1.3c-0.5-0.5-1.1-0.9-1.7-1.3l0.8-0.7c0.9,0.7,1.5,1.1,1.8,1.3c0.6-0.5,1.1-1,1.6-1.5l0.9,0.5
			c-0.5,0.6-1,1.2-1.7,1.8C117.4,235.3,118.1,235.9,118.6,236.4L118.6,236.4z M150.6,244.1h-15.8v7.2c1.5-0.4,3.2-1,5.2-1.8l0.3,1.1
			c-2.4,0.9-4.6,1.6-6.6,2.2l-0.4-1.2c0.2-0.1,0.4-0.3,0.4-0.5v-7h-3.1V243h3.7v-9.5h15v1.1h-13.8v2H148v1.1h-12.6v2H148v1.1h-12.6
			v2.1h15.1V244.1z M150.4,251.7l-0.7,1.1c-2.3-0.5-4.5-1.4-6.5-2.5c-1.9-1.1-3.3-2.8-4.2-4.8l1.1-0.5c0.6,1.4,1.6,2.6,2.7,3.5
			c1.7-0.9,3.4-2.1,4.8-3.4l0.9,0.8c-1.4,1.3-2.9,2.4-4.6,3.4C145.9,250.5,148.1,251.3,150.4,251.7L150.4,251.7z M164.1,238.1
			l-1.2,0.2c-0.1,3-0.7,6.1-1.8,8.9c0.8,0.7,1.7,1.5,2.6,2.4l-0.8,1c-0.7-0.8-1.5-1.5-2.4-2.2c-1.2,1.9-2.8,3.6-4.8,4.7l-0.8-0.9
			c1.9-1.1,3.5-2.7,4.6-4.6c-1.1-0.9-2.4-1.9-4-3c0.6-1.8,1.1-3.7,1.5-5.6c-0.8,0.1-1.5,0.1-2,0.1l-0.1-1.1c0.4,0,1.2,0,2.3-0.1
			c0.4-1.6,0.7-3.3,0.9-4.9l1.1,0.3c-0.1,0.8-0.4,2.3-0.8,4.5c0.9,0,1.9-0.1,3.1-0.3c0.1-0.8,0.1-1.4,0.1-1.9h1.2c0,0.4,0,1-0.1,1.7
			c0.2,0,0.6-0.1,1.1-0.1L164.1,238.1z M161.8,238.4c-1.1,0.2-2.2,0.3-3.3,0.4c-0.5,2.1-0.9,3.9-1.4,5.3c1.1,0.8,2.1,1.5,3.1,2.3
			C161.1,243.8,161.7,241.2,161.8,238.4z M175.2,252.5h-12.9v-1.1h2.5v-18h8.6v18h1.8V252.5z M172.2,239.1v-4.5h-6.1v4.5H172.2z
			 M172.2,245.1v-4.8h-6.1v4.8H172.2z M172.2,251.4v-5.1h-6.1v5.1L172.2,251.4z M189,239.5h-6.8V253H181v-19.5h8V239.5z
			 M187.9,235.9v-1.4h-5.6v1.4H187.9z M187.9,238.4V237h-5.6v1.4H187.9z M189.7,245.7l-0.9,0.5l-0.3-0.6l-4.7,0.6l-0.3-0.9
			c1-0.6,2-1.3,2.9-2.2l-2.6,0.4l-0.3-0.9c1.1-0.7,2.2-1.7,3-2.7l1.1,0.5c-0.7,0.7-1.4,1.4-2.1,2l2.1-0.3c0.4-0.3,0.8-0.7,1.1-1.1
			l1.1,0.5c-1.3,1.3-2.7,2.5-4.1,3.7l2.5-0.4c-0.1-0.3-0.3-0.5-0.5-0.7l1-0.4C189,244.2,189.3,245,189.7,245.7L189.7,245.7z
			 M189,247.8c0.1,1.2-0.2,2.3-0.9,3.3c-0.8,0.8-1.9,1.4-3,1.5l-0.8-1c2-0.4,3.2-1.2,3.4-2.3h-3.6v-2.7h1.1v1.7h2.5
			c0-0.3,0.1-0.5,0.1-0.8v-1h1.1L189,247.8z M197.1,245.7l-0.9,0.6c-0.2-0.4-0.4-0.6-0.5-0.7l-5.4,0.5l-0.2-0.9c1-0.5,1.9-1.2,2.7-2
			l-2.6,0.2l-0.3-0.8c1.2-0.7,2.2-1.6,2.9-2.7l1.1,0.5c-0.6,0.7-1.3,1.4-2,1.9l2-0.2c0.2-0.2,0.5-0.5,1-0.9l1,0.5
			c-1.1,1.2-2.4,2.3-3.6,3.3l2.8-0.3c-0.2-0.3-0.4-0.5-0.6-0.8l0.9-0.5C196,244,196.6,244.8,197.1,245.7L197.1,245.7z M195.6,249.4
			h-3.8v3.2h-1.1v-6h1.1v1.8h2.7v-1.7h1.1V249.4z M199.1,251.7c0,0.4-0.1,0.7-0.4,1c-0.2,0.2-0.6,0.4-0.9,0.4h-2.2l-0.5-1.2
			c0.5,0,1,0.1,1.5,0.1c0.4,0,0.8,0,1.2-0.1c0.1-0.1,0.2-0.2,0.2-0.4v-11.9H191v-6h8L199.1,251.7z M197.9,235.9v-1.4h-5.6v1.4H197.9
			z M197.9,238.4V237h-5.6v1.4L197.9,238.4z M206.6,238.2c-0.2,1.8-0.5,3.7-1,5.4l-1-0.3c0.5-1.7,0.8-3.5,1-5.3L206.6,238.2z
			 M210.9,240l-0.8,1c-0.4-0.7-0.8-1.4-1.3-2v14h-1.2v-20h1.2v4.6C209.6,238.3,210.3,239.2,210.9,240L210.9,240z M218.1,251.9
			c-1.6,0.5-3.2,0.9-4.8,1.3l-0.4-1c0.2-0.2,0.3-0.5,0.3-0.8V249c-1,0.5-2,1-3.1,1.4l-0.6-0.9c2.4-0.8,4.6-2,6.5-3.6l0.8,0.7
			c-0.7,0.7-1.5,1.3-2.3,1.8v3.5c1.7-0.4,2.9-0.7,3.6-1L218.1,251.9z M224.7,235.7h-14.2v-1.1h6.3c-0.3-0.5-0.6-0.9-1-1.4l1.1-0.5
			c0.5,0.6,0.8,1.2,1.2,1.9h6.6L224.7,235.7z M216,245c-1.6,0.5-3.2,0.9-4.9,1.2l-0.3-1c1.6-0.3,3.3-0.7,4.8-1.2L216,245z
			 M216,242.6l-0.4,1c-1.4-0.4-2.8-0.8-4.2-1l0.3-1C213.2,241.9,214.6,242.2,216,242.6z M223.7,241.1h-12.1V237h12.1L223.7,241.1z
			 M215.3,240.1v-2h-2.6v2H215.3z M219,240.1v-2h-2.6v2H219z M218.1,245.9h-1.2v-4.2h1.2V245.9z M224.9,252.1l-0.6,1
			c-3-1-5.3-3.3-6.5-6.2l1-0.3c0.3,0.7,0.7,1.4,1.2,2.1c0.8-0.5,1.6-1.2,2.3-1.9l0.9,0.7c-0.7,0.8-1.6,1.5-2.5,2.1
			C221.8,250.6,223.2,251.5,224.9,252.1L224.9,252.1z M224,242.7c-1.5,0.4-3,0.7-4.5,0.9l-0.4-1c1.5-0.2,3-0.5,4.5-0.9L224,242.7z
			 M224.3,245.2l-0.4,1c-1.6-0.5-3.2-1-4.9-1.2l0.4-0.9C221.1,244.3,222.7,244.7,224.3,245.2L224.3,245.2z M222.6,240v-2H220v2
			H222.6z M238.7,249.7h-3.8v3.3h-1.1v-3.2h-4.2v-1.2h4.2v-2h-3.2v-8.8h3.2v-2.1h-4v-1.1h4v-1.8h1.1v1.8h3.4v1.1h-3.4v2.1h3.2v8.8
			h-3.2v2h3.8V249.7z M233.8,241.6v-2.7h-2.1v2.7H233.8z M233.8,245.4v-2.7h-2.1v2.7H233.8z M237,241.6v-2.7h-2.1v2.7H237z
			 M237,245.4v-2.7h-2.1v2.7H237z M249.5,236.5h-4.7v2.3h3.9v12.8c0,0.3-0.2,0.6-0.4,0.9c-0.2,0.3-0.5,0.4-0.8,0.4L246,253l-0.3-1.1
			h1.2c0.4,0,0.6-0.2,0.6-0.6v-3.5h-2.8v4.9h-1.2v-4.9h-2.7v5.2h-1.1v-14.2h3.9v-2.3h-4.6v-1.1h4.6v-2.7h1.2v2.7h4.7L249.5,236.5z
			 M243.6,242.6v-2.7h-2.7v2.7H243.6z M243.6,246.7v-3h-2.7v3H243.6z M247.5,242.6v-2.7h-2.8v2.7H247.5z M247.5,246.7v-3h-2.8v3
			H247.5z M248.5,234.3l-0.8,0.8c-0.6-0.5-1.2-1-1.9-1.4l0.7-0.9C247.2,233.2,247.9,233.7,248.5,234.3z M274.3,245.3l-0.3,1h-8.2
			c-1.9,0.1-3.8-0.1-5.6-0.6c-0.9-0.3-1.8-0.7-2.5-1.3c-0.8,0.8-1.8,1.6-2.8,2.2l-0.7-0.9c1.8-1,3.2-2.4,4.2-4.2h-3.7v-1.1
			c1.2-0.9,2.3-1.8,3.3-2.8h-3.6v-1.1h5.1v1.1c-1,1-2,2-3.1,2.8h3.1v1.1c-0.3,0.8-0.7,1.5-1.2,2.1c0.7,0.5,1.5,0.9,2.3,1.2
			c1.8,0.4,3.7,0.5,5.6,0.4L274.3,245.3z M274.2,248.9h-4.3v2.3c0,0.5-0.2,1-0.6,1.3c-0.7,0.4-1.4,0.5-2.1,0.4h-1.6l-0.4-1.1h2.9
			c0.4,0,0.6-0.2,0.6-0.5v-2.4h-14.4v-1.1h14.4V247h1.2v0.8h4.3L274.2,248.9z M258.9,235.3l-0.8,0.8c-1-0.9-2.1-1.7-3.2-2.4l0.9-0.7
			C256.9,233.6,257.9,234.4,258.9,235.3z M262.9,251.3l-0.7,0.9c-1.2-0.7-2.4-1.3-3.7-1.8l0.7-0.9
			C260.5,250,261.8,250.5,262.9,251.3L262.9,251.3z M274.2,235.7h-6.3c-0.2,0.4-0.4,0.8-0.7,1.2h5.8v7.1h-11.7v-7.1h4.7
			c0.3-0.4,0.5-0.8,0.7-1.2H260v-1h14.1L274.2,235.7z M265,233.8l-1,0.6c-0.5-0.4-1-0.7-1.5-1l1-0.6C264,233,264.5,233.4,265,233.8z
			 M271.8,238.9v-1.1h-9.3v1.1H271.8z M271.8,241v-1.2h-9.3v1.2L271.8,241z M271.8,243v-1.2h-9.3v1.2L271.8,243z M271.8,233.3
			c-0.5,0.4-1.1,0.7-1.7,1l-1-0.7c0.6-0.2,1.2-0.6,1.7-0.9L271.8,233.3z"/>
		<path class="st0" d="M32.6,0C32.6,18,18,32.6,0,32.6c17.4,0,31.8,13.7,32.5,31.1h0.1c0.8-17.4,15.1-31.1,32.5-31.1
			C47.1,32.6,32.6,18,32.6,0z M32.6,94.6c0,18-14.6,32.6-32.6,32.6c17.4,0,31.8,13.7,32.5,31.1h0.1c0.8-17.4,15.1-31.1,32.5-31.1
			C47.1,127.2,32.6,112.6,32.6,94.6z M32.6,189.2c0,18-14.6,32.6-32.6,32.6c17.4,0,31.8,13.7,32.5,31.1h0.1
			c0.8-17.4,15.1-31.1,32.5-31.1C47.1,221.8,32.6,207.2,32.6,189.2z"/>
		<path class="st0" d="M33,31.4l247.5,0.5C280.3,31,31.2,34.2,33,31.4L33,31.4z M33,126l247.5,0.5C280.3,125.6,31.2,128.8,33,126
			L33,126z M33,220.6l247.5,0.5C280.3,220.2,31.2,223.4,33,220.6L33,220.6z"/>
		<g>
			<path class="st1" d="M80.3,147.5H68.6v-1.1h3.2c-0.3-1.3-0.7-2.7-1.3-4.2l0.9-0.7h-2.3v-1.1h5.1c-0.2-0.6-0.7-1.4-1.3-2.3
				l1.1-0.4c0.5,0.7,1,1.6,1.5,2.7h4.5v1.1h-2.3l0.9,0.6c-0.4,1.5-0.9,2.9-1.5,4.3h3.4V147.5z M78.9,157.8h-1.2v-1.5h-6.4v1.5h-1.2
				v-8h8.8V157.8z M77.7,155.1v-4.2h-6.4v4.2H77.7z M77.3,141.5h-5.8c0.7,1.7,1.2,3.3,1.5,4.9h2.6C76.4,145,76.9,143.3,77.3,141.5z
				 M86.1,146.6c1.6,1.9,2.3,3.8,2.3,5.8c0,1-0.2,1.7-0.7,2.2c-0.5,0.5-1.4,0.7-2.8,0.7c-0.2,0-0.5,0-0.8,0l-0.3-1.2
				c0.4,0,0.8,0.1,1.3,0.1c0.7,0,1.1,0,1.3-0.1c0.2-0.1,0.4-0.3,0.6-0.5c0.2-0.3,0.2-0.7,0.2-1.2c0-1.7-0.8-3.5-2.4-5.4
				c0.8-2.3,1.5-4.7,2.1-7.1h-4.4v18.1h-1.1v-19.3h6.7v1.2C87.5,142.1,86.8,144.4,86.1,146.6z"/>
			<path class="st1" d="M102.2,147.4h-6.7v10.4h-1.3v-19.4h8V147.4z M101,142.3v-2.7h-5.5v2.7H101z M101,146.2v-2.8h-5.5v2.8H101z
				 M112.4,156c0,0.5-0.1,1-0.4,1.3c-0.2,0.3-0.5,0.5-0.8,0.6c-0.3,0.1-0.9,0.1-1.8,0.1c-0.5,0-1,0-1.7,0l-0.5-1.3
				c0.5,0,1.2,0.1,1.9,0.1c1,0,1.6,0,1.8-0.1c0.2-0.1,0.3-0.2,0.3-0.5v-8.7h-6.7v-9h7.9V156z M111.2,142.3v-2.7h-5.6v2.7H111.2z
				 M111.2,146.2v-2.8h-5.6v2.8H111.2z"/>
			<path class="st1" d="M138,157.3h-20v-1.2h9.5v-6.2h-7.5v-1.2h7.5v-5.6h-8.6v-1.2h9c-0.7-1.6-1.4-2.9-2.2-3.8l1.2-0.5
				c0.9,1.3,1.7,2.7,2.3,4.2h8.1v1.2h-8.5v5.6h7.3v1.2h-7.3v6.2h9.3V157.3z"/>
			<path class="st1" d="M152.7,140.4h-6.5c-0.8,0.9-1.6,1.8-2.5,2.6l-0.9-0.7c1.6-1.3,2.9-2.9,3.8-4.7l1.1,0.5
				c-0.2,0.4-0.4,0.8-0.8,1.3h5.7V140.4z M162.3,148.1h-1.2v-3.2h-16.5v3.2h-1.2v-4.3h8.7c-0.1-0.3-0.3-0.7-0.6-1.3l1-0.4
				c0.3,0.5,0.6,1.1,0.7,1.7h9V148.1z M160.2,156.9h-12.9v0.9h-1.2v-11.2h13.5v4h-12.3v1.8h12.9V156.9z M158.4,149.5v-1.8h-11.1v1.8
				H158.4z M159.1,155.8v-2.2h-11.8v2.2H159.1z M150.3,142.7l-1.1,0.5c-0.3-0.6-0.7-1.2-1.3-1.9l1-0.4
				C149.6,141.5,150,142.1,150.3,142.7z M162.9,140.4h-7.4c-0.5,0.6-1.1,1.2-1.8,1.8l-0.9-0.7c1.7-1.6,2.7-2.9,3.2-3.9l1.1,0.4
				c-0.2,0.4-0.4,0.8-0.8,1.3h6.5V140.4z M159.5,142.8l-1,0.4c-0.5-1-0.9-1.7-1.2-2l1.1-0.4C158.9,141.5,159.2,142.2,159.5,142.8z"
				/>
			<path class="st1" d="M187.7,153.7h-4.9v2.2c0,1.3-0.7,1.9-2.1,1.9c-0.6,0-1.3,0-2.1,0l-0.6-1.1c0.5,0,1.1,0,1.8,0
				c0.9,0,1.4,0,1.6-0.1c0.1-0.1,0.2-0.2,0.2-0.5v-2.4h-13.9v-1.1h13.9v-1.2h1.2v1.2h4.9V153.7z M187.3,140.3h-9.1v1.6h7.3v6.3h-1.2
				c1.1,1,2,2,2.8,3.1l-1,0.7c-0.4-0.6-0.8-1.1-1.1-1.4c-6.2,0.5-11.8,0.7-16.7,0.7l-0.3-1.1c2.8,0,5.8,0,9-0.2v-1.9h-7.3v-6.3h7.3
				v-1.6h-9.1v-1.1h9.1v-1.4h1.2v1.4h9.1V140.3z M177.1,144.4v-1.5H171v1.5H177.1z M177.1,147.1v-1.6H171v1.6H177.1z M175.6,156.3
				l-0.8,0.9c-1.1-0.9-2.2-1.7-3.4-2.3l0.8-0.9C173.3,154.6,174.4,155.3,175.6,156.3z M184.4,144.4v-1.5h-6.1v1.5H184.4z
				 M184.4,147.1v-1.6h-6.1v1.6H184.4z M184.1,149.5c-0.4-0.4-0.7-0.7-0.9-0.8l0.8-0.6h-5.7v1.8
				C180.7,149.8,182.6,149.6,184.1,149.5z"/>
			<path class="st1" d="M212.4,152.1h-9.3v5.9h-1.2v-5.9h-9.5v-1.1h9.5v-1.9h-8.5V148h8.5v-1.8h-8.9v-1.1h6
				c-0.4-0.7-0.8-1.3-1.3-1.8l0.9-0.6h-6.1v-1.2h7.6v-3.7h1.2v3.7h2.6v-3.7h1.1v3.7h7.5v1.2h-6l0.8,0.6c-0.3,0.6-0.6,1.2-1.1,1.8
				h5.8v1.1h-8.8v1.8h8.3v1.1h-8.3v1.9h9.3V152.1z M199.8,153.8c-1.7,1.3-3.9,2.5-6.6,3.5l-0.8-1c2.9-1,5.1-2.1,6.5-3.3L199.8,153.8
				z M197.6,140.4l-1,0.6c-0.6-0.7-1.3-1.5-2.3-2.3l1-0.7C196.3,138.8,197,139.6,197.6,140.4z M206.1,142.7h-7.3
				c0.7,1,1.2,1.8,1.5,2.3h4.3C205.4,144.1,205.8,143.3,206.1,142.7z M212.4,156.6l-0.7,0.9c-2.4-1.5-4.6-2.7-6.7-3.6l0.7-0.9
				C208.3,154.1,210.5,155.3,212.4,156.6z M210.6,138.6c-0.6,0.9-1.4,1.7-2.3,2.4l-1.1-0.6c1-0.9,1.8-1.7,2.3-2.3L210.6,138.6z"/>
			<path class="st1" d="M224.6,148.2c-0.9,0.3-1.9,0.6-3.1,1v7.1c0,0.4-0.1,0.8-0.4,1.1c-0.3,0.3-0.7,0.4-1.2,0.4
				c-0.5,0-1,0.1-1.4,0.1l-0.6,0l-0.3-1.2c1,0,1.7,0.1,2,0.1c0.2,0,0.3-0.1,0.4-0.2c0.1-0.1,0.2-0.3,0.2-0.5v-6.4
				c-1.4,0.4-2.4,0.7-3,0.8l-0.3-1.2c0.8-0.2,1.9-0.5,3.3-0.9v-5.5h-2.9v-1.2h2.9v-3.9h1.2v3.9h2.7v1.2h-2.7v5.1
				c0.9-0.2,1.9-0.6,2.8-0.9L224.6,148.2z M237.1,145.4h-9.9c-0.5,0-0.9-0.2-1.2-0.5c-0.3-0.3-0.4-0.7-0.4-1.1v-6.1h1.2v2.2h9.5v1.2
				h-9.5v2.5c0,0.2,0.1,0.3,0.2,0.4c0.1,0.1,0.3,0.2,0.4,0.2h9.7V145.4z M235.9,157.8h-1.2v-1.3h-7.8v1.3h-1.2v-10.4h10.2V157.8z
				 M234.7,151.3v-2.7h-7.8v2.7H234.7z M234.7,155.4v-2.9h-7.8v2.9H234.7z"/>
			<path class="st1" d="M261.9,150.2l-0.3,1h-8.2c-2.6,0-4.5-0.2-5.6-0.6c-1.1-0.4-1.9-0.8-2.5-1.3c-0.7,0.7-1.6,1.5-2.8,2.2
				l-0.7-0.9c1.9-1.2,3.3-2.6,4.2-4.2h-3.7v-1.1c1.2-0.9,2.4-1.9,3.3-2.8H242v-1.1h5.1v1.1c-1,1-2,2-3.1,2.8h3.1v1.1
				c-0.3,0.8-0.7,1.5-1.2,2.1c0.6,0.5,1.4,0.9,2.3,1.2c1,0.3,2.8,0.5,5.6,0.5H261.9z M261.8,153.7h-4.3v2.3c0,0.6-0.2,1-0.6,1.3
				c-0.4,0.3-1.1,0.4-2.2,0.4h-1.6l-0.4-1.1c1.5,0,2.5,0,2.9,0c0.4,0,0.6-0.2,0.6-0.5v-2.4h-14.4v-1.1h14.4v-0.8h1.2v0.8h4.3V153.7z
				 M246.5,140.1l-0.8,0.8c-0.9-0.8-1.9-1.6-3.2-2.4l0.9-0.7C244.6,138.5,245.6,139.3,246.5,140.1z M250.6,156.1l-0.7,0.9
				c-0.9-0.6-2.2-1.2-3.7-1.8l0.7-0.9C248.1,154.7,249.3,155.3,250.6,156.1z M261.8,140.5h-6.3c-0.3,0.6-0.5,1-0.7,1.2h5.8v7.1H249
				v-7.1h4.6c0.3-0.5,0.5-0.9,0.7-1.2h-6.6v-1h14.1V140.5z M252.6,138.6l-1,0.6c-0.4-0.4-1-0.7-1.6-1l1-0.6
				C251.6,137.9,252.2,138.2,252.6,138.6z M259.4,143.7v-1.1h-9.3v1.1H259.4z M259.4,145.8v-1.2h-9.3v1.2H259.4z M259.4,147.8v-1.2
				h-9.3v1.2H259.4z M259.4,138.2c-0.5,0.4-1,0.7-1.7,1l-1-0.7c0.6-0.2,1.1-0.5,1.7-0.9L259.4,138.2z"/>
		</g>
	</g>
</g>
</svg>
