<svg xmlns="http://www.w3.org/2000/svg" viewBox="0 0 81.71 81.71"><defs><style>.cls-2{fill:#036eb8}</style></defs><g id="圖層_2" data-name="圖層 2"><g id="圖層_1-2" data-name="圖層 1"><circle cx="40.85" cy="40.85" r="40.85" transform="rotate(-76.72 40.854 40.852)" style="fill:#fff"/><path class="cls-2" d="M60.92 61.48H20.58a3.85 3.85 0 0 1-3.85-3.84V25.69a3.85 3.85 0 0 1 3.85-3.84h40.34a3.84 3.84 0 0 1 3.85 3.84v32a3.84 3.84 0 0 1-3.85 3.79ZM20.58 23.25a2.44 2.44 0 0 0-2.44 2.44v32a2.44 2.44 0 0 0 2.44 2.44h40.34a2.45 2.45 0 0 0 2.45-2.44v-32a2.45 2.45 0 0 0-2.45-2.44Z"/><path class="cls-2" d="M41.17 45.12A4.48 4.48 0 0 1 38 43.8l-19.43-19 1-1L39 42.8a3.08 3.08 0 0 0 2.21.92 3.07 3.07 0 0 0 2.21-.93l18.41-18.56 1 1-18.44 18.55a4.48 4.48 0 0 1-3.21 1.34Z"/><path class="cls-2" transform="rotate(-47.96 53.495 51.371)" d="M52.8 39.47h1.4v23.79h-1.4z"/><path class="cls-2" transform="rotate(-42.66 27.93 51.296)" d="M15.43 50.59h25.01V52H15.43z"/></g></g></svg>