<svg xmlns="http://www.w3.org/2000/svg" viewBox="0 0 81.71 81.71"><defs><style>.cls-2{fill:#036eb8}</style></defs><g id="圖層_2" data-name="圖層 2"><g id="圖層_1-2" data-name="圖層 1"><circle cx="40.85" cy="40.85" r="40.85" transform="rotate(-45 40.85 40.85)" style="fill:#fff"/><path class="cls-2" d="m36.09 56.91-13.77-9.48 18.47-24.68 14 9.12ZM24 47.15l11.78 8.11L53 32.18l-11.93-7.8Z"/><path class="cls-2" transform="rotate(-52.4 35.645 38.062)" d="M21.27 37.46h28.75v1.21H21.27z"/><path class="cls-2" transform="rotate(-54.15 40.682 41.115)" d="M26.25 40.51h28.87v1.21H26.25z"/><path class="cls-2" d="m19.53 64 2.67-1.12 12.01-5.05-12.77-8.8L19.53 64zM42.38 20.29l14.15 9.29 2.15-3.29a4.24 4.24 0 0 0-1.23-5.88l-6.71-4.47a4.25 4.25 0 0 0-5.66.93ZM62.21 65H22.52a.6.6 0 1 1 0-1.2h39.69a.6.6 0 0 1 0 1.2Z"/></g></g></svg>