<svg xmlns="http://www.w3.org/2000/svg" viewBox="0 0 92.32 90.92"><defs><style>.cls-1{fill:#eb6112}</style></defs><g id="圖層_2" data-name="圖層 2"><g id="圖層_1-2" data-name="圖層 1"><path class="cls-1" d="M90.73 10.51H1.59a1.59 1.59 0 0 1 0-3.18h89.14a1.59 1.59 0 0 1 0 3.18ZM90.73 70.33H1.59a1.6 1.6 0 0 1 0-3.19h89.14a1.6 1.6 0 0 1 0 3.19Z"/><path class="cls-1" d="M9.5 70.33a1.59 1.59 0 0 1-1.59-1.59v-59a1.59 1.59 0 1 1 3.18 0v59a1.59 1.59 0 0 1-1.59 1.59ZM84 70.33a1.59 1.59 0 0 1-1.59-1.59v-59a1.59 1.59 0 1 1 3.18 0v59A1.59 1.59 0 0 1 84 70.33ZM64.15 59.52H18.52V46.13l22.91-16.87 10.83 9.68L72 18.62a1.59 1.59 0 1 1 2.28 2.22L64.15 31.28v28.24ZM21.7 56.34H61V34.55l-8.56 8.8-11.17-10L21.7 47.74Z"/><path class="cls-1" d="M73.58 31.7A1.6 1.6 0 0 1 72 30.11v-9.6H61.43a1.6 1.6 0 1 1 0-3.19h13.75v12.79a1.6 1.6 0 0 1-1.6 1.59ZM31.11 59.52a1.59 1.59 0 0 1-1.59-1.59v-19.1a1.59 1.59 0 0 1 3.18 0v19.1a1.59 1.59 0 0 1-1.59 1.59ZM51.81 59.52a1.54 1.54 0 0 1-1.6-1.47V40.41a1.6 1.6 0 0 1 3.19 0v17.64a1.54 1.54 0 0 1-1.59 1.47ZM47.13 10.51a1.6 1.6 0 0 1-1.6-1.59V1.59a1.6 1.6 0 0 1 3.19 0v7.33a1.59 1.59 0 0 1-1.59 1.59ZM47.13 79.67a1.6 1.6 0 0 1-1.6-1.59V69a1.6 1.6 0 0 1 3.19 0v9.09a1.59 1.59 0 0 1-1.59 1.58ZM41 59.52A1.56 1.56 0 0 1 39.36 58V32.22a1.59 1.59 0 0 1 3.18 0V58A1.56 1.56 0 0 1 41 59.52Z"/><path class="cls-1" d="M47.13 90.92a7.14 7.14 0 1 1 7.13-7.13 7.14 7.14 0 0 1-7.13 7.13Zm0-11.09a4 4 0 1 0 3.95 4 4 4 0 0 0-3.95-4Z"/></g></g></svg>