<svg xmlns="http://www.w3.org/2000/svg" viewBox="0 0 98.64 101.13"><defs><style>.cls-1{fill:#eb6112}</style></defs><g id="圖層_2" data-name="圖層 2"><g id="圖層_1-2" data-name="圖層 1"><path class="cls-1" d="M48.92 101.13c-1.52-.39-3.06-.68-4.54-1.18A21.06 21.06 0 0 1 30.13 79a20.73 20.73 0 0 1 .48-3.51 1 1 0 0 0-.43-1.23 34.2 34.2 0 0 1-2.81-51.45 33.75 33.75 0 0 1 25.82-9.73c15.71.68 29.51 13 31.86 28.45 2 13.28-2.37 24.18-12.65 32.75a1 1 0 0 0-.4 1.23 21.15 21.15 0 0 1-16.64 25.25c-.57.1-1.13.26-1.7.39Zm2.92-42.41h-3.91a2.06 2.06 0 0 0-1.26.54c-3.13 3.42-6.22 6.88-9.32 10.33A15 15 0 0 0 33.67 83a17.88 17.88 0 0 0 32.8 6.46c3.87-6.18 4-14.59-1.81-20.51a91.77 91.77 0 0 1-6.32-7.06c-1.87-2.35-3.81-4.12-6.5-3.17Zm13.54-6.63h16.49a30.41 30.41 0 0 0-1.48-15.37 1.06 1.06 0 0 0-1.19-.83H65.79c-.29 0-.57 0-1 .06a38.46 38.46 0 0 1 .59 16.14Zm-28.38 0c-.12-2.71-.41-5.4-.32-8.08s.54-5.36.85-8.1H22.96a1 1 0 0 0-.65.53 30.19 30.19 0 0 0-1.59 15.62Zm3-5a9 9 0 0 1 5.47-.21 2.36 2.36 0 0 0 1.86-.21 7.58 7.58 0 0 1 6.57-.52 8.4 8.4 0 0 0 4.79.51 18.92 18.92 0 0 1 3.93.23 9.35 9.35 0 0 0 .08-1.69c-.32-2.77-.71-5.52-1-8.29-.1-.78-.47-1-1.24-1H43.19c-2 0-2 0-2.43 1.92a31.06 31.06 0 0 0-.76 9.22Zm-18.55 8.44a30.92 30.92 0 0 0 10.38 15.84c1.45-1.81 2.82-3.57 4.25-5.28 1.19-1.4 2.47-2.73 3.68-4.12.19-.21.4-.6.33-.8-.7-1.9-1.45-3.77-2.19-5.64Zm43.24 0c-.73 1.87-1.46 3.69-2.13 5.54a1.11 1.11 0 0 0 .26.9c2.63 3.13 5.76 5.85 7.78 9.57a31.16 31.16 0 0 0 10.54-16ZM48 16.62c-7.74-.48-21.73 9-23.76 15.93h14.25c1.5-2.81 2.82-5.56 4.38-8.17s3.36-5.09 5.13-7.76Zm30.41 15.94c-3.18-7.8-17.06-17.05-23.74-15.87 3.27 5.19 7.22 10 9.12 15.87Zm-18.14 0c-2.14-5.51-5.87-9.92-9-15-3.09 5.05-6.85 9.45-9 15ZM59.74 50l-.13-.29a9.75 9.75 0 0 0-2.25.55 2.15 2.15 0 0 1-2.45-.12 7.87 7.87 0 0 0-.91-.44 5.39 5.39 0 0 0-5.46 0c-.43.23-.9.41-1.32.66a1.56 1.56 0 0 1-1.63.07 18.07 18.07 0 0 0-2.59-.74l-.13.3c1.39 1.74 2.77 3.49 4.18 5.21a1.16 1.16 0 0 0 .8.24h6.91a1.16 1.16 0 0 0 .8-.23c1.44-1.72 2.79-3.47 4.18-5.21Zm-17.09 8.78c.59-.67 1.08-1.21 1.56-1.74-.68-1-1.24-2-2.72-1.41.38 1.02.74 2.02 1.16 3.15ZM58.37 57 60 58.77c.41-1.14.78-2.16 1.13-3.16-1.53-.61-2.05.49-2.76 1.39Z"/><path class="cls-1" d="M86.37 15.39c.28-2.58.55-5 .82-7.44l3.27.35c-.55 5.13-1.09 10.2-1.67 15.58C79.57 10.7 67.37 3.33 51.37 3.34S23.11 10.53 14 23.66l-2.77-1.75C20 9.09 31.78 1.52 47.23.2s28.35 4.01 39.14 15.19ZM89.13 84.82c-.21 1.12-.4 2.14-.6 3.24l-14.67-2.82c9.86-6.37 16.63-14.85 19.77-26s1.89-21.92-3.3-32.42l2.91-1.53a47.59 47.59 0 0 1-11.31 58.13ZM1.42 35.72 0 32.77l11.72-5.66.26.06C7.14 37.57 5.82 48.29 9 59.36s9.8 19.54 19.61 25.7l-.85 1.43c-.27.44-.55.88-1 1.54C7.4 74.64.58 56.56 5.72 33.69ZM52.89 81.71v-1.73a1.58 1.58 0 0 0-1.49-1.65 10.34 10.34 0 0 1-2.61-.76 4.21 4.21 0 0 1-2.33-3.47c-.14-1.82 0-3.66 0-5.57h3.19v-3.26H53v2.87a1.05 1.05 0 0 0 .38.79c2.47 1.28 3.1 3.39 2.82 6H53c-.34-.92.38-2.29-.85-2.88a8.36 8.36 0 0 0-2.25-.4c-.6 2.45.24 3.35 2.13 3.41a4.69 4.69 0 0 1 4.17 4.44c.08 1.7 0 3.41 0 5.27H53V88h-3.34v-2.78a1.2 1.2 0 0 0-.41-.87c-2.47-1.28-3.1-3.4-2.82-6.05h3.17c.34.94-.36 2.3.86 2.9a10.19 10.19 0 0 0 2.43.51Z"/></g></g></svg>