<svg xmlns="http://www.w3.org/2000/svg" viewBox="0 0 89.66 89.65"><defs><style>.cls-1{fill:#eb6112}</style></defs><g id="圖層_2" data-name="圖層 2"><g id="圖層_1-2" data-name="圖層 1"><path class="cls-1" d="M89.66 35c-.14.59-.26 1.18-.43 1.77A10.17 10.17 0 0 1 83 43.84a23.3 23.3 0 0 1-18.28-.11c-4.34-1.84-6.26-5.41-6.55-10.09-.6-9.7 3.33-17.6 9.4-24.72a1 1 0 0 0 .16-1.22c-.79-1.62-1.51-3.27-2.25-4.92S65.45 0 67.25 0h13.3c1.84 0 2.56 1.14 1.79 2.85s-1.4 3.2-2.17 4.76A1.09 1.09 0 0 0 80.41 9a38.61 38.61 0 0 1 8.77 16.59c.19.79.32 1.59.48 2.38ZM73.92 10.5h-2.54a1.39 1.39 0 0 0-.89.38C64.8 17.43 61 24.69 61.65 33.69c.24 3.41 1.76 5.93 5 7.1a20.85 20.85 0 0 0 14.7-.08 6.5 6.5 0 0 0 4.53-5.44 31.49 31.49 0 0 0-.05-8C85 21.56 82 16.72 78.53 12.2c-1-1.28-2.08-2-3.74-1.71a4.21 4.21 0 0 1-.87.01Zm-4.27-7c.51 1.11.94 2.12 1.44 3.1a.93.93 0 0 0 .67.37C73.19 7 74.62 7 76 7a.84.84 0 0 0 .64-.28c.52-1 1-2.08 1.47-3.19ZM65.85 89.65a2.21 2.21 0 0 1-1.24-2.28v-35c0-1.75.53-2.28 2.29-2.28h13.67c1.47 0 2.08.61 2.09 2.06v9c0 1.3-.65 2.05-1.74 2.05s-1.76-.74-1.76-2v-7.58h-11v32.46h11v-8.71a1.75 1.75 0 1 1 3.49 0v10a2.21 2.21 0 0 1-1.25 2.29ZM44.31 89.65a2.23 2.23 0 0 1-1.24-2.28V66.29c0-1.64.57-2.2 2.19-2.2h13.73c1.51 0 2.11.6 2.11 2.11v21.17a2.23 2.23 0 0 1-1.24 2.28Zm13.25-3.54V67.65H46.63v18.46ZM22.78 89.65a2.2 2.2 0 0 1-1.24-2.28V69.71c0-1.52.59-2.12 2.1-2.12h13.84c1.5 0 2.1.6 2.1 2.12v17.66a2.2 2.2 0 0 1-1.24 2.28Zm13.27-18.5H25.12V86.1h10.93ZM1.24 89.65A2.21 2.21 0 0 1 0 87.37c.05-3.58 0-7.17 0-10.75 0-1.4.63-2 2-2h14c1.4 0 2 .63 2 2v10.75a2.21 2.21 0 0 1-1.24 2.28Zm2.32-3.57h10.92v-8H3.56ZM51.25 11.55h-2.76a1.75 1.75 0 1 1 0-3.49h6.65A1.72 1.72 0 0 1 57.09 10v6.65a1.75 1.75 0 1 1-3.49 0v-2l-.16-.33a10.08 10.08 0 0 1-.65.86 94.82 94.82 0 0 1-17.92 15.16 58.55 58.55 0 0 1-23.81 8.72c-1.5.2-3 .38-4.51.49a1.75 1.75 0 1 1-.22-3.48 59.82 59.82 0 0 0 20.26-5.2A65.08 65.08 0 0 0 43 19.77c2.62-2.4 5.1-5 7.63-7.45.15-.19.37-.42.62-.77ZM53.59 56.79v2.1a1.71 1.71 0 0 1-1.75 1.69 1.6 1.6 0 0 1-1.71-1.7c.15-1.45-.17-2.46-1.65-3A4.42 4.42 0 0 1 47 54.52a1.76 1.76 0 1 1 2.58-2.4 7.33 7.33 0 0 0 1.35 1.09A1.71 1.71 0 0 0 53 53a1.58 1.58 0 0 0 .49-1.74A1.74 1.74 0 0 0 51.82 50a5.27 5.27 0 0 1-5.12-4.32A5.34 5.34 0 0 1 49.6 40a1.17 1.17 0 0 0 .47-.77 12.15 12.15 0 0 0 0-1.48 1.7 1.7 0 0 1 1.7-1.65 1.61 1.61 0 0 1 1.76 1.65c-.16 1.41.2 2.37 1.62 2.86a2.88 2.88 0 0 1 1 .81 1.71 1.71 0 0 1 .16 2.37 1.73 1.73 0 0 1-2.42.3 10.79 10.79 0 0 0-1.15-.8 1.7 1.7 0 0 0-2 .2 1.7 1.7 0 0 0 1.06 3 5.41 5.41 0 0 1 4.29 2.17 5.25 5.25 0 0 1-1.7 7.75ZM9.79 71.08a1.58 1.58 0 0 1-1.68-1.63 2.66 2.66 0 0 0-1.74-3.17 4.42 4.42 0 0 1-1.52-1.41 1.69 1.69 0 0 1 .21-2.36 1.73 1.73 0 0 1 2.38 0 10.14 10.14 0 0 0 1.39 1.17 1.74 1.74 0 0 0 2.17-.11 1.58 1.58 0 0 0 .54-1.81 1.73 1.73 0 0 0-1.71-1.22 5.29 5.29 0 0 1-5.16-4.34 5.36 5.36 0 0 1 2.92-5.73 1.15 1.15 0 0 0 .46-.79 14.56 14.56 0 0 0 0-1.48 1.7 1.7 0 0 1 1.75-1.62 1.58 1.58 0 0 1 1.73 1.58 2.48 2.48 0 0 0 1.72 3 3 3 0 0 1 1 .83 1.7 1.7 0 0 1 .06 2.3 1.72 1.72 0 0 1-2.31.31 11 11 0 0 0-1.38-.91 1.48 1.48 0 0 0-1.91.37 2.7 2.7 0 0 0-.4 1.74A1.4 1.4 0 0 0 9.72 57a5.3 5.3 0 0 1 5.13 3.66 5.14 5.14 0 0 1-2.58 6.3 1.06 1.06 0 0 0-.71 1.2 8.18 8.18 0 0 1 0 1.31 1.7 1.7 0 0 1-1.77 1.61ZM36.13 55.16a5.13 5.13 0 0 1-2.9 4.77 1 1 0 0 0-.66 1.13 9.56 9.56 0 0 1 0 1.31 1.72 1.72 0 0 1-1.74 1.71 1.6 1.6 0 0 1-1.72-1.68 2.58 2.58 0 0 0-1.71-3.1 4.71 4.71 0 0 1-1.53-1.4 1.71 1.71 0 0 1 .13-2.37 1.76 1.76 0 0 1 2.45 0A8.78 8.78 0 0 0 30 56.74a1.66 1.66 0 0 0 2-.21 1.58 1.58 0 0 0 .49-1.82 1.72 1.72 0 0 0-1.66-1.17 5.3 5.3 0 0 1-5.14-4.31c-.49-2.28.62-4.41 3-5.78a1 1 0 0 0 .41-.64c.07-.52 0-1.05 0-1.58a1.71 1.71 0 0 1 1.77-1.66 1.59 1.59 0 0 1 1.68 1.63 2.4 2.4 0 0 0 1.69 2.92 2.61 2.61 0 0 1 .82.64 1.75 1.75 0 0 1 .24 2.56 1.74 1.74 0 0 1-2.5.14 7.59 7.59 0 0 0-1.08-.73 1.69 1.69 0 0 0-2 .22 1.62 1.62 0 0 0-.52 1.82A1.69 1.69 0 0 0 30.78 50c2.94.36 4.56 1.63 5.18 4a8.68 8.68 0 0 1 .17 1.16Z"/><path class="cls-1" d="M82.66 69.3a1.75 1.75 0 1 1-1.8-1.71 1.73 1.73 0 0 1 1.8 1.71ZM73.94 14a1.62 1.62 0 0 1 1.69 1.72c-.12 1.32.12 2.29 1.53 2.73a3 3 0 0 1 1 .8A1.76 1.76 0 0 1 75.93 22a7.08 7.08 0 0 0-1.4-.87 1.68 1.68 0 0 0-2.27 1.27 1.63 1.63 0 0 0 1.52 2 5.4 5.4 0 0 1 5 3.24 5.17 5.17 0 0 1-2.39 6.72 1.09 1.09 0 0 0-.74 1.26 6.31 6.31 0 0 1 0 1.23 1.72 1.72 0 0 1-1.74 1.7 1.6 1.6 0 0 1-1.72-1.69 2.56 2.56 0 0 0-1.71-3.09A4.76 4.76 0 0 1 69 32.33a1.71 1.71 0 0 1 .12-2.33 1.74 1.74 0 0 1 2.44 0A9.66 9.66 0 0 0 73 31.15a1.71 1.71 0 0 0 2.08-.15 1.56 1.56 0 0 0 .51-1.74 1.73 1.73 0 0 0-1.7-1.26 5.28 5.28 0 0 1-5.13-4.31c-.49-2.27.62-4.4 3-5.78a1 1 0 0 0 .41-.64c.06-.52 0-1 0-1.57a1.7 1.7 0 0 1 1.77-1.7Z"/></g></g></svg>