<svg xmlns="http://www.w3.org/2000/svg" viewBox="0 0 90.9 87.76"><defs><style>.cls-1{fill:#eb6112}</style></defs><g id="圖層_2" data-name="圖層 2"><g id="圖層_1-2" data-name="圖層 1"><path class="cls-1" d="M13.8 45.56a7 7 0 1 1 7-7 7 7 0 0 1-7 7Zm0-11a4 4 0 1 0 4 4 4 4 0 0 0-4-3.98ZM35.07 24.29a7 7 0 1 1 7-7 7 7 0 0 1-7 7Zm0-11a4 4 0 1 0 4 4 4 4 0 0 0-4-3.98ZM56.29 45.5a7 7 0 1 1 7-7 7 7 0 0 1-7 7Zm0-11a4 4 0 1 0 4 4 4 4 0 0 0-4-3.97ZM77.57 14a7 7 0 1 1 7-7 7 7 0 0 1-7 7Zm0-11a4 4 0 1 0 4 4 4 4 0 0 0-4-4Z"/><path class="cls-1" d="M18 36.54A1.48 1.48 0 0 1 16.94 34l13.35-13.7a1.49 1.49 0 0 1 2.13 2.07L19.07 36.09a1.48 1.48 0 0 1-1.07.45ZM52.74 35.84a1.53 1.53 0 0 1-1.06-.44l-13.06-13a1.49 1.49 0 0 1 2.11-2.11l13.06 13a1.5 1.5 0 0 1-1 2.55ZM59.82 35.84a1.44 1.44 0 0 1-.82-.25 1.48 1.48 0 0 1-.42-2.06L73.47 11a1.49 1.49 0 0 1 2.06-.42 1.48 1.48 0 0 1 .47 2.06L61.06 35.17a1.5 1.5 0 0 1-1.24.67ZM21.59 77.73H6.83V52.61h14.76Zm-11.79-3h8.82V55.59H9.8ZM42.46 77.73H27.69V41.06h14.77Zm-11.79-3h8.81V44h-8.81ZM63.32 77.73H48.55V52.61h14.77Zm-11.79-3h8.81V55.59h-8.81ZM84.19 77.73H69.42V31.55h14.77Zm-11.79-3h8.81v-40.2H72.4ZM89.41 87.76H1.49a1.49 1.49 0 1 1 0-3h87.92a1.49 1.49 0 1 1 0 3Z"/></g></g></svg>