<svg version="1.1" id="圖層_1" xmlns="http://www.w3.org/2000/svg" x="0" y="0" viewBox="0 0 436.3 25.2" style="enable-background:new 0 0 436.3 25.2" xml:space="preserve"><style>.st0{fill:#fff}</style><path class="st0" d="M369.1 4.8h3.9s.1 0 .1.1v13.4s0 .1-.1.1h-3.9s-.1 0-.1-.1l.1-13.5c-.1 0 0 0 0 0zM354.2 18.7c-2.5.1-4.9-.7-6.9-2.3-1.4-1.2-2.2-3-2.3-4.9 0-1.9.8-3.7 2.3-4.8 2-1.6 4.5-2.5 7-2.4 2.3-.1 4.6.8 6.2 2.4l.5.6V.1s0-.1.1-.1h3.9s.1 0 .1.1v18.2s0 .1-.1.1h-3.9s-.1 0-.1-.1v-.1c0-.5-.5-1-1-1-.2 0-.4 0-.5.1-1.5.9-3.4 1.5-5.3 1.4zm.9-2.6c1.7.1 3.5-.5 4.7-1.8.7-.8 1.2-1.8 1.2-2.8 0-1-.4-2-1.2-2.8-1.2-1.2-2.9-1.8-4.6-1.7h-.2c-1.8-.1-3.5.6-4.8 1.8-.8.8-1.2 1.8-1.2 2.9 0 1 .4 1.9 1.1 2.6 1.3 1.2 3 1.9 4.8 1.8h.2zM337.7 0h3.9s.1 0 .1.1v18.2s0 .1-.1.1h-3.9s-.1 0-.1-.1l.1-18.3c-.1 0 0 0 0 0zM308.3 18.3s-.1 0 0 0l-.1-7.8h-9.4v7.8h-4.4V.1s0-.1.1-.1h4.4s.1 0 .1.1v7.7h9.3V.1s0-.1.1-.1h4.4s.1 0 .1.1v18.2s0 .1-.1.1h-4.5zM51.2 18.7c-2.5.1-4.9-.7-6.9-2.3-1.4-1.2-2.3-3-2.3-4.9 0-1.9.8-3.7 2.3-4.8 2-1.6 4.5-2.5 7-2.4 2.3-.1 4.6.8 6.2 2.4l.5.6V4.8s0-.1.1-.1h3.5s.1 0 .1.1v13.4s0 .1-.1.1h-3.5s-.1 0-.1-.1v-.1c0-.6-.4-1-.9-1.1-.2 0-.4 0-.6.2-1.5 1-3.4 1.5-5.3 1.5zm.9-2.6c1.7.1 3.4-.5 4.7-1.8.7-.8 1.2-1.8 1.2-2.8 0-1-.4-2-1.1-2.8C55.6 7.5 54 6.9 52.3 7h-.1c-1.8-.1-3.5.6-4.9 1.8-.8.8-1.2 1.8-1.2 2.9 0 1 .4 1.9 1.1 2.6 1.3 1.2 3.1 1.9 4.9 1.8zM103.1 18.7c-2.5.1-4.9-.7-6.9-2.3-1.4-1.2-2.3-3-2.3-4.9 0-1.9.8-3.7 2.4-4.8 2-1.6 4.5-2.5 7-2.4 2.3-.1 4.6.8 6.2 2.4l.5.6V4.8s0-.1.1-.1h3.5s.1 0 .1.1v13.4s0 .1-.1.1h-3.5s-.1 0-.1-.1v-.1c0-.6-.5-1-1.1-1-.2 0-.4 0-.5.1-1.5 1-3.4 1.6-5.3 1.5zm.9-2.6c1.7.1 3.4-.5 4.7-1.8.7-.8 1.2-1.8 1.2-2.8 0-1-.4-2-1.1-2.8-1.3-1.2-2.9-1.8-4.6-1.7h-.1c-1.8-.1-3.5.6-4.8 1.8-.8.8-1.2 1.8-1.2 2.9 0 1 .4 1.9 1.1 2.6 1.3 1.2 3.1 1.9 4.9 1.8h-.1zM30.1 18.7c-2.2.1-4.3-.6-6.1-1.9-1.3-1.1-2-2.7-1.9-4.4V4.8s0-.1.1-.1H26s.1 0 .1.1v6.6c-.4 2.2 1.1 4.3 3.3 4.7.5.1.9.1 1.4 0 4.8 0 4.8-3.5 4.8-4.7V4.8s0-.1.1-.1h3.8v13.6h-3.4s-.1 0-.1-.1c0-.5-.4-.9-.9-.9-.2 0-.3 0-.4.1-1.3.9-2.9 1.4-4.6 1.3zM78.3 18.3s-.1 0 0 0c-.1-.1-.1-.1 0 0l-.1-6.6c.4-2.2-1.1-4.3-3.3-4.7-.5-.1-.9-.1-1.4 0-4.8 0-4.8 3.5-4.8 4.7V18.4h-3.8s-.1 0-.1-.1V4.8s0-.1.1-.1h3.4s.1 0 .1.1c0 .5.4.9.9.9.2 0 .3 0 .4-.1 1.4-.9 3-1.4 4.6-1.3 2.2-.1 4.3.6 6.1 1.9 1.3 1.1 2 2.7 1.9 4.4v7.6s0 .1-.1.1h-3.9zM390.6 18.3c-.1 0-.1 0 0 0l-.1-6.6c.4-2.2-1.1-4.3-3.3-4.7-.5-.1-.9-.1-1.4 0-4.8 0-4.8 3.5-4.8 4.7v6.6s0 .1-.1.1H377V4.8s0-.1.1-.1h3.4s.1 0 .1.1c0 .5.4.9.9.9.2 0 .3 0 .4-.1 1.4-.9 3-1.4 4.6-1.3 2.2-.1 4.3.6 6.1 1.9 1.3 1.1 2 2.7 1.9 4.4V18.3h-3.9zM86.5 18.3c-.1 0-.1 0 0 0l-.1-11.2h-2.2s-.1 0-.1-.1V4.8s0-.1.1-.1h2.2V.1s0-.1.1-.1h3.9s.1 0 .1.1v4.7h2.7s.1 0 .1.1v2.2s0 .1-.1.1h-2.7v11.1s0 .1-.1.1h-3.9zM8.7 18.3c-.1 0-.1 0 0 0-.1-.1-.1-.1 0 0l-.1-6.8L0 .8V.5C0 .3.2.1.4.1h4.1l4.9 6c.6.9 1.9 1 2.8.4l.3-.3 5-6.2H21.7c.1 0 .3.2.3.5 0 .1 0 .2-.1.2l-8.7 10.8v6.8H8.7zM151.8 4.8h3.9s.1 0 .1.1v13.4s0 .1-.1.1h-3.9s-.1 0-.1-.1l.1-13.5c0 .1 0 0 0 0zM231.6 18.8c-2.5 0-4.9-.7-7-2.1-1.8-1.1-2.9-3.1-3-5.3 0-3.9 4.5-7.1 9.9-7.1 3.5 0 7 1.5 8.6 3.8 0 .1.1.1.1.2 0 .2-.2.4-.4.4H236c-1.2-1.3-2.8-1.9-4.5-1.8-3.4 0-5.9 1.9-5.9 4.5s2.6 4.6 6.1 4.6c1.6 0 3.2-.6 4.3-1.7h3.8c.2 0 .4.2.4.4 0 .1 0 .2-.1.3-1.6 2.4-5 3.8-8.5 3.8zM243.2 4.8h3.9s.1 0 .1.1v13.4s0 .1-.1.1h-3.9s-.1 0-.1-.1l.1-13.5c0 .1 0 0 0 0zM272.3.1h3.9s.1 0 .1.1v18.2s0 .1-.1.1h-3.9s-.1 0-.1-.1l.1-18.3c-.1 0-.1 0 0 0zM189 18.8c-2.5.1-4.9-.7-6.9-2.3-1.4-1.2-2.3-3-2.3-4.9 0-1.9.8-3.7 2.3-4.8 2-1.6 4.5-2.5 7-2.4 2.3-.1 4.6.8 6.2 2.4l.5.6V4.8h3.5s.1 0 .1.1v13.4H196m-.1 0v-.1c0-.6-.5-1-1.1-1-.2 0-.4.1-.5.2-1.6 1-3.5 1.5-5.4 1.5l7-.6zm-6-2.1c1.7.1 3.4-.5 4.7-1.8.7-.8 1.2-1.8 1.2-2.8 0-1-.4-2-1.2-2.8-1.3-1.2-2.9-1.8-4.6-1.7h-.1c-1.9-.1-3.6.5-4.9 1.7-.8.8-1.2 1.8-1.2 2.9 0 1 .4 1.9 1.1 2.6 1.3 1.2 3 1.9 4.8 1.8l.2.1zM258.7 18.8c-2.5.1-4.9-.7-6.9-2.3-1.4-1.2-2.3-3-2.3-4.9 0-1.9.8-3.7 2.4-4.8 2-1.6 4.5-2.5 7-2.4 2.3-.1 4.6.8 6.2 2.4l.5.6V4.9s0-.1.1-.1h3.5s.1 0 .1.1v13.4h-3.7v-.1c0-.6-.5-1-1.1-1-.2 0-.4.1-.5.2-1.5.9-3.4 1.4-5.3 1.4zm.9-2.6c1.7.1 3.5-.5 4.7-1.8.7-.8 1.2-1.8 1.2-2.8 0-1-.4-2-1.1-2.8-1.3-1.2-2.9-1.8-4.6-1.7h-.1c-1.8-.1-3.5.6-4.8 1.8-.8.8-1.2 1.8-1.2 2.9 0 1 .4 1.9 1.1 2.6 1.3 1.2 3.1 1.9 4.9 1.8h-.1zM173.3 18.4l-.1-6.6c.4-2.2-1.1-4.3-3.3-4.7-.4-.1-.9-.1-1.4-.1-4.8 0-4.8 3.5-4.8 4.7v6.6h-4V4.9s0-.1.1-.1h3.5c0 .5.4.9.9.9.2 0 .3 0 .4-.1 1.4-.9 3-1.4 4.6-1.3 2.2-.1 4.3.6 6.1 1.9 1.3 1.1 2 2.7 1.9 4.4v7.6h-.1l-3.8.2zM215.7 18.4v-6.6c.4-2.2-1.1-4.3-3.3-4.7-.5-.1-1-.1-1.4-.1-4.8 0-4.8 3.5-4.8 4.7v6.6h-4V4.8h3.5c0 .5.4.9.9.9.2 0 .3 0 .4-.1 1.4-.9 3-1.4 4.6-1.3 2.2-.1 4.3.6 6.1 1.9 1.3 1.1 2 2.7 1.9 4.4v7.6h-.1l-3.8.2zM132.1 18.4 132 4.7c0-1.3.7-2.6 1.8-3.4 1.1-.9 2.6-1.4 4.1-1.2H149.2v2.6s0 .1-.1.1H138c-.8 0-1.4.7-1.5 1.4v3.6H148c.2 0 .5.2.5.4v.1c-.2 1.2-1.3 2.1-2.5 2.2h-9.4v7.8h-.1l-4.4.1zM426.8 18.6c-.9 0-1.9 0-2.9-.1s-2-.2-3-.4c0 0-.1 0 0-.1v-2c0-.3.2-.5.4-.5h.1c.7.2 1.3.4 2 .5.9.2 1.7.2 2.6.2 1.1 0 2.2-.1 3.2-.5.8-.3 1.2-.7 1.2-1.2s-1.1-1.4-3.4-2.3l-.7-.3c-1.6-.5-3-1.3-4.4-2.1-.7-.4-1.1-1.1-1.1-1.9 0-1.2.9-2.1 2.6-2.9 2.2-.8 4.5-1.2 6.8-1.1.9 0 1.8 0 2.7.1.9.1 1.7.2 2.6.4v2c0 .3-.2.5-.5.5h-.1c-.5-.2-1-.3-1.6-.4-.9-.2-1.8-.2-2.7-.2-1 0-1.9.1-2.8.4-.7.3-1.1.7-1.1 1.2 0 .6 1.1 1.4 3.2 2.2l1 .4c1.5.5 2.9 1.2 4.2 2.1.7.5 1.1 1.2 1.2 2.1 0 1.2-.9 2.2-2.6 2.9-2.2.7-4.6 1-6.9 1zM325.5 18.8c-2.5 0-4.9-.7-6.9-2.1-1.7-1.1-2.8-3-2.9-5.1 0-4.1 4.4-7.3 9.9-7.3 5.3 0 9.6 3.3 9.6 7.3s-4.3 7.2-9.7 7.2zm0-11.5c-1.4 0-2.8.5-4 1.3-1 .7-1.6 1.8-1.6 3 0 2.3 2.5 4.2 5.6 4.2 3.2 0 5.7-1.8 5.7-4.2s-2.5-4.3-5.7-4.3zM407.5 25.2c-4.1 0-7.8-2-9.2-4.9v-.2c0-.3.2-.5.5-.5h3c1 1.5 3.2 2.5 5.7 2.5 3.5 0 6.1-1.7 6.3-4V18c0-.6-.5-1-1.1-1-.2 0-.4 0-.5.1-1.6 1-3.4 1.5-5.3 1.5-2.5.1-4.9-.7-6.9-2.3-1.4-1.2-2.3-3-2.3-4.8 0-1.9.8-3.7 2.3-4.8 2-1.6 4.5-2.5 7-2.4 2.3-.1 4.6.7 6.2 2.3l.5.6V4.8s0-.1.1-.1h3.5s.1 0 .1.1v13.5c-.3 3.9-4.6 6.9-9.9 6.9zm.2-9.1c1.7.1 3.4-.5 4.7-1.8.7-.8 1.2-1.8 1.2-2.8 0-1-.4-2-1.2-2.8-1.3-1.2-2.9-1.8-4.7-1.7h-.2c-1.8-.1-3.5.6-4.8 1.8-.8.8-1.2 1.8-1.2 2.9 0 1 .4 1.9 1.1 2.6 1.3 1.2 3.1 1.9 4.8 1.8h.3z"/></svg>