<svg xmlns="http://www.w3.org/2000/svg" viewBox="0 0 206.61 206.61"><defs><style>.cls-2{fill:#fff}</style></defs><g id="圖層_2" data-name="圖層 2"><g id="圖層_1-2" data-name="圖層 1"><rect width="206.61" height="206.61" rx="103.31" style="fill:#eb6112"/><path class="cls-2" d="M55.89 105.69h-7.47a19.58 19.58 0 0 1-3 3.43l-2.14-1.57a16.35 16.35 0 0 0 4.66-6.09l2.56.72a6.29 6.29 0 0 1-.68 1.28h6.11Zm13.33 18.54-1.4 2.29a31.26 31.26 0 0 1-10.29-6.41V127h-2.61v-6.84a34.1 34.1 0 0 1-10.23 6.45l-1.36-2.36A28.59 28.59 0 0 0 54.92 117v-1h-6.28v4.32H46v-6.57h8.9v-1.4H43.61v-2.32h11.31v-1.45h2.61v1.45h11.34v2.32H57.53v1.4h9v4.43a2.34 2.34 0 0 1-.52 1.47c-.35.45-1.16.67-2.44.67h-1.33l-.72-2.2h2c.29 0 .44-.2.44-.61V116h-6.43v.88a28.13 28.13 0 0 0 11.69 7.35ZM53.3 108.77l-2.44.63a10.42 10.42 0 0 0-1.44-2.55l2.37-.72a7.14 7.14 0 0 1 1.51 2.64Zm15.54-3.08h-8.93a12.07 12.07 0 0 1-2.11 2.52l-2.13-1.41a15.22 15.22 0 0 0 3.74-5.31l2.41.58a7.35 7.35 0 0 1-.61 1.39h7.63Zm-3.48 3.08-2.46.66a11.64 11.64 0 0 0-1.45-2.55l2.35-.72a9.22 9.22 0 0 1 1.56 2.61ZM84.3 124.84h-2.18v-1.43h-4.57v2.12h-2.18V103h8.93Zm-5.42-13.06v-6.4h-1.33v6.4Zm0 9.29v-6.88h-1.33v6.88Zm3.24-9.29v-6.4h-1.33v6.4Zm0 9.29v-6.88h-1.33v6.88Zm18.31-7.46-1.28 2.24a25.31 25.31 0 0 1-6.71-3.13 33.82 33.82 0 0 1-6.44 3.13l-1.3-2.24a27.73 27.73 0 0 0 5.65-2.55 16.14 16.14 0 0 1-2.27-2.88c-.57.47-1.17.91-1.79 1.34l-1.56-1.94a15.92 15.92 0 0 0 5.59-6l2.38.73a11.88 11.88 0 0 1-.83 1.57h6.78v2.32a18.2 18.2 0 0 1-4.12 5 21.6 21.6 0 0 0 5.9 2.41ZM98.52 127H96v-.92h-6.89v1h-2.54v-10.74h12ZM96 123.65v-4.87h-6.89v4.87Zm-.17-17.49h-5.64l-.24.23a10.33 10.33 0 0 0 2.56 3.17 18.27 18.27 0 0 0 3.27-3.4ZM118 104.39a18.68 18.68 0 0 1-6.53 5.54h5.22v6.58H111l-.3 2.52h6.3a25.39 25.39 0 0 1-.5 5.49 2.91 2.91 0 0 1-1.37 2 10 10 0 0 1-3.77.46L109 127l-.86-2.38c1 .06 2.6.1 4.84.1.91 0 1.36-1.17 1.36-3.49h-6.53l.85-6.88h5.51v-2.19h-4.81v-1.22a18.42 18.42 0 0 1-2.38.92l-1.19-2.11a26.43 26.43 0 0 0 4.26-1.74 20.35 20.35 0 0 0-2.49-1.31l1.71-1.79a27.84 27.84 0 0 1 3.16 1.65 12.57 12.57 0 0 0 2.46-2.15h-6.53v-2.27H118Zm13.52 5.42-1.32 2a22.61 22.61 0 0 1-2.66-1.36v2.93c0 .31.17.47.5.47h2.57v2.19h-3.4a1.87 1.87 0 0 1-2.08-2.14v-1.77h-2.84q0 3-3.33 4.68l-1.57-1.9a4.6 4.6 0 0 0 1.82-1.3 4.19 4.19 0 0 0 .67-2.64v-1.07h6.7a18 18 0 0 1-7.39-7.72l2.29-.72a9.39 9.39 0 0 0 1.47 2.32 12.72 12.72 0 0 0 2.21-2.32l2.08 1.3a16.72 16.72 0 0 1-2.69 2.7 14.34 14.34 0 0 0 1.3 1.11 23.71 23.71 0 0 0 2.82-2.71l2 1.28a18.83 18.83 0 0 1-2.87 2.76 26.41 26.41 0 0 0 3.72 1.91Zm-.52 15.78-1.8 1.63a49.23 49.23 0 0 0-4.26-2.82 19.22 19.22 0 0 1-6.19 2.9l-1.28-2.12a17.58 17.58 0 0 0 5.17-2.08c-1.54-.9-2.84-1.61-3.92-2.13l1.49-1.53h-1.72v-2.24h10.85v2.24a28 28 0 0 1-2.55 3.27q2.21 1.4 4.21 2.88Zm-4.65-6.15h-5.45c1.31.66 2.58 1.34 3.8 2a15 15 0 0 0 1.62-2ZM162.2 118.2h-15.3v5.8a38.52 38.52 0 0 0 5-1.65V125a58 58 0 0 1-7.41 2.15l-.61-2.1a1.75 1.75 0 0 0 .58-1.16v-5.69h-3a24.19 24.19 0 0 1-2.28 8.9l-2.18-1.63q2.13-4 2.12-11.72v-11.57h21.75v6.64h-19.12v2.65h4.79v-1.77H149v1.77h5.57v-1.77H157v1.77h4.2v2.11H157V116h5.17Zm-15.66-2.2v-2.44h-4.82a20.83 20.83 0 0 1-.05 2.44Zm11.74-9.48v-2h-16.53v2Zm-3.71 9.48v-2.44H149V116Zm8.1 9.13-1.44 2.18q-7.56-2.43-10.63-7.6l2.31-.93a13.46 13.46 0 0 0 2.7 3 10.77 10.77 0 0 0 3.27-2.81l2.35 1.27a18.19 18.19 0 0 1-3.29 3 22 22 0 0 0 4.73 1.91ZM49.64 137c-.12.76-.33 1.73-.64 2.93l-.46 1.69V162h-2.38v-14a23.45 23.45 0 0 1-1.39 2.68l-1.39-2.74a34.88 34.88 0 0 0 3.8-11.4Zm7.69 4.49h-7.8v-2.22h2.73a13.92 13.92 0 0 0-.88-2.27l2.44-.58a29.51 29.51 0 0 1 1 2.85h2.49Zm-.52 4.36h-6.87v-2.35h6.87Zm0 4.26h-6.87v-2.31h6.87Zm-.06 11.43h-2.44v-1.4h-1.88V162H50v-9.88h6.73Zm-2.44-3.75v-3.3h-1.88v3.3Zm14.62-11.6h-3.77a24.54 24.54 0 0 1-2.24 2.81h5.14v13h-2.4v-1.31h-4.21V162H59v-9.66c-.53.42-1 .73-1.27.93l-.81-2.27a26.6 26.6 0 0 0 5.45-4.79h-4.66V144h3.39v-2.44h-2.88v-2.21h2.88v-2.6h2.4v2.6h1.8v1.8a34.47 34.47 0 0 0 1.39-3.89l2.21.7a34.89 34.89 0 0 1-2.41 6h2.44Zm-3.27 7.49v-2.43h-4.21v2.43Zm0 4.69v-2.52h-4.21v2.52Zm-.56-16.81h-1.6V144h.3a13.89 13.89 0 0 0 1.3-2.43ZM81.28 137.15l-1.74 6v19H77v-13.57c-.43.73-.89 1.45-1.39 2.18L74.36 148a35.57 35.57 0 0 0 4.4-11.43Zm18.79 8.77H87.73a20.39 20.39 0 0 1-.94 1.82h12.26V160a2.05 2.05 0 0 1-1.67 2.06 24.52 24.52 0 0 1-2.73.09l-.58-2.15 2-.06a.59.59 0 0 0 .39-.25.82.82 0 0 0 .22-.5v-1.68h-3.8v4.57h-2.49v-4.57h-4.12a9.75 9.75 0 0 1-3.13 4.78l-1.91-1.68q3.15-2.53 3.15-7.56v-2c-.84.87-1.81 1.77-2.9 2.7L80 151.6a17 17 0 0 0 5.07-5.68h-4.34v-2.32h4.65v-2.16h-4v-2.25h4v-2.35h2.52v2.35H93v-2.35h2.59v2.35h3.88v2.25h-3.91v2.16h4.51Zm-9.68 9.51v-1.77h-3.6l-.11 1.77Zm0-3.89v-1.63h-3.57v1.63ZM93 143.6v-2.16h-5.1v2.16Zm3.75 7.94v-1.63h-3.87v1.63Zm0 3.89v-1.77h-3.87v1.77ZM118.43 157.49h-5.33V162h-2.52v-4.49h-4.65v-2.3h4.65v-1.6h-3.83v-10.48h3.83v-1.56h-4.51v-2.32h4.48v-2.52h2.55v2.52h5v2.32h-5v1.56h3.73v10.46h-3.73v1.6h5.33Zm-4.06-10.24v-1.91h-5.07v1.91Zm0 4.15v-2h-5.07v2Zm17.26-7.75-1.22 2.15a8.67 8.67 0 0 1-1.43-.93v2.27h-3.32V151h5.42v2.41h-5.42V162h-2.58v-8.63h-5.17V151h5.17v-3.82h-3.29V145c-.48.41-.88.73-1.21 1l-1.39-2.15a20.57 20.57 0 0 0 6.12-7.34l2.6.5a5.18 5.18 0 0 1-.4.86 20.92 20.92 0 0 0 6.12 5.78Zm-2.84 1.08a18.17 18.17 0 0 1-4.52-4.87 31.25 31.25 0 0 1-4.21 4.87ZM152 149.27h-14.81V147H141a24.64 24.64 0 0 0-1.74-4.09l1.91-1.16h-3.43v-2.32h5.75a12.71 12.71 0 0 0-1.22-2.32l2.55-.67a15.77 15.77 0 0 1 1.39 3h5.23v2.32h-2.94l1.83 1q-.63 1.74-1.77 4.23H152ZM150.42 162h-2.5v-1.7h-6.52v1.7h-2.58v-10.72h11.6Zm-2.5-4v-4.35h-6.52V158Zm.09-16.24h-6.43a36.58 36.58 0 0 1 2 5.25h2.24a28.45 28.45 0 0 0 2.18-5.27Zm11.7 5.37a14 14 0 0 1 2.62 7.39 5.16 5.16 0 0 1-.59 2.64 2.92 2.92 0 0 1-1.43 1.31 10.07 10.07 0 0 1-3.37.23l-.72-2.5a24.16 24.16 0 0 0 2.44.12 1.09 1.09 0 0 0 .82-.35 2.6 2.6 0 0 0 .32-1.62 11.33 11.33 0 0 0-2.71-6.77 74.7 74.7 0 0 0 2.43-7.86h-3.93V162h-2.44v-24.64H162v2.34q-1 3.83-2.29 7.41ZM135.73 26.93H71.91a1.14 1.14 0 0 1 0-2.28h63.82a1.14 1.14 0 1 1 0 2.28ZM135.73 69.75H71.91a1.14 1.14 0 0 1 0-2.28h63.82a1.14 1.14 0 1 1 0 2.28Z"/><path class="cls-2" d="M77.57 69.75a1.15 1.15 0 0 1-1.14-1.14V26.34a1.14 1.14 0 1 1 2.28 0v42.27a1.14 1.14 0 0 1-1.14 1.14ZM130.9 69.75a1.14 1.14 0 0 1-1.14-1.14V26.34a1.14 1.14 0 1 1 2.28 0v42.27a1.14 1.14 0 0 1-1.14 1.14ZM116.7 62H84v-9.57l16.41-12.08 7.75 6.93 14.16-14.55a1.14 1.14 0 0 1 1.68 1.59l-7.3 7.48Zm-30.39-2.26h28.12v-15.6l-6.13 6.3-8-7.16-14 10.3Z"/><path class="cls-2" d="M122.89 42.68a1.14 1.14 0 0 1-1.14-1.14v-6.88h-7.57a1.14 1.14 0 0 1 0-2.28H124v9.16a1.14 1.14 0 0 1-1.11 1.14ZM93.05 62a1.14 1.14 0 0 1-1.14-1.14V47.2a1.14 1.14 0 0 1 2.28 0v13.68A1.14 1.14 0 0 1 93.05 62ZM107.86 62a1.14 1.14 0 0 1-1.14-1.14V47.2a1.14 1.14 0 0 1 2.28 0v13.68a1.14 1.14 0 0 1-1.14 1.12ZM104.51 26.93a1.14 1.14 0 0 1-1.14-1.14v-5.25a1.14 1.14 0 0 1 2.28 0v5.25a1.14 1.14 0 0 1-1.14 1.14ZM104.51 77.07a1.14 1.14 0 0 1-1.14-1.14v-6.5a1.14 1.14 0 0 1 2.28 0v6.5a1.14 1.14 0 0 1-1.14 1.14ZM100.09 62A1.14 1.14 0 0 1 99 60.88V41.81a1.14 1.14 0 0 1 2.28 0v19.07a1.14 1.14 0 0 1-1.19 1.12Z"/><path class="cls-2" d="M104.51 84.5a5.11 5.11 0 1 1 5.11-5.11 5.11 5.11 0 0 1-5.11 5.11Zm0-7.94a2.83 2.83 0 1 0 2.84 2.83 2.83 2.83 0 0 0-2.84-2.83Z"/></g></g></svg>