<svg xmlns="http://www.w3.org/2000/svg" viewBox="0 0 206.61 206.61"><defs><style>.cls-2{fill:#fff}</style></defs><g id="圖層_2" data-name="圖層 2"><g id="圖層_1-2" data-name="圖層 1"><rect width="206.61" height="206.61" rx="103.31" style="fill:#eb6112"/><path class="cls-2" d="M53.12 108.77H50v4.89c.68-.21 1.56-.56 2.66-1l.3 2.58c-1.07.45-2.06.84-3 1.16v8a2.55 2.55 0 0 1-.45 1.59 2.05 2.05 0 0 1-1.05.78 6.86 6.86 0 0 1-1.93.19h-1.8l-.86-2.49h3.1c.33 0 .5-.15.5-.47v-6.55c-1.47.45-2.57.77-3.32 1l-.72-2.46c1.71-.45 3.05-.84 4-1.19v-5.86h-3.79v-2.64h3.84v-4.64H50v4.64h3.15Zm16.11 16L68 127a23 23 0 0 1-7.14-3.25 26.76 26.76 0 0 1-7.71 3.25l-1.5-2.28a19.9 19.9 0 0 0 7.1-2.65 13.7 13.7 0 0 1-3.74-6H54v-2.41h13.13v2.19A19.07 19.07 0 0 1 62.9 122a23.54 23.54 0 0 0 6.33 2.75Zm-.36-12.67h-3.51c-1.55 0-2.32-.82-2.32-2.47v-5.16h-4.52q.16 5.8-4 8l-1.85-1.86a6.35 6.35 0 0 0 2.55-2.2 6.53 6.53 0 0 0 .73-3.33v-3h9.6v7.16c0 .26.12.38.37.38h2.93Zm-4.7 4h-6.49a9.13 9.13 0 0 0 3.19 4.45 16.79 16.79 0 0 0 3.3-4.48ZM83.55 102.62a26 26 0 0 1-7.75 6.9L74.56 107a20.67 20.67 0 0 0 6.44-5.54Zm.61 5.37a44.54 44.54 0 0 1-2.88 4.29V127h-2.69v-11.62a18.4 18.4 0 0 1-2.9 2.41l-1.13-2.58q3.68-2.42 7.11-8.24Zm15.84 4.43h-3.89v11.75q0 2.89-3.14 2.89c-1.34 0-2.66 0-3.94-.08l-1-2.64h4.5a.81.81 0 0 0 .54-.23.74.74 0 0 0 .27-.58v-11.11h-9.42v-2.55H100Zm-.72-7.34H84.71v-2.52H99.3ZM112.54 112.5l-1.58 2a31.25 31.25 0 0 0-5.14-3.89l1.68-2a26.49 26.49 0 0 1 5.04 3.89Zm.27 5.26a42.73 42.73 0 0 1-4.58 9.34l-2.23-1.57a37.2 37.2 0 0 0 4.56-9Zm.31-12-1.82 2a21.13 21.13 0 0 0-5-4.26l1.83-2a27.09 27.09 0 0 1 4.99 4.31Zm18.37 20-2.38 1.26c-.43-1-.85-1.92-1.24-2.67a96.34 96.34 0 0 1-13.75 2.32l-1-2.47q3.55-2.9 6.42-9.1h-6.39v-2.52H121v-4.59h-6.6v-2.49h6.6v-3.85h2.65v3.85h6.23v2.49h-6.23v4.59h7.53v2.52h-8.55a33.36 33.36 0 0 1-5.75 8.75 80.13 80.13 0 0 0 9.69-1.74 44.72 44.72 0 0 0-2.61-4l2.46-1.13a56.83 56.83 0 0 1 5.07 8.86ZM162.66 110l-1.25 2.27a41.73 41.73 0 0 1-4.35-2.16v1.63h-5.95v2.85h9.79v2.49h-9.79v6.76h10.48v2.46h-23.46v-2.46h10.35v-6.76h-9.6v-2.48h9.6v-2.85h-6v-1.55a38.48 38.48 0 0 1-3.9 2l-1.67-2.2q8.85-3.9 12.32-8.49l2.62.75a1.88 1.88 0 0 1-.39.55q3.29 3.76 11.2 7.19Zm-16.21 12.5-2.43.84a28.08 28.08 0 0 0-3.26-4.52l2.46-1a23.93 23.93 0 0 1 3.23 4.69Zm9.22-13.19a32 32 0 0 1-5.92-4.49 35 35 0 0 1-5.79 4.49Zm3.27 9.4a23.15 23.15 0 0 1-3.13 4.57l-2.52-1.1a21.32 21.32 0 0 0 3.16-4.38ZM49.64 137c-.12.76-.33 1.73-.64 2.93l-.46 1.69V162h-2.38v-14a25.19 25.19 0 0 1-1.39 2.68l-1.39-2.74a34.88 34.88 0 0 0 3.8-11.4Zm7.69 4.49h-7.8v-2.22h2.73a13.92 13.92 0 0 0-.88-2.27l2.44-.58a27.05 27.05 0 0 1 1 2.85h2.49Zm-.52 4.36h-6.87v-2.35h6.87Zm0 4.26h-6.87v-2.31h6.87Zm-.06 11.43h-2.44v-1.4h-1.88V162H50v-9.88h6.73Zm-2.44-3.75v-3.3h-1.88v3.3Zm14.62-11.6h-3.77a24.54 24.54 0 0 1-2.24 2.81h5.14v13h-2.4v-1.31h-4.21V162H59v-9.66c-.53.42-1 .73-1.27.93l-.81-2.27a26.87 26.87 0 0 0 5.45-4.79h-4.66V144h3.39v-2.44h-2.88v-2.21h2.88v-2.6h2.4v2.6h1.8v1.8a34.47 34.47 0 0 0 1.39-3.89l2.21.7a34.89 34.89 0 0 1-2.41 6h2.44Zm-3.27 7.49v-2.43h-4.21v2.43Zm0 4.69v-2.52h-4.21v2.52Zm-.56-16.81h-1.6V144h.3a13.89 13.89 0 0 0 1.3-2.43ZM81.28 137.15l-1.74 6v19H77v-13.57c-.43.73-.9 1.45-1.39 2.18L74.36 148a35.57 35.57 0 0 0 4.4-11.43Zm18.79 8.77H87.73a20.39 20.39 0 0 1-.94 1.82h12.26V160a2.05 2.05 0 0 1-1.67 2.06 24.52 24.52 0 0 1-2.73.09l-.58-2.15 2-.06a.59.59 0 0 0 .39-.25.76.76 0 0 0 .22-.5v-1.68h-3.8v4.57h-2.49v-4.57h-4.12a9.75 9.75 0 0 1-3.13 4.78l-1.91-1.68q3.15-2.53 3.15-7.56v-2c-.85.87-1.81 1.77-2.9 2.7L80 151.6a17 17 0 0 0 5.07-5.68h-4.34v-2.32h4.65v-2.16h-4v-2.25h4v-2.35h2.52v2.35H93v-2.35h2.59v2.35h3.88v2.25h-3.91v2.16h4.51Zm-9.68 9.51v-1.77h-3.6l-.11 1.77Zm0-3.89v-1.63h-3.57v1.63ZM93 143.6v-2.16h-5.1v2.16Zm3.75 7.94v-1.63h-3.87v1.63Zm0 3.89v-1.77h-3.87v1.77ZM118.43 157.49h-5.33V162h-2.53v-4.49h-4.64v-2.3h4.64v-1.6h-3.82v-10.48h3.82v-1.56h-4.5v-2.32h4.48v-2.52h2.55v2.52h5v2.32h-5v1.56h3.73v10.46h-3.73v1.6h5.33Zm-4.06-10.24v-1.91h-5.07v1.91Zm0 4.15v-2h-5.07v2Zm17.26-7.75-1.22 2.15a8.67 8.67 0 0 1-1.43-.93v2.27h-3.32V151h5.42v2.41h-5.42V162h-2.58v-8.63h-5.17V151h5.17v-3.82h-3.29V145c-.48.41-.88.73-1.21 1l-1.39-2.15a20.57 20.57 0 0 0 6.12-7.34l2.6.5a6.14 6.14 0 0 1-.4.86 20.92 20.92 0 0 0 6.12 5.78Zm-2.84 1.08a18.17 18.17 0 0 1-4.52-4.87 31.25 31.25 0 0 1-4.21 4.87ZM152 149.27h-14.81V147H141a24.64 24.64 0 0 0-1.74-4.09l1.91-1.16h-3.43v-2.32h5.75a12.71 12.71 0 0 0-1.22-2.32l2.55-.67a15.77 15.77 0 0 1 1.39 3h5.22v2.32h-2.93l1.83 1q-.63 1.74-1.77 4.23H152ZM150.42 162h-2.5v-1.7h-6.52v1.7h-2.58v-10.72h11.6Zm-2.5-4v-4.35h-6.52V158Zm.09-16.24h-6.43a36.58 36.58 0 0 1 2 5.25h2.24a28.45 28.45 0 0 0 2.18-5.27Zm11.7 5.37a14 14 0 0 1 2.61 7.39 5.17 5.17 0 0 1-.58 2.64 2.92 2.92 0 0 1-1.43 1.31 10.07 10.07 0 0 1-3.37.23l-.72-2.5a24.16 24.16 0 0 0 2.44.12 1.09 1.09 0 0 0 .82-.35 2.6 2.6 0 0 0 .32-1.62 11.33 11.33 0 0 0-2.71-6.77 74.7 74.7 0 0 0 2.43-7.86h-3.94V162h-2.43v-24.64H162v2.34q-1 3.83-2.29 7.41ZM134.23 44.3c-.1.39-.18.78-.28 1.17a6.73 6.73 0 0 1-4.14 4.64 15.39 15.39 0 0 1-12-.07c-2.85-1.22-4.12-3.56-4.31-6.64-.39-6.39 2.2-11.59 6.19-16.28a.61.61 0 0 0 .1-.8c-.51-1.07-1-2.16-1.48-3.24s0-1.83 1.2-1.83h8.76c1.21 0 1.68.75 1.18 1.88s-.92 2.1-1.43 3.13a.7.7 0 0 0 .16.94 25.47 25.47 0 0 1 5.77 10.92c.13.52.21 1.05.32 1.57Zm-10.37-16.14h-1.67a.9.9 0 0 0-.58.24c-3.75 4.3-6.25 9.08-5.83 15a4.89 4.89 0 0 0 3.31 4.67 13.73 13.73 0 0 0 9.68-.05 4.27 4.27 0 0 0 3-3.58 20.65 20.65 0 0 0 0-5.27c-.59-3.76-2.51-6.94-4.82-9.92a2.36 2.36 0 0 0-2.46-1.12 3.74 3.74 0 0 1-.63.03Zm-2.8-4.59c.33.73.61 1.39.94 2a.61.61 0 0 0 .44.24h2.82a.55.55 0 0 0 .42-.18c.34-.68.64-1.37 1-2.1ZM118.55 80.26a1.43 1.43 0 0 1-.81-1.5v-23c0-1.15.35-1.5 1.51-1.5h9c1 0 1.37.4 1.38 1.35v5.94c0 .85-.43 1.34-1.15 1.35s-1.15-.5-1.16-1.34v-5h-7.22v21.36h7.22v-5.74a1.15 1.15 0 1 1 2.29 0v6.57a1.44 1.44 0 0 1-.82 1.5ZM104.37 80.26a1.43 1.43 0 0 1-.81-1.5V64.89c0-1.08.37-1.45 1.44-1.45h9c1 0 1.39.39 1.39 1.39v13.93a1.46 1.46 0 0 1-.82 1.5Zm8.73-2.33V65.79h-7.2v12.14ZM90.2 80.26a1.45 1.45 0 0 1-.82-1.5V67.14c0-1 .4-1.4 1.39-1.4h9.09c1 0 1.39.4 1.39 1.4v11.62a1.45 1.45 0 0 1-.81 1.5Zm8.73-12.17h-7.19v9.84h7.19ZM76 80.26a1.43 1.43 0 0 1-.82-1.49v-7.08c0-.92.41-1.34 1.33-1.34h9.2c.92 0 1.33.42 1.33 1.34v7.07a1.45 1.45 0 0 1-.82 1.5Zm1.52-2.34h7.2v-5.23h-7.2ZM108.94 28.86h-1.81a1.15 1.15 0 1 1 0-2.3h4.38a1.15 1.15 0 0 1 1.27 1.29v4.38a1.15 1.15 0 1 1-2.3 0V30.9a1.19 1.19 0 0 0-.11-.21 6 6 0 0 1-.43.57 62.52 62.52 0 0 1-11.77 10A38.54 38.54 0 0 1 82.48 47c-1 .13-2 .25-3 .33a1.12 1.12 0 0 1-1.3-1.07A1.13 1.13 0 0 1 79.37 45a39.38 39.38 0 0 0 13.34-3.42 42.84 42.84 0 0 0 10.76-7.3c1.73-1.58 3.36-3.27 5-4.91.16-.14.27-.29.47-.51ZM110.48 58.64v1.38a1.12 1.12 0 0 1-1.15 1.11A1.06 1.06 0 0 1 108.2 60a1.65 1.65 0 0 0-1.08-2 2.88 2.88 0 0 1-1-.87 1.14 1.14 0 0 1 0-1.65 1.17 1.17 0 0 1 1.66.07 4.62 4.62 0 0 0 .88.72 1.13 1.13 0 0 0 1.39-.13 1 1 0 0 0 .33-1.14 1.14 1.14 0 0 0-1.12-.82 3.48 3.48 0 0 1-1.47-6.62.79.79 0 0 0 .32-.51 8 8 0 0 0 0-1A1.12 1.12 0 0 1 109.3 45a1.05 1.05 0 0 1 1.16 1.08 1.52 1.52 0 0 0 1.07 1.92 2 2 0 0 1 .66.54 1.13 1.13 0 0 1 .11 1.56 1.15 1.15 0 0 1-1.6.19 7.71 7.71 0 0 0-.75-.52 1.12 1.12 0 0 0-1.34.13 1.12 1.12 0 0 0 .7 2 3.56 3.56 0 0 1 2.82 1.43 3.45 3.45 0 0 1-1.12 5.1ZM81.65 68a1 1 0 0 1-1.11-1 1.75 1.75 0 0 0-1.15-2.09 2.82 2.82 0 0 1-1-.93 1.11 1.11 0 0 1 .13-1.55 1.15 1.15 0 0 1 1.57 0 6.71 6.71 0 0 0 .92.77 1.14 1.14 0 0 0 1.39-.08 1 1 0 0 0 .36-1.19 1.14 1.14 0 0 0-1.13-.81 3.46 3.46 0 0 1-3.36-2.86 3.51 3.51 0 0 1 1.92-3.77.79.79 0 0 0 .3-.51v-1a1.12 1.12 0 0 1 1.13-1.07c.62 0 1.21.45 1.14 1a1.64 1.64 0 0 0 1.13 2 2 2 0 0 1 .66.55 1.12 1.12 0 0 1 0 1.52 1.15 1.15 0 0 1-1.55.2 6.32 6.32 0 0 0-.9-.59 1 1 0 0 0-1.26.24 1.74 1.74 0 0 0-.19 1.17.9.9 0 0 0 .95.76 3.5 3.5 0 0 1 3.4 2.39 3.39 3.39 0 0 1-1.7 4.15.71.71 0 0 0-.47.78 5.06 5.06 0 0 1 0 .87A1.11 1.11 0 0 1 81.65 68ZM99 57.56a3.37 3.37 0 0 1-1.9 3.14.66.66 0 0 0-.44.75 6.15 6.15 0 0 1 0 .86 1.12 1.12 0 0 1-1.14 1.12 1.05 1.05 0 0 1-1.14-1.1 1.69 1.69 0 0 0-1.12-2 3 3 0 0 1-1-.93 1.13 1.13 0 0 1 .1-1.56 1.16 1.16 0 0 1 1.61 0 6.58 6.58 0 0 0 1 .78 1.09 1.09 0 0 0 1.34-.14 1 1 0 0 0 .32-1.19 1.14 1.14 0 0 0-1.1-.78 3.48 3.48 0 0 1-3.38-2.83 3.52 3.52 0 0 1 2-3.81.62.62 0 0 0 .28-.42v-1a1.13 1.13 0 0 1 1.17-1.1 1.05 1.05 0 0 1 1.11 1.07 1.57 1.57 0 0 0 1.1 1.92 2 2 0 0 1 .55.42 1.16 1.16 0 0 1 .15 1.69 1.13 1.13 0 0 1-1.64.09 5 5 0 0 0-.72-.48 1.12 1.12 0 0 0-1.29.15 1 1 0 0 0-.33 1.19 1.1 1.1 0 0 0 1 .79c1.93.24 3 1.07 3.41 2.65a5.09 5.09 0 0 1 .06.72Z"/><path class="cls-2" d="M129.61 66.87a1.15 1.15 0 1 1-2.3 0 1.14 1.14 0 0 1 1.12-1.15 1.13 1.13 0 0 1 1.18 1.15ZM123.88 30.47a1.07 1.07 0 0 1 1.12 1.14c-.08.86.08 1.5 1 1.79a2 2 0 0 1 .67.53 1.16 1.16 0 0 1-1.49 1.77 4 4 0 0 0-.91-.57 1.1 1.1 0 0 0-1.5.83 1.07 1.07 0 0 0 1 1.33 3.55 3.55 0 0 1 3.28 2.14 3.4 3.4 0 0 1-1.57 4.42.72.72 0 0 0-.48.83 5.47 5.47 0 0 1 0 .81 1.11 1.11 0 0 1-1.14 1.11 1 1 0 0 1-1.13-1.1 1.7 1.7 0 0 0-1.13-2 3.07 3.07 0 0 1-1-.93 1.12 1.12 0 0 1 .1-1.57 1.16 1.16 0 0 1 1.61 0 5.53 5.53 0 0 0 .93.76 1.12 1.12 0 0 0 1.39-.12 1 1 0 0 0 .33-1.14 1.15 1.15 0 0 0-1.11-.83 3.46 3.46 0 0 1-3.38-2.83 3.53 3.53 0 0 1 2-3.81.64.64 0 0 0 .27-.42v-1a1.12 1.12 0 0 1 1.14-1.14Z"/></g></g></svg>