<svg xmlns="http://www.w3.org/2000/svg" viewBox="0 0 206.61 206.61"><defs><style>.cls-2{fill:#fff}</style></defs><g id="圖層_2" data-name="圖層 2"><g id="圖層_1-2" data-name="圖層 1"><rect width="206.61" height="206.61" rx="103.31" style="fill:#eb6112"/><path class="cls-2" d="M59 120.74h-3.5a18 18 0 0 1-1.82 2.38c1.55.63 2.88 1.22 4 1.77l-1.43 1.86c-1.93-.9-3.43-1.54-4.49-1.94a25 25 0 0 1-7.25 2.46l-1-2.18a20.21 20.21 0 0 0 5.31-1.33 30.07 30.07 0 0 0-3.74-1.13c.91-1 1.47-1.61 1.67-1.89h-3v-2h4.59l1.08-1.66H45v-4.79h5.07V111h-5.16v-3.15h-1.3V106h1.3v-3.11h5.14v-1.12h2.41v1.12h5.07V106H59v1.86h-1.47V111h-5.07v1.36h5.13v4.79h-5.3l-1 1.66h2.64a8.06 8.06 0 0 0 .46-1l2.24.52a.88.88 0 0 1-.16.47H59Zm-9-14.78v-1.29h-2.77V106Zm0 3.24v-1.38h-2.77v1.38Zm0 6.06v-1.13h-2.68v1.13Zm2.64 5.48h-2.81c0 .07-.27.36-.68.87l2.23.68a10.8 10.8 0 0 0 1.31-1.55ZM55.18 106v-1.29h-2.72V106Zm0 3.22v-1.36h-2.72v1.36Zm.1 6.08v-1.13h-2.82v1.13Zm14 9.83L68 127.24a17.35 17.35 0 0 1-4.28-4.24 21 21 0 0 1-4 4.21l-1.69-1.91a18.89 18.89 0 0 0 4.21-4.59 21 21 0 0 1-2.17-5.81l2.22-1.22a24.35 24.35 0 0 0 1.22 4 37.1 37.1 0 0 0 1.25-9.49h-2.12a30.38 30.38 0 0 1-2.7 6.15l-1.68-2.08a34.34 34.34 0 0 0 3.36-10.76l2.47.35c-.13.83-.39 2.14-.78 3.94h5.53v2.4h-1.6q-.31 8-2.19 12.45a16.43 16.43 0 0 0 4.2 4.45ZM82.91 102.18a34.86 34.86 0 0 1-1.48 3.71l-1 2.12v19h-2.6v-14.56a27.71 27.71 0 0 1-2.11 2.55l-1.16-2.73a34.38 34.38 0 0 0 5.76-10.77Zm17.19 24.07H81.37v-2.55h4.78A132.46 132.46 0 0 0 84 110.28l1.79-1.22h-3.73v-2.59h7.58a34.74 34.74 0 0 0-1.6-4.35l2.57-.6a40.47 40.47 0 0 1 1.69 5h7.08v2.59h-3.82l2.08 1.28q-.75 6.61-2.14 13.31h4.6Zm-4.95-17.19h-8.77q1.22 5.28 2.38 14.64h4.06a126.33 126.33 0 0 0 2.33-14.64ZM131.49 110l-1.26 2.27a41.73 41.73 0 0 1-4.35-2.16v1.63h-5.95v2.85h9.79v2.49h-9.79v6.76h10.48v2.46H107v-2.46h10.3v-6.76h-9.6v-2.48h9.6v-2.85h-6v-1.55a39.83 39.83 0 0 1-3.91 2l-1.66-2.2q8.85-3.9 12.32-8.49l2.62.75a1.65 1.65 0 0 1-.38.55q3.27 3.76 11.2 7.19Zm-16.21 12.5-2.44.84a27.46 27.46 0 0 0-3.26-4.52l2.47-1a24.37 24.37 0 0 1 3.23 4.69Zm9.22-13.19a31.66 31.66 0 0 1-5.92-4.49 35.49 35.49 0 0 1-5.8 4.49Zm3.27 9.4a24 24 0 0 1-3.13 4.57l-2.52-1.1a21.68 21.68 0 0 0 3.15-4.38ZM151.05 104.59h-14v-2.25h14Zm-.63 20a2.66 2.66 0 0 1-.42 1.66 1.65 1.65 0 0 1-1 .64 15.86 15.86 0 0 1-2.3.1l-.7-2.28a5.35 5.35 0 0 0 .58 0 2.34 2.34 0 0 0 1.25-.2.65.65 0 0 0 .23-.49v-8.3h-2l1.19 1c-.27 1-.55 1.93-.84 2.81h.9v2.16h-1.94v4.57H143v-4.57h-2v-2.16h.81a21.32 21.32 0 0 0-.92-2.9l1.24-.92h-1.92V127h-2.41v-13.51h12.59Zm-1-12.55h-10.63v-6h10.59Zm-2.4-2.18v-1.66h-5.72v1.66Zm-1.55 5.89h-2.69c.44 1.27.83 2.54 1.18 3.82h.35a23.64 23.64 0 0 0 1.12-3.81Zm17.41 10.44-2.27 1a18.52 18.52 0 0 0-.5-2.41c-2.56.77-5.4 1.56-8.49 2.35l-.73-2.38c1.8-.38 3.34-.76 4.62-1.13v-5.28h-3.81v-12.56h3.76v-4h2.39v4h3.92v12.59h-3.92V123c.39-.09.91-.24 1.54-.44a11.47 11.47 0 0 0-.78-2.32l2.14-.83a44.85 44.85 0 0 1 2.09 6.79ZM155.42 116v-7.81h-1.49V116Zm4.07 0v-7.81h-1.68V116ZM49.64 137c-.12.76-.33 1.73-.64 2.93l-.46 1.69V162h-2.38v-14a25.19 25.19 0 0 1-1.39 2.68l-1.39-2.74a34.88 34.88 0 0 0 3.8-11.4Zm7.69 4.49h-7.8v-2.22h2.73a13.92 13.92 0 0 0-.88-2.27l2.44-.58a27.05 27.05 0 0 1 1 2.85h2.49Zm-.52 4.36h-6.87v-2.35h6.87Zm0 4.26h-6.87v-2.31h6.87Zm-.06 11.43h-2.44v-1.4h-1.88V162H50v-9.88h6.73Zm-2.44-3.75v-3.3h-1.88v3.3Zm14.62-11.6h-3.77a24.54 24.54 0 0 1-2.24 2.81h5.14v13h-2.4v-1.31h-4.21V162H59v-9.66c-.53.42-1 .73-1.27.93l-.81-2.27a26.87 26.87 0 0 0 5.45-4.79h-4.66V144h3.39v-2.44h-2.88v-2.21h2.88v-2.6h2.4v2.6h1.8v1.8a34.47 34.47 0 0 0 1.39-3.89l2.21.7a34.89 34.89 0 0 1-2.41 6h2.44Zm-3.27 7.49v-2.43h-4.21v2.43Zm0 4.69v-2.52h-4.21v2.52Zm-.56-16.81h-1.6V144h.3a13.89 13.89 0 0 0 1.3-2.43ZM81.28 137.15l-1.74 6v19H77v-13.57c-.43.73-.9 1.45-1.39 2.18L74.36 148a35.57 35.57 0 0 0 4.4-11.43Zm18.79 8.77H87.73a20.39 20.39 0 0 1-.94 1.82h12.26V160a2.05 2.05 0 0 1-1.67 2.06 24.52 24.52 0 0 1-2.73.09l-.58-2.15 2-.06a.59.59 0 0 0 .39-.25.82.82 0 0 0 .22-.5v-1.68h-3.8v4.57h-2.49v-4.57h-4.12a9.75 9.75 0 0 1-3.13 4.78l-1.91-1.68q3.15-2.53 3.15-7.56v-2c-.85.87-1.81 1.77-2.9 2.7L80 151.6a17 17 0 0 0 5.07-5.68h-4.34v-2.32h4.65v-2.16h-4v-2.25h4v-2.35h2.52v2.35H93v-2.35h2.59v2.35h3.88v2.25h-3.91v2.16h4.51Zm-9.68 9.51v-1.77h-3.6l-.11 1.77Zm0-3.89v-1.63h-3.57v1.63ZM93 143.6v-2.16h-5.1v2.16Zm3.75 7.94v-1.63h-3.87v1.63Zm0 3.89v-1.77h-3.87v1.77ZM118.43 157.49h-5.33V162h-2.52v-4.49h-4.65v-2.3h4.65v-1.6h-3.83v-10.48h3.83v-1.56h-4.51v-2.32h4.48v-2.52h2.55v2.52h5v2.32h-5v1.56h3.73v10.46h-3.73v1.6h5.33Zm-4.06-10.24v-1.91h-5.07v1.91Zm0 4.15v-2h-5.07v2Zm17.26-7.75-1.22 2.15a8.67 8.67 0 0 1-1.43-.93v2.27h-3.32V151h5.42v2.41h-5.42V162h-2.58v-8.63h-5.17V151h5.17v-3.82h-3.29V145c-.48.41-.88.73-1.21 1l-1.39-2.15a20.57 20.57 0 0 0 6.12-7.34l2.6.5a5.18 5.18 0 0 1-.4.86 20.92 20.92 0 0 0 6.12 5.78Zm-2.84 1.08a18.17 18.17 0 0 1-4.52-4.87 31.25 31.25 0 0 1-4.21 4.87ZM152 149.27h-14.81V147H141a24.64 24.64 0 0 0-1.74-4.09l1.91-1.16h-3.43v-2.32h5.75a12.71 12.71 0 0 0-1.22-2.32l2.55-.67a15.77 15.77 0 0 1 1.39 3h5.22v2.32h-2.93l1.83 1q-.63 1.74-1.77 4.23H152ZM150.42 162h-2.5v-1.7h-6.52v1.7h-2.58v-10.72h11.6Zm-2.5-4v-4.35h-6.52V158Zm.09-16.24h-6.43a36.58 36.58 0 0 1 2 5.25h2.24a28.45 28.45 0 0 0 2.18-5.27Zm11.7 5.37a14 14 0 0 1 2.62 7.39 5.16 5.16 0 0 1-.59 2.64 2.92 2.92 0 0 1-1.43 1.31 10.07 10.07 0 0 1-3.37.23l-.72-2.5a24.16 24.16 0 0 0 2.44.12 1.09 1.09 0 0 0 .82-.35 2.6 2.6 0 0 0 .32-1.62 11.33 11.33 0 0 0-2.71-6.77 74.7 74.7 0 0 0 2.43-7.86h-3.93V162h-2.44v-24.64H162v2.34q-1 3.83-2.29 7.41ZM102.64 85.62c-1-.26-2-.45-3-.78A13.88 13.88 0 0 1 90.27 71a13.67 13.67 0 0 1 .32-2.31.68.68 0 0 0-.28-.81 22.5 22.5 0 0 1-1.85-33.87 22.19 22.19 0 0 1 17-6.41 22.56 22.56 0 0 1 21 18.73c1.32 8.74-1.56 15.92-8.33 21.56a.67.67 0 0 0-.26.81 13.92 13.92 0 0 1-11 16.62c-.38.07-.75.17-1.12.26Zm1.93-27.92h-2.58a1.37 1.37 0 0 0-.83.36c-2.06 2.25-4.1 4.53-6.14 6.8a9.92 9.92 0 0 0-2.42 8.8 11.77 11.77 0 0 0 21.59 4.25 10.79 10.79 0 0 0-1.19-13.5 60.93 60.93 0 0 1-4.16-4.64c-1.23-1.53-2.51-2.69-4.27-2.07Zm8.9-4.36h10.86a20 20 0 0 0-1-10.12.69.69 0 0 0-.78-.55h-9.46a25.21 25.21 0 0 1 .38 10.67Zm-18.67 0c-.08-1.79-.27-3.56-.21-5.32s.36-3.53.56-5.33h-9.59a.62.62 0 0 0-.43.35 19.9 19.9 0 0 0-1 10.29Zm2-3.32a5.93 5.93 0 0 1 3.6-.14 1.52 1.52 0 0 0 1.22-.14 5 5 0 0 1 4.33-.34 5.54 5.54 0 0 0 3.16.33 13.46 13.46 0 0 1 2.58.15 5.75 5.75 0 0 0 0-1.11c-.21-1.82-.46-3.63-.68-5.45-.07-.52-.31-.65-.82-.65H98.83c-1.31 0-1.33 0-1.61 1.27a20.73 20.73 0 0 0-.45 6.06ZM84.56 55.6A20.3 20.3 0 0 0 91.39 66c1-1.19 1.85-2.35 2.8-3.47.78-.92 1.62-1.8 2.42-2.71.12-.14.27-.39.22-.53-.46-1.25-1-2.48-1.44-3.71Zm28.46 0c-.48 1.23-1 2.43-1.4 3.64a.77.77 0 0 0 .17.6c1.73 2.06 3.79 3.85 5.12 6.3a20.5 20.5 0 0 0 6.94-10.54ZM102 30c-5.1-.32-14.31 5.89-15.64 10.48h9.38c1-1.85 1.86-3.66 2.88-5.38s2.25-3.36 3.38-5.1Zm20 10.49c-2-5.14-11.17-11.24-15.58-10.49 2.16 3.42 4.76 6.56 6 10.45Zm-12 0c-1.41-3.63-3.86-6.53-5.9-9.84-2 3.32-4.51 6.22-5.9 9.84ZM109.76 52l-.08-.19a6.41 6.41 0 0 0-1.48.36 1.4 1.4 0 0 1-1.61-.08 6.27 6.27 0 0 0-.58-.29 3.57 3.57 0 0 0-3.59 0c-.29.16-.6.27-.87.44a1 1 0 0 1-1.08.05 12.28 12.28 0 0 0-1.73-.49l-.09.2c.92 1.15 1.82 2.3 2.76 3.43a.72.72 0 0 0 .52.16h4.55a.76.76 0 0 0 .53-.15c.93-1.18 1.84-2.34 2.75-3.44Zm-11.25 5.74 1-1.15c-.45-.64-.81-1.31-1.79-.93.28.68.52 1.34.79 2.08Zm10.36-1.15 1 1.14.75-2.08c-.95-.37-1.29.35-1.75.94Z"/><path class="cls-2" d="M127.3 29.17c.18-1.69.35-3.27.53-4.89l2.16.23c-.36 3.38-.72 6.71-1.1 10.26-6.07-8.68-14.1-13.53-24.64-13.53S85.65 26 79.67 34.62l-1.82-1.15c5.73-8.44 13.51-13.42 23.68-14.3s18.66 2.65 25.77 10ZM129.11 74.88c-.13.74-.26 1.41-.39 2.14l-9.66-1.86c6.49-4.2 10.95-9.78 13-17.12a28.89 28.89 0 0 0-2.16-21.34l1.92-1a31.34 31.34 0 0 1-7.45 38.3ZM71.37 42.56l-.93-2 7.71-3.72h.17a29.65 29.65 0 0 0-2 21.19A28.73 28.73 0 0 0 89.27 75l-.56.94-.62 1C75.31 68.18 70.82 56.28 74.2 41.22ZM105.25 72.83v-1.14c0-.64-.33-.94-1-1.08a7.1 7.1 0 0 1-1.72-.5 2.79 2.79 0 0 1-1.53-2.28c-.09-1.2 0-2.41 0-3.67h2.1V62h2.2v1.89a.7.7 0 0 0 .25.52c1.62.84 2 2.24 1.85 4h-2.09c-.23-.6.25-1.5-.56-1.89a5.53 5.53 0 0 0-1.48-.26c-.39 1.61.16 2.2 1.41 2.24a3.09 3.09 0 0 1 2.74 2.92v3.47h-2.13V77h-2.18v-1.83a.76.76 0 0 0-.27-.58c-1.62-.84-2-2.23-1.85-4h2.09c.21.62-.24 1.51.56 1.91a6.28 6.28 0 0 0 1.61.33Z"/></g></g></svg>