<svg xmlns="http://www.w3.org/2000/svg" viewBox="0 0 206.61 206.61"><defs><style>.cls-2{fill:#fff}</style></defs><g id="圖層_2" data-name="圖層 2"><g id="圖層_1-2" data-name="圖層 1"><rect width="206.61" height="206.61" rx="103.31" style="fill:#eb6112"/><path class="cls-2" d="M53.13 108.77H50v4.89c.68-.21 1.56-.56 2.66-1l.3 2.58c-1.07.45-2.06.84-3 1.16v8a2.55 2.55 0 0 1-.45 1.59 2 2 0 0 1-1.05.78 6.86 6.86 0 0 1-1.93.19h-1.8l-.86-2.49h3.1c.33 0 .49-.15.49-.47v-6.55c-1.46.45-2.56.77-3.31 1l-.72-2.46c1.71-.45 3.05-.84 4-1.19v-5.86h-3.79v-2.64h3.83v-4.64H50v4.64h3.16Zm16.09 16L68 127a23 23 0 0 1-7.14-3.25 26.76 26.76 0 0 1-7.71 3.25l-1.5-2.28a19.9 19.9 0 0 0 7.1-2.65 13.7 13.7 0 0 1-3.74-6H54v-2.41h13.13v2.19A19.07 19.07 0 0 1 62.9 122a23.6 23.6 0 0 0 6.32 2.75Zm-.35-12.67h-3.51c-1.55 0-2.32-.82-2.32-2.47v-5.16h-4.52q.16 5.8-4 8l-1.85-1.86a6.25 6.25 0 0 0 2.54-2.2 6.42 6.42 0 0 0 .74-3.33v-3h9.6v7.16c0 .26.12.38.37.38h2.93Zm-4.7 4h-6.49a9.13 9.13 0 0 0 3.19 4.45 16.79 16.79 0 0 0 3.3-4.48ZM100.27 110.54l-1.22 2.32a19.31 19.31 0 0 1-2.52-.72V123H84.3l1.25 1.44a37.25 37.25 0 0 1-9.66 2.79L74.64 125a34.2 34.2 0 0 0 7.92-2H78.3v-11h5.48l-1.11-1.6a13.33 13.33 0 0 0 7.58-4.4l2.63.58a4.46 4.46 0 0 1-.64 1 23.6 23.6 0 0 0 8.03 2.96Zm-17-.81h-8.4v-2.38h8.44Zm-.26-4.62h-7.8v-2.32h7.8Zm10.88 10v-1H81v1Zm0 3V117H81v1.08Zm0 3V120H81v1.14Zm5.83-15.69a33.53 33.53 0 0 1-2.53 3.24l-2.2-1.3c.25-.29.77-.93 1.56-1.94h-9.09a23.52 23.52 0 0 1-2.55 2.58l-2-1.69a17.32 17.32 0 0 0 4.32-4.93l2.38.81a2.85 2.85 0 0 1-.55 1h10.7Zm-3.51 6.64a22.72 22.72 0 0 1-5.66-2.79 15.55 15.55 0 0 1-4.72 2.79Zm3.85 13.07-1.39 2.24a43.64 43.64 0 0 0-8.49-1.77l1.33-2.18a36.82 36.82 0 0 1 8.59 1.73ZM115.86 105h-3.92a40 40 0 0 1-1.56 6.23h4.92v14.36h-2.43v-1.25h-2.15v2h-2.5v-10.52a7 7 0 0 1-1 1.44l-1.45-2.52a25.28 25.28 0 0 0 3.65-9.71h-3.22v-2.5h9.66Zm-3 16.85v-8.09h-2.15v8.09Zm18.38-7.66h-3.33V127h-2.61v-12.78h-3.41q.23 8.13-4.06 12.88l-1.89-2a9.69 9.69 0 0 0 2.54-3.87 20.17 20.17 0 0 0 .79-7h-3v-2.53h3v-6.76H117v-2.46h13.86v2.46h-2.89v6.76h3.33Zm-6-2.52v-6.76h-3.41v6.76ZM161.7 109.7h-2.57v-3.26H154v3.87c0 .4.19.61.58.61h6v2.46h-6.47q-2.61 0-2.61-2.43v-4.51h-3.3a8.71 8.71 0 0 1-3.4 5.69 15.12 15.12 0 0 1-6.38 2.38l-1.33-2.37a16.63 16.63 0 0 0 5.87-1.75 5.23 5.23 0 0 0 2.54-4h-5.07v3.26h-2.62V104h10.33a8.46 8.46 0 0 0-1.1-1.5l2.61-1a14 14 0 0 1 1.6 2.52h10.45Zm.75 10.9a15.36 15.36 0 0 1-.5 4.48 2.36 2.36 0 0 1-1.16 1.33 10.68 10.68 0 0 1-3.39.32 12.21 12.21 0 0 1-2.82-.19 1.79 1.79 0 0 1-1-.83 3.42 3.42 0 0 1-.34-1.89l.29-5.89h-5.07q-1.26 6.41-9.55 9.26l-1.72-2.19c5-1.75 7.85-4.11 8.52-7.08h-7.15v-2.44h7.51a24.81 24.81 0 0 0 .2-3.5H149c0 1.06-.08 2.23-.17 3.5h7.45l-.33 8a.62.62 0 0 0 .27.58 3.85 3.85 0 0 0 1.43.15 4 4 0 0 0 1.58-.16 2.26 2.26 0 0 0 .35-.32 7 7 0 0 0 .27-1.73c.09-1 .14-1.89.14-2.53ZM49.64 137c-.12.76-.33 1.73-.64 2.93l-.46 1.69V162h-2.38v-14a23.45 23.45 0 0 1-1.39 2.68l-1.39-2.74a34.88 34.88 0 0 0 3.8-11.4Zm7.69 4.49h-7.8v-2.22h2.73a13.92 13.92 0 0 0-.88-2.27l2.44-.58q.59 1.42 1 2.85h2.49Zm-.52 4.36h-6.87v-2.35h6.87Zm0 4.26h-6.87v-2.31h6.87Zm-.06 11.43h-2.44v-1.4h-1.88V162H50v-9.88h6.73Zm-2.44-3.75v-3.3h-1.88v3.3Zm14.62-11.6h-3.77a24.54 24.54 0 0 1-2.24 2.81h5.14v13h-2.4v-1.31h-4.21V162H59v-9.66c-.53.42-1 .73-1.27.93l-.81-2.27a26.6 26.6 0 0 0 5.45-4.79h-4.66V144h3.39v-2.44h-2.88v-2.21h2.88v-2.6h2.4v2.6h1.8v1.8a34.47 34.47 0 0 0 1.39-3.89l2.21.7a35.71 35.71 0 0 1-2.41 6h2.44Zm-3.27 7.49v-2.43h-4.21v2.43Zm0 4.69v-2.52h-4.21v2.52Zm-.56-16.81h-1.6V144h.3a13.89 13.89 0 0 0 1.3-2.43ZM81.28 137.15l-1.74 6v19H77v-13.57c-.43.73-.89 1.45-1.39 2.18L74.36 148a35.57 35.57 0 0 0 4.4-11.43Zm18.79 8.77H87.73a20.39 20.39 0 0 1-.94 1.82h12.26V160a2.05 2.05 0 0 1-1.67 2.06 24.52 24.52 0 0 1-2.73.09l-.58-2.15 2-.06a.59.59 0 0 0 .39-.25.82.82 0 0 0 .22-.5v-1.68h-3.8v4.57h-2.49v-4.57h-4.12a9.75 9.75 0 0 1-3.13 4.78l-1.91-1.68q3.15-2.53 3.15-7.56v-2c-.84.87-1.81 1.77-2.9 2.7L80 151.6a17 17 0 0 0 5.07-5.68h-4.34v-2.32h4.65v-2.16h-4v-2.25h4v-2.35h2.52v2.35H93v-2.35h2.59v2.35h3.88v2.25h-3.91v2.16h4.51Zm-9.68 9.51v-1.77h-3.6l-.11 1.77Zm0-3.89v-1.63h-3.57v1.63ZM93 143.6v-2.16h-5.1v2.16Zm3.75 7.94v-1.63h-3.87v1.63Zm0 3.89v-1.77h-3.87v1.77ZM118.43 157.49h-5.33V162h-2.52v-4.49h-4.65v-2.3h4.65v-1.6h-3.83v-10.48h3.83v-1.56h-4.51v-2.32h4.48v-2.52h2.55v2.52h5v2.32h-5v1.56h3.73v10.46h-3.73v1.6h5.33Zm-4.06-10.24v-1.91h-5.07v1.91Zm0 4.15v-2h-5.07v2Zm17.26-7.75-1.22 2.15a8.67 8.67 0 0 1-1.43-.93v2.27h-3.32V151h5.42v2.41h-5.42V162h-2.58v-8.63h-5.17V151h5.17v-3.82h-3.29V145c-.48.41-.88.73-1.21 1l-1.39-2.15a20.57 20.57 0 0 0 6.12-7.34l2.6.5a5.18 5.18 0 0 1-.4.86 20.92 20.92 0 0 0 6.12 5.78Zm-2.84 1.08a18.17 18.17 0 0 1-4.52-4.87 31.25 31.25 0 0 1-4.21 4.87ZM152 149.27h-14.81V147H141a24.64 24.64 0 0 0-1.74-4.09l1.91-1.16h-3.43v-2.32h5.75a12.71 12.71 0 0 0-1.22-2.32l2.55-.67a15.77 15.77 0 0 1 1.39 3h5.22v2.32h-2.93l1.83 1q-.63 1.74-1.77 4.23H152ZM150.42 162h-2.5v-1.7h-6.52v1.7h-2.58v-10.72h11.6Zm-2.5-4v-4.35h-6.52V158Zm.09-16.24h-6.43a36.58 36.58 0 0 1 2 5.25h2.24a28.45 28.45 0 0 0 2.18-5.27Zm11.7 5.37a14 14 0 0 1 2.62 7.39 5.16 5.16 0 0 1-.59 2.64 2.92 2.92 0 0 1-1.43 1.31 10.07 10.07 0 0 1-3.37.23l-.72-2.5a24.16 24.16 0 0 0 2.44.12 1.09 1.09 0 0 0 .82-.35 2.6 2.6 0 0 0 .32-1.62 11.33 11.33 0 0 0-2.71-6.77 74.7 74.7 0 0 0 2.43-7.86h-3.93V162h-2.44v-24.64H162v2.34q-1 3.83-2.29 7.41ZM78.8 50.06a5.41 5.41 0 1 1 5.41-5.4 5.4 5.4 0 0 1-5.41 5.4Zm0-8.5a3.1 3.1 0 1 0 3.1 3.1 3.09 3.09 0 0 0-3.1-3.1ZM95.27 33.59a5.41 5.41 0 1 1 5.41-5.4 5.4 5.4 0 0 1-5.41 5.4Zm0-8.5a3.1 3.1 0 1 0 3.1 3.1 3.09 3.09 0 0 0-3.1-3.1ZM111.7 50a5.41 5.41 0 1 1 5.4-5.41 5.42 5.42 0 0 1-5.4 5.41Zm0-8.51a3.1 3.1 0 1 0 3.09 3.1 3.1 3.1 0 0 0-3.09-3.08ZM128.18 25.59a5.41 5.41 0 1 1 5.4-5.41 5.41 5.41 0 0 1-5.4 5.41Zm0-8.5a3.1 3.1 0 1 0 3.1 3.09 3.1 3.1 0 0 0-3.1-3.09Z"/><path class="cls-2" d="M82.05 43.08a1.13 1.13 0 0 1-.8-.33 1.14 1.14 0 0 1 0-1.63l10.32-10.61a1.15 1.15 0 1 1 1.65 1.6L82.88 42.73a1.18 1.18 0 0 1-.83.35ZM109 42.53a1.17 1.17 0 0 1-.82-.33L98 32.13a1.16 1.16 0 0 1 1.63-1.64l10.11 10.07a1.15 1.15 0 0 1-.81 2ZM114.43 42.53a1.11 1.11 0 0 1-.63-.19 1.15 1.15 0 0 1-.33-1.6L125 23.3a1.15 1.15 0 1 1 1.92 1.27L115.39 42a1.14 1.14 0 0 1-.96.53ZM84.83 75H73.4V55.52h11.43Zm-9.12-2.31h6.82V57.82h-6.82ZM101 75H89.55V46.57H101Zm-9.13-2.31h6.82V48.88h-6.83ZM117.15 75h-11.44V55.52h11.44ZM108 72.66h6.82V57.82H108ZM133.3 75h-11.43V39.21h11.43Zm-9.13-2.31H131V41.51h-6.83ZM137.35 82.73H69.27a1.15 1.15 0 1 1 0-2.3h68.08a1.15 1.15 0 1 1 0 2.3Z"/></g></g></svg>