<svg xmlns="http://www.w3.org/2000/svg" viewBox="0 0 167.52 167.52"><defs><style>.cls-2{fill:#fff}</style></defs><g id="圖層_2" data-name="圖層 2"><g id="圖層_1-2" data-name="圖層 1"><circle cx="83.76" cy="83.76" r="83.76" style="fill:#ea6011"/><path class="cls-2" d="M97.33 38.22h26c3.89 0 6.29 2.37 6.29 6.24v41.29a5.72 5.72 0 0 1-4.3 5.88 8.27 8.27 0 0 1-2 .23H71c-1.73 0-2.64-.72-2.57-2a1.72 1.72 0 0 1 1.35-1.69 6.29 6.29 0 0 1 1.48-.17H123a9.56 9.56 0 0 0 1 0 1.73 1.73 0 0 0 1.68-1.47 6.4 6.4 0 0 0 .11-1.15V44.8a6.4 6.4 0 0 0-.11-1.15 1.64 1.64 0 0 0-1.47-1.46 7.46 7.46 0 0 0-1.33-.11H71.3A10.61 10.61 0 0 1 70 42a1.86 1.86 0 0 1-.34-3.63 4.6 4.6 0 0 1 1.23-.14Z"/><path class="cls-2" d="M64.51 72.69V89.61c0 1.6-1.07 2.5-2.45 2.12a2 2 0 0 1-1.36-2.07V71.07c0-1.51.74-2.2 2.27-2.2h25.67c.23 0 .47 0 .74-.06V65H49.89c-4.17 0-7 2-8.07 5.85a10.13 10.13 0 0 0-.28 2.57v15.71a7.81 7.81 0 0 1-.05 1.08 1.87 1.87 0 0 1-3.59.39 3.89 3.89 0 0 1-.17-1.23V72.94A11.49 11.49 0 0 1 49.44 61.2h41.3c1.86 0 2.5.63 2.5 2.47v6.73c0 1.6-.71 2.29-2.32 2.29H64.51ZM83.59 130.15H70.94c-2 0-2.61-.61-2.55-2.59a29.22 29.22 0 0 1 .41-5.78 9.06 9.06 0 0 1 8.69-6.89c4.16-.08 8.32-.09 12.48 0a9.38 9.38 0 0 1 9 9c.05 1.34 0 2.69 0 4 0 1.53-.73 2.23-2.29 2.23Zm-11.37-3.88h23v-1.86a5.72 5.72 0 0 0-5.7-5.73c-3.86-.06-7.72-.05-11.58 0a5.63 5.63 0 0 0-4.49 2.24c-1.3 1.58-1.34 3.41-1.23 5.35ZM116.19 130.15h-11.13c-1.36 0-2.21-.78-2.19-2a1.82 1.82 0 0 1 1.64-1.82 9.48 9.48 0 0 1 1.07 0h18.77c1.67 0 1.49.3 1.48-1.55a5.67 5.67 0 0 0-3.29-5.51 6.66 6.66 0 0 0-2.68-.58c-3.68-.07-7.37 0-11 0a6.1 6.1 0 0 0-4.1 1.52 2 2 0 0 1-2.76.26 1.91 1.91 0 0 1 0-2.92 8.41 8.41 0 0 1 5.74-2.61c4.43-.09 8.86-.12 13.29 0s8.55 4.43 8.66 9.08v4a2 2 0 0 1-2.22 2.21ZM51.09 130.15h-11c-1.69 0-2.45-.71-2.4-2.39a32.65 32.65 0 0 1 .41-5.76 9.12 9.12 0 0 1 8.73-7.09q6.33-.12 12.66 0a8.61 8.61 0 0 1 5.86 2.56 1.92 1.92 0 0 1 .26 2.79 1.87 1.87 0 0 1-2.73.1 7 7 0 0 0-5.13-1.7h-10c-3.71 0-6.57 2.61-6.14 7.2 0 .18.48.46.73.47h19.94c1.41 0 2.2.64 2.27 1.76s-.78 2-2.18 2.05Z"/><path class="cls-2" d="M95.17 80.37h24a11.43 11.43 0 0 1 1.17 0 1.86 1.86 0 0 1 .34 3.63 3.43 3.43 0 0 1-1.06.14H70.76c-1.56 0-2.43-.77-2.36-2.05a1.81 1.81 0 0 1 1.6-1.67 9 9 0 0 1 1.16 0ZM64.51 47.82a9.56 9.56 0 1 1-9.51-9.6 9.62 9.62 0 0 1 9.51 9.6ZM55 53.5a5.72 5.72 0 0 0 5.74-5.66 5.74 5.74 0 1 0-11.48 0A5.73 5.73 0 0 0 55 53.5ZM53 111a7.65 7.65 0 0 1 0-15.29A7.65 7.65 0 1 1 53 111Zm0-3.81a3.83 3.83 0 1 0-3.83-3.82 3.89 3.89 0 0 0 3.83 3.79ZM114.36 111a7.65 7.65 0 1 1 7.6-7.67 7.67 7.67 0 0 1-7.6 7.67Zm3.79-7.62a3.83 3.83 0 1 0-3.83 3.81 3.87 3.87 0 0 0 3.83-3.84ZM83.65 111a7.65 7.65 0 1 1 .06-15.29 7.65 7.65 0 1 1-.06 15.29Zm3.83-7.59a3.8 3.8 0 1 0-3.84 3.78 3.81 3.81 0 0 0 3.84-3.81ZM49.2 87.1v2.69a1.93 1.93 0 0 1-1.93 2 1.88 1.88 0 0 1-1.86-2v-5.56a1.87 1.87 0 0 1 1.86-2 1.94 1.94 0 0 1 1.93 2 1.09 1.09 0 0 1 0 .18c.01.96.01 1.83 0 2.69ZM53.08 68.93h3.76v3.72h-3.76ZM76.05 49.64V46h3.75v3.69ZM83.72 49.66V46h3.72v3.71ZM68.44 45.93h3.69v3.72h-3.69Z"/></g></g></svg>