<svg xmlns="http://www.w3.org/2000/svg" viewBox="0 0 167.52 167.52"><defs><style>.cls-2{fill:#fff}</style></defs><g id="圖層_2" data-name="圖層 2"><g id="圖層_1-2" data-name="圖層 1"><circle cx="83.76" cy="83.76" r="83.76" style="fill:#ea6011"/><path class="cls-2" d="M90.28 132.09c-4.34-4.34-8.45-8.46-12.58-12.55a4.18 4.18 0 0 1-1.51-4 1.08 1.08 0 0 0-.29-.8c-.82-.89-1.69-1.73-2.59-2.63-7.9 5.35-16.47 7-25.69 4.53a29.42 29.42 0 0 1-17.06-12.26c-8.14-11.93-6.37-28.78 4.05-38.57a30.26 30.26 0 0 1 45.61 39.43c.89.86 1.79 1.77 2.73 2.62a1.1 1.1 0 0 0 .82.18A3.49 3.49 0 0 1 87 109c4.83 4.81 9.7 9.59 14.44 14.49 2.14 2.21 2.33 4.91 1.14 7.72-.1.22-.22.43-.32.65 0 0 0 .06.07.2h20.18c3.23 0 5.1-1.83 5.1-5.07v-74c0-.44-.08-.88-.12-1.42H113.94a5.63 5.63 0 0 1-6-6c.15-4.08 0-8.17 0-12.25C108 32 108 32 106.5 32H54.77c-3.43 0-5.23 1.79-5.23 5.25v14.34a8.69 8.69 0 0 1 0 1.14A1.41 1.41 0 0 1 47.93 54a1.38 1.38 0 0 1-1.46-1.33 5.74 5.74 0 0 1 0-.93V37.09c0-5.1 3.22-8.27 8.32-8.27h51.73a8.53 8.53 0 0 1 6.4 2.67q7.56 7.64 15.2 15.2a8.68 8.68 0 0 1 2.7 6.49v73.76c0 5.09-3.22 8.26-8.32 8.26H54.7c-5 0-8.24-3.17-8.28-8.21v-4.25c0-1.13.66-1.82 1.58-1.8a1.59 1.59 0 0 1 1.51 1.76v4.36c0 3.19 1.88 5 5.05 5h35.72Zm-7.53-44.44a27.1 27.1 0 1 0-54.19-.16c-.07 14.72 12 27.05 26.44 27.15 15.46.1 27.64-11.74 27.75-26.99Zm17.42 40a3.66 3.66 0 0 0-1.17-2.29c-4.57-4.58-9.15-9.14-13.71-13.74-.6-.6-1-.52-1.51 0a95.368 95.368 0 0 1-3.9 3.89c-.72.67-.62 1.11 0 1.76 4.48 4.43 8.91 8.89 13.37 13.34a6 6 0 0 0 1 .85 3.67 3.67 0 0 0 3.93.06c1.3-.69 1.94-1.82 1.99-3.85ZM125 48.47l-13.88-13.89v11.16c0 2 .8 2.77 2.77 2.78h10.49a6.16 6.16 0 0 0 .62-.05Zm-46.56 59.47-2.51 2.19 2.33 2.44 2.36-2.31Z"/><path class="cls-2" d="M75 39h15c2.57 0 3.83 1.25 3.85 3.81V48a3.4 3.4 0 0 1-3.7 3.68H59.86a3.42 3.42 0 0 1-3.7-3.68v-5.4a3.32 3.32 0 0 1 3.66-3.6H75Zm-15.73 3.13c0 1.78.07 3.47 0 5.15 0 1 .31 1.26 1.29 1.26h28.12c2.31 0 2 .36 2-2v-4.33ZM105.61 78.69h12.76a7.63 7.63 0 0 1 .83 0 1.47 1.47 0 0 1 1.44 1.49 1.5 1.5 0 0 1-1.24 1.57 4.09 4.09 0 0 1-.93 0H92.85a3.59 3.59 0 0 1-.93 0 1.49 1.49 0 0 1-1.21-1.68 1.42 1.42 0 0 1 1.42-1.38 7.63 7.63 0 0 1 .83 0ZM105.64 91.17h-13c-1.32 0-2-.54-2-1.57s.73-1.55 2-1.55h25.83a4.34 4.34 0 0 1 .51 0 1.61 1.61 0 0 1 1.6 1.59 1.55 1.55 0 0 1-1.58 1.52h-5.18ZM105.63 69.31h13c1.31 0 2 .56 2 1.52s-.77 1.6-2 1.6h-26c-1.41 0-2.17-.8-1.92-1.94.21-1 .91-1.19 1.8-1.19 4.39.02 8.75.01 13.12.01ZM98.87 100.56h-6.33c-1.2 0-1.81-.51-1.84-1.48s.63-1.63 1.84-1.63h12.75c1.24 0 1.9.58 1.9 1.57s-.64 1.54-1.9 1.54ZM39.84 101.16c2.29-3.93 6.45-3.74 10.09-4.66a3.2 3.2 0 0 0-.86-3 23.23 23.23 0 0 1-2.35-4c-.26-.45-.59-.86-.83-1.33a6 6 0 0 1-1-2.17c-.12-2.52-.08-5 0-7.58a6.83 6.83 0 0 1 6.33-6.64c2.73-.14 5.47-.08 8.2-.06A3.72 3.72 0 0 1 63 74.27a1.58 1.58 0 0 0 .77.69 3.77 3.77 0 0 1 2.53 3.58v7.38a2.89 2.89 0 0 1-1.23 2.49 2 2 0 0 0-.61 1A8 8 0 0 1 62 93.64a2.54 2.54 0 0 0-.88 2.84c3.73.87 7.94.68 10.26 4.78a20.43 20.43 0 0 0 4.21-7.52 20.89 20.89 0 1 0-40.51-9.87c-.24 1.38-1 2-2 1.74s-1.3-1-1-2.36a23.78 23.78 0 0 1 4-9.57c5.61-7.84 15.42-11.76 24.53-9.61C70.83 66.5 77.19 73 79.25 83.32c2.68 13.42-7 26.38-20.63 28A24 24 0 0 1 32 92a1.63 1.63 0 0 1 1.13-2.12c1-.21 1.69.32 1.93 1.5a21 21 0 0 0 4.28 9.22c.16.2.3.34.5.56Zm15.78 7.26a21.24 21.24 0 0 0 12.5-4.08c.78-.57.9-1.19.35-1.78a6.45 6.45 0 0 0-2.32-1.77 32.81 32.81 0 0 0-4.64-1 1.24 1.24 0 0 0-.82.28c-3.44 2.61-6.82 2.62-10.37 0a1.23 1.23 0 0 0-.82-.22 37.13 37.13 0 0 0-4.82 1.15 5.49 5.49 0 0 0-2 1.67c-.48.53-.36 1 .31 1.53a21 21 0 0 0 12.63 4.22Zm-7.79-24c.18.59.18 1.24.45 1.38a2.73 2.73 0 0 1 1.36 2.39 6 6 0 0 0 11.86.06c.16-.88.21-1.79 1.15-2.3.5-.27.8-2.92.4-3.31a.64.64 0 0 0-.38-.15c-1.65-.13-3.32-.39-4.84.55a9.91 9.91 0 0 1-5.55 1.39c-1.4-.03-2.81-.01-4.45-.01Zm15.29-5.06c.05-1.24 0-1.38-.8-1.48a2.3 2.3 0 0 1-2.19-2.11.91.91 0 0 0-1-.9h-7.57a3.46 3.46 0 0 0-3.35 2.75 24.77 24.77 0 0 0-.27 3.63h3.83a8.75 8.75 0 0 0 4.86-1.13 7.55 7.55 0 0 1 4.6-.92Zm-5.07 18.72c-.07-.66-.13-1.26-.19-1.84h-4.67a3.92 3.92 0 0 1-.12 1.06c-.26.7 0 1 .66 1.21a4.66 4.66 0 0 0 4.32-.43Z"/></g></g></svg>