<svg xmlns="http://www.w3.org/2000/svg" xmlns:xlink="http://www.w3.org/1999/xlink" viewBox="0 0 330.52 277.22"><defs><style>.cls-1{fill:url(#linear-gradient);}.cls-2{fill:#00375f;}</style><linearGradient id="linear-gradient" y1="138.61" x2="330.52" y2="138.61" gradientUnits="userSpaceOnUse"><stop offset="0" stop-color="#dfb464"/><stop offset="0.05" stop-color="#dfb464"/><stop offset="0.1" stop-color="#e1b967"/><stop offset="0.48" stop-color="#f1e288"/><stop offset="0.53" stop-color="#ecdc84"/><stop offset="0.6" stop-color="#e0cb77"/><stop offset="0.67" stop-color="#cbaf63"/><stop offset="0.76" stop-color="#ae8847"/><stop offset="0.84" stop-color="#8b5a25"/><stop offset="0.85" stop-color="#97672e"/><stop offset="0.89" stop-color="#b68845"/><stop offset="0.92" stop-color="#e1b564"/><stop offset="0.98" stop-color="#824c24"/><stop offset="1" stop-color="#28180b"/></linearGradient></defs><title>資產 1</title><g id="圖層_2" data-name="圖層 2"><g id="圖層_1-2" data-name="圖層 1"><path class="cls-1" d="M165.26,0c0,78.26-74,141.71-165.26,141.8H0c88.79.09,161.17,60.11,165.07,135.41h.38c3.9-75.3,76.29-135.32,165.07-135.41h0C239.24,141.71,165.26,78.26,165.26,0Z"/><path class="cls-2" d="M109,139.05c-.07.36-.4.61-1,.69-.87,6.5-2.14,12.57-11.15,16a12.5,12.5,0,0,0-2.69-3.64c7.92-2.72,8.64-7.62,9.15-13.58Zm9.23,10.86c0,1.38.21,1.6,1.38,1.6H123c1.23,0,1.45-.95,1.63-6.25a12.36,12.36,0,0,0,3.93,1.82c-.4,6.53-1.49,8.39-5.16,8.39h-4.43c-4,0-5.12-1.35-5.12-5.56V138.25H95V134h32.73v4.25h-9.51Zm6.14-26.16V128h-26v-4.22Z"/><path class="cls-2" d="M166.26,135.85h-13c2.14,7.52,6.36,13.22,13.84,15.73a18.61,18.61,0,0,0-3.16,4.18c-7-2.73-11.12-7.74-13.77-14.75-2,6-5.92,11.3-13.84,14.78a13.58,13.58,0,0,0-3.2-3.81c8.87-3.6,12.28-9.48,13.55-16.13H133.78v-4.5h13.48c.26-3.24.22-6.54.26-9.81l5.77.36c-.07.4-.4.66-1,.76,0,2.8-.07,5.74-.32,8.69h14.31Z"/><path class="cls-2" d="M196.18,142c-.2-3.57-.32-6.83-.28-10.48h-.12c-.92,3.53-1.73,6.3-2.65,9.56l-3.66,12.49h-4.58l-3.29-12.09c-.88-3.53-1.65-6.35-2.45-10H179c-.12,3.73-.2,7-.4,10.68L178.1,154h-5.38l2.17-31.21h6.87L185.05,135c1,3.82,1.65,6.35,2.49,9.84h.13c.84-3.53,1.52-6,2.57-9.84l3.41-12.21h6.79L202.29,154h-5.63Z"/><path class="cls-2" d="M215.88,145.45,213.35,154h-6.14l10.24-31.21h7.43L235.24,154h-6.38l-2.61-8.59Zm9.28-4.5-2.41-7.47c-.64-1.85-1.28-3.9-1.77-5.79h-.08c-.48,1.89-1.08,4-1.64,5.79L216.89,141Z"/><path class="cls-2" d="M135.53,170.61l.26,2.07-2.09.67v4.77c0,2.13-.79,2.54-4,2.54a8.55,8.55,0,0,0-.68-2.18c.8,0,1.67,0,1.95,0s.38-.12.38-.4v-4l-1.71.51a.43.43,0,0,1-.34.36l-.75-2.68c.77-.16,1.73-.38,2.8-.64v-3.72h-2.53v-2.2h2.53V162l2.88.12c0,.22-.16.34-.54.4v3.26h2.07v2.2H133.7v3.13Zm10.06-8,1.33.14c0,.2,0,.47-.08.69-.2,4.49-.46,6.32-1,7s-1.19.85-2.74.85c-.26,0-.56,0-.86,0a5.67,5.67,0,0,0-.62-2.2,13.25,13.25,0,0,0,1.57.08.66.66,0,0,0,.62-.24c.26-.32.46-1.41.62-4.1h-2.83c-.51,2.49-1.35,5.19-4.71,6.9a6,6,0,0,0-1.45-1.83,6.17,6.17,0,0,0,3.78-5.07h-3.06v-2.14h8.9Zm-8.88,18.1V172.3h9.64v8.31h-2.41V180H139v.73Zm7.23-6.24H139v3.36h4.95Z"/><path class="cls-2" d="M174.11,174.17h-3.44a13.81,13.81,0,0,0,4,1.65,9.64,9.64,0,0,0-1.51,1.9,13.06,13.06,0,0,1-2.52-1.17c-.38,3.86-.88,4.13-3.44,4.13-.38,0-.8,0-1.23,0a4.21,4.21,0,0,0-.56-1.8c.8.08,1.57.1,1.91.1.79,0,.89-.36,1.07-1.75h-3.58c-.81,1.65-2.4,2.84-6.06,3.57a5.25,5.25,0,0,0-1.07-1.72c2.44-.4,3.81-1,4.61-1.85h-3.2v-.72a14.47,14.47,0,0,1-2.31,1,5.41,5.41,0,0,0-1.35-1.68,14,14,0,0,0,3.68-1.65H156v-1.85h5.19a8.35,8.35,0,0,0,.49-.78h-3.06V166h13.14v5.58h-7.21a.5.5,0,0,1-.46.22c-.1.18-.2.38-.32.56h10.38Zm-13.58-8.43V165h-4.39v-1.89h4.39V162l2.84.14c0,.2-.18.32-.51.38v.67h4.29V162l2.86.14c0,.2-.16.32-.52.4v.65H174V165h-4.48v.7h-2.34V165h-4.29v.7Zm.24,1.57v.79h8.66v-.79Zm0,2.07v.81h8.66v-.81Zm2.44,6.1a9.2,9.2,0,0,0,.22-1.16l2.57.24c0,.18-.18.3-.48.34l-.12.58h3.7a12,12,0,0,1-1.35-1.31h-5.47a11.65,11.65,0,0,1-1.51,1.31Z"/><path class="cls-2" d="M193.12,165.42h7.14v10h-2.51v-1h-4.63v6.26h-2.5v-6.26h-4.46v1.12h-2.4V165.42h6.86v-3.48l3.06.18c0,.2-.16.32-.56.38Zm-7,6.66h4.46v-4.31h-4.46Zm7,0h4.63v-4.31h-4.63Z"/></g></g></svg>