<?xml version="1.0" encoding="utf-8"?>
<!-- Generator: Adobe Illustrator 23.0.3, SVG Export Plug-In . SVG Version: 6.00 Build 0)  -->
<svg version="1.1" id="圖層_1" xmlns="http://www.w3.org/2000/svg" xmlns:xlink="http://www.w3.org/1999/xlink" x="0px" y="0px"
	 viewBox="0 0 1920 1080" style="enable-background:new 0 0 1920 1080;" xml:space="preserve">
<style type="text/css">
	.st0{fill:#FFFFFF;}
	.st1{fill:#EA6011;}
	.st2{fill:none;}
</style>
<g>
	<g>
		<g>
			<path class="st0" d="M167.9,370.9l129.1-0.3c54.8-0.1,69.1,9.8,69.2,48.2c0.1,29.9-14,41.4-54.7,44.3l0,2.7l4.4,0
				c42.9-0.1,54.8,10.2,54.9,46.4c0.1,39.9-15.2,51.7-67.4,51.8l-135,0.3L167.9,370.9z M289.8,450.1l0-23.6l-51,0.1l0,23.6
				L289.8,450.1z M292.3,515.1l-0.1-29l-53.4,0.1l0.1,29L292.3,515.1z"/>
			<path class="st0" d="M402.2,370.4l178.5-0.4l0.1,60.5L473,430.7l0,13l103.7-0.2l0.1,44.4l-103.7,0.2l0,15.1L581,503l0.1,60.5
				l-178.5,0.4L402.2,370.4z"/>
			<path class="st0" d="M667.1,449.6l-62.4,0.1l-0.2-79.8l196-0.4l0.2,79.8l-62.4,0.1l0.2,113.7l-71.3,0.1L667.1,449.6z"/>
			<path class="st0" d="M877,449.2l-62.4,0.1l-0.2-79.8l196-0.4l0.2,79.8l-62.4,0.1l0.2,113.7l-71.3,0.1L877,449.2z"/>
			<path class="st0" d="M1036.3,369.1l178.5-0.4l0.1,60.5l-107.8,0.2l0,13l103.7-0.2l0.1,44.4l-103.7,0.2l0,15.1l107.8-0.2l0.1,60.5
				l-178.5,0.4L1036.3,369.1z"/>
			<path class="st0" d="M1250.6,368.6l133.7-0.3c52.6-0.1,69.7,16.8,69.9,69.4c0.1,48.7-24.7,62-116.1,62.2l-6.6,0l0,6l119.2-0.2
				l0.1,55.9l-109.8,0.2l-20.8-61.9l0.1,62l-69.3,0.1L1250.6,368.6z M1373.8,464.8l-0.1-26.3l-51.4,0.1l0.1,26.3L1373.8,464.8z"/>
			<path class="st0" d="M161.7,747.5l122.8,2.5l0-10.4l-53.7,0.1c-50.6,0.1-74-13.8-74.1-44.1c-0.1-40.2,22-53.3,89.9-53.5l92.5-0.2
				l0.1,62.6L216,707l0,9.3c25.3-0.1,46,0.5,62.9,1.5c53.7,3.4,66.1,12.4,66.2,48.5c0.1,34.2-20,50.6-62.4,50.7l-120.8,0.2
				L161.7,747.5z"/>
			<path class="st0" d="M414.8,713.9l-56.4,0.1l-0.1-72.2l177.2-0.4l0.1,72.2l-56.4,0.1l0.2,102.8l-64.5,0.1L414.8,713.9z"/>
			<path class="st0" d="M554.4,641.5l120.8-0.2c47.6-0.1,63.1,15.2,63.2,62.7c0.1,44-22.3,56.1-104.9,56.2l-5.9,0l0,5.5l107.7-0.2
				l0.1,50.6l-99.3,0.2l-18.8-56l0.1,56l-62.7,0.1L554.4,641.5z M665.7,728.5l0-23.8l-46.5,0.1l0,23.8L665.7,728.5z"/>
			<path class="st0" d="M748.3,728.6c-0.1-61.5,31.8-91.4,98-91.5c65.9-0.1,97.9,29.6,98.1,91.1c0.1,62.6-31.6,93-97.7,93.1
				C780.5,821.4,748.4,791.1,748.3,728.6z M873.3,743.9l-0.1-30.9l-54.2,0.1l0.1,30.9L873.3,743.9z"/>
			<path class="st0" d="M963,640.6l74.7-0.2l41.2,60l4.8,0l-0.1-60.1l62.5-0.1l0.4,174.9l-74.3,0.2l-41.2-57l-4.8,0l0.1,57.1
				l-62.8,0.1L963,640.6z"/>
			<path class="st0" d="M1165.2,729.1c-0.1-67,31.4-92.7,113.8-92.9c19.2,0,41.5,1,79.2,3.7l0.1,67l-117.6,0.2l0.1,53.6l60.7,0.7
				l11.8-10.1l-52.6,0.1l-0.1-30.1l97.7-0.2l0.2,93.8l-32.7,0.1l-0.1-63.7l-0.4,0l-16.2,63.7c-17.6,1.9-34.1,3.1-49,3.1
				C1190.6,818.1,1165.4,794.7,1165.2,729.1z"/>
			<path class="st0" d="M1378.9,639.8l161.4-0.3l0.1,54.7l-97.5,0.2l0,11.8l93.7-0.2l0.1,40.2l-93.7,0.2l0,13.7l97.5-0.2l0.1,54.7
				l-161.4,0.3L1378.9,639.8z"/>
			<path class="st0" d="M1568.2,639.4l120.8-0.2c47.6-0.1,63.1,15.2,63.2,62.7c0.1,44-22.3,56.1-104.9,56.2l-5.9,0l0,5.5l107.7-0.2
				l0.1,50.6l-99.3,0.2l-18.8-56l0.1,56l-62.7,0.1L1568.2,639.4z M1679.5,726.4l0-23.8l-46.5,0.1l0,23.8L1679.5,726.4z"/>
		</g>
	</g>
	<g>
		<g>
			<path class="st1" d="M177.6,370.9l129.1-0.3c54.8-0.1,69.1,9.8,69.2,48.2c0.1,29.9-14,41.4-54.7,44.3l0,2.7l4.4,0
				c42.9-0.1,54.8,10.2,54.9,46.4c0.1,39.9-15.2,51.7-67.4,51.8l-135,0.3L177.6,370.9z M299.5,450.1l0-23.6l-51,0.1l0,23.6
				L299.5,450.1z M302,515.1l-0.1-29l-53.4,0.1l0.1,29L302,515.1z"/>
			<path class="st1" d="M412,370.4l178.5-0.4l0.1,60.5l-107.8,0.2l0,13l103.7-0.2l0.1,44.4l-103.7,0.2l0,15.1l107.8-0.2l0.1,60.5
				l-178.5,0.4L412,370.4z"/>
			<path class="st1" d="M676.9,449.6l-62.4,0.1l-0.2-79.8l196-0.4l0.2,79.8l-62.4,0.1l0.2,113.7l-71.3,0.1L676.9,449.6z"/>
			<path class="st1" d="M886.8,449.2l-62.4,0.1l-0.2-79.8l196-0.4l0.2,79.8l-62.4,0.1l0.2,113.7l-71.3,0.1L886.8,449.2z"/>
			<path class="st1" d="M1046.1,369.1l178.5-0.4l0.1,60.5l-107.8,0.2l0,13l103.7-0.2l0.1,44.4l-103.7,0.2l0,15.1l107.8-0.2l0.1,60.5
				l-178.5,0.4L1046.1,369.1z"/>
			<path class="st1" d="M1260.4,368.6l133.7-0.3c52.6-0.1,69.7,16.8,69.9,69.4c0.1,48.7-24.7,62-116.1,62.2l-6.6,0l0,6l119.2-0.2
				l0.1,55.9l-109.8,0.2L1330,500l0.1,62l-69.3,0.1L1260.4,368.6z M1383.5,464.8l-0.1-26.3l-51.4,0.1l0.1,26.3L1383.5,464.8z"/>
			<path class="st1" d="M171.5,747.5l122.8,2.5l0-10.4l-53.7,0.1c-50.6,0.1-74-13.8-74.1-44.1c-0.1-40.2,22-53.3,89.9-53.5l92.5-0.2
				l0.1,62.6L225.8,707l0,9.3c25.3-0.1,46,0.5,62.9,1.5c53.7,3.4,66.1,12.4,66.2,48.5c0.1,34.2-20,50.6-62.4,50.7l-120.8,0.2
				L171.5,747.5z"/>
			<path class="st1" d="M424.6,713.9l-56.4,0.1l-0.1-72.2l177.2-0.4l0.1,72.2l-56.4,0.1l0.2,102.8l-64.5,0.1L424.6,713.9z"/>
			<path class="st1" d="M564.1,641.5l120.8-0.2c47.6-0.1,63.1,15.2,63.2,62.7c0.1,44-22.3,56.1-104.9,56.2l-5.9,0l0,5.5l107.7-0.2
				l0.1,50.6l-99.3,0.2l-18.8-56l0.1,56l-62.7,0.1L564.1,641.5z M675.5,728.5l0-23.8l-46.5,0.1l0,23.8L675.5,728.5z"/>
			<path class="st1" d="M758,728.6c-0.1-61.5,31.8-91.4,98-91.5c65.9-0.1,97.9,29.6,98.1,91.1c0.1,62.6-31.6,93-97.7,93.1
				C790.2,821.4,758.2,791.2,758,728.6z M883.1,743.9L883,713l-54.2,0.1l0.1,30.9L883.1,743.9z"/>
			<path class="st1" d="M972.8,640.6l74.7-0.2l41.2,60l4.8,0l-0.1-60.1l62.5-0.1l0.4,174.9l-74.3,0.2l-41.2-57l-4.8,0l0.1,57.1
				l-62.8,0.1L972.8,640.6z"/>
			<path class="st1" d="M1175,729.1c-0.1-67,31.4-92.7,113.8-92.9c19.2,0,41.5,1,79.2,3.7l0.1,67l-117.6,0.2l0.1,53.6l60.7,0.7
				l11.8-10.1l-52.6,0.1l-0.1-30.1l97.7-0.2l0.2,93.8l-32.7,0.1l-0.1-63.7h-0.4l-16.2,63.7c-17.6,1.9-34.1,3.1-49,3.1
				C1200.3,818.1,1175.1,794.7,1175,729.1z"/>
			<path class="st1" d="M1388.6,639.8l161.4-0.3l0.1,54.7l-97.5,0.2l0,11.8l93.7-0.2l0.1,40.2l-93.7,0.2l0,13.7l97.5-0.2l0.1,54.7
				l-161.4,0.3L1388.6,639.8z"/>
			<path class="st1" d="M1577.9,639.4l120.8-0.2c47.6-0.1,63.1,15.2,63.2,62.7c0.1,44-22.3,56.1-104.9,56.2l-5.9,0l0,5.5l107.7-0.2
				l0.1,50.6l-99.3,0.2l-18.8-56l0.1,56l-62.7,0.1L1577.9,639.4z M1689.2,726.4l0-23.8l-46.5,0.1l0,23.8L1689.2,726.4z"/>
		</g>
	</g>
	<g>
		<polygon class="st0" points="1550,638.1 465,642.1 459.8,637 1408.6,635.1 		"/>
		<g>
			<path class="st0" d="M515.6,604.1c0,0,0,1.1-0.1,1.7c-0.6,10.2-1.2,14.2-2.5,15.7c-0.9,1-1.8,1.3-3.2,1.5c-1.2,0.1-3.3,0.2-5.4,0
				c0-1.1-0.6-2.8-1.2-3.9c2,0.2,3.9,0.2,4.7,0.2c0.7,0,1.2,0,1.6-0.5c0.8-0.8,1.3-3.8,1.8-10.9h-11c0.6-3.6,1.4-9.4,1.7-13.8h9.2
				v-6.6h-10.3v-3.9h14.2V598h-9.7c-0.2,2.1-0.5,4.2-0.7,6.1H515.6z M538.9,623.6c-0.3-0.9-0.7-1.8-1.2-2.9
				c-7.7,0.6-15.7,1.2-21.3,1.6l-0.6-4.2c2.9-0.1,6.7-0.3,10.7-0.6v-6.1h-9v-12.4h9v-4.1h4v4.1h9.3v12.4h-9.3v5.9l5.1-0.3
				c-0.7-1.2-1.5-2.5-2.2-3.6l3.5-1.5c2.3,3.1,4.6,7.3,5.6,10L538.9,623.6z M538.5,596.8c-0.5-0.9-1.1-2-1.8-3.1
				c-15.4,1.3-17.4,1.5-18.7,2c-0.2-0.8-1-2.6-1.5-3.6c0.8-0.2,1.6-0.9,2.4-1.9c0.9-1.1,3.8-4.9,5.5-8.7l4.4,1.1
				c-1.8,3.2-4.1,6.4-6.4,9l11.8-0.9c-1-1.3-2.1-2.5-3.1-3.7l3-1.8c2.8,2.9,6.1,6.9,7.5,9.6L538.5,596.8z M526.6,608v-5.5h-5.3v5.5
				H526.6z M530.6,602.5v5.5h5.4v-5.5H530.6z"/>
			<path class="st0" d="M588.8,598.3c3.1,9.6,8.9,17.3,17.6,20.9c-1.1,0.9-2.5,2.7-3.2,4c-8.6-4-14.1-11.4-17.7-21.2
				c-2.3,8.3-7.3,16.3-17.7,21.2c-0.7-1.1-2.1-2.7-3.3-3.6c10.9-4.8,15.4-13,17.2-21.4h-16.3v-4.4h17.1c0.6-4.6,0.5-9,0.6-12.7h4.6
				c0,3.7-0.1,8.1-0.6,12.7h18.5v4.4H588.8z"/>
			<path class="st0" d="M652.3,618.4c1.4,0.1,3,0.2,4.7,0.2c2,0,11.2,0,13.9,0c-0.6,1-1.2,2.8-1.5,4h-12.7c-8.8,0-14.6-1.3-18.4-7.1
				c-1.7,3.3-4,6-6.8,8c-0.6-0.8-2.3-2.3-3.2-3c4.7-3,7.5-8,8.7-14.4l4.3,0.6c-0.3,1.5-0.7,3-1.1,4.3c1.7,3.7,4.2,5.7,7.8,6.7v-12.9
				h-18.4V601h40.2v3.8h-17.6v4.4h14.6v3.7h-14.6V618.4z M665.1,598.3h-30.9v-15.4h30.9V598.3z M660.8,586.1h-22.5v3.1h22.5V586.1z
				 M660.8,592.1h-22.5v3h22.5V592.1z"/>
			<path class="st0" d="M735.1,599.5v4.7h-41.8v-4.7H735.1z"/>
			<path class="st0" d="M772.5,609.7c-0.7-1.3-2.2-3.4-3.6-5.3v18.9h-4.1v-18.6c-1.7,4.2-3.8,8.1-5.9,10.7c-0.4-1.2-1.4-2.9-2.1-4
				c2.7-3.1,5.7-8.6,7.4-13.5h-6.5v-4h7.1v-6.2c-2.1,0.5-4.2,0.8-6.2,1.1c-0.2-1-0.7-2.4-1.2-3.3c5.1-0.8,10.9-2.2,14.3-3.7l2.9,3.3
				c-1.7,0.6-3.6,1.2-5.7,1.8v7.1h5.4v4h-5.4v2.1c1.3,1.1,5.2,5.1,6.1,6.2L772.5,609.7z M799.6,619.1v3.4h-27.4v-3.4h12.1v-3h-9.6
				v-3.3h9.6V610h-9.1v-14.9h9.1v-2.6h-10.8v-3.4h10.8v-2.6c-3.2,0.2-6.3,0.3-9.2,0.4c-0.1-0.9-0.6-2.3-1-3.2c7.6-0.3,16.7-1,22-2.1
				l2.5,3.1c-2.8,0.6-6.4,1.1-10.2,1.4v2.9h10.2v3.4h-10.2v2.6h9.4V610h-9.4v2.8h9.6v3.3h-9.6v3H799.6z M779,601.2h5.4v-3.1H779
				V601.2z M784.3,607v-3.1H779v3.1H784.3z M788.5,598.2v3.1h5.5v-3.1H788.5z M794,603.9h-5.5v3.1h5.5V603.9z"/>
			<path class="st0" d="M834.7,596.5c-3.9,1.6-7.9,3.4-11.2,4.6l-1.6-3.5c3.1-1,7.6-2.6,12.1-4.2L834.7,596.5z M844.9,601
				c-0.6,1.2-1.3,2.4-1.9,3.5h14.8v19h-4.5v-1.7h-21v1.7h-4.3v-19h10.7c0.5-1.1,1-2.4,1.3-3.5c-0.2,0.3-0.6,0.5-1,0.7
				c-1.3,0.6-3.2,0.5-6,0.5c-0.2-1-0.6-2.2-1.1-3.1c1.8,0,3.6,0,4.1,0c0.6,0,0.7-0.2,0.7-0.6v-11.7h-13.9v-3.4h17.8v15
				c0,0.8-0.1,1.4-0.2,1.8L844.9,601z M830.5,593.6c-1.1-1.3-3.7-3.1-5.8-4.3l2.1-2.5c2.1,1.1,4.7,2.8,5.9,4.1L830.5,593.6z
				 M853.3,607.7h-21v3.7h21V607.7z M853.3,618.4v-3.8h-21v3.8H853.3z M842.4,596.8c3.3-1,8-2.6,12.7-4.3l0.7,3.1
				c-4.1,1.6-8.5,3.2-11.9,4.4L842.4,596.8z M861.3,598.4c0,1.9-0.4,2.8-1.8,3.4c-1.3,0.6-3.4,0.6-6.4,0.6c-0.2-1-0.6-2.4-1.1-3.4
				c1.9,0.1,4,0.1,4.5,0.1c0.6,0,0.7-0.2,0.7-0.7v-11.6h-13.8v-3.4h17.8V598.4z M850.6,593.6c-1.2-1.3-3.9-3.1-6-4.3l2.1-2.5
				c2.1,1,4.8,2.7,6.1,4L850.6,593.6z"/>
			<path class="st0" d="M890.1,590.4c0,4.1-0.6,9.4-2.1,12.5l-2.6-1.1c1.4-2.8,2-7.9,2.1-11.8L890.1,590.4z M891.2,581.2h3.9v42.1
				h-3.9V581.2z M897.7,588.8c1.1,3,2,6.8,2.2,9.1l-2.7,0.9c-0.1-2.4-0.9-6.3-2-9.3L897.7,588.8z M919.1,616.1
				c3.3,1.6,6.9,3.4,9.1,4.8l-3.4,2.5c-2.1-1.5-5.8-3.7-9.1-5.3l2.3-2h-10.3l3.6,1.2c-2.7,2.5-7,4.8-10.7,6.2
				c-0.6-0.8-2-2.4-2.9-3.1c3.6-1,7.4-2.6,9.7-4.4H902v-18.3h22.7v18.3H919.1z M902.7,591.2H899v-3.7h4l0.5-4.7h21l-0.3,4.7h3.9v3.7
				H924l-0.3,4.8h-21.5L902.7,591.2z M906,603h14.5v-2.4H906V603z M906,608.2h14.5v-2.4H906V608.2z M906,613.3h14.5v-2.4H906V613.3z
				 M906.2,593.1h4.9c0.1-0.7,0.2-1.6,0.2-2.4h-4.9L906.2,593.1z M906.9,585.6l-0.2,2.3h4.8c0-0.8,0.1-1.6,0.1-2.3H906.9z
				 M920,593.1l0.1-2.4h-5.3c-0.1,0.9-0.2,1.7-0.2,2.4H920z M920.5,585.6h-5.2l-0.1,2.3h5.2L920.5,585.6z"/>
			<path class="st0" d="M954.8,608.7c3.5-1.3,5.6-3.4,5.8-6.2c-0.2,0-0.4,0-0.6,0c-2.1,0-3.9-1.3-3.9-3.7c0-2.3,1.8-3.7,3.9-3.7
				c2.9,0,4.4,2.3,4.4,5.7c0,5.1-3.2,9-8.5,10.7L954.8,608.7z"/>
			<path class="st0" d="M1033.4,604.5v4.2h-41.3v-4.2h10.2v-9.9h-8.5v-4.1h8.5v-8.9h4.4v8.9h11.9v-8.9h4.5v8.9h8.8v4.1h-8.8v9.9
				H1033.4z M1008.9,612.7c-3.3,3.9-8.4,8.1-12.9,10.7c-0.9-0.9-2.4-2.3-3.4-3c4.4-2.3,9.4-6.2,11.9-9.5L1008.9,612.7z
				 M1006.7,604.5h11.9v-9.9h-11.9V604.5z M1020.1,610.8c4.1,3,9.7,7.3,12.7,10.1l-4.1,2.5c-2.6-2.7-8.1-7.2-12.3-10.3L1020.1,610.8
				z"/>
			<path class="st0" d="M1072.8,594.5c-0.1,5-0.8,11-3.4,16.7c2.3,2,4.3,4,5.6,5.6l-2.8,3.6c-1.2-1.5-2.9-3.4-4.9-5.2
				c-2,3-4.7,5.8-8.2,8.4c-0.6-0.9-2.1-2.3-3-3c3.6-2.5,6.2-5.3,8.1-8.3c-2.4-2.2-5-4.3-7.2-6.2c0.9-2.8,1.7-6.7,2.5-10.7l-3.2,0.2
				l-0.5-4.1l4.4-0.2c0.5-3.4,1-6.9,1.2-10l4.2,0.2c-0.3,3-0.8,6.2-1.3,9.6l4.6-0.2v-3.2h4v2.9l2.6-0.1l0,3.8L1072.8,594.5z
				 M1063.5,595.1c-0.6,3.4-1.4,6.8-2.1,9.6c1.5,1.1,3,2.4,4.5,3.7c2.1-4.8,2.7-9.6,2.8-13.7L1063.5,595.1z M1098.1,604.4h-9.7v14.2
				c0,2.3-0.5,3.5-2.2,4.1c-1.6,0.6-4,0.7-7.5,0.7c-0.2-1.2-0.9-2.9-1.5-4.1c2.5,0.1,5.1,0.1,5.8,0c0.7,0,1-0.2,1-0.9v-14.1h-10.2
				v-4.1h10.2v-4.9c2.2-1.9,4.4-4.6,6.1-7.2h-14.3v-3.9h17.3l1-0.2l2.9,2.1c-2.2,3.4-5.3,7.3-8.6,10.1v4h9.7V604.4z"/>
			<path class="st0" d="M1143.9,618.4c1.4,0.1,3,0.2,4.7,0.2c2,0,11.2,0,13.9,0c-0.6,1-1.2,2.8-1.5,4h-12.7
				c-8.8,0-14.6-1.3-18.4-7.1c-1.7,3.3-4,6-6.8,8c-0.6-0.8-2.3-2.3-3.2-3c4.7-3,7.5-8,8.7-14.4l4.3,0.6c-0.3,1.5-0.7,3-1.1,4.3
				c1.7,3.7,4.2,5.7,7.8,6.7v-12.9h-18.4V601h40.2v3.8h-17.6v4.4h14.6v3.7h-14.6V618.4z M1156.7,598.3h-30.9v-15.4h30.9V598.3z
				 M1152.4,586.1h-22.5v3.1h22.5V586.1z M1152.4,592.1h-22.5v3h22.5V592.1z"/>
			<path class="st0" d="M1226.6,599.5v4.7h-41.8v-4.7H1226.6z"/>
			<path class="st0" d="M1264.1,609.7c-0.7-1.3-2.2-3.4-3.6-5.3v18.9h-4.1v-18.6c-1.7,4.2-3.8,8.1-5.9,10.7c-0.4-1.2-1.4-2.9-2.1-4
				c2.7-3.1,5.7-8.6,7.4-13.5h-6.5v-4h7.1v-6.2c-2.1,0.5-4.2,0.8-6.2,1.1c-0.2-1-0.7-2.4-1.2-3.3c5.1-0.8,10.9-2.2,14.3-3.7l2.9,3.3
				c-1.7,0.6-3.6,1.2-5.7,1.8v7.1h5.4v4h-5.4v2.1c1.3,1.1,5.2,5.1,6.1,6.2L1264.1,609.7z M1291.2,619.1v3.4h-27.4v-3.4h12.1v-3h-9.6
				v-3.3h9.6V610h-9.1v-14.9h9.1v-2.6h-10.8v-3.4h10.8v-2.6c-3.2,0.2-6.3,0.3-9.2,0.4c-0.1-0.9-0.6-2.3-1-3.2c7.6-0.3,16.7-1,22-2.1
				l2.5,3.1c-2.8,0.6-6.4,1.1-10.2,1.4v2.9h10.2v3.4H1280v2.6h9.4V610h-9.4v2.8h9.6v3.3h-9.6v3H1291.2z M1270.5,601.2h5.4v-3.1h-5.4
				V601.2z M1275.9,607v-3.1h-5.4v3.1H1275.9z M1280,598.2v3.1h5.5v-3.1H1280z M1285.6,603.9h-5.5v3.1h5.5V603.9z"/>
			<path class="st0" d="M1313.8,620.2c1.6-2.1,2.9-5.5,3.6-8.2l3.7,1.4c-0.9,2.8-2,6.4-3.5,8.7L1313.8,620.2z M1332.4,592.4
				c-0.4-0.6-0.8-1.4-1.4-2.3c-13.2,1.2-14.9,1.4-15.9,1.8c-0.2-0.7-0.8-2.5-1.2-3.5c0.7-0.1,1.5-0.6,2.4-1.3
				c0.9-0.7,3.9-3.4,5.8-6.2l3.9,1.2c-1.7,2.1-3.8,4-5.7,5.6l8.7-0.6c-0.7-0.9-1.5-1.8-2.2-2.6l2.9-1.6c2.1,2.3,4.6,5.5,5.8,7.5
				L1332.4,592.4z M1332.5,607.4c0,1.7-0.3,2.4-1.5,3c-1.1,0.5-2.9,0.5-5.5,0.5c-0.2-0.9-0.7-2.1-1.1-2.9c1.7,0,3.3,0,3.7,0
				c0.5,0,0.7-0.1,0.7-0.6v-3.1c-2.8,1-5.6,2.1-8.1,3l-1.1-2.5c-0.4,2.4-1.1,4.8-2.8,6.7c-0.6-0.7-2.2-1.9-3-2.3
				c2.3-2.7,2.5-6.2,2.5-9.1V593h16.1V607.4z M1320.1,600.1c0,1.2,0,2.6-0.2,4c2.4-0.6,5.6-1.5,9-2.4V596h-8.8V600.1z M1321.8,597
				c2.2,0.8,5.1,1.9,6.8,2.8l-1.7,2.3c-1.5-0.8-4.5-2.2-6.8-3.1L1321.8,597z M1339.5,619.2c2.1,0,2.5-0.6,2.7-4.7
				c0.9,0.6,2.6,1.2,3.6,1.4c-0.5,5.4-1.7,6.7-6,6.7h-9.2c-5.5,0-6.9-1-6.9-4.7v-5.2h4.1v5.2c0,1.1,0.5,1.3,3.1,1.3H1339.5z
				 M1335.9,617.3c-1-1.4-2.9-3.9-4.5-5.6l2.9-1.9c1.6,1.7,3.6,4,4.6,5.4L1335.9,617.3z M1342.1,595c-4.2,0-5.2-1.4-5.2-5.2v-8.2h4
				v3.1h11v3.3h-11v1.9c0,1.3,0.2,1.8,1.5,1.8h7c1.1,0,2.9-0.1,3.8-0.3c0.1,1.1,0.2,2.5,0.4,3.4c-0.7,0.2-2.5,0.3-4,0.3H1342.1z
				 M1342.6,610.5c-4.6,0-5.7-1-5.7-4.7v-9.4h4v3.3h11v3.3h-11v2.8c0,1.2,0.3,1.3,2.2,1.3h6.1c1.3,0,1.7-0.4,1.8-2.8
				c0.8,0.6,2.4,1.1,3.5,1.4c-0.5,3.9-1.6,4.8-4.9,4.8H1342.6z M1350.5,611.9c1.3,2.6,2.9,6.1,3.6,8.2l-3.9,1.3
				c-0.6-2.2-2.1-5.7-3.4-8.5L1350.5,611.9z"/>
			<path class="st0" d="M1385.5,597.7c0,7.4-0.6,18.3-4.4,25.6c-0.9-0.6-2.8-1.6-3.9-1.9c3.7-6.9,4-16.8,4-23.7v-12.2h17.3
				c-0.5-1.2-1-2.5-1.5-3.5l4.3-1c0.8,1.4,1.6,3.1,2.1,4.5h15.5v4h-33.5V597.7z M1415.8,608.6c-2,3.8-5.1,6.6-8.9,8.7
				c3.8,1.2,8.1,1.9,12.8,2.3c-0.9,0.9-1.9,2.6-2.5,3.7c-5.6-0.6-10.8-1.8-15.2-3.7c-4.6,1.7-9.9,2.8-15.4,3.4
				c-0.3-1.1-1.1-2.7-1.7-3.6c4.4-0.4,8.7-1,12.6-2.2c-2.6-1.6-4.8-3.5-6.6-5.8l1.8-0.7h-5.6v-3.4h25.3l0.7-0.1L1415.8,608.6z
				 M1393.4,604.9v-7.3h-6.8v-3.4h6.8v-3.5h4v3.5h9.9v-3.5h4.2v3.5h7v3.4h-7v7.3H1393.4z M1395.2,610.8c1.7,1.9,4.1,3.5,7,4.9
				c2.9-1.3,5.4-2.9,7.3-4.9H1395.2z M1397.4,597.6v4h9.9v-4H1397.4z"/>
			<path class="st0" d="M1458.7,602.3c0,4-3.2,7.2-7.2,7.2c-4,0-7.2-3.2-7.2-7.2c0-4,3.2-7.2,7.2-7.2
				C1455.5,595.2,1458.7,598.4,1458.7,602.3z M1455.9,602.3c0-2.4-2-4.4-4.4-4.4c-2.4,0-4.4,2-4.4,4.4c0,2.4,2,4.4,4.4,4.4
				C1454,606.7,1455.9,604.8,1455.9,602.3z"/>
		</g>
		<g>
			<g>
				<path class="st0" d="M428.5,642.2l-8.2-9.4c-6.3,4.7-13.4,10.5-30.6,10.6c-30.4,0.1-43.7-14.9-43.7-40.1
					c0-14.9,10.8-25.9,20.4-32.3c-4.5-5.1-12.2-13.7-12.2-26.6c0-19,13.2-32.1,37.8-32.1c22.8,0,36.1,13.3,36.1,32.4
					c0,9.8-4.7,16.1-12.6,22.1c0,0-5.8,4.5-9,6.7l15.3,17.5c3.6-4.2,5.4-12.5,5.9-18.7l27.9-0.1c-1.2,16.8-5.6,30.1-15,40.4
					l25.2,29.5L428.5,642.2z M382.2,588.9c-6,4.2-7.6,8-7.6,14.1c0,8,7.1,13.6,15.1,13.6c6.5,0,9.8-2.2,12.7-4.7L382.2,588.9z
					 M392,537.2c-6.2,0-8.1,3.3-8.1,7.8c0,3.8,4.7,8.3,6.9,10.5c1.6-1.1,4.3-3.1,4.3-3.1c3.1-2.2,5.1-4.7,5.1-7.6
					C400.2,540.5,397.5,537.2,392,537.2z"/>
			</g>
		</g>
		<g>
			<g>
				<g>
					<path class="st1" d="M459.8,638.5c-9.7,0.2-19.4,0.3-29,0.5l-0.1-0.2l-7.8-8.8l0.8,0.1c-9.3,7.8-19.2,10.8-31.3,10.3
						c-18.1,0-34.6-7.3-39-26.3c-2.6-11.9-1.9-22.6,6-32.4c3.5-4.5,7.8-8.3,12.5-11.4l-0.2,1.3c-2.3-2.5-4.5-5.2-6.3-8.1
						c-10-15.4-5.5-37.8,12.4-44.9c5.9-2.4,12.4-3.2,18.8-3.2c-6.3,0.2-12.7,1.2-18.5,3.7c-13.5,5.8-19.2,20.6-15.4,34.4
						c1.8,6.5,5.9,12,10.4,16.9l0.7,0.7c-4.9,3.2-9.3,7-12.8,11.6c-7.5,9.5-7.9,19.4-5.5,30.8c4.1,18.1,19.9,24.9,37.1,25.1
						c11.8,0.6,21.3-2,30.6-9.6c0,0,0.4-0.3,0.4-0.3l0.3,0.4l7.6,9C438.9,637.9,450.7,638.5,459.8,638.5L459.8,638.5z"/>
					<path class="st1" d="M406.2,609.8c-7.3-6.3-13.8-13.6-19.1-21.7C394.4,594.4,400.9,601.7,406.2,609.8L406.2,609.8z"/>
					<path class="st1" d="M395.2,556.5c2.6-2.9,7.1-5.3,7.8-9.3c0.3-1.8-0.1-3.9-1.3-5.3c-1.2-1.5-3.2-2.3-5.4-2.7
						c2.2-0.4,4.8,0,6.5,1.7c2.7,2.5,3,7.2,0.6,10.1C401.4,553.6,398.2,555,395.2,556.5L395.2,556.5z"/>
				</g>
			</g>
		</g>
		<path class="st1" d="M453.7,573.3c0.2,12.6-3.4,28.3-13.7,36.5c2.1-2.6,3.8-5.4,5.2-8.3C449.6,592.6,451.8,582.9,453.7,573.3
			L453.7,573.3z"/>
	</g>
	<path class="st2" d="M0,0h1920v1080H0V0z"/>
</g>
</svg>
