<?xml version="1.0" encoding="utf-8"?>
<!-- Generator: Adobe Illustrator 23.0.3, SVG Export Plug-In . SVG Version: 6.00 Build 0)  -->
<svg version="1.1" id="圖層_1" xmlns="http://www.w3.org/2000/svg" xmlns:xlink="http://www.w3.org/1999/xlink" x="0px" y="0px"
	 viewBox="0 0 389.4 340.5" style="enable-background:new 0 0 389.4 340.5;" xml:space="preserve">
<style type="text/css">
	.st0{fill:#EA6011;}
	.st1{fill:#FFFFFF;}
</style>
<g>
	<g>
		<g>
			<path class="st0" d="M216.1,252.3c0.9,1.6,1.8,3.1,2.6,4.7c0.2,0.3,0.3,0.7,0.4,1.1c0.2,0.7,0.5,1.3,1.2,1.7
				c1.3,0.8,1.3,2.8,0,3.7c-0.3,0.2-0.5,0.4-0.5,0.8c-0.7,3.3-3,5.2-6.1,6.2c-2.5,0.8-5.1,0.9-7.7,0.6c-0.7-0.1-1,0.1-1.2,0.7
				c-1.1,2.5-2.6,4.8-4.7,6.7c-1.6,1.4-3.5,2.3-5.7,2.3c-2.4,0-4.3-1.1-6-2.6c-1.9-1.8-3.3-4-4.4-6.4c-0.3-0.6-0.6-0.7-1.2-0.6
				c-2.9,0.2-5.8,0.2-8.6-1c-0.9-0.4-1.8-1-2.7-1.5c-0.2-0.1-0.4-0.2-0.7-0.2c-1,0-1.8-0.3-2.2-1.2c-0.5-0.8-0.4-1.7,0.2-2.5
				c0.1-0.1,0.2-0.4,0.2-0.5c-0.5-2.5,0.1-4.9,1.2-7.2c0.7-1.4,1.6-2.8,2.4-4.2c0.2-0.4,0.3-0.6,0-0.9c-1.6-2.3-2.9-4.7-3.5-7.4
				c-0.3-1.3-0.4-2.6-0.1-3.9c0-0.2,0-0.5-0.1-0.6c-0.6-0.8-0.6-1.7-0.1-2.5c0.5-0.8,1.2-1.2,2.2-1.1c0.2,0,0.5,0,0.6-0.2
				c1.8-1.5,3.9-2.2,6.2-2.4c1.8-0.2,3.6-0.1,5.4,0c0.4,0,0.6-0.1,0.8-0.5c1.1-2.5,2.5-4.8,4.5-6.7c1.7-1.6,3.7-2.6,6.1-2.6
				c2.1,0,3.9,0.9,5.5,2.3c2.1,1.9,3.6,4.3,4.8,6.8c0.2,0.5,0.5,0.6,1,0.6c3-0.3,5.9-0.2,8.8,1c0.9,0.4,1.7,1,2.6,1.5
				c0.2,0.1,0.4,0.2,0.7,0.2c1,0,1.8,0.3,2.2,1.2c0.5,0.8,0.4,1.7-0.1,2.5c-0.1,0.1-0.2,0.3-0.2,0.5c0.5,2.8-0.2,5.4-1.5,7.9
				C217.8,249.8,216.9,251.1,216.1,252.3z M206.9,252.4c-0.2-2.2-0.3-4.3-0.5-6.5c0-0.2-0.2-0.5-0.3-0.6c-3.5-2.6-7.3-4.8-11.3-6.5
				c-0.2-0.1-0.5-0.1-0.6,0c-4,1.7-7.8,3.9-11.3,6.5c-0.2,0.1-0.3,0.4-0.3,0.6c-0.1,1.5-0.4,3.1-0.4,4.6c0,2.8,0.2,5.6,0.4,8.4
				c0,0.2,0.2,0.5,0.4,0.6c3.5,2.6,7.2,4.8,11.2,6.5c0.2,0.1,0.5,0.1,0.7,0c4-1.7,7.8-3.9,11.2-6.5c0.2-0.1,0.3-0.4,0.4-0.6
				C206.6,256.7,206.8,254.6,206.9,252.4z M185.7,234c1.5,0.4,2.9,0.7,4.3,1.1c1.4,0.4,2.8,1,4.2,1.4c0.2,0.1,0.5,0,0.8-0.1
				c1.6-0.5,3.1-1.1,4.6-1.5c1.2-0.4,2.4-0.6,3.7-0.9c-1.3-2.8-2.8-5.4-5.4-7.1c-2.3-1.5-4.6-1.4-6.9,0.1c-1.1,0.7-2,1.7-2.9,2.8
				C187.2,231.1,186.3,232.5,185.7,234z M203.4,270.8c-0.1-0.1-0.2-0.1-0.2-0.1c-2.9-0.5-5.7-1.4-8.4-2.4c-0.2-0.1-0.5,0-0.7,0
				c-1.1,0.4-2.2,0.8-3.3,1.1c-1.7,0.5-3.4,0.9-5.1,1.4c1.2,2.5,2.6,5,4.9,6.7c2.6,1.9,5.4,1.9,8-0.1c1.3-1,2.3-2.2,3.1-3.6
				C202.3,272.8,202.8,271.8,203.4,270.8z M174.2,250.9c0.1-0.1,0.2-0.1,0.2-0.2c1.8-2.1,3.8-4,6-5.8c0.3-0.3,0.5-0.6,0.5-0.9
				c0.2-1.3,0.5-2.7,0.8-4c0.4-1.5,0.8-2.9,1.2-4.4c-0.1,0-0.3-0.1-0.4-0.1c-1.6,0-3.2,0-4.8,0.1c-1.6,0.2-3.2,0.7-4.6,1.7
				c-0.3,0.2-0.4,0.4-0.3,0.7c0.4,1.3-0.3,2.5-1.6,2.8c-0.2,0-0.3,0.1-0.5,0.1C170.3,244.1,172.1,248,174.2,250.9z M174.1,253.9
				c-2,3-3.8,6-3.3,9.8c0.2,0.1,0.3,0.1,0.5,0.1c1.2,0.3,1.9,1.3,1.7,2.5c-0.2,0.8,0.2,1.1,0.8,1.4c0.3,0.2,0.6,0.3,0.9,0.5
				c2.6,1.2,5.4,1.2,8.2,0.9c0.1,0,0.1,0,0.2-0.1c-1-2.8-1.7-5.6-2.1-8.5c0-0.2-0.2-0.5-0.4-0.6c-0.9-0.8-1.9-1.6-2.8-2.4
				C176.6,256.4,175.4,255.2,174.1,253.9z M206,235.5c0,0.2,0,0.2,0,0.3c0.9,2.6,1.6,5.3,2,8.1c0.1,0.4,0.2,0.7,0.5,1
				c1.8,1.7,3.6,3.4,5.5,5.1c0.3,0.3,0.5,0.6,0.8,0.9c2-3,3.8-6.1,3.4-9.9c-1.5-0.3-2.7-1.5-2-3.4
				C213.1,235.3,209.6,235.3,206,235.5z M206,269.3c0.7,0,1.4,0,2,0c2.1,0,4.1-0.1,6.1-0.9c2-0.8,3.4-2.1,3.9-4.2
				c0.1-0.3,0.1-0.5-0.3-0.7c-1.1-0.7-1.3-2.2-0.5-3.2c0.5-0.6,0.5-1,0.2-1.5c-0.1-0.1-0.1-0.3-0.2-0.4c-0.7-1.6-1.5-3-2.5-4.4
				c-2,2.3-4.1,4.3-6.4,6.2c-0.1,0.1-0.2,0.3-0.3,0.5c-0.2,1.1-0.4,2.3-0.7,3.4C207,265.7,206.5,267.4,206,269.3z M182.9,242.8
				c3.1-1.8,6.1-3.5,9.1-5.2c-2.4-0.6-4.7-1.2-7.2-1.9C184.2,238.1,183.5,240.4,182.9,242.8z M192,267.2c-3.1-1.8-6-3.5-9-5.2
				c0.4,2.3,1,4.7,1.9,7C187.4,268.5,189.7,267.8,192,267.2z M208.6,257.5c1.8-1.5,3.4-3.1,4.9-4.9c0.1-0.1,0.1-0.4-0.1-0.6
				c-0.9-1-1.8-2-2.8-3c-0.7-0.7-1.4-1.3-2.1-1.9C208.6,250.7,208.6,254.1,208.6,257.5z M206.1,262c-3.1,1.8-6,3.5-9.1,5.3
				c2.3,0.6,4.7,1.2,7.2,1.9C204.8,266.6,205.5,264.3,206.1,262z M197,237.6c3.1,1.8,6,3.5,9.1,5.2c-0.5-1.9-1-3.8-1.5-5.7
				c-0.4-1.4-0.5-1.4-1.8-1.1C200.8,236.5,198.9,237.1,197,237.6z M180.4,257.7c0-3.6,0-7,0-10.6c-1.8,1.8-3.4,3.5-5.2,5.3
				C177,254.2,178.7,255.9,180.4,257.7z"/>
			<path class="st0" d="M202.3,246.5c-0.2,0.4-0.4,0.8-0.5,1.1c-0.1,0.2-0.1,0.5,0,0.7c0.2,0.5,0.5,0.9,0.6,1.4
				c0.1,0.5,0.4,0.8,0.9,0.9c0.9,0.3,0.9,0.3,0.9,1.2c0,0.1,0,0.2,0,0.2c0.2,1.1-0.1,1.8-1.3,2c-0.2,0-0.3,0.3-0.4,0.5
				c-0.2,0.4-0.2,0.8-0.5,1.2c-0.4,0.6-0.4,1.3,0,1.9c0.3,0.4,0.2,0.8-0.2,1.1c-0.1,0.1-0.2,0.2-0.3,0.3c-0.7,0.9-1.4,1.3-2.4,0.5
				c-0.1-0.1-0.4,0-0.6,0c-0.4,0.1-0.7,0.4-1.1,0.5c-0.9,0.2-1.3,0.7-1.5,1.5c-0.1,0.4-0.3,0.5-0.7,0.5c-0.6,0-1.1,0-1.7,0
				c-0.3,0-0.5-0.1-0.6-0.4c-0.2-0.9-0.7-1.5-1.6-1.6c0,0,0,0-0.1,0c-0.8-0.6-1.6-0.6-2.5-0.1c-0.1,0.1-0.4,0-0.5-0.1
				c-0.5-0.4-0.9-0.9-1.4-1.4c-0.1-0.1-0.2-0.4-0.1-0.6c0.5-0.8,0.4-1.5,0-2.4c-0.4-0.9-0.8-1.6-1.8-1.8c-0.1,0-0.3-0.3-0.3-0.4
				c0-0.6,0-1.3,0-1.9c0-0.2,0.2-0.4,0.3-0.5c0.9-0.2,1.5-0.7,1.6-1.7c0,0,0,0,0-0.1c0.6-0.8,0.6-1.6,0-2.5c-0.1-0.1,0-0.4,0.1-0.5
				c0.4-0.5,0.9-0.9,1.4-1.4c0.1-0.1,0.4-0.2,0.6-0.1c0.8,0.5,1.5,0.4,2.4,0c0.9-0.4,1.6-0.8,1.8-1.8c0-0.1,0.3-0.3,0.5-0.3
				c0.6,0,1.3,0,1.9,0c0.2,0,0.4,0.2,0.5,0.3c0.2,0.9,0.7,1.5,1.7,1.6c0,0,0,0,0.1,0c0.8,0.6,1.7,0.6,2.5,0c0.1-0.1,0.3-0.1,0.4,0
				c0.5,0.5,1.1,1,1.6,1.6C202.2,246.4,202.2,246.4,202.3,246.5z M199.1,252.4c0-2.5-2-4.6-4.5-4.6c-2.5,0-4.6,2-4.6,4.5
				c0,2.5,2,4.6,4.5,4.6C197,257,199.1,255,199.1,252.4z"/>
		</g>
	</g>
	<g>
		<path class="st0" d="M304.2,77.6c0-1,0.1-1.9,0-2.9c-0.2-1.4-1-2.4-1.8-3.5c-1.1-1.4-2.3-2.7-3.2-4.1c-3.9-6.5-1-16.2,7.9-18
			c6.3-1.3,12.6,3.2,13.7,9.4c0.7,4.1-0.4,7.7-3.2,10.9c-0.9,1.1-1.8,2.2-2.6,3.3c-0.6,0.8-0.8,1.8-0.8,2.8c0,1.5,0,3,0,4.4
			c0,0.3-0.2,0.7-0.4,0.9c-0.5,0.6-1.1,1.1-1.6,1.6c-0.6,0.6-1.3,0.9-2.1,0.9c-0.6,0-1.3,0-1.9,0c-0.8,0-1.4-0.3-2-0.8
			c-0.6-0.6-1.2-1.2-1.7-1.8c-0.2-0.2-0.3-0.5-0.3-0.7C304.2,79.3,304.3,78.5,304.2,77.6C304.2,77.6,304.2,77.6,304.2,77.6z
			 M306.7,66.9c-0.6,0.1-1.1,0.3-1.6,0.2c-1.1,0-2.1-1.1-2.1-2.2c0-1.2,0.9-2.2,2.1-2.3c1.3-0.1,2.2,0.7,2.5,1.9
			c0.4,2.2,0.9,4.3,1.4,6.5c0,0.1,0.3,0.3,0.4,0.3c0.2,0,0.4-0.1,0.4-0.3c0.5-2.1,1-4.2,1.4-6.3c0.2-1.2,1-2,2.3-2
			c1.2,0,2.1,0.9,2.3,2.1c0.1,1.1-0.6,2.2-1.8,2.4c-0.7,0.2-1.3,0-1.9-0.3c-0.3,1.5-0.6,3-1,4.5c0.2,0,0.3,0,0.3,0
			c0.9,0,1,0.2,1,1.1c0,0.6,0,1.2,0,1.9c0.3,0,0.6,0,0.8,0c0.4-1.6,1.3-2.8,2.3-4.1c0.5-0.5,0.9-1.1,1.4-1.6
			c2.5-2.8,3.4-6.1,2.7-9.8c-1-5.6-6.8-9.5-12.4-8.3c-7.8,1.7-10.4,10.3-6.9,16.1c0.7,1.2,1.6,2.2,2.5,3.2c1,1.2,2,2.4,2.5,3.9
			c0.2,0.7,0.2,0.7,1,0.5c0-0.5,0-1,0-1.5c0-1.3,0-1.3,1.2-1.4c0,0,0.1,0,0.1-0.1C307.3,69.7,307,68.3,306.7,66.9z M313,75.5
			c-2.5,0-5,0-7.5,0c0,0.5,0,0.9,0,1.4c2.5,0,5,0,7.5,0C313,76.4,313,76,313,75.5z M305.5,78.3c0,0.5,0,1,0,1.4c2.5,0,5,0,7.5,0
			c0-0.5,0-0.9,0-1.4C310.5,78.3,308,78.3,305.5,78.3z M311,74.2c0-0.5,0-1.1,0-1.6c-1.2,0-2.3,0-3.5,0c0,0.6,0,1.1,0,1.6
			C308.7,74.2,309.8,74.2,311,74.2z M306.5,81c0.6,0.9,1.3,1.4,2.4,1.2c0.3,0,0.6,0,0.9,0c1,0.1,1.6-0.5,2.3-1.2
			C310.2,81,308.4,81,306.5,81z M312.3,64.9c0,0.6,0.4,1.1,1,1.1c0.6,0,1.1-0.5,1-1.1c0-0.6-0.5-1-1.1-1
			C312.7,63.9,312.3,64.3,312.3,64.9z M305.3,63.9c-0.6,0-1.1,0.5-1.1,1c0,0.6,0.5,1,1,1.1c0.6,0,1-0.4,1-1
			C306.2,64.3,305.9,63.9,305.3,63.9z"/>
		<path class="st0" d="M288.1,89.2c1-1.9,2-3.7,2.9-5.4c0.2-0.4,0.4-0.8,0.6-1.2c0.2-0.3,0.5-0.5,0.9-0.3c4.1,1.5,6.7,4.3,7.4,8.7
			c0.3,1.7,0.1,3.6,0.2,5.4c0,0.4-0.2,0.6-0.6,0.7c-0.2,0-0.3,0-0.5,0c-8.9,0-17.8,0-26.8,0c-0.2,0-0.4,0-0.6-0.1
			c-0.2-0.1-0.5-0.3-0.5-0.5c0-2.3-0.3-4.7,0.5-6.9c1.2-3.5,3.5-5.9,6.9-7.1c0.6-0.2,0.8-0.2,1.2,0.5c1.1,2.1,2.2,4.1,3.3,6.2
			c0,0.1,0.1,0.1,0.2,0.3c0.3-1.1,0.6-2,0.8-3c0.1-0.3-0.1-0.6-0.3-0.9c-0.5-0.8-1.1-1.6-1.7-2.4c-0.1-0.2-0.2-0.6-0.1-0.8
			c0.1-0.2,0.5-0.4,0.7-0.4c2,0,4.1,0,6.1,0c0.3,0,0.6,0.2,0.7,0.3c0.1,0.2,0,0.6-0.2,0.8c-0.5,0.8-1.1,1.6-1.7,2.4
			c-0.3,0.4-0.4,0.9-0.2,1.4C287.6,87.4,287.8,88.2,288.1,89.2z M285.3,95.7c-2.2-4-4.3-8-6.5-12.1c-2,0.8-3.5,2-4.7,3.7
			c-1.8,2.5-1.8,5.4-1.6,8.4c1.5,0,2.9,0,4.4,0c0-0.4,0-0.7,0-1.1c0-0.7,0-1.4,0-2.1c0-0.4,0.2-0.7,0.6-0.7c0.4,0,0.6,0.2,0.6,0.6
			c0,0.3,0,0.6,0,0.9c0,0.8,0,1.5,0,2.3C280.6,95.7,283,95.7,285.3,95.7z M294.5,95.7c1.5,0,2.8,0,4.2,0c0.1,0,0.3-0.2,0.3-0.4
			c0-0.8,0-1.6,0-2.4c-0.1-4.2-2-7.2-5.8-9.1c-0.4-0.2-0.6-0.2-0.9,0.3c-2.1,3.9-4.1,7.7-6.2,11.6c1.2,0,2.4,0,3.5,0
			c1.2,0,2.4,0,3.6,0c0-1.1,0-2,0-3c0-0.6,0.3-0.9,0.7-0.9c0.4,0,0.6,0.3,0.6,0.9C294.5,93.7,294.5,94.6,294.5,95.7z M285.7,93.7
			c0.5-0.9,1-1.7,1.4-2.6c0.1-0.2,0.1-0.5,0.1-0.8c-0.3-1.1-0.6-2.2-0.9-3.3c-0.3-1-0.2-1.9,0.5-2.7c0.3-0.4,0.6-0.9,1-1.4
			c-1.4,0-2.7,0-4,0c0.4,0.5,0.7,1,1.1,1.5c0.6,0.8,0.8,1.6,0.5,2.5c-0.3,1.1-0.6,2.3-0.9,3.4c0,0.2-0.1,0.4,0,0.5
			C284.7,91.9,285.2,92.8,285.7,93.7z"/>
		<path class="st0" d="M277,72.1c-0.5,0-1-0.1-1.5-0.1c-0.7-0.1-1.1-0.5-1.2-1.1c0-0.9,0-1.8,0-2.6c0-0.7,0.5-1.1,1.2-1.1
			c1,0.1,1.7-0.3,1.9-1.3c0.1-0.5,0.2-0.8-0.2-1.1c-0.1-0.1-0.2-0.2-0.2-0.3c-0.8-0.9-0.8-1.4,0.1-2.3c0.5-0.5,0.9-0.9,1.4-1.4
			c0.6-0.6,1.3-0.7,1.8-0.1c0.7,0.8,1.3,0.9,2.2,0.4c0.5-0.3,0.8-0.4,0.7-1c0-0.3,0-0.6,0.1-0.9c0.1-0.6,0.5-0.9,1.1-0.9
			c0.9,0,1.8,0,2.7,0c0.6,0,1.2,0.5,1.1,1.1c-0.1,1.2,0.3,1.8,1.5,2.1c0.4,0.1,0.6,0.1,0.9-0.2c1.2-1.3,1.8-1.2,3,0
			c0.4,0.4,0.8,0.7,1.1,1.1c0.5,0.6,0.6,1.2,0,1.7c-0.8,0.7-0.9,1.3-0.4,2.3c0.3,0.5,0.4,0.7,0.9,0.7c1.7,0,2,0.4,1.9,2.1
			c0,0.6,0,1.1,0,1.7c0,0.7-0.4,1.1-1.1,1.2c-0.5,0.1-1.1-0.1-1.5,0.2c-0.3,0.2-0.4,0.9-0.6,1.3c-0.2,0.3-0.2,0.5,0.1,0.8
			c0.2,0.2,0.5,0.5,0.7,0.7c0.5,0.6,0.5,1.2,0,1.7c-0.6,0.6-1.2,1.2-1.8,1.8c-0.5,0.5-1.2,0.6-1.7,0c-0.7-0.8-1.4-0.9-2.4-0.4
			c-0.4,0.2-0.6,0.4-0.6,0.9c0,0.2,0,0.4,0,0.7c0,0.9-0.4,1.3-1.3,1.3c-0.8,0-1.5,0-2.3,0c-0.8,0-1.3-0.4-1.3-1.2
			c0.1-1.1-0.3-1.6-1.4-1.9c-0.4-0.1-0.7-0.2-1.1,0.2c-1.2,1.3-1.8,1.1-2.9-0.1c-0.4-0.4-0.8-0.8-1.1-1.1c-0.5-0.5-0.5-1.1-0.1-1.7
			c0.3-0.4,0.8-0.7,0.9-1.1c0.1-0.4-0.3-0.9-0.5-1.3C277.1,72.4,277,72.3,277,72.1z M295.8,68.3c-0.5,0-0.9-0.1-1.4-0.1
			c-0.6,0-1-0.3-1.2-0.9c-0.2-0.5-0.4-1.1-0.7-1.6c-0.3-0.6-0.2-1,0.2-1.5c0.3-0.3,0.6-0.7,0.9-1c-0.6-0.6-1.1-1.2-1.7-1.8
			c-0.3,0.3-0.7,0.6-1,0.9c-0.4,0.4-0.9,0.4-1.4,0.2c-0.5-0.2-1.1-0.5-1.7-0.7c-0.5-0.2-0.8-0.6-0.8-1.1c0-0.5-0.1-0.9-0.1-1.4
			c-0.8,0-1.6,0-2.5,0c0,0.5,0,0.9,0,1.3c0,0.6-0.3,1-0.9,1.3c-0.5,0.2-1.1,0.4-1.6,0.7c-0.6,0.3-1,0.2-1.5-0.2
			c-0.3-0.3-0.7-0.6-1-0.9c-0.6,0.6-1.1,1.1-1.7,1.7c0.3,0.3,0.6,0.7,0.9,1c0.4,0.4,0.4,0.9,0.2,1.3c-0.2,0.6-0.5,1.1-0.7,1.7
			c-0.2,0.6-0.6,0.9-1.2,0.9c-0.5,0-0.9,0.1-1.4,0.1c0,0.8,0,1.6,0,2.4c0.4,0,0.9,0,1.3,0.1c0.7,0,1.1,0.3,1.3,1
			c0.2,0.5,0.4,0.9,0.6,1.4c0.3,0.7,0.3,1.1-0.3,1.7c-0.3,0.3-0.5,0.6-0.8,0.8c0.6,0.6,1.1,1.2,1.7,1.7c0.3-0.3,0.6-0.6,1-0.9
			c0.4-0.4,0.9-0.5,1.5-0.2c0.5,0.2,1,0.5,1.6,0.6c0.6,0.2,0.9,0.6,0.9,1.3c0,0.3,0,0.7,0,1c0,0.1,0.2,0.3,0.3,0.3
			c0.7,0,1.4,0,2.2,0c0-0.5,0.1-0.9,0.1-1.4c0-0.6,0.3-1,0.9-1.2c0.5-0.2,1-0.4,1.5-0.6c0.6-0.3,1.1-0.2,1.6,0.2
			c0.3,0.3,0.7,0.6,0.9,0.8c0.6-0.6,1.1-1.1,1.7-1.7c-0.3-0.3-0.6-0.7-0.9-1c-0.4-0.4-0.5-0.9-0.2-1.4c0.2-0.5,0.5-1,0.7-1.6
			c0.2-0.7,0.6-0.9,1.3-1c0.4,0,0.8,0,1.3-0.1C295.8,69.9,295.8,69.1,295.8,68.3z"/>
		<path class="st0" d="M304.3,88.3c0-0.7,0-1.3,0-2c0-0.5,0.2-0.7,0.7-0.7c1.3,0,2.6,0,3.9,0c0.5,0,0.7,0.3,0.7,0.7
			c0,1.3,0,2.6,0,3.9c0,0.5-0.3,0.7-0.8,0.7c-1.3,0-2.5,0-3.8,0c-0.5,0-0.7-0.2-0.7-0.8C304.2,89.6,304.3,88.9,304.3,88.3z
			 M308.3,89.7c0-0.9,0-1.9,0-2.8c-0.9,0-1.8,0-2.8,0c0,0.9,0,1.9,0,2.8C306.5,89.7,307.4,89.7,308.3,89.7z"/>
		<path class="st0" d="M304.3,96c0-0.7,0-1.3,0-2c0-0.5,0.2-0.7,0.7-0.7c1.3,0,2.6,0,3.9,0c0.5,0,0.7,0.2,0.7,0.7c0,1.3,0,2.6,0,3.9
			c0,0.5-0.2,0.7-0.7,0.7c-1.3,0-2.6,0-3.9,0c-0.5,0-0.7-0.3-0.7-0.8C304.3,97.3,304.3,96.7,304.3,96z M308.3,97.4
			c0-0.9,0-1.9,0-2.8c-0.9,0-1.8,0-2.8,0c0,0.9,0,1.9,0,2.8C306.5,97.4,307.4,97.4,308.3,97.4z"/>
		<path class="st0" d="M313.9,86.4c1,0,2,0,2.9,0c0.4,0,0.8,0.1,0.8,0.6c0,0.4-0.3,0.6-0.8,0.6c-2,0-3.9,0-5.9,0
			c-0.4,0-0.8-0.1-0.8-0.6c0-0.4,0.3-0.6,0.8-0.6C312,86.4,312.9,86.4,313.9,86.4z"/>
		<path class="st0" d="M313.9,95.4c-1,0-1.9,0-2.9,0c-0.4,0-0.8-0.1-0.8-0.6c0-0.4,0.3-0.6,0.8-0.6c1.9,0,3.9,0,5.8,0
			c0.5,0,0.8,0.2,0.9,0.6c0,0.4-0.3,0.6-0.8,0.6C315.9,95.4,314.9,95.4,313.9,95.4z"/>
		<path class="st0" d="M312.9,97.9c-0.7,0-1.3,0-2,0c-0.4,0-0.7-0.2-0.7-0.6c0-0.4,0.3-0.6,0.7-0.6c1.4,0,2.7,0,4.1,0
			c0.4,0,0.7,0.2,0.7,0.6c0,0.4-0.3,0.6-0.7,0.6C314.4,97.9,313.6,97.9,312.9,97.9z"/>
		<path class="st0" d="M313,90.2c-0.7,0-1.4,0-2.1,0c-0.4,0-0.7-0.2-0.7-0.6c0-0.4,0.3-0.6,0.7-0.6c1.4,0,2.8,0,4.2,0
			c0.4,0,0.7,0.2,0.7,0.7c0,0.4-0.3,0.6-0.7,0.6C314.4,90.2,313.7,90.2,313,90.2z"/>
		<path class="st0" d="M281.1,69.6c0-2.6,2-4.6,4.6-4.6c2.6,0,4.7,2,4.7,4.6c0,2.5-2,4.6-4.6,4.6C283.1,74.2,281.1,72.1,281.1,69.6z
			 M282.3,69.5c0,1.9,1.5,3.4,3.3,3.4c1.9,0,3.4-1.5,3.4-3.3c0-1.8-1.5-3.4-3.4-3.4C283.8,66.2,282.3,67.7,282.3,69.5z"/>
	</g>
	<g>
		<g>
			<path class="st0" d="M86.3,94.5c0-0.9,0-1.7,0-2.6c0-6.5,0-13.1,0-19.6c0-1,0.2-1.2,1.1-1.2c2.4,0,4.8,0,7.2,0
				c1,0,1.1,0.2,1.1,1.1c0,7.3,0,14.6,0,21.9c0,0.2,0,0.5,0,0.7c1.1-0.2,1.1-0.2,1.1-1.2c0-9.6,0-19.2,0-28.8c0-1.2,0.1-1.3,1.4-1.3
				c2.3,0,4.6,0,6.9,0c0.9,0,1.1,0.2,1.1,1.1c0,5.4,0,10.8,0,16.2c0,0.2,0,0.5,0,0.7c0.3,0,0.7,0,1.1,0c0-0.2,0-0.5,0-0.7
				c0-7.8,0-15.6,0-23.4c0-1.1,0.2-1.3,1.3-1.3c2.3,0,4.7,0,7,0c0.9,0,1.2,0.2,1.2,1.1c0,9,0,18.1,0,27.1c0,1.3-0.6,1.9-1.9,1.9
				c-0.6,0-1.1,0-1.7,0c-0.8,0-1.2,0.3-1.4,1c-0.5,2.1-1.4,4.1-2.5,6c-0.4,0.6-0.3,1.1,0.2,1.7c0.4,0.4,0.9,0.9,1.3,1.3
				c0.7,0.7,0.7,1.6,0,2.3c-1,1.1-2.1,2.1-3.1,3.1c-0.8,0.7-1.6,0.7-2.4,0c-0.5-0.4-0.9-0.9-1.3-1.3c-0.6-0.5-1-0.6-1.7-0.2
				c-1.9,1.1-3.9,1.9-6,2.5c-0.7,0.2-1,0.6-1,1.3c0,0.7,0,1.3,0,2c0,0.9-0.7,1.6-1.6,1.6c-1.5,0-3,0-4.5,0c-0.9,0-1.6-0.7-1.6-1.6
				c0-0.7,0-1.4,0-2.1c0-0.6-0.3-1.1-0.9-1.3c-2.2-0.5-4.2-1.4-6.1-2.5c-0.6-0.4-1.1-0.3-1.6,0.2c-0.5,0.4-0.9,0.9-1.4,1.4
				c-0.8,0.7-1.6,0.7-2.4,0c-1-1-2.1-2-3.1-3.1c-0.8-0.8-0.7-1.6,0-2.4c0.4-0.4,0.9-0.9,1.3-1.3c0.5-0.5,0.6-1,0.2-1.7
				c-1.1-1.9-1.9-3.9-2.5-6c-0.2-0.7-0.6-1-1.4-1c-0.6,0-1.3,0-1.9,0c-0.9,0-1.5-0.5-1.6-1.4c-0.1-0.8-0.1-1.7,0-2.5
				c0-0.5,0.3-0.7,0.8-0.7c3.4,0,6.9,0,10.3,0c0.6,0,0.8,0.3,0.8,1c0,1.4,0.3,2.8,0.8,4.2c1.2,3.4,3.5,5.8,6.6,7.5
				c0.1,0.1,0.2,0.1,0.3,0.1C86.1,94.5,86.2,94.5,86.3,94.5z M106.3,83.2c-0.5,7.8-6.8,13.9-14.6,13.9c-3.5,0-6.6-1.1-9.3-3.3
				c-3.3-2.7-5.1-6.3-5.5-10.6c-3,0-6,0-8.9,0c0,0.5,0,1,0,1.5c0.7,0,1.4,0,2,0c1.5,0,2.4,0.8,2.8,2.1c0.5,2,1.3,3.9,2.3,5.7
				c0.7,1.2,0.5,2.4-0.4,3.4c-0.5,0.5-1,0.9-1.5,1.4c1.2,1.2,2.3,2.3,3.4,3.4c0.4-0.4,0.9-0.9,1.3-1.4c1.1-1.1,2.3-1.2,3.6-0.4
				c1.7,1,3.5,1.8,5.4,2.2c1.6,0.4,2.3,1.4,2.3,3c0,0.6,0,1.2,0,1.8c1.6,0,3.1,0,4.7,0c0-0.6,0-1.2,0-1.8c0-1.6,0.7-2.6,2.3-3
				c1.9-0.5,3.7-1.2,5.4-2.2c1.3-0.8,2.5-0.6,3.7,0.5c0.5,0.5,0.9,0.9,1.2,1.3c1.2-1.2,2.3-2.2,3.4-3.3c-0.4-0.4-0.8-0.8-1.2-1.2
				c-1.3-1.3-1.4-2.4-0.5-3.9c0.9-1.6,1.7-3.3,2.1-5.1c0.4-1.6,1.4-2.4,3.1-2.4c0.6,0,1.2,0,1.8,0c0-0.6,0-1.1,0-1.6
				C112.2,83.2,109.2,83.2,106.3,83.2z M98.3,93.7c0.1,0,0.2,0,0.2-0.1c3.8-2.5,6-6,6.1-10.5c0.1-5.8,0-11.6,0-17.4
				c0-0.2,0-0.4,0-0.6c-2.1,0-4.2,0-6.4,0C98.3,74.6,98.3,84.1,98.3,93.7z M115.2,81.7c0-8,0-16,0-24c-2.1,0-4.2,0-6.3,0
				c0,8,0,16,0,24C111,81.7,113,81.7,115.2,81.7z M94.2,72.7c-2.2,0-4.3,0-6.4,0c0,0.3,0,0.5,0,0.7c0,3.3,0,6.6,0,9.9
				c0,3.7,0,7.5,0,11.2c0,0.3-0.1,0.6,0.4,0.7c1.8,0.4,3.6,0.6,5.4,0.3c0.5-0.1,0.7-0.2,0.7-0.8c0-7.1,0-14.2,0-21.3
				C94.2,73.2,94.2,73,94.2,72.7z"/>
			<path class="st0" d="M76.9,71.3c0,1.4,0,2.7,0,4c0,0.8,0,1.6,0,2.5c0,1.1-0.4,2-1.4,2.5c-1,0.5-2,0.4-2.8-0.3
				c0,0-0.1-0.1-0.2-0.1c-0.7,0.6-1.5,0.8-2.4,0.6c-1.2-0.3-2-1.3-2-2.6c0-2,0-4,0-6c0-0.2,0-0.4,0-0.6c-0.4,0-0.7,0-1-0.1
				c-1-0.2-1.6-1-1.6-2.1c0-2.1,0-4.1,0-6.2c0.1-2.3,1.8-4,4.1-4.1c1.9,0,3.8,0,5.7,0c2.4,0,4.2,1.7,4.3,4.1c0.1,2,0,4,0,6
				C79.5,70.6,78.6,71.3,76.9,71.3z M69.6,71.5c0,2.1,0,4.3,0,6.4c0,0.7,0.4,1.1,1.1,1.1c0.6,0,1-0.4,1-1.2c0-1,0-2,0-3
				c0-0.8,0-1.5,0-2.3c0-0.5,0.3-0.8,0.8-0.8c0.4,0,0.7,0.3,0.7,0.8c0,0.2,0,0.3,0,0.5c0,1.6,0,3.3,0,4.9c0,0.9,0.8,1.4,1.5,1
				c0.5-0.3,0.6-0.7,0.6-1.2c0-4.1,0-8.2,0-12.3c0-0.1,0-0.3,0-0.4c0-0.5,0.3-0.9,0.7-0.9c0.4,0,0.8,0.4,0.8,0.9c0,1.3,0,2.7,0,4
				c0,0.4,0.1,0.8,0.6,0.8c0.5,0,0.6-0.4,0.6-0.8c0-1.9,0-3.9,0-5.8c0-1.4-1-2.6-2.4-2.7c-2.1-0.1-4.2-0.1-6.3,0
				c-1.4,0.1-2.4,1.2-2.4,2.7c0,1.9,0,3.9,0,5.8c0,0.4,0.1,0.8,0.6,0.8c0.6,0,0.6-0.4,0.6-0.8c0-1.2,0-2.5,0-3.7c0-0.6,0.3-1,0.8-1
				c0.5,0,0.7,0.4,0.7,1.1C69.6,67.3,69.6,69.4,69.6,71.5z"/>
			<path class="st0" d="M101.4,54.9c-0.9-0.2-1.6-0.3-2.3-0.5c-0.1,0-0.3-0.1-0.4-0.1c-0.5-0.1-0.7-0.4-0.7-0.9
				c0.1-0.5,0.5-0.7,0.9-0.6c1.2,0.2,2.4,0.5,3.7,0.8c0.2,0,0.3,0.1,0.5,0.1c0.7,0.2,0.9,0.4,0.7,1.1c-0.3,1.4-0.6,2.7-0.8,4.1
				c-0.1,0.6-0.5,0.8-0.9,0.7c-0.4-0.1-0.7-0.5-0.5-1.1c0.1-0.7,0.3-1.4,0.5-2.3c-0.3,0.2-0.5,0.4-0.7,0.5c-2.5,1.7-4.9,3.4-7.4,5.2
				c-0.5,0.4-1,0.4-1.5,0c-1-0.7-2-1.4-3-2.1c-0.9,0.8-1.8,1.7-2.6,2.5c-1.2,1.2-2.5,2.4-3.7,3.6c-0.4,0.4-0.9,0.4-1.2,0
				c-0.3-0.4-0.2-0.8,0.2-1.1c1.1-1,2.2-2.1,3.3-3.1c1.1-1.1,2.3-2.2,3.4-3.2c0.6-0.5,0.7-0.5,1.4-0.1c0.9,0.6,1.9,1.3,2.8,1.9
				c0.2,0.1,0.5,0.1,0.6,0c2.6-1.8,5.1-3.6,7.6-5.3C101.2,55,101.2,55,101.4,54.9z"/>
			<path class="st0" d="M68.9,55c0-2,1.6-3.6,3.6-3.6c2,0,3.6,1.6,3.6,3.6c0,2-1.6,3.6-3.6,3.6C70.5,58.6,68.9,57,68.9,55z
				 M72.5,52.9c-1.2,0-2.1,0.9-2.1,2.1c0,1.2,1,2.1,2.1,2.1c1.2,0,2.1-1,2.1-2.2C74.6,53.7,73.6,52.9,72.5,52.9z"/>
		</g>
	</g>
	<path class="st0" d="M192.3,340.5c-1.8-0.3-3.5-1-5-2l1.1-1.7c1.3,0.8,2.7,1.4,4.2,1.7L192.3,340.5z M197.6,340.4l-0.4-2
		c1.5-0.3,2.9-1,4.1-1.9l1.2,1.6C201.1,339.2,199.4,340,197.6,340.4z M204,337.7l-1.7-1h0l2.1-3.6l0.9,0.5l-0.9-0.5l0-0.1l0,0l0,0
		l2.5-4.3l1.7,1l-4.2,7.3h0L204,337.7z M183.6,334.7c-0.1-0.2-0.2-0.4-0.3-0.6l-2.2-3.8l1.7-1l2.2,3.8c0.1,0.2,0.2,0.3,0.3,0.5
		L183.6,334.7z M178.6,326l-2.5-4.3l1.7-1l2.5,4.3L178.6,326z M211.1,325.5l-1.7-1l2.5-4.3l1.7,1L211.1,325.5z M173.6,317.4
		l-2.5-4.3l1.7-1l2.5,4.3L173.6,317.4z M216.1,316.8l-1.7-1l2.5-4.3l1.7,1L216.1,316.8z M168.6,308.7l-2.5-4.3l1.7-1l2.5,4.3
		L168.6,308.7z M221.1,308.2l-1.7-1l2.5-4.3l1.7,1L221.1,308.2z M163.6,300.1l-2.5-4.3l1.7-1l2.5,4.3L163.6,300.1z M226,299.6
		l-1.7-1l2.5-4.3l1.7,1L226,299.6z M158.6,291.5l-2.5-4.3l1.7-1l2.5,4.3L158.6,291.5z M231,291l-1.7-1l2.5-4.3l1.7,1L231,291z
		 M153.7,282.9l-2.5-4.3l1.7-1l2.5,4.3L153.7,282.9z M236,282.3l-1.7-1l2.5-4.3l1.7,1L236,282.3z M148.7,274.2l-2.5-4.3l1.7-1
		l2.5,4.3L148.7,274.2z M241,273.7l-1.7-1l2.5-4.3l1.7,1L241,273.7z M143.7,265.6l-2.5-4.3l1.7-1l2.5,4.3L143.7,265.6z M246,265.1
		l-1.7-1l2.5-4.3l1.7,1L246,265.1z M138.7,257l-2.5-4.3l1.7-1l2.5,4.3L138.7,257z M250.9,256.5l-1.7-1l2.5-4.3l1.7,1L250.9,256.5z
		 M133.7,248.4l-2.5-4.3l1.7-1l2.5,4.3L133.7,248.4z M255.9,247.8l-1.7-1l2.5-4.3l1.7,1L255.9,247.8z M128.8,239.7l-2.5-4.3l1.7-1
		l2.5,4.3L128.8,239.7z M260.9,239.2l-1.7-1l2.5-4.3l1.7,1L260.9,239.2z M123.8,231.1l-2.5-4.3l1.7-1l2.5,4.3L123.8,231.1z
		 M265.9,230.6l-1.7-1l2.5-4.3l1.7,1L265.9,230.6z M118.8,222.5l-2.5-4.3l1.7-1l2.5,4.3L118.8,222.5z M270.9,222l-1.7-1l2.5-4.3
		l1.7,1L270.9,222z M113.8,213.9l-2.5-4.3l1.7-1l2.5,4.3L113.8,213.9z M275.8,213.3l-1.7-1l2.5-4.3l1.7,1L275.8,213.3z M108.8,205.2
		l-2.5-4.3l1.7-1l2.5,4.3L108.8,205.2z M280.8,204.7l-1.7-1l2.5-4.3l1.7,1L280.8,204.7z M103.9,196.6l-2.5-4.3l1.7-1l2.5,4.3
		L103.9,196.6z M285.8,196.1l-1.7-1l2.5-4.3l1.7,1L285.8,196.1z M98.9,188l-2.5-4.3l1.7-1l2.5,4.3L98.9,188z M290.8,187.4l-1.7-1
		l2.5-4.3l1.7,1L290.8,187.4z M93.9,179.3l-2.5-4.3l1.7-1l2.5,4.3L93.9,179.3z M295.8,178.8l-1.7-1l2.5-4.3l1.7,1L295.8,178.8z
		 M88.9,170.7l-2.5-4.3l1.7-1l2.5,4.3L88.9,170.7z M300.7,170.2l-1.7-1l2.5-4.3l1.7,1L300.7,170.2z M83.9,162.1l-2.5-4.3l1.7-1
		l2.5,4.3L83.9,162.1z M305.7,161.6l-1.7-1l2.5-4.3l1.7,1L305.7,161.6z M79,153.5l-2.5-4.3l1.7-1l2.5,4.3L79,153.5z M310.7,152.9
		l-1.7-1l2.5-4.3l1.7,1L310.7,152.9z M74,144.8l-2.5-4.3l1.7-1l2.5,4.3L74,144.8z M315.7,144.3l-1.7-1l2.5-4.3l1.7,1L315.7,144.3z
		 M69,136.2l-2.5-4.3l1.7-1l2.5,4.3L69,136.2z M320.7,135.7l-1.7-1l2.5-4.3l1.7,1L320.7,135.7z M64,127.6l-2.5-4.3l1.7-1l2.5,4.3
		L64,127.6z M325.6,127.1l-1.7-1l2.5-4.3l1.7,1L325.6,127.1z M59,119l-2.5-4.3l1.7-1l2.5,4.3L59,119z M330.6,118.4l-1.7-1l2.5-4.3
		l1.7,1L330.6,118.4z M54.1,110.3l-2.5-4.3l1.7-1l2.5,4.3L54.1,110.3z M335.6,109.8l-1.7-1l2.5-4.3l1.7,1L335.6,109.8z M49.1,101.7
		l-2.5-4.3l1.7-1l2.5,4.3L49.1,101.7z M340.6,101.2l-1.7-1l2.5-4.3l1.7,1L340.6,101.2z M44.1,93.1l-2.5-4.3l1.7-1l2.5,4.3L44.1,93.1
		z M345.6,92.6l-1.7-1l2.5-4.3l1.7,1L345.6,92.6z M39.1,84.5l-2.5-4.3l1.7-1l2.5,4.3L39.1,84.5z M350.5,83.9l-1.7-1l2.5-4.3l1.7,1
		L350.5,83.9z M34.1,75.8l-2.5-4.3l1.7-1l2.5,4.3L34.1,75.8z M355.5,75.3l-1.7-1l2.5-4.3l1.7,1L355.5,75.3z M29.2,67.2l-2.5-4.3
		l1.7-1l2.5,4.3L29.2,67.2z M360.5,66.7l-1.7-1l2.5-4.3l1.7,1L360.5,66.7z M24.2,58.6l-2.5-4.3l1.7-1l2.5,4.3L24.2,58.6z
		 M365.5,58.1l-1.7-1l2.5-4.3l1.7,1L365.5,58.1z M19.2,50l-2.5-4.3l1.7-1l2.5,4.3L19.2,50z M370.5,49.4l-1.7-1l2.5-4.3l1.7,1
		L370.5,49.4z M14.2,41.3L11.7,37l1.7-1l2.5,4.3L14.2,41.3z M375.4,40.8l-1.7-1l2.5-4.3l1.7,1L375.4,40.8z M9.2,32.7l-2.5-4.3l1.7-1
		l2.5,4.3L9.2,32.7z M380.4,32.2l-1.7-1l2.5-4.3l1.7,1L380.4,32.2z M4.3,24.1l-2.5-4.3l0.8-0.5l0.9-0.5L6,23.1L4.3,24.1z
		 M385.4,23.5l-1.7-1l2.2-3.7c0.1-0.2,0.2-0.4,0.3-0.5l1.8,0.9c-0.1,0.2-0.2,0.4-0.3,0.6L385.4,23.5z M0.1,14.7
		C0,14.2,0,13.7,0,13.2c0-1.3,0.2-2.6,0.6-3.9l1.9,0.6C2.2,11,2,12.1,2,13.2c0,0.4,0,0.8,0.1,1.2L0.1,14.7z M389.3,14l-2-0.1
		c0-0.2,0-0.5,0-0.7c0-1.3-0.2-2.6-0.7-3.8l1.9-0.7c0.5,1.5,0.8,3,0.8,4.5C389.3,13.5,389.3,13.8,389.3,14z M4.7,6L3.1,4.7
		c1.2-1.4,2.6-2.5,4.2-3.3l0.9,1.8C6.9,3.8,5.7,4.8,4.7,6z M384.3,5.5c-1.1-1.1-2.3-2-3.7-2.6l0.8-1.8c1.7,0.7,3.1,1.8,4.4,3.1
		L384.3,5.5z M12.6,2l-0.1-2c0.2,0,0.5,0,0.7,0h4.3v2h-4.3C13,2,12.8,2,12.6,2z M376.2,2h-5V0h5L376.2,2z M366.2,2h-5V0h5V2z
		 M356.2,2h-5V0h5V2z M346.3,2h-5V0h5V2z M336.3,2h-5V0h5V2z M326.3,2h-5V0h5V2z M316.4,2h-5V0h5V2z M306.4,2h-5V0h5V2z M296.5,2h-5
		V0h5V2z M286.5,2h-5V0h5V2z M276.5,2h-5V0h5V2z M266.6,2h-5V0h5V2z M256.6,2h-5V0h5V2z M246.7,2h-5V0h5V2z M236.7,2h-5V0h5V2z
		 M226.7,2h-5V0h5V2z M216.8,2h-5V0h5V2z M206.8,2h-5V0h5V2z M196.9,2h-5V0h5V2z M186.9,2h-5V0h5V2z M176.9,2h-5V0h5V2z M167,2h-5V0
		h5V2z M157,2h-5V0h5V2z M147.1,2h-5V0h5V2z M137.1,2h-5V0h5V2z M127.1,2h-5V0h5V2z M117.2,2h-5V0h5V2z M107.2,2h-5V0h5V2z M97.3,2
		h-5V0h5V2z M87.3,2h-5V0h5V2z M77.3,2h-5V0h5V2z M67.4,2h-5V0h5V2z M57.4,2h-5V0h5V2z M47.4,2h-5V0h5V2z M37.5,2h-5V0h5V2z M27.5,2
		h-5V0h5V2z"/>
	<polygon class="st0" points="195.1,2.5 95.4,175.1 294.7,175.1 	"/>
	<g>
		<g>
			<path class="st1" d="M45.3,32.4c-2.4,0.9-4.1,1.5-5.3,1.8l-0.3-0.9c0.4-0.1,0.6-0.2,0.8-0.2v-6.7h0.9v6.4
				c0.3-0.1,0.7-0.2,1.2-0.4V25h-2.1v-5.3h4.2V25h-1.2v2.4H45v0.9h-1.6v3.8c0.5-0.1,1.2-0.4,1.9-0.7V32.4z M43.7,24.1v-3.5h-2.3v3.5
				H43.7z M55,24.9l-0.6,0.7c-1.8-1-3-2.3-3.6-3.9h-1.4c-0.8,1.6-2,2.9-3.6,3.9L45.1,25c1.5-1,2.6-2,3.3-3.2h-2.9v-0.9h3.3
				c0.2-0.6,0.4-1.2,0.5-1.8l0.9,0.2c-0.1,0.6-0.3,1.1-0.5,1.6h4.9v0.9h-2.9C52.5,23.1,53.5,24.2,55,24.9z M54.5,27.7h-5.7l-0.6,1.8
				h5.2c-0.1,1.4-0.2,2.5-0.4,3.2c-0.2,0.7-0.4,1.2-0.8,1.4c-0.3,0.2-1,0.3-2,0.3c-0.5,0-1,0-1.7-0.1l-0.2-0.9c0.8,0,1.8,0.1,3,0.1
				c0.3,0,0.5-0.1,0.6-0.4c0.2-0.3,0.3-1.2,0.4-2.6H47l0.8-2.7h-2.1v-0.8h8.8V27.7z M52.3,25.2h-4.4v-0.8h4.4V25.2z"/>
			<path class="st1" d="M62.9,30.8c-1.6,0.8-3,1.5-4.3,2.1l-0.3-0.9c0.8-0.3,1.5-0.6,2-0.9v-6.7h-1.7v-0.9h1.7v-4.3h0.9v4.3h1.5v0.9
				h-1.5v6.3c0.4-0.2,1-0.4,1.6-0.8L62.9,30.8z M73.6,31c-0.2,1.1-0.4,2-0.6,2.5c-0.2,0.5-0.6,0.8-1.1,0.8c-0.7,0-1.5-0.9-2.2-2.7
				c-0.9,1.1-2,2.1-3.3,2.8l-0.6-0.8c1.6-0.9,2.8-2,3.6-3.1c-0.4-1.7-0.7-4.3-0.8-8h-5.9v-0.9h5.9c0-0.5,0-1,0-1.6c0-0.4,0-0.7,0-1
				h0.9c0,1.3,0,2.1,0,2.5h4v0.9h-4c0.1,2.7,0.3,5,0.6,6.9c0.7-1.3,1.3-3,1.8-5.1l0.9,0.2c-0.6,2.6-1.4,4.7-2.4,6.2
				c0.1,0.4,0.3,0.9,0.5,1.4c0.2,0.5,0.4,0.8,0.6,1c0.2,0.2,0.3,0.3,0.4,0.3c0.1,0,0.2,0,0.2-0.1c0.1-0.1,0.2-0.4,0.3-0.8
				c0.1-0.5,0.2-1,0.3-1.7L73.6,31z M68.2,30.8c-1.9,0.7-3.6,1.3-5.2,1.8l-0.2-0.9c1.4-0.4,3.2-1,5.3-1.8L68.2,30.8z M67.3,28.8
				h-3.7v-4.6h3.7V28.8z M66.4,28v-2.9h-1.9V28H66.4z M72.6,20.7l-0.7,0.6c-0.3-0.5-0.8-1-1.3-1.5l0.7-0.6
				C71.7,19.6,72.2,20.1,72.6,20.7z"/>
			<path class="st1" d="M92.3,31.2h-3.7v1.7c0,1-0.5,1.5-1.6,1.5c-0.4,0-1,0-1.6,0l-0.4-0.9c0.4,0,0.8,0,1.4,0c0.7,0,1.1,0,1.2-0.1
				c0.1-0.1,0.2-0.2,0.2-0.3v-1.8H77.1v-0.8h10.5v-0.9h0.9v0.9h3.7V31.2z M92,21h-6.8v1.2h5.5v4.7h-0.9c0.8,0.7,1.5,1.5,2.1,2.3
				l-0.7,0.5c-0.3-0.5-0.6-0.8-0.8-1c-4.7,0.4-8.9,0.5-12.6,0.6l-0.2-0.8c2.1,0,4.4,0,6.8-0.1v-1.4h-5.5v-4.7h5.5V21h-6.9v-0.8h6.9
				v-1.1h0.9v1.1H92V21z M84.3,24.2V23h-4.6v1.2H84.3z M84.3,26.2v-1.2h-4.6v1.2H84.3z M83.2,33.2l-0.6,0.7
				c-0.8-0.7-1.7-1.3-2.6-1.7l0.6-0.7C81.4,31.8,82.3,32.4,83.2,33.2z M89.8,24.2V23h-4.6v1.2H89.8z M89.8,26.2v-1.2h-4.6v1.2H89.8z
				 M89.6,28c-0.3-0.3-0.5-0.5-0.6-0.6l0.6-0.4h-4.3v1.4C87,28.2,88.5,28.1,89.6,28z"/>
			<path class="st1" d="M111,29.8h-7.1v4.5H103v-4.5h-7.1v-0.9h7.1v-1.3h0.9v1.3h7.1V29.8z M101.5,31.1c-1.4,1.2-3,2.2-4.8,2.9
				L96,33.3c1.8-0.7,3.4-1.7,4.7-2.8L101.5,31.1z M110.4,24h-4c-0.5,0.7-1.1,1.4-1.7,2c1.8,0.4,3.6,1,5.4,1.6l-0.5,0.8
				c-1.4-0.6-3.3-1.1-5.7-1.8c-1.5,1-4,1.5-7.3,1.5l-0.5-0.8c3,0,5.2-0.3,6.5-1c-1.4-0.4-2.8-0.7-4.1-0.9c0.5-0.4,0.9-0.9,1.4-1.4
				h-3.5v-0.8h4.2c0.5-0.5,0.9-1.1,1.3-1.7l0.8,0.3c-0.3,0.5-0.7,0.9-1,1.3h4.2c0.2-0.3,0.4-0.6,0.5-0.9l0.9,0.2
				c-0.1,0.2-0.2,0.4-0.3,0.7h3.5V24z M110.3,22.3h-0.9v-1.1H97.5v1.1h-0.9v-2h6.5c-0.1-0.3-0.3-0.6-0.6-1l0.9-0.3
				c0.2,0.3,0.4,0.7,0.8,1.3h6.1V22.3z M105.3,24H101c-0.2,0.3-0.5,0.6-0.8,0.9c0.7,0.1,1.9,0.4,3.4,0.8
				C104.2,25.3,104.7,24.7,105.3,24z M110.8,33.3l-0.7,0.7c-1.4-1-3-1.8-4.9-2.6l0.6-0.7C108,31.5,109.6,32.4,110.8,33.3z"/>
			<path class="st1" d="M118.8,19.3c-0.2,0.5-0.4,1.1-0.7,1.8l-0.5,1v12.2h-0.9V24c-0.7,1.2-1.3,2.1-1.9,2.8l-0.5-0.9
				c1.5-1.9,2.7-4.2,3.7-6.8L118.8,19.3z M129.6,27.1h-5.1V33h4.7v0.9h-10.4V33h4.8v-5.9h-5.2v-0.9h5.2v-5.8h-4.3v-0.9h9.6v0.9h-4.3
				v5.8h5.1V27.1z"/>
			<path class="st1" d="M139.9,24.7c-0.1,1.5-0.5,2.8-1.4,4l-0.7-0.6c0.5-0.8,0.8-1.6,1-2.5h-1.6v7.6c0,0.2-0.1,0.5-0.3,0.7
				c-0.2,0.2-0.7,0.4-1.4,0.4c-0.3,0-0.6,0-0.8-0.1l-0.5-0.9c0.7,0.1,1.3,0.1,1.7,0.1c0.1,0,0.2,0,0.3-0.1c0.1-0.1,0.1-0.2,0.1-0.3
				v-6.3c-0.8,2.1-1.7,3.8-2.6,5l-0.6-0.7c1-1.3,1.9-3.1,2.8-5.4h-2.7v-0.9h3.8c-0.7-0.8-1.6-1.6-2.7-2.3l0.6-0.6
				c0.4,0.3,0.9,0.7,1.6,1.2c0.8-0.9,1.4-1.8,1.9-2.6h-4.7v-0.9h5.7v0.9c-0.6,1.1-1.3,2.1-2.2,3.2l0.6,0.7l-0.5,0.5H139.9z
				 M147.3,28.7c0,1.2-0.1,2.3-0.3,3.2c-0.2,1-0.3,1.5-0.5,1.7c-0.2,0.2-0.4,0.4-0.6,0.5c-0.2,0.1-1,0.2-2.2,0.2l-0.4-0.9
				c0.4,0,0.7,0,1.2,0c0.6,0,1,0,1.1-0.1c0.1-0.1,0.2-0.2,0.3-0.3c0.1-0.1,0.1-0.5,0.2-1.2c0.1-0.6,0.2-1.4,0.2-2.3h-2.9
				c-0.5,2.2-1.9,3.8-4.3,4.8l-0.7-0.7c1-0.3,1.8-0.8,2.6-1.6c0.8-0.8,1.3-1.6,1.5-2.5h-2.8v-0.9h3c0.1-0.5,0.1-1,0.2-1.7l0.9,0
				c0,0.4,0,1-0.1,1.7H147.3z M148.4,26.6l-0.5,0.8c-1.3-0.4-2.6-1-3.7-1.9c-1.1,0.8-2.2,1.4-3.3,1.8l-0.6-0.7
				c1.1-0.3,2.2-0.9,3.2-1.6c-0.7-0.7-1.2-1.4-1.6-1.9l0.8-0.4c0.4,0.7,0.9,1.3,1.5,1.8c0.8-0.7,1.4-1.6,1.8-2.8h-3.7
				c-0.7,0.9-1.4,1.7-2,2.1l-0.7-0.6c1.3-1,2.4-2.4,3.3-4.1l0.9,0.3c-0.2,0.4-0.5,0.9-0.8,1.4h5.3v0.9h-1.2
				c-0.5,1.3-1.1,2.5-2.1,3.3C145.9,25.7,147.1,26.3,148.4,26.6z"/>
		</g>
	</g>
	<g>
		<g>
			<path class="st1" d="M242.8,21c-0.6,0.7-1,1.1-1.6,1.7c-0.3-0.3-0.4-0.4-0.9-0.7c1.3-1,2.2-2,2.8-3.5l1.1,0.3
				c-0.3,0.5-0.4,0.7-0.7,1.2h2.9c0.7,0,1.1,0,1.5-0.1v1c-0.5-0.1-0.6-0.1-1.3-0.1h-1.4c0.3,0.6,0.5,0.9,0.8,1.5l-1,0.4
				c-0.3-0.8-0.5-1.3-0.8-1.9H242.8z M248.4,22c-0.3-0.2-0.4-0.3-0.7-0.4c1-0.9,1.5-1.6,1.9-3l1.1,0.3c-0.2,0.5-0.3,0.7-0.6,1.3h4.2
				c0.7,0,1.1,0,1.5-0.1v1.1c-0.4-0.1-0.8-0.1-1.5-0.1H252c0.3,0.5,0.6,0.9,0.8,1.4l-1,0.4c-0.3-0.8-0.5-1.1-0.9-1.9h-1.4
				c-0.3,0.4-0.3,0.5-1,1.1C248.5,22.1,248.5,22.1,248.4,22c0,0.4,0,0.5,0,1v0.3h5.2c0.8,0,1.2,0,1.8-0.1c0,0.3-0.1,0.6-0.1,1.1v0.9
				c0,0.5,0,0.8,0.1,1.1h-1.1v-2.2H242v2.2h-1.1c0.1-0.3,0.1-0.6,0.1-1.1v-0.9c0-0.5,0-0.8-0.1-1.1c0.5,0.1,0.9,0.1,1.7,0.1h4.7V23
				c0-0.4,0-0.6-0.1-1H248.4z M243.1,34.5c0.1-0.6,0.1-1.1,0.1-1.8v-6.3c0-0.6,0-0.8-0.1-1.3c0.5,0.1,1,0.1,1.7,0.1h6.2
				c0.7,0,1.2,0,1.7-0.1c0,0.3-0.1,0.7-0.1,1.3v1c0,0.6,0,1,0.1,1.3c-0.5-0.1-1-0.1-1.7-0.1h-6.8V30h7.6c0.7,0,1.1,0,1.6-0.1
				c-0.1,0.4-0.1,0.9-0.1,1.6v1.4c0,0.6,0,1.1,0.1,1.6h-1.1v-0.9h-8.1v0.9H243.1z M244.2,27.9h7.5v-1.7h-7.5V27.9z M244.2,32.8h8.1
				V31h-8.1V32.8z"/>
			<path class="st1" d="M260.2,20.7c-0.7,0-0.9,0-1.4,0.1v-1.2c0.4,0.1,0.8,0.1,1.5,0.1h2.6c0.7,0,1,0,1.4-0.1v1.1
				c-0.5-0.1-0.8-0.1-1.3-0.1h-0.9v4.1h0.7c0.5,0,0.8,0,1.2-0.1v1.1c-0.4-0.1-0.7-0.1-1.2-0.1h-0.7v4.4c0.9-0.4,1.1-0.5,2-1l0.1,1.1
				c-1.7,0.8-2,1-4.5,2c-0.4,0.2-0.5,0.2-0.7,0.3l-0.3-1.2c0.6-0.1,1.2-0.3,2.4-0.7v-4.9h-0.9c-0.5,0-0.8,0-1.1,0.1v-1.1
				c0.4,0.1,0.6,0.1,1.2,0.1h0.9v-4.1H260.2z M267,27.4c-1.1,0-1.7,0-2.2,0.1c0-0.3,0-0.5,0-0.6c0-0.5,0-0.5,0-1.4v-3.7
				c0-1.1,0-1.7-0.1-2.2c0.5,0.1,1.1,0.1,2.2,0.1h4.6c1.2,0,1.7,0,2.2-0.1c-0.1,0.5-0.1,1.2-0.1,2.2v3.5c0,1.1,0,1.8,0.1,2.2
				c-0.6-0.1-1.1-0.1-2.1-0.1h-2v2h2.6c0.9,0,1.2,0,1.7-0.1v1.1c-0.5-0.1-0.9-0.1-1.7-0.1h-2.6v2.6h3.2c0.8,0,1.2,0,1.7-0.1V34
				c-0.5-0.1-0.9-0.1-1.7-0.1h-7.8c-0.8,0-1.2,0-1.7,0.1v-1.1c0.5,0.1,0.8,0.1,1.7,0.1h3.6v-2.6h-2.3c-0.8,0-1.2,0-1.7,0.1v-1.1
				c0.4,0.1,0.8,0.1,1.7,0.1h2.3v-2H267z M266,20.6V23h2.8v-2.5H266z M266,24v2.5h2.8V24H266z M269.8,23h2.9v-2.5h-2.9V23z
				 M269.8,26.4h2.9V24h-2.9V26.4z"/>
			<path class="st1" d="M278.3,20.4c-0.3,0-0.7,0-1,0.1v-1.1c0.3,0.1,0.7,0.1,1.3,0.1h3c0.6,0,1,0,1.3-0.1v1.1c-0.3,0-0.4,0-0.7,0
				v12.4c0,0.8,0,1.3,0.1,1.8h-1.2c0.1-0.4,0.1-1,0.1-1.8V31c-1.1,0.3-1.7,0.5-2.5,0.7c-0.7,0.2-1.1,0.3-1.3,0.4l-0.3-1.1
				c0.2,0,0.6-0.1,1.2-0.2V20.4z M279.3,23.1h1.9v-2.7h-1.9V23.1z M279.3,26.5h1.9V24h-1.9V26.5z M279.3,30.6
				c0.7-0.2,1.1-0.3,1.9-0.5v-2.6h-1.9V30.6z M287.1,20.6c0.7,0,1,0,1.3-0.1v1c-0.3,0-0.4,0-0.7,0c-0.2,0.9-0.4,1.8-0.6,2.4h1.9
				c-0.1-1.1-0.1-1.7-0.1-3.8c0-0.6,0-0.8-0.1-1.1h1.2c-0.1,0.5-0.1,0.8-0.1,1.9c0,0.9,0,2.2,0.1,3h1.3c1,0,1.4,0,1.9-0.1v1.1
				c-0.6-0.1-1-0.1-1.9-0.1h-1.2c0.1,1.7,0.3,3.2,0.6,4.2c0.6-1.2,1.1-2.4,1.3-3.3l1,0.6c-0.1,0.2-0.2,0.5-0.4,1
				c-0.4,1.1-0.9,2-1.5,2.9c0.2,0.7,0.5,1.2,0.8,1.9c0.2,0.4,0.3,0.5,0.5,0.7c0.1,0.1,0.1,0.1,0.1,0.1c0.1,0,0.2-0.3,0.3-0.7
				c0.1-0.6,0.2-1.1,0.2-1.8c0.3,0.3,0.6,0.5,0.9,0.6c-0.2,1.4-0.3,1.8-0.5,2.4c-0.2,0.5-0.5,0.7-0.8,0.7c-0.7,0-1.5-1-2.2-2.8
				c-1,1.3-1.9,2.1-3.3,3.1c-0.3-0.4-0.4-0.5-0.7-0.7c1.7-1.1,2.6-2,3.7-3.4c-0.4-1.4-0.7-3.3-0.8-5.4h-5.2c-0.5,0-0.8,0-1.3,0.1
				v-1.1c0.4,0.1,0.7,0.1,1.3,0.1h0.3c-0.1-0.9-0.2-1.5-0.4-2.4c-0.5,0-0.6,0-0.9,0.1v-1c0.4,0.1,0.7,0.1,1.3,0.1h1v-0.2
				c0-0.7,0-1.1-0.1-1.5h1.2c-0.1,0.4-0.1,0.8-0.1,1.5v0.2H287.1z M288,31.1c0,0.2,0,0.7,0,0.9c-0.4,0-0.6,0-1.4,0h-2.2v1.4h-1
				c0.1-0.5,0.1-1,0.1-1.6v-4.2c0-0.7,0-1.1-0.1-1.7c0.3,0.1,0.6,0.1,1.2,0.1h2.2c0.6,0,0.8,0,1.2-0.1c-0.1,0.4-0.1,0.8-0.1,1.7v3
				V31.1z M284.4,31.1h2.6v-1.8h-2.6V31.1z M284.4,28.5h2.6v-1.7h-2.6V28.5z M286.3,23.9c0.3-0.8,0.4-1.6,0.5-2.4h-2.1
				c0.2,0.9,0.3,1.7,0.4,2.4H286.3z M291.4,19.9c0.7,0.8,1,1.3,1.6,2.5l-0.9,0.6c-0.5-1.1-0.8-1.7-1.5-2.6L291.4,19.9z"/>
			<path class="st1" d="M296.3,22.4c0.2,0,0.6,0,0.8,0c0.1,0,0.1,0,0.6,0c0.3-0.5,0.5-0.8,0.8-1.4c0.6-1.1,0.7-1.5,1-2.3l1.2,0.3
				c-0.2,0.2-0.2,0.4-0.3,0.7c-0.2,0.4-1,1.9-1.4,2.6c1.7-0.1,2.4-0.2,3.7-0.3c-0.5-0.8-0.6-1-1.1-1.7l0.8-0.4
				c0.9,1.1,1.4,2,2.2,3.5l-0.9,0.5c-0.3-0.5-0.3-0.6-0.5-1c-1.3,0.2-3.8,0.5-5.5,0.6c-0.6,0.1-0.8,0.1-1,0.1L296.3,22.4z M297.4,26
				c0-0.6,0-1.1-0.1-1.6c0.4,0.1,0.8,0.1,1.4,0.1h3c0.7,0,1.1,0,1.6-0.1c0,0.3-0.1,0.9-0.1,1.2v7.4c0,1.1-0.3,1.3-2.1,1.3
				c-0.1,0-0.3,0-0.5,0c0-0.3-0.1-0.8-0.3-1.1c0.4,0.1,0.8,0.1,1.3,0.1c0.5,0,0.6-0.1,0.6-0.4v-2.2h-3.8v2.2c0,0.8,0,1.3,0.1,1.8
				h-1.2c0.1-0.5,0.1-0.9,0.1-1.7V26z M298.5,27h3.8v-1.6h-3.8V27z M298.5,29.7h3.8v-1.7h-3.8V29.7z M306.1,21.7
				c1.7-0.5,3.6-1.4,4.6-2.2l0.8,0.9c-0.3,0.1-0.3,0.1-1,0.5c-1.3,0.7-2.6,1.3-4.4,1.8v1.6c0,0.5,0.2,0.5,1.8,0.5
				c1.6,0,2.1,0,2.3-0.2c0.3-0.2,0.4-0.6,0.4-2.2c0.3,0.2,0.6,0.3,1,0.4c-0.1,1.5-0.3,2.1-0.6,2.5c-0.3,0.4-1,0.5-3.2,0.5
				c-2.5,0-2.9-0.2-2.9-1.2v-4.1c0-0.6,0-1.1-0.1-1.5h1.3c-0.1,0.4-0.1,0.8-0.1,1.5V21.7z M306.1,29.3c1.8-0.5,3.5-1.2,4.7-2.2
				l0.8,0.9c-0.8,0.4-2.1,1.1-2.7,1.4c-1,0.4-1.5,0.6-2.8,0.9v2.1c0,0.3,0.1,0.5,0.6,0.5c0.4,0.1,0.8,0.1,1.7,0.1
				c1.4,0,1.9-0.1,2.2-0.4c0.2-0.2,0.3-1,0.4-2.2c0.3,0.2,0.7,0.3,1,0.5c-0.1,1.7-0.3,2.3-0.7,2.7c-0.4,0.4-1,0.5-2.9,0.5
				c-1.7,0-2.2-0.1-2.7-0.3c-0.4-0.2-0.6-0.4-0.6-1v-4.3c0-0.9,0-1.2-0.1-1.6h1.2c-0.1,0.4-0.1,0.7-0.1,1.5V29.3z"/>
			<path class="st1" d="M317.2,20.7c0-0.7,0-1.1-0.1-1.7h1.3c-0.1,0.5-0.1,0.9-0.1,1.6v2.7h0.4c0.7,0,1.1,0,1.4-0.1v1.1
				c-0.5-0.1-0.8-0.1-1.4-0.1h-0.4v5.3c0.8-0.3,1.1-0.5,1.9-0.9l0.1,1c-1.3,0.7-2.1,1-4.3,1.9c-0.3,0.1-0.4,0.2-0.7,0.3l-0.3-1.2
				c0.5-0.1,1.1-0.3,2.3-0.7v-5.7h-0.6c-0.7,0-1,0-1.4,0.1v-1.2c0.5,0.1,0.7,0.1,1.4,0.1h0.6V20.7z M326,25.3
				c0.7-1.3,1.1-2.1,1.4-3.4l1.1,0.3c-0.6,1.4-0.9,2-1.4,3.1h1.8c0.8,0,1.3,0,1.7-0.1v1.2c-0.4-0.1-1-0.1-1.7-0.1h-7.5
				c-0.8,0-1.3,0-1.7,0.1v-1.2c0.4,0.1,0.9,0.1,1.6,0.1H326z M328.6,20.8c0.8,0,1.3,0,1.7-0.1v1.1c-0.4-0.1-0.9-0.1-1.7-0.1h-6.7
				c-0.8,0-1.3,0-1.7,0.1v-1.1c0.4,0.1,0.9,0.1,1.7,0.1h2.6v-0.6c0-0.6,0-1-0.1-1.3h1.3c-0.1,0.4-0.1,0.7-0.1,1.3v0.6H328.6z
				 M322.1,34.4H321c0.1-0.5,0.1-0.9,0.1-1.6v-3.4c0-0.7,0-1-0.1-1.5c0.4,0.1,0.9,0.1,1.4,0.1h5.5c0.6,0,1,0,1.3-0.1
				c0,0.4-0.1,0.8-0.1,1.5v3.5c0,0.6,0,1,0.1,1.4H328v-1.1h-5.9V34.4z M322.7,21.9c0.5,1.1,0.7,1.6,1.1,2.8l-1,0.4
				c-0.3-1.1-0.5-1.7-1.1-2.9L322.7,21.9z M322.1,32.3h5.9V29h-5.9V32.3z"/>
			<path class="st1" d="M340.7,19.9c0-0.5,0-0.9-0.1-1.3h1.3c-0.1,0.4-0.1,0.8-0.1,1.3v0.4h5.6c0.8,0,1.3,0,1.8-0.1v1.1
				c-0.6-0.1-1.1-0.1-1.7-0.1h-7.3c-0.5,0.8-1,1.5-1.5,2.2c2.3-0.1,4-0.1,6.5-0.3c-0.6-0.4-1-0.6-1.9-1.1l0.9-0.6
				c1.8,1,2.9,1.8,4.5,3l-0.8,0.8c-0.7-0.7-1-0.9-1.6-1.4c-3.3,0.3-6.9,0.5-10.9,0.6c-0.3,0-0.6,0-0.8,0.1l-0.2-1.1
				c0.6,0.1,1,0.1,1.9,0.1c0.3,0,0.5,0,1.1,0c0.6-0.7,1.1-1.4,1.5-2.2h-3.4c-0.7,0-1.2,0-1.8,0.1v-1.1c0.5,0.1,1,0.1,1.8,0.1h5.1
				V19.9z M337.3,31.2v1.4c0,0.9,0,1.4,0.1,1.9h-1.3c0.1-0.6,0.1-1.2,0.1-2v-5.4c0-0.7,0-1.2-0.1-1.7c0.4,0.1,1,0.1,2,0.1h6.8
				c1,0,1.4,0,1.9-0.1c-0.1,0.5-0.1,1-0.1,1.8v5.7c0,1-0.4,1.4-1.7,1.4c-0.1,0-0.8,0-2.1-0.1c0-0.4-0.1-0.7-0.3-1
				c0.9,0.1,1.5,0.2,2.2,0.2c0.7,0,0.8-0.1,0.8-0.5v-1.6H337.3z M345.6,26.4h-8.4v1.4h8.4V26.4z M337.3,28.8v1.5h8.4v-1.5H337.3z"/>
		</g>
	</g>
	<g>
		<g>
			<path class="st1" d="M149.6,198.4h-8.8v-0.9h2.4c-0.2-1-0.5-2-1-3.2l0.7-0.5h-1.7V193h3.8c-0.2-0.5-0.5-1.1-1-1.8l0.8-0.3
				c0.4,0.5,0.7,1.2,1.1,2.1h3.4v0.9h-1.8l0.7,0.5c-0.3,1.1-0.7,2.2-1.2,3.2h2.6V198.4z M148.6,206.2h-0.9v-1.2h-4.9v1.2h-0.9v-6.1
				h6.7V206.2z M147.7,204.2V201h-4.9v3.2H147.7z M147.4,193.9H143c0.5,1.3,0.9,2.5,1.1,3.7h2C146.7,196.5,147.1,195.3,147.4,193.9z
				 M154,197.8c1.2,1.4,1.8,2.9,1.8,4.4c0,0.8-0.2,1.3-0.5,1.6c-0.4,0.3-1.1,0.5-2.1,0.5c-0.2,0-0.4,0-0.6,0l-0.2-0.9
				c0.3,0,0.6,0.1,1,0.1c0.5,0,0.8,0,1-0.1c0.2-0.1,0.3-0.2,0.4-0.4c0.1-0.2,0.2-0.5,0.2-0.9c0-1.3-0.6-2.6-1.8-4.1
				c0.6-1.7,1.1-3.5,1.6-5.4h-3.3v13.7h-0.8v-14.6h5v0.9C155.1,194.4,154.6,196.1,154,197.8z"/>
			<path class="st1" d="M166.2,198.4h-5.1v7.9h-1v-14.7h6V198.4z M165.3,194.5v-2h-4.2v2H165.3z M165.3,197.5v-2.1h-4.2v2.1H165.3z
				 M173.9,204.9c0,0.4-0.1,0.7-0.3,1c-0.2,0.2-0.4,0.4-0.6,0.4c-0.2,0.1-0.7,0.1-1.4,0.1c-0.3,0-0.8,0-1.3,0l-0.4-1
				c0.4,0,0.9,0.1,1.4,0.1c0.8,0,1.2,0,1.4-0.1c0.1-0.1,0.2-0.2,0.2-0.4v-6.5h-5.1v-6.8h6V204.9z M173,194.5v-2h-4.2v2H173z
				 M173,197.5v-2.1h-4.2v2.1H173z"/>
			<path class="st1" d="M193.4,203.1h-3.7v1.7c0,1-0.5,1.5-1.6,1.5c-0.4,0-1,0-1.6,0l-0.4-0.9c0.4,0,0.8,0,1.4,0
				c0.7,0,1.1,0,1.2-0.1c0.1-0.1,0.2-0.2,0.2-0.3v-1.8h-10.5v-0.8h10.5v-0.9h0.9v0.9h3.7V203.1z M193.1,193h-6.8v1.2h5.5v4.7h-0.9
				c0.8,0.7,1.5,1.5,2.1,2.3l-0.7,0.5c-0.3-0.5-0.6-0.8-0.8-1c-4.7,0.4-8.9,0.5-12.6,0.6l-0.2-0.8c2.1,0,4.4,0,6.8-0.1v-1.4h-5.5
				v-4.7h5.5V193h-6.9v-0.8h6.9v-1.1h0.9v1.1h6.8V193z M185.4,196.1v-1.2h-4.6v1.2H185.4z M185.4,198.1v-1.2h-4.6v1.2H185.4z
				 M184.2,205.1l-0.6,0.7c-0.8-0.7-1.7-1.3-2.6-1.7l0.6-0.7C182.5,203.8,183.3,204.4,184.2,205.1z M190.9,196.1v-1.2h-4.6v1.2
				H190.9z M190.9,198.1v-1.2h-4.6v1.2H190.9z M190.7,199.9c-0.3-0.3-0.5-0.5-0.6-0.6l0.6-0.4h-4.3v1.4
				C188.1,200.2,189.6,200.1,190.7,199.9z"/>
			<path class="st1" d="M212.1,201.9H205v4.4h-0.9v-4.4h-7.2V201h7.2v-1.4h-6.4v-0.8h6.4v-1.4h-6.8v-0.8h4.5c-0.3-0.5-0.6-1-1-1.4
				l0.7-0.4h-4.6v-0.9h5.7v-2.8h0.9v2.8h2v-2.8h0.9v2.8h5.6v0.9h-4.5l0.6,0.4c-0.2,0.4-0.5,0.9-0.9,1.3h4.4v0.8H205v1.4h6.2v0.8H205
				v1.4h7.1V201.9z M202.5,203.2c-1.3,1-2.9,1.9-5,2.7l-0.6-0.8c2.2-0.8,3.8-1.6,4.9-2.5L202.5,203.2z M200.9,193.1l-0.8,0.5
				c-0.4-0.6-1-1.1-1.7-1.8l0.8-0.5C199.9,191.9,200.4,192.5,200.9,193.1z M207.3,194.8h-5.5c0.5,0.7,0.9,1.3,1.1,1.8h3.3
				C206.7,195.9,207.1,195.3,207.3,194.8z M212.1,205.3l-0.5,0.7c-1.8-1.2-3.5-2.1-5.1-2.8l0.5-0.7
				C209,203.5,210.6,204.4,212.1,205.3z M210.7,191.7c-0.5,0.7-1.1,1.3-1.8,1.8l-0.8-0.5c0.8-0.7,1.4-1.2,1.7-1.8L210.7,191.7z"/>
			<path class="st1" d="M220.8,203.8c-1.4,0.8-2.9,1.5-4.6,2l-0.6-0.7c1.8-0.5,3.3-1.2,4.5-1.9L220.8,203.8z M223.7,193.2h-3v0.5
				c1.3,0.7,2.3,1.2,2.9,1.7l-0.5,0.7c-0.8-0.6-1.6-1.2-2.4-1.5v2.8h-0.9v-3.3c-1,1.3-2.2,2.3-3.4,3.1l-0.5-0.7
				c1.6-0.9,2.8-2.1,3.7-3.4h-3.4v-0.8h3.7v-1.3h0.9v1.3h3V193.2z M230.2,202.8l-0.7,0.6c-0.3-0.4-0.6-0.8-1.1-1.3
				c-1.9,0.2-3.5,0.3-4.7,0.4v2.6c0,0.4-0.1,0.7-0.3,0.9c-0.2,0.2-0.7,0.4-1.4,0.4c-0.3,0-0.7,0-1,0l-0.4-0.9c0.8,0,1.4,0,1.6,0
				c0.4,0,0.6-0.1,0.6-0.4v-2.5l-5.9,0.2l-0.2-0.8c2.6-0.7,4.6-1.4,5.9-2c-1.7,0.1-3.2,0.2-4.5,0.2l-0.1-0.8c2.4-1,4.1-1.8,5.1-2.4
				l0.8,0.6c-1.7,0.9-3.1,1.5-4.2,1.8c1.5-0.1,2.7-0.1,3.6-0.2c0.9-0.1,1.4-0.1,1.6-0.2c0.1,0,0.7-0.3,1.6-0.8l0.7,0.6
				c-2.2,1.2-4.9,2.3-8.2,3.2c2.7-0.2,5.5-0.4,8.5-0.6c-0.3-0.3-0.7-0.7-1.2-1.2l0.6-0.5C228.2,200.4,229.2,201.5,230.2,202.8z
				 M230.7,194.2c-0.1,1.2-0.3,2-0.5,2.3c-0.2,0.3-0.5,0.5-0.8,0.6c-0.3,0.1-1.1,0.2-2.3,0.2c-0.9,0-1.6-0.1-1.9-0.3
				c-0.3-0.2-0.5-0.5-0.5-1.1v-4.9h0.9v5c0,0.2,0.1,0.3,0.2,0.4c0.1,0.1,0.7,0.1,1.6,0.1c1,0,1.6,0,1.7-0.1c0.2-0.1,0.3-0.4,0.4-0.8
				c0.1-0.5,0.2-1,0.2-1.6L230.7,194.2z M230.7,205.3l-0.6,0.7c-1.3-0.7-2.9-1.4-4.8-2.1l0.6-0.7
				C227.9,203.8,229.5,204.6,230.7,205.3z"/>
			<path class="st1" d="M240.2,198.8l-0.7,0.7c-0.4-0.8-0.9-1.7-1.4-2.4v9.2h-0.9v-8.5c-0.7,1.5-1.4,2.8-2.3,3.9l-0.6-0.8
				c1.4-1.9,2.4-3.7,2.9-5.4h-2.4v-0.9h2.4V191h0.9v3.6h2.1v0.9H238v0.1C238.8,196.6,239.6,197.6,240.2,198.8z M248.3,198.3h-6.3
				v6.8c0.8-0.2,1.8-0.6,3.1-1.1l0.2,0.9c-1.5,0.6-2.8,1.1-4,1.5l-0.4-0.9c0.2-0.1,0.3-0.3,0.3-0.6v-13.4h7.3V198.3z M247.3,194.4
				v-2h-5.4v2H247.3z M247.3,197.4v-2.1h-5.4v2.1H247.3z M249.5,205.8l-0.7,0.7c-2.6-1.9-4.1-4.3-4.6-6.9l0.8-0.2
				c0.2,1,0.5,1.7,0.8,2.2c0.9-0.6,1.8-1.3,2.6-2.3l0.8,0.5c-0.8,1-1.8,1.8-3,2.6C247,203.5,248.1,204.7,249.5,205.8z"/>
		</g>
	</g>
	<path class="st1" d="M224,104.9h-58.5c-3.8,0-6.9-3.1-6.9-6.9V85.2c0-3.8,3.1-6.9,6.9-6.9H224c3.8,0,6.9,3.1,6.9,6.9V98
		C230.9,101.8,227.9,104.9,224,104.9z"/>
	<g>
		<g>
			<path class="st0" d="M172.8,89.6c1,1.4,1.4,2.8,1.4,4c0,0.7-0.2,1.3-0.5,1.7c-0.3,0.4-0.9,0.6-1.8,0.6c-0.2,0-0.4,0-0.6,0
				l-0.4-1.5c0.4,0,0.8,0,1.1,0c0.4,0,0.6-0.2,0.6-0.7c0-1.4-0.5-2.8-1.5-3.9c0.4-1,0.8-2.2,1.2-3.7h-1.8v13.5h-1.5V84.6h4.9v1.4
				C173.7,87.2,173.3,88.3,172.8,89.6z M178.5,90.2c-1.1,0.5-2.3,0.9-3.6,1.2l-0.4-1.2c0.1-0.2,0.1-0.4,0.1-0.6v-5.2h1.5v1.8h2.4
				v1.4h-2.4v2.1c0.7-0.2,1.5-0.5,2.4-0.8L178.5,90.2z M183.2,99.5h-1.5v-0.8h-5.2v0.8h-1.5v-7.2h2.4c0.2-0.4,0.3-0.8,0.5-1.4
				l1.4,0.4c-0.1,0.3-0.2,0.7-0.4,1h4.4V99.5z M181.7,94.8v-1.2h-5.2v1.2H181.7z M181.7,97.4v-1.3h-5.2v1.3H181.7z M184.1,88.7
				c0,0.8-0.1,1.4-0.4,1.8c-0.2,0.4-0.5,0.6-0.8,0.6c-0.3,0.1-1.1,0.1-2.4,0.1c-1,0-1.5-0.5-1.5-1.4v-5.3h1.5v1.8h2.8v1.4h-2.8v2
				c0,0.2,0.1,0.3,0.3,0.3c0.8,0,1.3,0,1.6-0.1c0.2-0.1,0.3-0.6,0.3-1.5L184.1,88.7z"/>
			<path class="st0" d="M194.5,85.6c-1.3,0.4-2.8,0.8-4.5,1V88h3.6l0,1.4H190v1.8h3.6v1.4H190v2.3c1.2-0.3,2.7-0.6,4.3-1.1l0.1,1.4
				c-1.7,0.5-3.1,0.9-4.4,1.1v3.2h-1.5v-2.9l-0.7,0.1l-0.3-1.4l1-0.1v-9.8c1.9-0.2,3.6-0.6,5.3-1.2L194.5,85.6z M203,98.3l-0.9,1.3
				c-1.4-0.6-2.6-1.3-3.7-2.1c-1,0.8-2.3,1.5-4,2l-0.8-1.4c1.5-0.4,2.7-1,3.7-1.7c-0.8-1-1.5-2.2-2.1-3.5h-0.6v-1.5h7v1.5
				c-0.5,1.2-1.2,2.4-2.2,3.4C200.4,97.2,201.5,97.8,203,98.3z M202.7,90.6h-2.1c-0.3,0-0.6-0.1-0.8-0.4c-0.2-0.2-0.3-0.5-0.3-0.8
				v-3.2h-2.3c0,2.3-0.6,3.9-1.9,4.8l-1.4-1c1.2-0.6,1.7-1.9,1.7-3.8v-1.5h5.4v4.1c0,0.1,0,0.1,0.1,0.2c0.1,0.1,0.1,0.1,0.2,0.1h1.4
				V90.6z M200,93.1h-3.2c0.4,1,0.9,1.8,1.6,2.4C199,94.8,199.5,94,200,93.1z"/>
			<path class="st0" d="M221.4,98.9h-15.1v-1.5h15.1V98.9z M220.2,86.5h-12.8V85h12.8V86.5z"/>
			<path class="st1" d="M192.7,150.9h-18.2v-3.7l8.5-8.3c1.9-1.9,3.3-3.4,4.2-4.8c0.9-1.3,1.3-2.8,1.3-4.4c0-3.2-1.7-4.9-5.1-4.9
				c-2.6,0-5,1.1-7.4,3.2v-4.3c2.4-1.7,5.1-2.6,8.2-2.6c2.7,0,4.8,0.7,6.4,2.1c1.6,1.4,2.4,3.4,2.4,5.9c0,1.8-0.5,3.6-1.5,5.3
				c-1,1.8-2.8,3.9-5.3,6.3l-6.5,6.2v0.1h13V150.9z"/>
			<path class="st1" d="M216.5,147.9h-6.6v4h-1.8v-4h-8.4v-1.7h2.6v-4.9h5.9v-2.8h-4.4c-1.1,1.3-2.1,2.4-3,3.2l-1.2-1.3
				c1.8-1.6,3.3-3.4,4.5-5.6l1.8,0.3c-0.2,0.5-0.5,1-0.8,1.6h10.9v1.7h-5.9v2.8h5.5v1.7h-5.5v3.3h6.6V147.9z M208.1,146.2v-3.3H204
				v3.3H208.1z"/>
		</g>
	</g>
</g>
</svg>
