<svg xmlns="http://www.w3.org/2000/svg" viewBox="0 0 389.35 340.48"><defs><style>.cls-1{fill:#ea6011}.cls-2{fill:#fff}</style></defs><g id="圖層_2" data-name="圖層 2"><g id="圖層_1-2" data-name="圖層 1"><path class="cls-1" d="M174.35 77.08v-1.81c0-1 0-1 1-1.41-.61-.59-1.21-1.15-1.79-1.73a3 3 0 0 1 0-4.44c.38-.4.78-.79 1.17-1.17a3 3 0 0 1 4.57 0q3.83 3.8 7.61 7.61a1.56 1.56 0 0 0 1.18.53c1.41 0 2.82.12 4.23.22a3.53 3.53 0 0 1 2.39 1.22 3.77 3.77 0 0 1 2.44-1.23l1.77-.1L214 74c.69 0 1 .24 1 .92v2h2.66c1.61-.1 1.76 0 1.76 1.61v30.34c0 1.14-.14 1.31-1.25 1.37l-11.72.55-8.52.41a4 4 0 0 1-3.24-1.38 3.8 3.8 0 0 1-2.5 1.34 7.23 7.23 0 0 1-1.14 0L180 110.7l-9.15-.44a.83.83 0 0 1-.86-.88V78.24c0-1.14.24-1.36 1.4-1.3Zm24 8.3c.41.66.85 1.25 1.17 1.9a.62.62 0 0 0 .71.43c2.94-.17 5.87-.32 8.81-.47h1.77a.73.73 0 0 1 .78.75.74.74 0 0 1-.65.81 3.62 3.62 0 0 1-.46.06l-5.2.25-5 .27.55 1.54c.3.85.31.85 1.23.81l8.46-.44c.65 0 1.05.28 1.06.77s-.38.8-1 .83l-5.08.25-3.73.22c0 .12.06.2.08.27a.89.89 0 0 1-.12 1.1c-.35.34-.73.23-1.12.08l-2.25-.83-2.85-1v13.2h2.09l15-.78c.75 0 .75 0 .75-.76V75.78h-1.19l-14.86.77a1.89 1.89 0 0 0-1.86 1.93v4a.77.77 0 0 0 .12.48c.52.56 1.07 1.1 1.65 1.68a1 1 0 0 1 1-.73c1.81-.08 3.62-.19 5.43-.29l7-.36a.86.86 0 0 1 1 .75.83.83 0 0 1-.87.85l-6.29.33ZM189 87.71l.07-.15c-.71-.7-1.4-1.4-2.13-2.07a1.3 1.3 0 0 0-.73-.34c-2.49-.15-5-.28-7.48-.42-.61 0-1-.38-.94-.85a.86.86 0 0 1 1-.76l2.8.16 3.32.16c-.83-.82-1.53-1.55-2.27-2.23a1.44 1.44 0 0 0-.79-.36c-1-.08-2.09-.1-3.14-.15-.59 0-1-.38-.94-.86s.41-.75 1-.75h1.81c-1-1-2-1.89-2.87-2.89a1.66 1.66 0 0 0-1.69-.49v28.95c0 .45.1.64.59.66 1.73.05 3.47.14 5.2.23l7.66.41 4.41.22a.69.69 0 0 0 .06-.18V92.6a.5.5 0 0 0-.12-.34c-.89-.89-1.79-1.76-2.71-2.63a.88.88 0 0 0-.49-.22c-2.28-.13-4.57-.24-6.86-.36l-4.86-.24a2.66 2.66 0 0 1-.28 0c-.53-.09-.85-.43-.81-.86a.79.79 0 0 1 .93-.73l6.46.32Zm4.86 20.12c-.2 0-.35-.06-.5-.07l-12.06-.61-6.05-.33a.77.77 0 0 1-.84-.81V79.5a2.17 2.17 0 0 0 0-.51c0-.12-.16-.3-.24-.3h-2.52v30l.87.06c1.24 0 2.48.09 3.72.15l15.44.74a2.08 2.08 0 0 0 2.13-1.81Zm1.75 0a2.09 2.09 0 0 0 2.29 1.84l3.48-.19 13.67-.61 2.76-.15v-30a1.3 1.3 0 0 0-.14-.05l-1.72.05c-1 0-.89-.07-.89.89v26.45a.79.79 0 0 1-.83.83c-1.18.07-2.36.15-3.54.21l-12.29.61ZM197.32 87 180.7 70.4l-1 .91L196.38 88Zm-2.27 2.28q-8.34-8.35-16.66-16.66l-1 1 16.7 16.69ZM179.53 69c-.51-.49-1-1-1.57-1.53a1.38 1.38 0 0 0-2 0c-.49.45-1 .92-1.42 1.41a1.37 1.37 0 0 0 0 2c.5.55 1 1.07 1.52 1.57Zm9.84 7.29 4.5 4.52v-2.57a1.8 1.8 0 0 0-1.51-1.76c-1.03-.1-2.07-.1-2.99-.16Zm10.47 16.44c-.54-1.49-1.05-2.86-1.54-4.2l-2.65 2.66Z"/><path class="cls-1" d="M198.33 97.53c-.66 0-1.05-.2-1.07-.76s.32-.81 1.21-.86l12-.64c.64 0 1.05.23 1.11.73s-.32.84-1 .87l-10.33.55ZM204.53 99.63l6.06-.29c.63 0 1 .25 1 .74s-.33.83-.94.86l-4.4.24-7.89.37c-.25 0-.58 0-.71-.1a1.37 1.37 0 0 1-.37-.86c0-.45.41-.6.82-.63.9-.06 1.79-.09 2.69-.13l3.71-.19ZM204.42 81l-6.11.31c-.62 0-1-.22-1.05-.71s.26-.84.88-.88c1.73-.12 3.46-.2 5.2-.29l7.13-.35c.74 0 1.15.26 1.15.78s-.4.79-1.1.82l-6.1.31ZM179.11 91.25l11.66.59h.57a.76.76 0 0 1 .75.84.79.79 0 0 1-.91.75c-.74 0-1.48-.07-2.23-.1L181 93l-2.29-.11c-.6 0-1-.33-1-.81s.39-.8 1-.8h.34ZM190.81 97.52l-12.1-.65c-.65 0-1-.38-1-.87s.46-.77 1.1-.73l12.15.65c.78 0 1.13.3 1.1.85s-.4.78-1.17.76h-.11ZM188.36 99.82c.93.05 1.86.08 2.8.14.61 0 1 .36.94.85s-.38.77-1 .75l-3.42-.15a1.78 1.78 0 0 1-.45-.08.72.72 0 0 1-.56-.86.7.7 0 0 1 .73-.67h1ZM319.36 232.89v25.87h-34.68c0 .44-.1.85-.1 1.26v19.73a3.23 3.23 0 0 1-3.39 3.3 3.11 3.11 0 0 1-2.18-1 9.56 9.56 0 0 1-1.7.89 3.2 3.2 0 0 1-4.06-3.09v-11.31a11.48 11.48 0 0 1-1.46-.13 3.18 3.18 0 0 1-2.59-3.17v-5.61a8.9 8.9 0 0 1 5.81-8.39l.34-.14c-2.21-2.16-2.82-4.62-1.28-7.36 1.25-2.23 3.41-3 6.44-2.59v-8.25Zm-36.31 17.77a3.59 3.59 0 0 0 2.1-.51c1.65-1 3.28-2 4.91-3a.6.6 0 0 0 .22-.43c0-.7 0-1.41.06-2.11a9.7 9.7 0 1 1 5.84 10.18 10.1 10.1 0 0 1-3.45-2.47l-6.65 4.34-.52.35.14.12h32v-22.6h-35.6v6.84a1.12 1.12 0 0 0 .44 1 5.45 5.45 0 0 1 1.61 6.26 18.13 18.13 0 0 1-1.1 2.03Zm-8.19 7.34v21.44a4.34 4.34 0 0 0 0 .51 1.57 1.57 0 0 0 1.07 1.41 1.61 1.61 0 0 0 2.16-1.65v-14.4h1.62v14.66a1.65 1.65 0 0 0 1.29 1.43 1.53 1.53 0 0 0 1.68-.73 2.51 2.51 0 0 0 .26-1.11v-19.33a6 6 0 0 1 3-5.44c3.38-2.15 6.73-4.35 10.1-6.52a1.32 1.32 0 0 0 .72-1.13 1.19 1.19 0 0 0-.55-1.17 1.14 1.14 0 0 0-1.28.11c-2.79 1.73-5.6 3.43-8.38 5.17a6.34 6.34 0 0 1-3.73 1h-2c0 .37.05.68.07 1 .15 1.79.31 3.59.45 5.39a.76.76 0 0 1-.1.51c-.75.79-1.53 1.56-2.33 2.36-.73-.73-1.4-1.44-2.11-2.11a1 1 0 0 1-.32-.84c.13-1.4.25-2.79.37-4.18l.15-2a7.27 7.27 0 0 0-6.18 7c0 1.83.05 3.68 0 5.51a1.81 1.81 0 0 0 2.47 1.89V258Zm30.18-5.9-.4-.42c-1.73-1.73-3.46-3.45-5.17-5.19a1.15 1.15 0 0 1-.31-.74v-7.92a7.92 7.92 0 0 0-7.21 8.19l2.15-1.32a2.64 2.64 0 0 1 3.13 0 2.82 2.82 0 0 1 1.07 3 2.66 2.66 0 0 1-1.27 1.87l-2.87 1.86a8 8 0 0 0 10.84.64ZM283 246.61a4 4 0 1 0-4.05 4.06 4.06 4.06 0 0 0 4.05-4.06Zm17.79-1.61H308a7.93 7.93 0 0 0-7.16-7.17Zm5.48 5.89a7.8 7.8 0 0 0 1.71-4.21h-5.92c1.4 1.37 2.79 2.76 4.21 4.19Zm-27.36 8.32c.74-.65.75-.65.7-1.53 0-.44-.06-.88-.1-1.31-.11-1.34-.23-2.68-.34-4h-.53c-.15 1.8-.25 3.58-.47 5.35a1.47 1.47 0 0 0 .74 1.47Z"/><path class="cls-1" d="M297.56 270.72a9.15 9.15 0 0 1 4.82 4.57 9.18 9.18 0 0 1 4.85-4.57 5.69 5.69 0 0 1-2.4-5.07 5.37 5.37 0 0 1 1.76-3.7 5.66 5.66 0 0 1 7.86.05 5.74 5.74 0 0 1-.57 8.66 27.91 27.91 0 0 1 2.42 1.65 8.53 8.53 0 0 1 3.08 6.46c.05 1.41 0 2.82 0 4.26h-33.93s-.05 0-.05-.07c0-2-.25-4 .23-6a8.78 8.78 0 0 1 4.9-6l.45-.21a5.74 5.74 0 0 1-.62-8.76 5.68 5.68 0 1 1 7.2 8.75Zm3.92 10.7a25.18 25.18 0 0 0 0-3.48 6.86 6.86 0 0 0-4.7-5.76 6.93 6.93 0 0 0-7.27 1.37c-2.45 2.09-2.7 4.89-2.43 7.85h2.38V275h1.63v6.42h6.47V275h1.63v6.42Zm16.29 0v-2.56a7.26 7.26 0 0 0-9.2-6.87c-4.72 1.42-5.79 5.35-5.3 9.41h2.36V275h1.63v6.4h6.49V275h1.61v6.44ZM294.3 270.1a4 4 0 1 0-4.06-4.05 4.05 4.05 0 0 0 4.06 4.05Zm20.23-4.1a4 4 0 1 0-4 4.06 4.07 4.07 0 0 0 4-4.06ZM290.24 241c-1.48 0-2.89.05-4.3 0a2.4 2.4 0 0 1-2.18-2.52 2.45 2.45 0 0 1 2.36-2.31h1.77a2.41 2.41 0 0 1 2.34 2.21c.04.79.01 1.62.01 2.62Zm-1.62-1.62v-.83a.75.75 0 0 0-.73-.77 14.76 14.76 0 0 0-1.76 0 .76.76 0 0 0-.73.81.75.75 0 0 0 .72.78c.81-.02 1.63-.04 2.5-.04ZM309.67 250.68c1.5 0 2.95-.07 4.38 0a2.38 2.38 0 0 1 2.1 2.59 2.46 2.46 0 0 1-2.39 2.23h-1.67a2.43 2.43 0 0 1-2.42-2.41c-.01-.76 0-1.55 0-2.41Zm1.62 1.61v.82a.77.77 0 0 0 .76.79h1.72a.8.8 0 0 0 0-1.6c-.77-.02-1.61-.01-2.48-.01ZM316.11 237.7h-4.79v-1.58h4.79ZM311.32 239.36h4.79v1.56h-4.79ZM311.31 244.16v-1.56h4.82v1.56ZM311.31 247.4v-1.56h4.8v1.56ZM118.93 249.31H83v2.17c.55.13 1.13.22 1.68.38a8.46 8.46 0 0 1 6.16 8.29 1.59 1.59 0 0 1 0 .38 1.65 1.65 0 0 0 .44 1.66c1 1.16.66 3.17-.63 4.43a1.5 1.5 0 0 1-.41.35c-.75.29-1 .94-1.27 1.6a21.52 21.52 0 0 1-1.45 2.43c-.35.57-.33.81.25 1.14 2.15 1.24 4.3 2.51 6.47 3.73a3.51 3.51 0 0 1 1.93 3.38v4.24a2.43 2.43 0 0 1 0 .6.75.75 0 0 1-1.47-.1V279a1.84 1.84 0 0 0-1-1.71c-1.32-.76-2.62-1.55-4.08-2.41l-3.07 3.21c-.46.47-.94.93-1.42 1.38a.78.78 0 0 1-1.28 0c-.53-.53-1.05-1.08-1.66-1.71-.51.55-1 1.06-1.46 1.56-.64.66-.94.67-1.59 0-1.42-1.48-2.83-3-4.24-4.48-1.62 1-3 1.79-4.44 2.66a1.69 1.69 0 0 0-.7 1.58v5c0 .13-.47.54-.71.54s-.52-.3-.72-.53 0-.35-.06-.53v-4.4a3.41 3.41 0 0 1 1.73-3.25c2.2-1.25 4.38-2.53 6.57-3.79.54-.31.56-.56.25-1.1-.6-1.06-1.14-2.16-1.73-3.23a1.29 1.29 0 0 0-.5-.51 3.81 3.81 0 0 1-2-4 6.76 6.76 0 0 1 .75-1.43 1.26 1.26 0 0 0 .22-.65 8.48 8.48 0 0 1 6.72-9.49l1-.18v-2.26h-1.56a2.53 2.53 0 0 1-.78-4.86 3 3 0 0 1 1.06-.22h41.8a2.53 2.53 0 0 1 2.59 2.51 2.5 2.5 0 0 1-2.46 2.58h-1.46v22.81c0 1.1-.18 1.28-1.27 1.28h-17.5v3.14c1.49.78 2.06 1.82 1.72 3.16a2.57 2.57 0 0 1-2.53 2 2.62 2.62 0 0 1-2.53-1.91 2.7 2.7 0 0 1 1.73-3.23v-3.13h-8.16c-.19 0-.42.06-.54 0s-.6-.42-.65-.68.25-.56.48-.75.45-.09.69-.09h27ZM88.37 263.7A27.34 27.34 0 0 0 88 261a1.7 1.7 0 0 0-2.44-1.44 8.3 8.3 0 0 1-6.87-.86c-1.5-.84-2-.67-2.3 1a28 28 0 0 0-.35 4.48 9.46 9.46 0 0 0 2.36 6.35c2.15 2.53 4.91 2.66 7.22.28a10.05 10.05 0 0 0 2.75-7.11Zm12.55-16H122a1 1 0 0 0 .89-.95 1 1 0 0 0-.87-1 5 5 0 0 0-.55 0H80.4a4 4 0 0 0-.49 0 1 1 0 0 0-.91 1 .94.94 0 0 0 .89 1 4.85 4.85 0 0 0 .66 0Zm-11.7 11.94a7 7 0 0 0-6.29-6.58c-3.36-.26-6.9 1.91-7.37 4.54a2.38 2.38 0 0 1 3.37-.58c.3.15.58.31.87.47a6.44 6.44 0 0 0 5 .62c1.7-.48 3.2-.42 4.42 1.55Zm-4.78 18.27c1.25-1.28 2.47-2.55 3.7-3.82l-1.31-.73-3.45 3.45ZM81 276.78l-3.44-3.44-1.35.77 3.67 3.8Zm19.94 3.29a1.06 1.06 0 1 0-1.08-1.07 1.07 1.07 0 0 0 1.08 1.07Zm-18.82-4.56 1.77-1.73a5.41 5.41 0 0 1-3.51 0Zm-7.81-12h-.18a1.38 1.38 0 0 0 .42 1.37Zm16 .09-.28-.05c-.07.46-.15.91-.22 1.37h.21c.07-.41.17-.86.26-1.31Z"/><path class="cls-1" d="M115.57 267.15h2c.6 0 .89.25.91.72s-.31.8-.89.83H91.26a2.76 2.76 0 0 1-.71-.07.69.69 0 0 1-.54-.83.66.66 0 0 1 .7-.64h2.16v-3.7c0-.72.27-1 1-1h2.75c.72 0 1 .28 1 1v3.65h1.24V258c0-.93.22-1.15 1.13-1.15h2.64c.72 0 1 .25 1 1v9.24h1.26v-5.15c0-.7.25-.94 1-.95h2.76c.71 0 1 .24 1 .95V267.1h1.27v-11c0-.84.24-1.08 1.07-1.08h2.43c1 0 1.23.21 1.23 1.21v10.88Zm-1.59 0v-10.51h-1.56v10.48Zm-12 0v-8.65h-1.55v8.65Zm6-4.54h-1.53v4.53H108Zm-12 4.55V264h-1.49v3.09Z"/><path class="cls-1" d="M94.47 251.82c.1-1 .25-1.29.76-1.31s.72.24.87 1.3a2.05 2.05 0 0 1 1.81 1.64 1.35 1.35 0 0 1-.23 1c-.36.43-1.06.16-1.24-.41-.06-.2-.14-.4-.21-.59h-.18v1.35c0 .12.18.27.31.32a2.34 2.34 0 0 1 1.64 2.31 2.38 2.38 0 0 1-1.57 2.24.86.86 0 0 0-.33.45c-.08.2 0 .49-.16.62a1 1 0 0 1-.73.34 1.22 1.22 0 0 1-.62-.57 1.78 1.78 0 0 1-.07-.68 2.15 2.15 0 0 1-1.85-1.64 1.07 1.07 0 0 1 0-.73c.15-.23.5-.51.7-.47s.53.35.74.6a1.86 1.86 0 0 1 .21.56h.2v-1.53c0-.07-.18-.16-.29-.2a2.14 2.14 0 0 1-1.63-2.2 2.36 2.36 0 0 1 1.58-2.22Zm0 3v-1.27c-.47.55-.47.86-.01 1.29Zm1.63 1.91v1.33a.87.87 0 0 0-.01-1.31ZM376.13 340.48h-4.35v-2h4.93l.1 2Zm-9.33 0h-5v-2h5Zm-10 0h-5v-2h5Zm-10 0h-5v-2h5Zm-10 0h-5v-2h5Zm-10 0h-5v-2h5Zm-10 0h-5v-2h5Zm-10 0h-5v-2h5Zm-10 0h-5v-2h5Zm-10 0h-5v-2h5Zm-10 0h-5v-2h5Zm-10 0h-5v-2h5Zm-10 0h-5v-2h5Zm-10 0h-5v-2h5Zm-10 0h-5v-2h5Zm-10 0h-5v-2h5Zm-10 0h-5v-2h5Zm-10 0h-5v-2h5Zm-10 0h-5v-2h5Zm-10 0h-5v-2h5Zm-10 0h-5v-2h5Zm-10 0h-5v-2h5Zm-10 0h-5v-2h5Zm-10 0h-5v-2h5Zm-10 0h-5v-2h5Zm-10 0h-5v-2h5Zm-10 0h-5v-2h5Zm-10 0h-5v-2h5Zm-10 0h-5v-2h5Zm-10 0h-5v-2h5Zm-10 0H73v-2h5Zm-10 0H63v-2h5Zm-10 0H53v-2h5Zm-10 0h-5v-2h5Zm-10 0h-5v-2h5Zm-10 0h-5v-2h5Zm-10 0h-5v-2h5ZM8 339.41a12.92 12.92 0 0 1-4.37-3.1L5.05 335a11.15 11.15 0 0 0 3.7 2.62Zm374-.28-.88-1.8a11.08 11.08 0 0 0 3.56-2.8l1.53 1.29a13.13 13.13 0 0 1-4.21 3.31ZM.8 331.76a13.14 13.14 0 0 1-.8-4.5v-.8l2 .12v.68a11.09 11.09 0 0 0 .68 3.81Zm388-.63-1.91-.59a11.11 11.11 0 0 0 .5-3.28 10.31 10.31 0 0 0-.07-1.24l2-.22a14.13 14.13 0 0 1 .08 1.46 13.07 13.07 0 0 1-.64 3.87ZM3.23 322.21l-1.78-.91c.1-.21.22-.42.34-.63L4 316.93l1.73 1-2.16 3.74c-.15.18-.25.33-.34.54Zm382.62-.5.87-.49-.89.46-2.47-4.28 1.74-1 2.46 4.27-.84.55ZM8.17 313.62l-1.73-1 2.49-4.31 1.73 1Zm372.7-.53-2.49-4.31 1.74-1 2.49 4.31ZM13.15 305l-1.73-1 2.49-4.31 1.73 1Zm362.74-.53-2.49-4.31 1.74-1 2.49 4.31Zm-357.76-8.1-1.73-1 2.49-4.32 1.73 1Zm352.78-.53-2.49-4.32 1.73-1 2.49 4.32Zm-347.8-8.1-1.73-1 2.49-4.31 1.73 1Zm342.82-.53-2.49-4.31 1.73-1 2.49 4.31Zm-337.84-8.1-1.73-1 2.49-4.31 1.73 1Zm332.91-.53-2.49-4.31 1.73-1 2.49 4.31Zm-327.93-8.09-1.73-1 2.49-4.31 1.73 1ZM356 270l-2.49-4.31 1.73-1 2.46 4.31Zm-317.92-8.1-1.73-1 2.49-4.31 1.73 1Zm312.92-.57-2.5-4.33 1.73-1 2.49 4.31Zm-308-8.09-1.73-1 2.49-4.32 1.73 1Zm303-.53-2.49-4.32 1.73-1 2.49 4.32Zm-298-8.1-1.73-1 2.49-4.31 1.73 1Zm293-.53-2.49-4.31 1.73-1 2.49 4.31ZM53 236l-1.73-1 2.49-4.31 1.73 1Zm283.06-.53-2.49-4.31 1.73-1 2.49 4.31ZM58 227.36l-1.73-1 2.46-4.36 1.73 1Zm273.1-.53-2.49-4.32 1.73-1 2.49 4.32ZM63 218.73l-1.73-1 2.49-4.31 1.73 1Zm263.14-.53-2.49-4.31 1.73-1 2.49 4.31Zm-258.21-8.09-1.73-1 2.49-4.32 1.73 1Zm253.18-.54-2.49-4.31 1.73-1 2.49 4.31Zm-248.2-8.09-1.73-1 2.49-4.31 1.73 1Zm243.22-.48-2.49-4.31 1.73-1 2.49 4.31Zm-238.24-8.1-1.73-1 2.49-4.31 1.73 1Zm233.26-.53-2.49-4.37 1.73-1 2.49 4.31Zm-228.27-8.14-1.74-1 2.49-4.32 1.74 1Zm223.29-.53-2.49-4.32 1.73-1 2.49 4.32Zm-218.31-8.1-1.74-1 2.49-4.31 1.74 1Zm213.33-.53-2.49-4.31 1.73-1 2.49 4.31ZM92.84 167l-1.74-1 2.49-4.31 1.74 1Zm203.37-.53-2.49-4.31 1.73-1 2.49 4.31Zm-198.39-8.12-1.74-1 2.49-4.35 1.74 1Zm193.41-.53-2.49-4.32 1.73-1 2.49 4.32Zm-188.43-8.1-1.74-1 2.49-4.31 1.74 1Zm183.45-.53-2.49-4.31 1.73-1 2.49 4.31Zm-178.47-8.09-1.74-1 2.49-4.32 1.74 1Zm173.49-.54-2.49-4.31 1.73-1 2.49 4.31Zm-168.51-8.09-1.73-1 2.49-4.31 1.73 1Zm163.53-.53-2.49-4.31 1.73-1 2.49 4.31Zm-158.55-8.1-1.73-1 2.49-4.31 1.73 1Zm153.57-.53-2.49-4.31 1.73-1 2.49 4.31Zm-148.59-8.09-1.73-1 2.49-4.32 1.73 1Zm143.61-.53-2.49-4.32 1.73-1 2.49 4.32Zm-138.63-8.1-1.73-1 2.49-4.31 1.73 1Zm133.65-.53-2.49-4.31 1.73-1 2.49 4.31ZM132.68 98 131 97l2.49-4.31 1.73 1Zm123.69-.53-2.5-4.31 1.74-1 2.49 4.31Zm-118.71-8.13-1.73-1 2.49-4.34 1.73 1Zm113.72-.53-2.49-4.32 1.74-1 2.49 4.32Zm-108.74-8.1-1.73-1 2.49-4.31 1.73 1Zm103.76-.53-2.49-4.31 1.74-1 2.49 4.31Zm-98.78-8.09-1.73-1 2.49-4.32 1.73 1Zm93.8-.53-2.49-4.32 1.74-1 2.49 4.32Zm-88.82-8.1-1.73-1 2.49-4.31 1.73 1Zm83.84-.53L234 58.62l1.74-1 2.49 4.31Zm-78.86-8.1-1.73-1 2.49-4.31 1.73 1Zm73.88-.53L229 50l1.73-1 2.5 4.31Zm-68.9-8.09-1.73-1 2.49-4.32 1.73 1Zm63.92-.53L224 41.36l1.73-1 2.49 4.32Zm-58.94-8.1-1.73-1 2.49-4.31 1.73 1Zm54-.53L219 32.74l1.73-1 2.49 4.31Zm-49-8.1-1.73-1 2.49-4.31 1.73 1Zm44-.53L214 24.11l1.73-1 2.49 4.31Zm-39-8.09-1.73-1 2.45-4.33 1.74 1Zm34-.53-2.49-4.32 1.73-1 2.49 4.32Zm-29.06-8.1-1.73-1L185 3.42l.38-.65 1.73 1L185 7.33l-.86-.5.86.5v.06Zm24.08-.53-2.18-3.78a5.6 5.6 0 0 0-.3-.48l1.69-1.09.34.57 2.18 3.78ZM188 4l-1.19-1.61a13 13 0 0 1 4.91-2.27l.44 1.95A10.93 10.93 0 0 0 188 4Zm12.88-.29A10.92 10.92 0 0 0 196.7 2l.36-2a13 13 0 0 1 5 2ZM194.28 337.99l99.68-172.65H94.61l99.67 172.65z"/><path class="cls-2" d="M135.29 130.78c-.18.52-.43 1.12-.74 1.81l-.47 1v12.19h-.94v-10.32a19.43 19.43 0 0 1-1.88 2.76l-.53-.95a24 24 0 0 0 3.68-6.82Zm10.83 7.79H141v5.93h4.66v.88h-10.35v-.88h4.77v-5.93h-5.19v-.91h5.19v-5.81h-4.34V131h9.61v.89H141v5.81h5.1ZM156.38 136.2a7.56 7.56 0 0 1-1.36 4l-.66-.63a7.35 7.35 0 0 0 1-2.51h-1.63v7.64a1.22 1.22 0 0 1-.27.71c-.19.24-.65.37-1.41.37a6.6 6.6 0 0 1-.8-.05l-.51-.94c.74.06 1.32.09 1.73.09a.48.48 0 0 0 .27-.13.34.34 0 0 0 .14-.25v-6.28a20.59 20.59 0 0 1-2.64 5l-.59-.69a20.24 20.24 0 0 0 2.77-5.45h-2.7v-.86h3.84a13.76 13.76 0 0 0-2.67-2.35l.64-.58c.41.29.93.69 1.57 1.22a16 16 0 0 0 1.91-2.63h-4.68V131H156v.86a18.85 18.85 0 0 1-2.23 3.21l.59.66-.53.47Zm7.48 4a24.6 24.6 0 0 1-.28 3.2 5.07 5.07 0 0 1-.46 1.73 2.09 2.09 0 0 1-.59.51 5.72 5.72 0 0 1-2.24.16l-.41-.94h1.16a3.67 3.67 0 0 0 1.13-.1.63.63 0 0 0 .29-.27 4.9 4.9 0 0 0 .24-1.15c.09-.65.17-1.42.24-2.32H160a6.55 6.55 0 0 1-4.32 4.79l-.66-.72a6.32 6.32 0 0 0 2.6-1.58 5.25 5.25 0 0 0 1.49-2.49h-2.77v-.87h3a12.53 12.53 0 0 0 .15-1.74h.88a12.88 12.88 0 0 1-.15 1.71Zm1-2.11-.5.78a12 12 0 0 1-3.75-1.86 13 13 0 0 1-3.34 1.83l-.61-.75a11 11 0 0 0 3.24-1.65 9.3 9.3 0 0 1-1.57-1.93l.77-.44a7 7 0 0 0 1.48 1.81 6.63 6.63 0 0 0 1.84-2.8h-3.72a12.93 12.93 0 0 1-2 2.14l-.67-.62a12.42 12.42 0 0 0 3.27-4.09l.87.33a11 11 0 0 1-.82 1.37h5.28v.87h-1.23a8.24 8.24 0 0 1-2 3.35 11.22 11.22 0 0 0 3.49 1.64ZM183.59 142c-.51 2.61-1.26 3.92-2.22 3.92a1.27 1.27 0 0 1-.68-.22 4.36 4.36 0 0 1-.93-1.07 9.33 9.33 0 0 1-1.07-2.1A14.64 14.64 0 0 1 178 139a70.69 70.69 0 0 1-.33-4.57h-9.1v-.93h9c0-1.29-.06-2.29 0-3h.91v3h5.06v.93h-5c.05 1.21.19 2.83.43 4.87a10.54 10.54 0 0 0 1.25 4.38c.59.88 1 1.32 1.18 1.32s.56-.41.83-1.24a11.16 11.16 0 0 0 .51-2.22Zm-6.44.68c-2.81.71-5.46 1.29-7.93 1.74l-.22-.91c.94-.15 2.13-.36 3.56-.64v-5h-3.08v-.94h7.19v.94h-3.22v4.83c1.36-.29 2.59-.58 3.7-.88Zm5.63-10-.77.52a10.93 10.93 0 0 0-1.95-1.84l.75-.59a9.49 9.49 0 0 1 1.97 1.91ZM202.31 142.63h-3.67v1.7q0 1.47-1.62 1.47h-1.61l-.42-.87h1.37a4.11 4.11 0 0 0 1.19-.09.38.38 0 0 0 .17-.35v-1.85h-10.53v-.81h10.53v-.88h.92v.88h3.67Zm-.23-10.16h-6.84v1.2h5.49v4.73h-.91a13 13 0 0 1 2.13 2.34l-.73.5a7.14 7.14 0 0 0-.84-1q-7 .53-12.61.56l-.23-.81q3.17 0 6.79-.14v-1.45h-5.53v-4.73h5.53v-1.2h-6.91v-.79h6.91v-1.08h.91v1.08h6.84Zm-7.75 3.15v-1.17h-4.63v1.17Zm0 2v-1.23h-4.63v1.23Zm-1.13 7-.58.7a12.48 12.48 0 0 0-2.56-1.72l.58-.68a13 13 0 0 1 2.56 1.69Zm6.64-9v-1.17h-4.6v1.17Zm0 2v-1.23h-4.6v1.23Zm-.2 1.83c-.33-.32-.54-.53-.65-.61l.57-.44h-4.32v1.36c1.82-.09 3.29-.2 4.4-.31ZM221 141.41h-7v4.43h-1v-4.43h-7.15v-.87H213v-1.42h-6.39v-.82H213v-1.36h-6.75v-.85h4.54a7.94 7.94 0 0 0-1-1.36l.66-.41h-4.63v-.88h5.74v-2.81h.89v2.81h2v-2.81h.86v2.81H221v.88h-4.53l.63.43a6 6 0 0 1-.86 1.34h4.4v.85H214v1.36h6.24v.82H214v1.42h7Zm-9.54 1.33a18.87 18.87 0 0 1-5 2.66l-.58-.77a16.63 16.63 0 0 0 4.89-2.49Zm-1.63-10.13-.77.45a11.08 11.08 0 0 0-1.71-1.75l.79-.54a13.94 13.94 0 0 1 1.71 1.84Zm6.38 1.71h-5.51a16.09 16.09 0 0 1 1.15 1.77h3.27a7.55 7.55 0 0 0 1.11-1.77Zm4.8 10.52-.51.72a33.15 33.15 0 0 0-5.08-2.76l.51-.69a30.66 30.66 0 0 1 5.07 2.73Zm-1.41-13.64a8.15 8.15 0 0 1-1.76 1.81l-.79-.45a12.26 12.26 0 0 0 1.74-1.76ZM239.67 142.89h-7.1v1.74a1 1 0 0 1-.32.77 1.1 1.1 0 0 1-.76.28h-2.07l-.29-.86h1a4.78 4.78 0 0 0 1.38-.1.43.43 0 0 0 .19-.42v-1.44h-7.14v-.82h7.14v-.69c1.1-.39 2-.76 2.82-1.13h-7v-.82h8.86v.82a37.3 37.3 0 0 1-3.81 1.67v.15h7.1Zm-.37-2.35h-.9v-2.19h-12.58v2.19H225v-3h.91l-.07-6.27a12.63 12.63 0 0 0 3.25-.84l.4.7a11.65 11.65 0 0 1-2.79.82v1.24h2.81v.8h-2.79v1.34h2.75v.81h-2.72v1.4h10.67v-1.4h-2.76v-.81h2.77v-1.34h-2.79v-.8h2.82v-1.26h-3v-.8h3.89l-.15 6.41h1Zm-4.92-4-.57.56c-.16-.16-.67-.58-1.53-1.27a13.48 13.48 0 0 1-2.11 1.23l-.43-.71a21.14 21.14 0 0 0 1.89-1 5.47 5.47 0 0 0-.74-.56c-.29-.19-.5-.34-.63-.44l.51-.54c.85.58 1.35.94 1.51 1.06a7.13 7.13 0 0 0 1.13-1l.65.45a9.13 9.13 0 0 1-1.14 1.08c.24.16.73.6 1.46 1.16Zm0-3.32-.57.5a12.07 12.07 0 0 0-1.48-1.2 15.18 15.18 0 0 1-2 1.12l-.38-.7a12.71 12.71 0 0 0 1.72-.94 10.15 10.15 0 0 0-1.25-1l.57-.51c.69.51 1.14.84 1.33 1a7.18 7.18 0 0 0 1.21-1.17l.67.35a8.21 8.21 0 0 1-1.26 1.33 12.88 12.88 0 0 1 1.39 1.24ZM248.44 135.38a32.23 32.23 0 0 1-4.59 2.49l-.4-.79a31.47 31.47 0 0 0 4.66-2.5Zm1.7.88c0 1-.39 1.46-1.16 1.46h-1.13l-.3-.85h1.18c.35 0 .53-.16.53-.48v-4.58h-5.66V131h6.54Zm-2.73-2.62-.45.71a10.88 10.88 0 0 0-2.73-1l.47-.78a10.9 10.9 0 0 1 2.71 1.07Zm9.42 12.12h-.91v-.88h-10.11v.88h-.9v-7.11h5a6.48 6.48 0 0 0 .59-1.21l.91.17-.48 1h5.89Zm-.91-4.5v-1.74h-10.11v1.74Zm0 2.73v-1.85h-10.11V144Zm0-8.64a35 35 0 0 1-4.47 1.89l-.3-.8a32.32 32.32 0 0 0 4.54-1.95Zm1.7.86a1.82 1.82 0 0 1-.3 1.17c-.2.24-.67.36-1.4.36h-.8l-.3-.89a7.83 7.83 0 0 0 .81 0 2.08 2.08 0 0 0 .9-.12.41.41 0 0 0 .18-.39v-4.54h-5.51v-.8h6.44Zm-3.08-2.42-.47.71a14.2 14.2 0 0 0-2.36-1.26l.54-.7a12.06 12.06 0 0 1 2.31 1.25ZM49.3 308.14l-.55.82a26.81 26.81 0 0 1-2.81-1.48v.83h-3.86v2.47h6.21v.89h-6.21v4.87h6.57v.89H34.79v-.89h6.39v-4.87h-6.06v-.89h6.06v-2.47h-3.71v-.9a22.76 22.76 0 0 1-2.83 1.46l-.6-.81a16.64 16.64 0 0 0 7.52-5.48l1 .34-.24.29a17.38 17.38 0 0 0 6.98 4.93Zm-10.06 7.29-.85.35a14.44 14.44 0 0 0-1.72-2.89l.82-.38a14.46 14.46 0 0 1 1.75 2.92Zm6.54-8.06a17.81 17.81 0 0 1-4.07-3.46 17.93 17.93 0 0 1-4.13 3.46Zm1.14 5.63a15.2 15.2 0 0 1-2 2.94l-.82-.5a13.07 13.07 0 0 0 2-2.88ZM61.08 303.91H52.8v-.83h8.28Zm-.45 12.65a1.25 1.25 0 0 1-.24.82 1 1 0 0 1-.61.38 6.51 6.51 0 0 1-1.29.08l-.33-.9h.79c.55 0 .82-.19.82-.56v-5.76h-1.48l.71.38a18.27 18.27 0 0 1-.78 2.48h.94v.84h-1.72v3.09h-.85v-3.09H54.9v-.84h.91a20.66 20.66 0 0 0-.81-2.38l.6-.44h-1.38v7.2h-.85v-8.05h7.26Zm-.7-7.87H54v-3.63h5.93Zm-.87-.85v-1.92h-4.19v1.92Zm-.89 2.82h-2.45c.46 1.24.79 2.19 1 2.85h.57a13.77 13.77 0 0 0 .88-2.85Zm9.88 6.8-.79.4c-.11-.43-.27-1-.49-1.65-1.73.56-3.53 1-5.41 1.46l-.28-.8c1.24-.28 2.25-.55 3-.8v-3.78h-2.5v-6.9h2.54v-2.74H65v2.74h2.47v6.9H65v3.54a15.48 15.48 0 0 0 1.53-.43c-.28-.76-.51-1.33-.68-1.7l.78-.33a23.11 23.11 0 0 1 1.42 4.09Zm-3.93-6v-5.21h-1.68v5.21Zm2.46 0v-5.21H65v5.21ZM86.67 314.73H83v1.7c0 1-.54 1.46-1.62 1.46h-1.61l-.42-.87h1.37a4.11 4.11 0 0 0 1.19-.09.38.38 0 0 0 .17-.35v-1.85H71.55v-.81h10.53V313H83v.88h3.67Zm-.23-10.16H79.6v1.2h5.49v4.73h-.91a13 13 0 0 1 2.13 2.34l-.73.5a7.93 7.93 0 0 0-.84-1q-7 .54-12.61.57l-.23-.81q3.16 0 6.79-.14v-1.46h-5.53v-4.73h5.53v-1.2h-6.91v-.8h6.91v-1.07h.91v1.07h6.84Zm-7.75 3.15v-1.17h-4.63v1.17Zm0 2v-1.23h-4.63v1.23Zm-1.13 7-.58.7a13 13 0 0 0-2.56-1.73L75 315a12.58 12.58 0 0 1 2.56 1.71Zm6.64-9v-1.17h-4.6v1.17Zm0 2v-1.23h-4.6v1.23Zm-.2 1.83a7.7 7.7 0 0 0-.65-.61l.57-.44H79.6v1.36c1.82-.09 3.29-.2 4.4-.31ZM105.38 313.51h-7.06v4.43h-.93v-4.43h-7.15v-.87h7.15v-1.42H91v-.82h6.39V309h-6.75v-.85h4.54a7.57 7.57 0 0 0-1-1.36l.66-.41h-4.6v-.88H96v-2.81h.89v2.81h2v-2.81h.86v2.81h5.64v.88h-4.52l.62.43a5.68 5.68 0 0 1-.86 1.34H105v.85h-6.68v1.36h6.24v.82h-6.24v1.42h7.06Zm-9.53 1.32a18.38 18.38 0 0 1-5 2.66l-.58-.76a16.63 16.63 0 0 0 4.89-2.49Zm-1.64-10.12-.77.45a10.67 10.67 0 0 0-1.71-1.75l.79-.55a14 14 0 0 1 1.69 1.85Zm6.38 1.71h-5.51a16.09 16.09 0 0 1 1.15 1.77h3.27a7.55 7.55 0 0 0 1.09-1.77Zm4.8 10.52-.51.72a33.15 33.15 0 0 0-5.08-2.76l.51-.69a30.66 30.66 0 0 1 5.08 2.73ZM104 303.3a8.32 8.32 0 0 1-1.75 1.81l-.8-.45a12.8 12.8 0 0 0 1.74-1.76ZM115.31 305.34h-6.37v-.91h2.86a11.06 11.06 0 0 0-.72-1.55l.82-.41a10.42 10.42 0 0 1 .86 2h2.55Zm-.68 4.88h-5.11v-.85h5.11Zm.05-2.34h-5.14V307h5.14Zm-.13 9.69h-.91v-1.08h-3.13v1.32h-.91V312h5Zm-.91-2v-2.66h-3.13v2.66Zm3.83-4.33c0 3-.61 5.18-1.83 6.61l-.78-.57q1.73-1.89 1.72-6.19v-8.4h.89Zm3 5.15h-.88v-12.66h.88Zm3.17 1.44h-.89V302.7h.89ZM129.46 313.82c-.1.58-.19 1.09-.28 1.52s-.21 1-.38 1.55a3.64 3.64 0 0 1-.37 1l-.84-.32a16.25 16.25 0 0 0 1-4Zm4.12-1.23-.78.28-.21-.94c-1.39.41-2.92.78-4.6 1.1l-.25-.8a19 19 0 0 0 3.26-4.13c-.78.15-1.73.3-2.85.44l-.21-.82a23.26 23.26 0 0 0 3.13-5.1l.8.31a27.68 27.68 0 0 1-2.82 4.63 19.93 19.93 0 0 0 2.51-.41 19.75 19.75 0 0 0 1-1.85l.76.39a25 25 0 0 1-4.21 6.26 29.83 29.83 0 0 0 3.25-.8c-.13-.4-.27-.76-.41-1.1l.76-.28a10.57 10.57 0 0 1 .87 2.82Zm-2 4.62-.82.15a17.82 17.82 0 0 0-.43-3.57l.82-.14a25.44 25.44 0 0 1 .48 3.56Zm2-1.91-.78.25a12.34 12.34 0 0 0-.58-2l.77-.25a11.28 11.28 0 0 1 .59 2Zm9.29 1.41-.59.73a14.9 14.9 0 0 1-3.83-4.78v5.26h-.85v-5.26a17.37 17.37 0 0 1-4 4.77l-.63-.65a14.6 14.6 0 0 0 3.67-4.26h-2.44v-6.09h3.39V305h-4.14v-.87h4.13v-1.43h.85v1.43h4.18v.87h-4.18v1.48h3.45v6.09h-2.6a13.49 13.49 0 0 0 3.59 4.14Zm-5.28-5v-4.4h-2.51v4.4Zm-.6-1.14-.76.26a9.27 9.27 0 0 0-.77-2.26l.77-.28a9.26 9.26 0 0 1 .77 2.25Zm4 1.14v-4.4h-2.56v4.4Zm-.43-3.07a7.76 7.76 0 0 1-.89 2.24l-.69-.36a10.08 10.08 0 0 0 .88-2.26ZM249.88 309.86h-7v5.81a1.33 1.33 0 0 1-.39 1 1.41 1.41 0 0 1-1 .38h-2.25l-.35-.93 2.7.05a.37.37 0 0 0 .3-.16.48.48 0 0 0 .12-.31v-5.79h-7.21v-.93h7.2v-2.26a27 27 0 0 0 4.73-3.52h-10v-.93H248v.93a34.4 34.4 0 0 1-5.12 4v1.76h7ZM259.52 302.12a14.74 14.74 0 0 1-5.53 7.63l-.69-.7a13.41 13.41 0 0 0 5.31-7.24Zm7.9 14.59-.81.47a14.27 14.27 0 0 0-1.08-2.21 59.54 59.54 0 0 1-9.8 1.7l-.26-.88a34.31 34.31 0 0 0 5.08-9l.88.38a39.09 39.09 0 0 1-4.6 8.41 48.19 48.19 0 0 0 8.24-1.48 35.49 35.49 0 0 0-2.12-3.22l.8-.47a32.34 32.34 0 0 1 3.67 6.3Zm1.3-7.8-.58.77a13.81 13.81 0 0 1-5-6.71H262v-1h1.88a12.36 12.36 0 0 0 4.84 6.94ZM286.53 315.72a1.19 1.19 0 0 1-.38 1 4.12 4.12 0 0 1-2 .3c-.48 0-1.1 0-1.86-.07l-.31-1c1 .07 1.77.11 2.34.11a3 3 0 0 0 1.11-.12.49.49 0 0 0 .22-.48V303H272.2v-.89h14.33Zm-2.77-9.5h-11v-.88h11Zm-1.2 7.54h-8.72v-5.28h8.72Zm-.94-.9v-3.48h-6.82v3.48ZM305.28 317.08h-.9v-1.23h-11.83V317h-.9v-14.76h13.63Zm-.9-2V303h-11.83v12Zm-.82-10.08h-4.65v.71h3.95v3.78h-1a13.63 13.63 0 0 1 1.2 1.51l-.65.4a6.18 6.18 0 0 0-.34-.53q-4.07.35-8.53.48l-.19-.76c1.15 0 2.7-.08 4.65-.17v-.93h-3.9v-3.78h3.9V305h-4.6v-.7h4.6v-.66h.88v.66h4.65Zm0 7.81h-2.11v.7a.86.86 0 0 1-.39.78 3.08 3.08 0 0 1-1.48.25 7.57 7.57 0 0 1-.94-.05l-.23-.71h.93a3.51 3.51 0 0 0 1.11-.09.27.27 0 0 0 .14-.25v-.66h-7.19v-.7h7.17v-.73h.86v.73h2.11Zm-5.56-5.62v-.82h-3v.82Zm0 1.54v-.86h-3v.86Zm-.85 5.38-.68.38a6.38 6.38 0 0 0-1.08-1.11l.66-.43a3.24 3.24 0 0 1 1.13 1.16Zm4.8-6.92v-.82h-3.07v.82Zm0 1.54v-.86h-3.07v.86Zm-.49 1.38-.42-.45.31-.22h-2.47v.88ZM314.78 303c0 .05-.15.52-.47 1.42s-.68 1.8-1.08 2.71a6.49 6.49 0 0 1 1.36 3.63 2.26 2.26 0 0 1-.35 1.31 1.71 1.71 0 0 1-.84.67 5.46 5.46 0 0 1-1.5.15l-.4-.9a4.87 4.87 0 0 0 .66 0 1.73 1.73 0 0 0 1.26-.33 1.25 1.25 0 0 0 .3-.88 5 5 0 0 0-.34-1.58 7.11 7.11 0 0 0-1.12-2 30.64 30.64 0 0 0 1.56-4.24h-2.67v14h-.89v-14.82h4.52Zm10 2H321a10.92 10.92 0 0 1-1.64 1.49 8.43 8.43 0 0 1 1.43 3 15.67 15.67 0 0 0 3-3.12l.76.53a18.54 18.54 0 0 1-3.42 3.44 11.92 11.92 0 0 0 3.67 4.56l-.55.65a10.7 10.7 0 0 1-3-3.27v.89a7.36 7.36 0 0 1-.29 2.69 2 2 0 0 1-.83.82 3.35 3.35 0 0 1-1.55.28h-.92l-.4-.93 1.47.05a1.75 1.75 0 0 0 1.25-.39c.27-.26.41-1.09.41-2.49a12.72 12.72 0 0 0-.11-1.78 29.15 29.15 0 0 1-6 4.35l-.59-.72a23.47 23.47 0 0 0 6.45-4.73 7.1 7.1 0 0 0-.45-1.51 21.79 21.79 0 0 1-3.93 2.8l-.58-.7a17.68 17.68 0 0 0 4.1-3 6.67 6.67 0 0 0-.58-1 21.4 21.4 0 0 1-3.69 1.78l-.5-.77a14.78 14.78 0 0 0 5.32-3h-4.68v-.84h9.69Zm-5.93-1.6-.73.48a11.24 11.24 0 0 0-1.56-1.59l.7-.53a7.55 7.55 0 0 1 1.56 1.64Zm4.54-1.22a12.79 12.79 0 0 1-1.78 1.67l-.76-.55a14.28 14.28 0 0 0 1.7-1.54ZM343.4 313.4a7.9 7.9 0 0 1-.43 2.44 1.66 1.66 0 0 1-.77.78 6.92 6.92 0 0 1-2.28.23c-1 0-1.68 0-2-.05a1.09 1.09 0 0 1-.81-.43 1.4 1.4 0 0 1-.27-.83v-4.21h-2.49q-.6 4.5-5.48 5.83l-.68-.81q4.79-1.19 5.2-5h-3.22v-9.09h11.33v9.09h-3.71v4.09a.53.53 0 0 0 .15.37.53.53 0 0 0 .36.15h3.15a.78.78 0 0 0 .76-.64 9.88 9.88 0 0 0 .31-2.28Zm-2.89-8.49v-1.81h-9.43v1.81Zm0 2.72v-1.84h-9.43v1.84Zm0 2.85v-2h-9.43v2ZM352.16 306.62a32.34 32.34 0 0 1-4.6 2.49l-.4-.79a31.5 31.5 0 0 0 4.67-2.5Zm1.7.88c0 1-.39 1.46-1.17 1.46h-1.13l-.29-.85h1.18c.35 0 .52-.16.52-.48v-4.58h-5.65v-.85h6.54Zm-2.73-2.62-.46.71a10.61 10.61 0 0 0-2.73-1l.47-.78a10.82 10.82 0 0 1 2.72 1.07Zm9.41 12.12h-.91v-.88h-10.11v.88h-.9v-7.11h5a6.46 6.46 0 0 0 .58-1.21l.91.17-.47 1h5.88Zm-.91-4.5v-1.74h-10.11v1.74Zm0 2.73v-1.85h-10.11v1.85Zm0-8.65a32.84 32.84 0 0 1-4.47 1.9l-.29-.8a32.83 32.83 0 0 0 4.54-1.95Zm1.71.87a1.82 1.82 0 0 1-.3 1.17c-.2.24-.67.36-1.4.36h-.81l-.29-.89a7.77 7.77 0 0 0 .8 0 2 2 0 0 0 .9-.12.41.41 0 0 0 .19-.39v-4.54h-5.53v-.85h6.44Zm-3.06-2.45-.47.71a14.2 14.2 0 0 0-2.36-1.26l.53-.7a12.18 12.18 0 0 1 2.3 1.25Z"/><rect class="cls-2" x="157.07" y="182.65" width="72.32" height="26.68" rx="6.9"/><path class="cls-1" d="M171.29 194a7.48 7.48 0 0 1 1.43 4 2.6 2.6 0 0 1-.48 1.66 2.13 2.13 0 0 1-1.78.61 5.44 5.44 0 0 1-.57 0l-.41-1.48h1.08c.3 0 .63-.23.63-.68a6 6 0 0 0-1.5-3.94 34.7 34.7 0 0 0 1.22-3.75h-1.76v13.47h-1.52V189h4.88v1.44c-.32 1.12-.73 2.3-1.22 3.56Zm5.67.6a23.37 23.37 0 0 1-3.6 1.19l-.43-1.23a1.28 1.28 0 0 0 .13-.61v-5.18h1.46v1.77h2.36V192h-2.36v2.12a25.29 25.29 0 0 0 2.41-.81Zm4.72 9.32h-1.55v-.82h-5.22v.82h-1.53v-7.22h2.35a8.26 8.26 0 0 0 .47-1.39l1.43.4a3.23 3.23 0 0 1-.39 1h4.44Zm-1.55-4.7V198h-5.22v1.2Zm0 2.58v-1.26h-5.22v1.26Zm2.41-8.78a3.4 3.4 0 0 1-.35 1.81 1.24 1.24 0 0 1-.81.62 18.55 18.55 0 0 1-2.38.08c-1 0-1.5-.48-1.5-1.43v-5.33h1.5v1.77h2.78V192H179v2c0 .19.09.28.27.28a6.89 6.89 0 0 0 1.55-.1c.23-.07.34-.58.34-1.52ZM193 190a23.31 23.31 0 0 1-4.54 1v1.43H192v1.37h-3.56v1.84h3.6V197h-3.6v2.29c1.22-.26 2.65-.64 4.28-1.14l.1 1.45a40.84 40.84 0 0 1-4.38 1.13v3.18h-1.54v-2.85l-.73.09-.26-1.41 1-.14v-9.8a23.06 23.06 0 0 0 5.28-1.16Zm8.4 12.77-.92 1.34a15.24 15.24 0 0 1-3.69-2.07 12.47 12.47 0 0 1-3.95 2l-.85-1.36a11.42 11.42 0 0 0 3.7-1.71 12.45 12.45 0 0 1-2.07-3.49h-.55V196h7v1.5a13.22 13.22 0 0 1-2.16 3.44 10.93 10.93 0 0 0 3.48 1.78Zm-.24-7.72H199a1 1 0 0 1-.82-.37 1.27 1.27 0 0 1-.31-.84v-3.18h-2.32q.06 3.4-1.93 4.82l-1.35-1c1.15-.63 1.73-1.88 1.73-3.75v-1.48h5.41v4.1a.31.31 0 0 0 .12.21.33.33 0 0 0 .21.11h1.4Zm-2.73 2.47h-3.17a7.7 7.7 0 0 0 1.56 2.45 10.1 10.1 0 0 0 1.6-2.5ZM219.83 196.74h-15.14v-1.54h15.14Z"/><path class="cls-2" d="M180.06 230.31a9.82 9.82 0 0 0-4.79-1.21 6.86 6.86 0 0 0-6 3.2 14.33 14.33 0 0 0-2.16 8.26h.09a6.9 6.9 0 0 1 6.5-3.76 7.64 7.64 0 0 1 6 2.5 9.46 9.46 0 0 1 2.23 6.55 9.89 9.89 0 0 1-2.67 7.08 9 9 0 0 1-6.85 2.83 8.36 8.36 0 0 1-7.26-3.58q-2.53-3.59-2.53-9.85 0-7.41 3.28-12.11a10.56 10.56 0 0 1 9.14-4.69 12.33 12.33 0 0 1 5 .83Zm-12.7 15.37a7.51 7.51 0 0 0 1.43 4.63 4.49 4.49 0 0 0 3.74 1.9 4.39 4.39 0 0 0 3.63-1.72 7.75 7.75 0 0 0 .07-8.64 4.61 4.61 0 0 0-3.74-1.54 4.85 4.85 0 0 0-3.66 1.55 5.32 5.32 0 0 0-1.47 3.82ZM192.23 239.62a28.87 28.87 0 0 1-.71 2.81L191 244v12.16h-1.68v-8.77a10.83 10.83 0 0 1-.82 1.17l-1-1.64a21.83 21.83 0 0 0 3-7.79Zm11.86 16.57h-1.68v-.87h-8.22v.87h-1.7v-16.37h11.6Zm-1.68-2.51v-12.25h-8.22v12.25Zm-.59-8.35h-2.72V247h2.07v5.46h-5.71V247h2v-1.69h-2.75v-1.5h2.75v-1.9h1.63v1.9h2.72Zm-2.23 5.67v-2.43h-2.54V251ZM223.86 254.55a1.64 1.64 0 0 1-.41 1.18 1.92 1.92 0 0 1-1.39.47c-.66 0-1.27.05-1.81.05h-1.49l-.6-1.76c1.19.07 2.11.1 2.76.1a3 3 0 0 0 1-.1.46.46 0 0 0 .19-.44v-3.45h-9.71a10.61 10.61 0 0 1-2.8 5.79l-1.26-1.27a8.39 8.39 0 0 0 1.81-2.92 14.87 14.87 0 0 0 .68-5.11v-7.31h13Zm-1.77-10.32v-2.76h-9.5v2.76Zm0 4.65v-3h-9.5v3Z"/></g></g></svg>