<svg xmlns="http://www.w3.org/2000/svg" viewBox="0 0 107.96 35.24"><defs><style>.cls-2{fill:#3e3a39}</style></defs><g id="圖層_2" data-name="圖層 2"><g id="圖層_1-2" data-name="圖層 1"><path d="M90 0a18 18 0 0 1-18 18 18 18 0 0 1 18 17.22A18 18 0 0 1 108 18 18 18 0 0 1 90 0Z" style="fill:#eb6112"/><path class="cls-2" d="M67.15 17.02h1.5v2h-1.5zM64 19h-3.11v-2H64Zm-6.25 0h-3.11v-2h3.13Zm-6.25 0h-3.11v-2h3.13Zm-6.26 0h-3.1v-2h3.12ZM39 19h-3.11v-2H39Zm-6.25 0h-3.12v-2h3.13Zm-6.25 0h-3.12v-2h3.13Zm-6.25 0h-3.12v-2h3.13ZM14 19h-3.12v-2H14Zm-6.25 0H4.63v-2h3.12ZM0 17.02h1.5v2H0z"/></g></g></svg>