<svg width="50" height="50" viewBox="0 0 50 50" fill="none" xmlns="http://www.w3.org/2000/svg">
<g clip-path="url(#clip0_1772_15848)">
<g clip-path="url(#clip1_1772_15848)">
<g clip-path="url(#clip2_1772_15848)">
<path d="M42.673 42.6716C52.4349 32.9097 52.4349 17.0825 42.673 7.32059C32.9111 -2.44133 17.0839 -2.44133 7.32199 7.32059C-2.43992 17.0825 -2.43992 32.9097 7.32199 42.6716C17.0839 52.4335 32.9111 52.4335 42.673 42.6716Z" fill="white"/>
</g>
</g>
<path d="M32.0546 11H17.4453C13.8856 11 11 13.8856 11 17.4453V32.0546C11 35.6142 13.8856 38.4998 17.4453 38.4998H32.0546C35.6142 38.4998 38.4998 35.6142 38.4998 32.0546V17.4453C38.4998 13.8856 35.6142 11 32.0546 11Z" fill="url(#paint0_radial_1772_15848)"/>
<path d="M32.0546 11H17.4453C13.8856 11 11 13.8856 11 17.4453V32.0546C11 35.6142 13.8856 38.4998 17.4453 38.4998H32.0546C35.6142 38.4998 38.4998 35.6142 38.4998 32.0546V17.4453C38.4998 13.8856 35.6142 11 32.0546 11Z" fill="url(#paint1_radial_1772_15848)"/>
<path d="M24.7509 14.0078C21.8336 14.0078 21.4674 14.0206 20.3216 14.0727C19.178 14.1251 18.3974 14.3061 17.7144 14.5718C17.0078 14.8461 16.4085 15.2132 15.8114 15.8104C15.2138 16.4076 14.8468 17.0069 14.5716 17.7132C14.3052 18.3964 14.1239 19.1774 14.0725 20.3204C14.0212 21.4663 14.0078 21.8326 14.0078 24.75C14.0078 27.6675 14.0207 28.0325 14.0727 29.1783C14.1253 30.3219 14.3063 31.1025 14.5718 31.7855C14.8463 32.4921 15.2134 33.0914 15.8107 33.6885C16.4076 34.286 17.0069 34.654 17.713 34.9283C18.3965 35.194 19.1772 35.375 20.3206 35.4274C21.4665 35.4795 21.8324 35.4923 24.7496 35.4923C27.6673 35.4923 28.0323 35.4795 29.1781 35.4274C30.3217 35.375 31.1031 35.194 31.7867 34.9283C32.493 34.654 33.0914 34.286 33.6882 33.6885C34.2858 33.0914 34.6528 32.4921 34.9281 31.7858C35.1921 31.1025 35.3735 30.3217 35.4272 29.1785C35.4786 28.0327 35.4921 27.6675 35.4921 24.75C35.4921 21.8326 35.4786 21.4665 35.4272 20.3206C35.3735 19.177 35.1921 18.3965 34.9281 17.7135C34.6528 17.0069 34.2858 16.4076 33.6882 15.8104C33.0908 15.213 32.4932 14.8459 31.786 14.5719C31.1012 14.3061 30.3202 14.125 29.1765 14.0727C28.0307 14.0206 27.6659 14.0078 24.7476 14.0078H24.7509ZM23.7872 15.9423C23.7872 15.943 23.7878 15.9436 23.7886 15.9436C24.0743 15.9432 24.393 15.9437 24.7509 15.9437C27.6192 15.9437 27.959 15.954 29.0917 16.0054C30.139 16.0533 30.7075 16.2283 31.0862 16.3754C31.5875 16.57 31.9449 16.8028 32.3207 17.1789C32.6966 17.5549 32.9293 17.9129 33.1245 18.4142C33.2716 18.7924 33.4468 19.3608 33.4945 20.4082C33.5459 21.5406 33.5571 21.8807 33.5571 24.7476C33.5571 27.6144 33.5459 27.9546 33.4945 29.087C33.4465 30.1343 33.2716 30.7028 33.1245 31.081C32.9298 31.5824 32.6966 31.9393 32.3207 32.3151C31.9447 32.691 31.5877 32.9237 31.0862 33.1185C30.7079 33.2662 30.139 33.4407 29.0917 33.4887C27.9593 33.5401 27.6192 33.5513 24.7509 33.5513C21.8825 33.5513 21.5426 33.5401 20.4102 33.4887C19.3629 33.4403 18.7944 33.2653 18.4154 33.1183C17.9142 32.9235 17.556 32.6908 17.1801 32.3149C16.8041 31.9389 16.5714 31.5817 16.3762 31.0802C16.2292 30.7019 16.054 30.1335 16.0063 29.0861C15.9548 27.9537 15.9445 27.6136 15.9445 24.7449C15.9445 21.8762 15.9548 21.5379 16.0063 20.4055C16.0542 19.3581 16.2292 18.7897 16.3762 18.411C16.571 17.9097 16.8041 17.5516 17.1802 17.1757C17.5563 16.7997 17.9142 16.5669 18.4155 16.3718C18.7942 16.2241 19.3629 16.0496 20.4102 16.0014C21.401 15.9567 21.785 15.9432 23.7858 15.941C23.7866 15.941 23.7872 15.9416 23.7872 15.9423V15.9423ZM30.485 17.7271C30.485 17.7272 30.4849 17.7273 30.4848 17.7273C29.7733 17.7274 29.196 18.3042 29.196 19.0159C29.196 19.7276 29.7734 20.305 30.485 20.305C31.1967 20.305 31.7741 19.7276 31.7741 19.0159C31.7741 18.3043 31.1968 17.727 30.4853 17.7268C30.4851 17.7268 30.485 17.7269 30.485 17.7271V17.7271ZM24.7509 19.2334C21.7044 19.2334 19.2344 21.7035 19.2344 24.75C19.2344 27.7966 21.7044 30.2655 24.7509 30.2655C27.7975 30.2655 30.2667 27.7966 30.2667 24.75C30.2667 21.7036 27.7973 19.2334 24.7507 19.2334H24.7509ZM24.7509 21.1693C26.7284 21.1693 28.3317 22.7723 28.3317 24.75C28.3317 26.7276 26.7284 28.3308 24.7509 28.3308C22.7734 28.3308 21.1702 26.7276 21.1702 24.75C21.1702 22.7723 22.7733 21.1693 24.7509 21.1693Z" fill="white"/>
</g>
<defs>
<radialGradient id="paint0_radial_1772_15848" cx="0" cy="0" r="1" gradientUnits="userSpaceOnUse" gradientTransform="translate(18.3046 40.6179) rotate(-90) scale(27.2544 25.3487)">
<stop stop-color="#FFDD55"/>
<stop offset="0.1" stop-color="#FFDD55"/>
<stop offset="0.5" stop-color="#FF543E"/>
<stop offset="1" stop-color="#C837AB"/>
</radialGradient>
<radialGradient id="paint1_radial_1772_15848" cx="0" cy="0" r="1" gradientUnits="userSpaceOnUse" gradientTransform="translate(6.39367 12.981) rotate(78.681) scale(12.1829 50.2181)">
<stop stop-color="#3771C8"/>
<stop offset="0.128" stop-color="#3771C8"/>
<stop offset="1" stop-color="#6600FF" stop-opacity="0"/>
</radialGradient>
<clipPath id="clip0_1772_15848">
<rect width="50" height="50" fill="white"/>
</clipPath>
<clipPath id="clip1_1772_15848">
<rect width="50" height="50" fill="white"/>
</clipPath>
<clipPath id="clip2_1772_15848">
<rect width="50" height="50" fill="white"/>
</clipPath>
</defs>
</svg>
